<svg width="88" height="53" viewBox="0 0 88 53" fill="none" xmlns="http://www.w3.org/2000/svg">
<path fill-rule="evenodd" clip-rule="evenodd" d="M42.3014 52.4826C42.7547 52.7676 43.3467 52.9072 43.9387 52.9072C44.526 52.9072 45.118 52.7676 45.5713 52.4826L87.1963 26.3052C88.0982 25.7381 88.0982 24.816 87.1963 24.2489C86.2944 23.6817 84.8283 23.6817 83.9264 24.2489L43.9387 49.3966L3.94628 24.2489C3.04441 23.6817 1.57828 23.6817 0.676406 24.2489C-0.225469 24.816 -0.225469 25.7381 0.676406 26.3052L42.3014 52.4826Z" fill="#3A6DAE"/>
<path fill-rule="evenodd" clip-rule="evenodd" d="M42.3014 29.2138C42.7547 29.4988 43.3467 29.6384 43.9387 29.6384C44.526 29.6384 45.118 29.4988 45.5713 29.2138L87.1963 3.03645C88.0982 2.46927 88.0982 1.54725 87.1963 0.980069C86.2944 0.412894 84.8283 0.412894 83.9264 0.980069L43.9387 26.1278L3.94628 0.980069C3.04441 0.412894 1.57828 0.412894 0.676406 0.980069C-0.225469 1.54725 -0.225469 2.46927 0.676406 3.03645L42.3014 29.2138Z" fill="#3A6DAE"/>
</svg>
