<svg width="88" height="53" viewBox="0 0 88 53" fill="none" xmlns="http://www.w3.org/2000/svg">
<path fill-rule="evenodd" clip-rule="evenodd" d="M42.3014 51.9279C42.7547 52.2129 43.3467 52.3526 43.9387 52.3526C44.526 52.3526 45.118 52.2129 45.5713 51.9279L87.1963 25.7506C88.0982 25.1834 88.0982 24.2614 87.1963 23.6942C86.2944 23.127 84.8283 23.127 83.9264 23.6942L43.9387 48.8419L3.94628 23.6942C3.04441 23.127 1.57828 23.127 0.676406 23.6942C-0.225469 24.2614 -0.225469 25.1834 0.676406 25.7506L42.3014 51.9279Z" fill="#3F3E3D" fill-opacity="0.2"/>
<path fill-rule="evenodd" clip-rule="evenodd" d="M42.3014 28.6591C42.7547 28.9441 43.3467 29.0838 43.9387 29.0838C44.526 29.0838 45.118 28.9441 45.5713 28.6591L87.1963 2.48176C88.0982 1.91458 88.0982 0.992558 87.1963 0.425382C86.2944 -0.141794 84.8283 -0.141794 83.9264 0.425382L43.9387 25.5731L3.94628 0.425382C3.04441 -0.141794 1.57828 -0.141794 0.676406 0.425382C-0.225469 0.992558 -0.225469 1.91458 0.676406 2.48176L42.3014 28.6591Z" fill="#3F3E3D" fill-opacity="0.2"/>
</svg>
