<svg width="88" height="53" viewBox="0 0 88 53" fill="none" xmlns="http://www.w3.org/2000/svg">
<path fill-rule="evenodd" clip-rule="evenodd" d="M42.3014 52.0708C42.7547 52.3559 43.3467 52.4955 43.9387 52.4955C44.526 52.4955 45.118 52.3559 45.5713 52.0708L87.1963 25.8935C88.0982 25.3263 88.0982 24.4043 87.1963 23.8371C86.2944 23.2699 84.8283 23.2699 83.9264 23.8371L43.9387 48.9848L3.94628 23.8371C3.04441 23.2699 1.57828 23.2699 0.676406 23.8371C-0.225469 24.4043 -0.225469 25.3263 0.676406 25.8935L42.3014 52.0708Z" fill="#D07838"/>
<path fill-rule="evenodd" clip-rule="evenodd" d="M42.3014 28.8019C42.7547 29.087 43.3467 29.2266 43.9387 29.2266C44.526 29.2266 45.118 29.087 45.5713 28.8019L87.1963 2.62458C88.0982 2.0574 88.0982 1.13538 87.1963 0.568204C86.2944 0.00102833 84.8283 0.00102833 83.9264 0.568204L43.9387 25.7159L3.94628 0.568204C3.04441 0.00102833 1.57828 0.00102833 0.676406 0.568204C-0.225469 1.13538 -0.225469 2.0574 0.676406 2.62458L42.3014 28.8019Z" fill="#D07838"/>
</svg>
