<svg width="88" height="53" viewBox="0 0 88 53" fill="none" xmlns="http://www.w3.org/2000/svg">
<path fill-rule="evenodd" clip-rule="evenodd" d="M42.3014 52.5734C42.7547 52.8585 43.3467 52.9981 43.9387 52.9981C44.526 52.9981 45.118 52.8585 45.5713 52.5734L87.1963 26.3961C88.0982 25.8289 88.0982 24.9069 87.1963 24.3397C86.2944 23.7725 84.8283 23.7725 83.9264 24.3397L43.9387 49.4874L3.94628 24.3397C3.04441 23.7725 1.57828 23.7725 0.676406 24.3397C-0.225469 24.9069 -0.225469 25.8289 0.676406 26.3961L42.3014 52.5734Z" fill="#2DABA3"/>
<path fill-rule="evenodd" clip-rule="evenodd" d="M42.3014 29.3046C42.7547 29.5896 43.3467 29.7293 43.9387 29.7293C44.526 29.7293 45.118 29.5896 45.5713 29.3046L87.1963 3.12727C88.0982 2.56009 88.0982 1.63807 87.1963 1.07089C86.2944 0.503714 84.8283 0.503714 83.9264 1.07089L43.9387 26.2186L3.94628 1.07089C3.04441 0.503714 1.57828 0.503714 0.676406 1.07089C-0.225469 1.63807 -0.225469 2.56009 0.676406 3.12727L42.3014 29.3046Z" fill="#2DABA3"/>
</svg>
