<svg width="88" height="54" viewBox="0 0 88 54" fill="none" xmlns="http://www.w3.org/2000/svg">
<path fill-rule="evenodd" clip-rule="evenodd" d="M42.3014 52.9086C42.7547 53.1937 43.3467 53.3333 43.9387 53.3333C44.526 53.3333 45.118 53.1937 45.5713 52.9086L87.1963 26.7313C88.0982 26.1641 88.0982 25.2421 87.1963 24.6749C86.2944 24.1077 84.8283 24.1077 83.9264 24.6749L43.9387 49.8226L3.94628 24.6749C3.04441 24.1077 1.57828 24.1077 0.676406 24.6749C-0.225469 25.2421 -0.225469 26.1641 0.676406 26.7313L42.3014 52.9086Z" fill="#D69F27"/>
<path fill-rule="evenodd" clip-rule="evenodd" d="M42.3014 29.6398C42.7547 29.9249 43.3467 30.0645 43.9387 30.0645C44.526 30.0645 45.118 29.9249 45.5713 29.6398L87.1963 3.46247C88.0982 2.8953 88.0982 1.97327 87.1963 1.40609C86.2944 0.838919 84.8283 0.838919 83.9264 1.40609L43.9387 26.5538L3.94628 1.40609C3.04441 0.838919 1.57828 0.838919 0.676406 1.40609C-0.225469 1.97327 -0.225469 2.8953 0.676406 3.46247L42.3014 29.6398Z" fill="#D69F27"/>
</svg>
