<svg width="88" height="53" viewBox="0 0 88 53" fill="none" xmlns="http://www.w3.org/2000/svg">
<path fill-rule="evenodd" clip-rule="evenodd" d="M42.3014 52.3581C42.7547 52.6431 43.3467 52.7827 43.9387 52.7827C44.526 52.7827 45.118 52.6431 45.5713 52.3581L87.1963 26.1807C88.0982 25.6136 88.0982 24.6915 87.1963 24.1244C86.2944 23.5572 84.8283 23.5572 83.9264 24.1244L43.9387 49.2721L3.94628 24.1244C3.04441 23.5572 1.57828 23.5572 0.676406 24.1244C-0.225469 24.6915 -0.225469 25.6136 0.676406 26.1807L42.3014 52.3581Z" fill="#A05DA7"/>
<path fill-rule="evenodd" clip-rule="evenodd" d="M42.3014 29.0893C42.7547 29.3743 43.3467 29.5139 43.9387 29.5139C44.526 29.5139 45.118 29.3743 45.5713 29.0893L87.1963 2.91193C88.0982 2.34476 88.0982 1.42273 87.1963 0.855558C86.2944 0.288382 84.8283 0.288382 83.9264 0.855558L43.9387 26.0033L3.94628 0.855558C3.04441 0.288382 1.57828 0.288382 0.676406 0.855558C-0.225469 1.42273 -0.225469 2.34476 0.676406 2.91193L42.3014 29.0893Z" fill="#A05DA7"/>
</svg>
