<svg width="25" height="25" viewBox="0 0 25 25" fill="none" xmlns="http://www.w3.org/2000/svg">
<path d="M6.13838 7.74687C7.06292 7.74687 7.81241 7.00514 7.81241 6.09017C7.81241 5.1752 7.06292 4.43347 6.13838 4.43347C5.21384 4.43347 4.46436 5.1752 4.46436 6.09017C4.46436 7.00514 5.21384 7.74687 6.13838 7.74687Z" fill="white"/>
<path d="M4.46436 9.95579C4.46436 9.34581 4.96402 8.85132 5.58037 8.85132H6.69639C7.31274 8.85132 7.81241 9.3458 7.81241 9.95579V18.7915C7.81241 19.4015 7.31274 19.896 6.69639 19.896H5.58037C4.96402 19.896 4.46436 19.4015 4.46436 18.7915V9.95579Z" fill="white"/>
<path d="M11.1605 19.896H12.2765C12.8928 19.896 13.3925 19.4015 13.3925 18.7915V13.8214C13.3925 12.1647 16.7405 11.0603 16.7405 13.2692V18.792C16.7405 19.402 17.2402 19.896 17.8566 19.896H18.9726C19.5889 19.896 20.0886 19.4015 20.0886 18.7915V12.1647C20.0886 9.95579 18.4146 8.85132 16.1825 8.85132C13.9505 8.85132 13.3925 10.508 13.3925 10.508V9.95579C13.3925 9.3458 12.8928 8.85132 12.2765 8.85132H11.1605C10.5441 8.85132 10.0444 9.34581 10.0444 9.95579V18.7915C10.0444 19.4015 10.5441 19.896 11.1605 19.896Z" fill="white"/>
<path fill-rule="evenodd" clip-rule="evenodd" d="M21.2043 0.015625C23.0534 0.015625 24.5524 1.49909 24.5524 3.32903V21.0005C24.5524 22.8305 23.0534 24.3139 21.2043 24.3139H3.34805C1.49898 24.3139 0 22.8305 0 21.0005V3.32903C0 1.49909 1.49898 0.015625 3.34805 0.015625H21.2043ZM21.2043 2.22456C21.8207 2.22456 22.3203 2.71905 22.3203 3.32903V21.0005C22.3203 21.6105 21.8207 22.105 21.2043 22.105H3.34805C2.7317 22.105 2.23203 21.6105 2.23203 21.0005V3.32903C2.23203 2.71905 2.7317 2.22456 3.34805 2.22456H21.2043Z" fill="white"/>
</svg>
