<?xml version="1.0" encoding="UTF-8"?>
<svg id="Layer_1" xmlns="http://www.w3.org/2000/svg" version="1.1" viewBox="0 0 606 204">
  <!-- Generator: Adobe Illustrator 29.1.0, SVG Export Plug-In . SVG Version: 2.1.0 Build 142)  -->
  <defs>
    <style>
      .st0, .st1, .st2 {
        fill: #fff;
      }

      .st0, .st3 {
        fill-rule: evenodd;
      }

      .st4 {
        fill: #ebeae9;
      }

      .st5 {
        fill: #e2e2e2;
      }

      .st6 {
        fill: #bcbcbc;
        stroke: #bcbcbc;
        stroke-miterlimit: 4.5;
        stroke-width: 1.1px;
      }

      .st7, .st3 {
        fill: #bbb8b7;
      }

      .st1 {
        stroke: #231f20;
        stroke-miterlimit: 10;
      }

      .st1, .st8 {
        display: none;
      }

      .st9 {
        fill: #cfcfce;
      }

      .st10 {
        fill: #bcb8b7;
      }

      .st11 {
        fill: #8e8d8d;
      }
    </style>
  </defs>
  <g id="_x34_60x286">
    <rect class="st1" x="40.9" y="-207.6" width="460" height="286"/>
  </g>
  <g id="countrytime" class="st8">
    <g>
      <path class="st11" d="M322.5,132.7h0v-20c.8-1.1,2.3-1.2,2.4-1.2h.5v-4.6h-2.4c.9-1,2.3-1.1,2.4-1.1h.6v-4.7h-.6l-13.4-.5h-.5v.4l-5.4,23.1-5.2-23.8v-.4h-13.7v5.3h.6c.7,0,1.2.2,1.6.6h-1.7v5.1h.6c1.2,0,1.7.7,2.1,1.4v20.3c0,1.2-.2,2.1-.8,2.5-.7.7-1.6.6-1.6.6h-.6v5.3h.4v4.7h12.1v-5h0v-4.8h-.6c-1.2,0-2-.3-2.5-.9-.2-.2-.4-.6-.5-.8v-14l5.8,25.1v.4h5.3v-.4l5.8-24.8v13.2c-.2.4-.3.7-.7,1.1-.5.5-1.2.7-2,.8h-.6v4.8h-.2v5.3h15.8v-4.7h.7v-4.8h-.4c-3.8-.9-3.5-3.5-3.5-3.6h.2ZM358.7,130.7l-.5-.2-.2.5c-2.3,4.2-5.5,4.5-9.2,4.5s-3.5-.7-3.8-1v-3.7h.7c2.2,0,2.5,2.7,2.5,2.8v.5h4.4v-5h1.5v-10.3c1.1,1,1.5,1.9,1.6,2l.2.4h.4l2.9-.8.6-.2-.2-.6-1.5-3.9,2.7-.7.6-.2-.2-.6-2.5-6.7v-.3h-.4c-5.1-.9-23.9-4.7-24.1-4.8l-.7-.2v4.6h.4c1.6.6,2.3,1.3,2.6,1.9l-3.2-.7-.7-.2v4.5h.4c2.9,1,2.8,2.7,2.7,2.8v20.3c-.4.3-.9.5-1.4.5h-.6v4.8h-.9v5.1h24.4l.2-.4,1.5-4.3h0l.2-.4,2.8-8.1.2-.4-.4-.2-2.5-1.4h-.5ZM279.7,141.2h.2v-4.7h-.5c-1.2-.2-2-.5-2.5-1.1v-20.6c0-3,2.8-3.8,2.8-3.8h.4v-5l-.7.2c-.8.2-1.6.4-2.5.6.5-.7,1.2-1.1,2.1-1.4h.4v-5.2l-.7.2c-7.1,1.6-14,2.5-14,2.5h-.5v5.4h.7c.9-.2,1.6,0,2.1.2-.7,0-1.1.2-1.1.2h-.5v5.3h.7c.6-.2,1.2-.2,1.7,0v19.8c0,2.2-2.4,2.5-2.5,2.5h-.5v5h1.1v4.7h15v-4.6h-1l-.2-.2ZM258.9,114.6l.2-.2.3-.2-.2-.4-3.3-9.6-.2-.6-.6.2c-4.3,1.6-23.2,6.2-23.4,6.2h-.3v.4l-3.2,11.5-.2.7h.7l2.8.3-1.2,4.2-.2.7h.7l2.9.3h.4l.2-.3c1.6-4.3,3.6-6.6,5.3-7.7v13.6c0,2.7-3,3.1-3.2,3.1h-.5v4.9h2.1v4.7h15.4v-.5l.5-3.5v-.5l-.4-.2c-.5-.2-1-.3-1.5-.6h0l.5-3.6v-.5l-.4-.2c-.7-.2-1.4-.5-2.1-.8v-18.9c4.6-.6,6.8,4.5,6.9,4.5l.2.7.6-.4,2.9-2.1.3-.2-.2-.4-1.6-4.7h0v.2h-.2ZM462.5,85.2l-19.6-3.9-.7-.2-.2.7-1.1,2.8-1.8-.7,1-2.6.3-.7-.7-.3-23.3-9.5-.7-.3-.3.7-1.5,3c-1.2-3-3.6-5.6-7.5-7.7-3.8-2.1-25.2-12.7-26.1-13.1l-.7-.4-.4.7-2,4.1-.3.7.7.4c1.4.7,2.2,1.5,2.6,2.5l-2.1-1-.7-.3-.3.7-2,4-.3.7.7.3c1.4.7,2.2,1.5,2.5,2.5-2.5,5.6-7.6,16.8-9.8,20.9-.9,1.6-1.9,2.6-3,2.8-1.2.2-2.2-.7-2.3-.7l-.8-.7-.5,1-2.1,4.1-.4.7.7.4.4.2-.3.6-2.1,4-.4.7.7.4,21,10.7.7.3.4-.7,2.5-4.3.5-.8-.8-.2v-.2l2.6-4.4v-.2c.4,3.4.7,7.1,1.1,10.7,1,11.6,7.2,15,9.5,16.3,1.9,1.1,5.2,1.7,7.5.9,1.1-.3,1.9-1.2,2.3-2.2.3-.8.2-1.6,0-2.5,0,0,0-.2-.2-.2.3,0,.6-.2.9-.2,1-.3,1.8-1.1,2.3-2l-.5,1.3-.2.8.8.2,22.1,7.7.7.2.2-.7,1.6-4.3.2-.6,1,.3.8.2.2-.8,1.6-4.4.3-.8-.8-.2c-1.6-.5-2.5-1.2-3-2.3-.7-1.7,0-3.6,0-3.6h0l1.2-3.8c4.3-3.6,11.8-10.1,14.5-13,3.1-3.5,7.4-2.8,7.6-2.8h.7l.2-.6,1.1-4.2.2-.8-.9-.2h-.3c1.8-.6,3.3-.3,3.5-.3l.7.2.2-.7,1.2-4.3.2-.9-.9-.2h.2-.3Z"/>
      <path class="st11" d="M304,88.8v-8.2c-.6,0-1.1-.2-1.6-.5v-3h-.7c-6-1.1-5.8-4.6-5.7-4.8h0v-.2l-.7-13.5,16.8,30.7.2.3h.4l11.2,1.6h.8v-.7l.5-5.4h0v-.9c0-.2,1.8-19.5,2.6-30.1.3-1.1,1.1-1.9,2.1-2.3l-.2.2.6.6,2.2,2.1-3.1,3.9-.5.6.6.5,2.8,2.6.6.6.6-.6c4.6-4.5,8.5-5.4,10.7-5.5-2.4,7.1-5.7,17-6.8,20.3-1.6,4.5-5.6,3.7-6.1,3.6l-.8-.3-.2.9-1.2,4.1-.2.8.7.2,2.2.7h-1.4l-.8-.3-.2.9-1.1,4-.2.7.7.2,22.3,7.3.8.2.2-.8,1.5-4.5-.8-.2c-.8-.2-1.6-.7-2.1-1.2l1.8.6.8.2.2-.8,1.6-4.7-.8-.2c-1.3-.4-2.1-1.1-2.6-2-.2-.2-.2-.6-.3-.9,2.6-8,5.3-16,7.9-24,4.9,3.2,5.6,10.8,5.6,10.8v.8h.9l4.1-.2h.7v-6.7h1.2l.8-.2v-15.9l-.6-.2-31.6-10.5-.6-.2-.4.5-5.6,6.9v-1.2h-.7l-3.6-.6.2-.2c1.6-1.3,3.9-1,3.9-1l.9.2v-1l.2-4.3v-.7h-.7l-19.2-2.5h-.9v.8l-.2,4.3v.8h.8c1.5,0,2.6.6,3.3,1.5.2.2.3.4.4.7l-3.7-.5h-.9v.7l-.2,4.2v.8h.7c1.5,0,2.5.6,3.2,1.4.4.5.7,1,.7,1.6l-.7,7.1-11.9-24.1-.2-.5h-.6l-25.8,1.2h-.8v3.9l-.6-2.3-.2-.8-.8.2-18.4,3.5-.9.2,1.2,4.8.2.7h.7c1.6,0,2.7.5,3.5,1.2l-3.4.7-.9.2,1.2,4.8.2.7h.7c4.4,0,5.1,4.1,5.1,4.3h0c0,.2,4,14.8,4.4,16.7,0,.2,0,.4.2.7-.3,2.1-1.6,4-4.7,5.2-2.3.8-4.2.8-5.8,0-2.6-1.4-3.4-4.8-3.4-4.8h0l-5.4-16.9c0-.5.2-.9.5-1.3.9-1.6,2.7-2,2.7-2l.9-.2-.2-.9-1.1-3.6-.2-.8-.8.3-3.1,1.2c0-.4.2-.8.5-1.2,1-1.6,2.8-2.1,2.8-2.1l.9-.2-.2-.9-1.2-3.7-.2-.8-.8.3-26.7,9.5.2.7,1.2,4.4.2.8.8-.2c1.8-.5,3.3-.7,4.5-.2l-4.7,1.6.2.7,1,3.8c-2.4-2.1-5.2-3.5-8.1-4.4-5.8-1.7-11.8-1.1-16.8,1.6-11.7,6.3-12.6,18.6-12.6,22.3,0,6.7,4.2,14.2,5.2,15.9-.7,1.8-4.2,9.9-12.4,14.1-3.9,2-7.7,2.4-11.2,1.1-2-.7-3.9-2.1-5.6-3.9-.7-1.2-1.2-2.4-1.7-3.6-3.5-8.5-2.4-16,.6-19.1l.3-.3c.4,1.4,1,2.9,2,4,.5.7,1.1,1.2,1.7,1.6.3,1.6,1,3.1,2.1,4.4,1.7,2.1,4.2,3.1,7.4,3.1,6.6,0,10.3-4.8,11-9.4.5-3-.3-6.7-3.3-9.6-.6-3.9-3.3-8.1-9.6-10.1-8.4-2.5-17.7-1.2-24.3,3.8-4.5,3.3-9.9,9.7-9.9,21.3s4.1,19.5,9.7,24.9c5.7,8.8,14.9,12.9,22.1,12.9,11.4,0,26-7.2,31.9-23,6.1,3.7,15.7,4.9,25-2.2,7.9-6.2,10.1-17.8,5.7-28.6-.6-3.4-1.7-6.7-3.4-9.7-1.2-2.3-2.7-4.3-4.5-6,2.2-.7,4-.6,5.3.2.7.4,1.2,1,1.6,1.6l2.5,10.1c.2.8.5,1.6.7,2.4l1.1,4.1c1.7,5.9,4.4,9.8,8.1,11.8,4.8,2.5,11.3,2.2,21.5-1.1,4.9-1.6,8.4-4.3,10.1-8,0-.2.2-.5.3-.7l.8.3v4.4s14.5-1,22.5-1.1h.7-.6ZM164.7,167c1.2,0,1.7-.5,1.7-1.6v-9c0-1.2-.5-1.6-1.7-1.6v-1.3h6.3v1.3c-1.6,0-2,.4-2,1.8v8.9c0,.9.2,1.4,1.3,1.4,2.2,0,4-.7,5.8-3.9l1.2.5-2.1,5h-10.4v-1.3h0v-.2ZM187.5,162.1c0-3.4-2-4.8-4.4-4.8s-4.9,1.9-4.9,5.4,1.8,5.7,4.9,5.7,3.9-1.2,4.7-3l-1-.5c-.7,1.3-1.6,2.1-3.1,2.1s-2.8-2-2.8-4.1,0-.7,0-.9h6.7,0ZM188.9,167c1.3,0,1.5-.6,1.5-1.5v-4.8c0-.8-.2-1.1-1.5-1.2v-1.3c.9,0,2.1-.3,2.9-.9h.8v1.3c.8-.8,2-1.3,3.1-1.3s2.1.3,2.6,1.5c.8-.7,2.2-1.5,3.3-1.5,2.8,0,3,2,3,3.5v4.8c0,.9.2,1.4,1.5,1.4v1.3h-5.3v-1.3c1.2-.2,1.4-.5,1.4-1.6v-5.2c0-.9-.2-1.4-1.2-1.4s-1.4.3-1.9.8l-.4.3v5.6c0,.9.2,1.4,1.5,1.4v1.3h-5.3v-1.3c1.2-.2,1.4-.5,1.4-1.6v-5.2c0-.9-.2-1.4-1.2-1.4s-1.4.3-1.9.8l-.4.3v5.6c0,.9.2,1.4,1.5,1.4v1.3h-5.4v-1.3h0v.2ZM207.6,162.8c0,3.1,2,5.7,5.3,5.7s5.3-2.6,5.3-5.7-2.5-5.4-5.3-5.4-5.3,2-5.3,5.4h0ZM221.1,160.7c0-.8-.2-1.1-1.5-1.2v-1.3c.9,0,2.1-.3,2.9-.9h.8v1.4c1.1-1,2.3-1.4,3.5-1.4s2.9.7,2.9,3v5.2c0,.9.2,1.4,1.5,1.4v1.3h-5.1v-1.3c.8-.2,1.2-.3,1.2-1.3v-5.1c0-1.4-.5-1.7-1.2-1.7s-2,.6-2.7,1.2v5.4c0,.9.2,1.4,1.5,1.4v1.3h-5.4v-1.3c1.3,0,1.5-.6,1.5-1.4v-4.8h.2,0ZM242.4,166.6c-.3.3-.5.4-.8.4s-.7-.2-.7-.8v-5.5c0-2.3-1.2-3.3-3.9-3.3s-4,1.2-4,2.8.2,1.2,1.1,1.2,1-.3,1.1-1.6c0-.7.7-1.2,1.6-1.2,1.3,0,1.7.6,1.7,1.8v1.4c-3.9.4-6,1.6-6,3.9s1,2.7,2.9,2.7,2.1-.3,3.3-1.4c.3.9,1,1.4,2,1.4s1.8-.4,2.4-1.2l-.7-.7h0ZM250.8,168.3h3.8v-1.3c-1.3,0-1.5-.6-1.5-1.4v-12.4h-1c-.6.3-1.9.7-3.2.7v1.3c1.5,0,1.7.3,1.7,1.3v1.8c-.7-.7-1.7-1-2.7-1-3.1,0-4.4,2.8-4.4,5.6s1.4,5.6,4.4,5.6,2.1-.4,2.8-1.1v.8h0ZM265.1,162.1c0-3.4-2-4.8-4.4-4.8s-4.9,1.9-4.9,5.4,1.8,5.7,4.9,5.7,3.9-1.2,4.7-3l-1-.5c-.7,1.3-1.6,2.1-3.2,2.1s-2.8-2-2.8-4.1,0-.7,0-.9h6.7ZM272.4,153.4h10.2l1.7,4.3-1,.5-.5-.8c-1-1.6-2.7-2.5-4.5-2.5s-1.6.2-1.6,1.6v3h1.2c1.4,0,1.6-.7,1.8-2.7h1v6.9h-1c-.2-2.1-.6-2.7-2.1-2.7h-.8v4.4c0,1.2.5,1.6,1.7,1.6v1.3h-6v-1.3c1.2,0,1.7-.5,1.7-1.6v-9c0-1.2-.5-1.6-1.7-1.6v-1.3h0ZM284.5,167c1.3,0,1.5-.6,1.5-1.5v-9.2c0-.8-.2-1.1-1.5-1.2v-1.3c1,0,2.1-.3,2.9-.7h1v12.4c0,.9.2,1.4,1.5,1.5v1.3h-5.3v-1.3h0ZM300.9,166.6c-.3.3-.5.4-.8.4s-.7-.2-.7-.8v-5.5c0-2.3-1.2-3.3-3.9-3.3s-4.1,1.2-4.1,2.8.2,1.2,1.1,1.2,1-.3,1.1-1.6c0-.7.7-1.2,1.6-1.2,1.3,0,1.7.6,1.7,1.8v1.4c-3.9.4-6,1.6-6,3.9s1,2.7,2.9,2.7,2.1-.3,3.3-1.4c.3.9,1,1.4,2,1.4s1.8-.4,2.4-1.2l-.7-.7h0ZM305.4,168.4l-3-8.3c-.3-1.1-.7-1.3-1.2-1.3h0v-1.3h4.8v1.2c-.8,0-1.2.2-1.2.7s0,.7.3,1.5l1.6,4.8,1.6-4.7c.2-.4.2-.9.2-1.3s-.3-.9-1.2-.9v-1.2h4.2v1.3h0s-1.1.2-1.7,2l-2.8,7.6h-1.7,0ZM312.4,162.8c0,3.1,2,5.7,5.3,5.7s5.3-2.6,5.3-5.7-2.5-5.4-5.3-5.4-5.3,2-5.3,5.4ZM325.8,160.7c0-.8-.2-1.1-1.5-1.2v-1.3c.9,0,2.1-.3,2.9-.9h.8v1.5c.7-.8,1.7-1.5,2.8-1.5s1.6.3,1.6,1.6-.4,1.2-1,1.2c-1,0-1-.9-1.9-.9s-1.2.3-1.3.9v5.4c0,.9.2,1.4,1.5,1.4v1.3h-5.3v-1.3c1.3,0,1.5-.6,1.5-1.4v-4.8h-.1ZM338.9,168.3h7.3c5.8,0,6.7-5.1,6.7-7.5s-.9-7.4-6.8-7.4h-7.2v1.3c1.2,0,1.7.5,1.7,1.6v9c0,1.2-.5,1.6-1.7,1.6v1.3h0ZM355.9,160.7c0-.8-.2-1.1-1.5-1.2v-1.3c.9,0,2.1-.3,2.9-.9h.8v1.5c.7-.8,1.7-1.5,2.8-1.5s1.6.3,1.6,1.6-.4,1.2-1,1.2c-1,0-1-.9-1.9-.9s-1.2.3-1.3.9v5.4c0,.9.2,1.4,1.5,1.4v1.3h-5.3v-1.3c1.3,0,1.5-.6,1.5-1.4v-4.8h-.1ZM363.1,158.3c.9,0,2.1-.3,2.9-.7h1v8c0,.9.2,1.4,1.5,1.5v1.3h-5.3v-1.3c1.3,0,1.5-.6,1.5-1.5v-4.8c0-.8-.2-1.1-1.5-1.2v-1.3h-.1Z"/>
      <ellipse class="st11" cx="365.9" cy="154.6" rx="1.5" ry="1.6"/>
      <path class="st11" d="M371.2,160.7c0-.8-.2-1.1-1.5-1.2v-1.3c.9,0,2.1-.3,2.9-.9h.8v1.4c1.1-1,2.3-1.4,3.5-1.4s2.9.7,2.9,3v5.2c0,.9.2,1.4,1.5,1.4v1.3h-5.1v-1.3c.8-.2,1.2-.3,1.2-1.3v-5.1c0-1.4-.5-1.7-1.2-1.7s-2,.6-2.7,1.2v5.4c0,.9.2,1.4,1.5,1.4v1.3h-5.4v-1.3c1.3,0,1.5-.6,1.5-1.4v-4.8h.2,0ZM384.2,156.4c0-.8-.2-1.1-1.5-1.2v-1.3c.9,0,2.1-.3,2.9-.7h1v8.8l2.5-2c.3-.2.5-.5.5-.7s-.2-.4-1.2-.5v-1.3h5.1v1.3c-1,0-1.5.3-2.5,1.2l-1.3,1.1,2.8,4.7c.5.7,1.2,1.2,1.7,1.2h.2v1.3h-5.2v-1.3c.5,0,.8-.2.8-.6s-.2-.6-.4-1l-1.7-2.9-1.2,1v2c0,.9.2,1.4,1.5,1.4v1.3h-5.3v-1.3c1.3,0,1.5-.6,1.5-1.4v-9.2h-.2,0ZM403.5,156.3c0-1.2-.5-1.6-1.7-1.6v-1.3h5.4l2.8,10.1h0l3-10.1h5.2v1.3c-1.2,0-1.7.5-1.7,1.6v9c0,1.2.5,1.6,1.7,1.6v1.3h-6.2v-1.3c1.7-.2,1.9-.4,1.9-2.1v-9.8h0l-3.9,13.2h-1.2l-3.7-13.2h0v10.3c0,1.2.5,1.6,1.7,1.6v1.3h-4.8v-1.3c1.2,0,1.7-.5,1.7-1.6v-9h-.2ZM419.3,158.3c.9,0,2.1-.3,2.9-.7h1v8c0,.9.2,1.4,1.5,1.5v1.3h-5.3v-1.3c1.3,0,1.5-.6,1.5-1.5v-4.8c0-.8-.2-1.1-1.5-1.2v-1.3h-.1Z"/>
      <ellipse class="st11" cx="422.2" cy="154.6" rx="1.5" ry="1.6"/>
      <path class="st11" d="M425.3,167c1.2-.4,1.6-1,2.6-2.4l1.4-1.9-1.8-2.7c-.4-.7-1.1-1.1-1.8-1.2h0v-1.3h5.2v1.2c-.7,0-.9.2-.9.5s0,.3.3.7l1,1.6,1.1-1.4c.2-.3.4-.7.4-.9s-.2-.4-.8-.4v-1.2h4v1.3h0c-1,0-1.8.9-2.4,1.6l-1.6,1.9,2.6,3.6c.6.8,1.2,1,1.6,1v1.3h-5.5v-1.2c1,0,1.2-.2,1.2-.6s0-.3-.6-1.1l-1.2-1.8-1.6,2.2c-.3.4-.3.6-.3.7,0,.2,0,.4,1.1.5v1.2h-4v-1.2h0Z"/>
      <path class="st9" d="M171.1,127.6c-10.9,0-26.4-9.6-26.4-31.1s5-16.8,9.1-19.9c6.2-4.6,15-5.9,22.8-3.5,7.1,2.2,9,7.6,8.5,11.5-.6,3.9-3.9,8.1-9.6,8.1s-4.8-.8-6.2-2.5c-3.2-3.9-1.9-10.8-1.9-10.9l.2-.7-.7-.2c-2.4-.8-4.6-.2-6.4,1.7-3.3,3.5-4.9,11.7-.9,21.5,3.1,7.6,7.2,12.4,12.3,14.3,3.9,1.5,8.1,1.1,12.5-1.2,8.3-4.1,12-11.9,13.1-14.5,2.1,1.1,4.4,3,5.3,3.8-5.5,16.3-20.2,23.7-31.6,23.7h0Z"/>
      <path class="st9" d="M204.3,103.1c-.2-.2-3.8-3.4-6.8-4.8-.8-1.3-5-8.9-5-15.1s.8-14.9,11.7-20.8c4.6-2.5,10.3-3,15.5-1.5,3.9,1.2,9.2,3.9,12.8,10.7,6,11.3,4.4,24-3.9,30.4-9,7-18.2,5.7-24.1,2.1h0l.2-.6-.4-.3h0ZM273.5,43.4c-1.1,1.6-1.2,3.6-.5,6.1l5.4,18.1s2.2,5.9-.3,11.2c-1.6,3.4-4.8,5.8-9.4,7.3-9.9,3.2-16.3,3.6-20.8,1.2-3.5-1.8-5.8-5.4-7.5-11.1l-3.9-15.8c-.4-1.6-1.4-3-2.8-3.9-1.6-1-3.6-1.2-6.1-.6l-.7-2.8,24.3-8.7.7,2.1c-.9.3-2.2,1.1-3,2.5-1,1.7-1.2,3.9-.2,6.6l6.6,20.3c0,.4,1.1,4.2,4.2,5.9,2,1.1,4.4,1.2,7.1,0,8.1-3,5.8-10.7,4.9-13.6,0-.4-.2-.7-.2-.9-.4-2-4.4-16.5-4.6-17.3-.3-2-2.1-5.4-6.2-5.8l-.7-2.5,16.7-3.1.5,2.4c-.9.2-2.4.9-3.3,2.4h0v-.2l-.2.2ZM327,48.5c-.4,5.3-2.6,30-3,35l-10.2-1.4-19-34.9-1.6.5,1.3,24.7c0,.7,0,4.9,6.4,6.2v2.5l-18.2.8v-2.8c.8,0,2.1-.3,3.1-1.3,1.3-1.2,2-3,2-5.3,0-6.2-1.1-24.6-1.2-25.5,0-1.4-.5-2.8-1.4-3.9-1.2-1.3-2.9-2.1-5.1-2.3v-3l24.6-1.1,13,26.3,1.3,2.7.2-3,1.6-16.1s.2-2.5-1.2-4.3c-.8-1.1-2.1-1.7-3.7-2l.2-2.5,17.6,2.2v2.6c-1.2,0-3,.2-4.4,1.4-1.3,1.1-2,2.5-2.1,4.6v-.2h-.2ZM339.2,78.1c2-5.5,9.4-28.3,9.5-28.5l.2-.8-.8-.2c-.2,0-6.2-2-14,5.3l-1.7-1.6,8.4-10.4,30.5,10.2v13.1l-2.6.2c-.3-2.5-1.8-9.4-7.5-12.2l-.9-.4-.3.9-9.9,29.7s-.7,2.4.3,4.5c.6,1.2,1.6,2,2.9,2.5l-.7,2.3-21.4-7.1.7-2.5c2.2.2,5.8-.4,7.3-4.8h0v-.2ZM411.7,82.1c-4.2,9.9-10.2,9-11.9,8.5l-1.3-.3.2,1.3,4.1,27.2v.5l.6.2c.7.2,2.8,1.1,3.4,2.3.2.4.2.7,0,1.2-.2.6-.7,1.1-1.4,1.2-1.7.7-4.6,0-6.2-.8-2.4-1.3-8-4.4-9-15.4-.9-10.3-2.1-21.7-2.2-23.4l1.3-2.8c1.2.7,3.8,1.7,6.4,1.2,2.1-.5,3.8-2,5.1-4.4.2-.2,1.9-3,1.1-5.9-.5-1.7-1.7-3.1-3.8-4.1-.3-.2-1.8-1.3-3.5-1-1.4.3-2.5,1.4-3.5,3.3l-11,24.1s-1.3,2.5-.3,5c.5,1.3,1.6,2.4,3.1,3.1l-1.6,2.9-20.1-10.2,1.3-2.5c.8.4,1.8.6,2.8.4,1.6-.3,3-1.6,4.2-3.7,3-5.4,10.7-22.8,11.3-24.2.2-.4,1.5-2.4.9-4.6-.3-1.4-1.3-2.5-2.8-3.5l1.2-2.6c3.9,2,21.9,10.8,25.2,12.7,4.6,2.5,9.4,7.1,6.3,14.3h0l.2.2v-.2ZM452,92.9c-3.6,4-16.6,14.9-17.7,15.7l-.2.2v.2l-2.4,7.2c-.2.3-1,2.7,0,4.9.6,1.3,1.7,2.3,3.3,3l-1,2.8-21.2-7.4,1-2.9c2.1.4,5.3,0,6.9-3.7l2.5-7.1v-.4l-4.5-23.2c0-.2-.7-5-3.9-6.9l1.4-2.8,21.9,9-1.1,2.8c-1.1-.3-2.9-.7-4.3.2-1.2.8-1.6,2.4-1.2,4.5.9,6.9,1.4,9.9,1.4,9.9l.2,1.5,1.2-1,10-8.6h0c.5-.8.7-1.7.4-2.5-.3-1.1-1.2-1.9-2.7-2.5l1-2.6,18.1,3.5-.7,2.7c-1.6,0-5.5,0-8.5,3.5h0l.2.2v-.2ZM247.6,110.6h-.5v22.4c0,.5-.2,3.5,3.9,4.8l-.3,2.5h-13.7v-2.6c1.6-.3,3.8-1.6,3.8-4.2v-21.4h-.7c-.2.2-5.4,1.2-8.6,9.7l-1.8-.2,2.9-10.5c2.5-.6,17.8-4.3,22.7-6l3,8.6-2.1,1.6c-.9-1.6-3.6-5.6-8.5-4.6h0v-.2h0ZM268.7,133.7v-23.2c0-.2.2-1.8-.9-2.8-.6-.6-1.5-.9-2.5-.8v-3c4.4-.6,8.7-1.3,13-2.2v2.8c-2.1.7-3.4,2.7-3.3,4.8v23.7c0,1.1.2,2.1.8,3s1.6,1.4,3,1.6v2.5h-13.1v-2.9c1.2-.2,3-1.2,3-3.5h0ZM313.4,135.7c.9-.8,1.3-2.1,1.3-3.7v-21.9l-1.2-.2-6.8,30.1h-3.5l-7-30.2-1.2.2v23.1c0,.2,0,1.8,1,3,.7.7,1.6,1.2,2.8,1.2v2.9h-10.2v-3c.7,0,1.3-.3,1.8-.8.8-.7,1.2-1.9,1.2-3.5v-24.6c0-1.2-.8-3.5-3-3.9v-3h11.5l5.6,25.8h1.2l5.8-25.1,12.3.4v2.5c-1.6.2-3.7,1.3-3.7,4.1v23.7c0,.5-.2,3.5,3.9,4.6v2.8h-14v-3.3c.8,0,1.6-.5,2.2-1.1h0v-.2h0ZM357.9,140h-23.2v-3c1-.2,3-1,3-4.1v-23.2c0-.3,0-2.6-3.2-3.8v-2.4c3.4.7,18.2,3.6,23.1,4.5l2.1,5.8-1.9.5c-.8-1.3-3.7-5.1-10.8-5.1s-1.5-.2-2.3.6c-.5.5-.8,1.2-.7,1.8v9.5h3.6c.7,0,1.5-.2,2.1-.7.7-.7,1.2-1.7,1.2-3h2v10.5h-2.3c-.2-1.4-1.2-3.5-3.6-3.5h-3v10.4c.2.2,1.2,1.6,4.9,1.6s7.3-.4,9.9-4.7l1.6.9-2.5,7.2h0v.2Z"/>
      <path class="st11" d="M211.2,66.5c-1.8-.4-3.8,0-5.3,1-1.4,1-8.1,6.4-.7,21.2,4,8.1,8.4,10.6,11.3,11.3h0c2.3.6,4.7.2,6.7-1.2,5.3-3.8,4.8-12.7-1.3-22.7-3.5-5.7-7-8.9-10.5-9.7h-.2ZM224.6,87.1c1.1,5-.2,8.6-2.5,10.3h0c-.8.6-2.7,1.6-5.3.9-2.4-.6-6-2.7-9.5-9.2-3-9.3,1.2-12.8,2.2-13.5,1.2-.8,2.5-1.1,3.9-.7,2.9.7,6.1,3.6,9.1,8.6.7,1.2,1.4,2.5,2,3.6h.1Z"/>
      <path class="st2" d="M381.2,97.8c0,.6,0,1.1.2,1.6.4,1.1,1.5,2,3,2.5l.4.2c-.4-4.6-.8-8.5-1-10.3l-2.7,6h.1Z"/>
      <path class="st2" d="M345.6,116h-.6v4.1h2.5s.7,0,1.2-.5.9-1.5.9-2.8h0v-.3c-1.2-.3-2.5-.5-4-.5h0Z"/>
      <path class="st2" d="M284.4,51.5c-.9-1.1-2.5-1.6-4.6-1.7h-.2v.2h-.9s-2,.4-3,1.9l-.2.2,4.5,15c.8,2.5,1.2,5.1.9,7.6.2.8.4,1.7.5,2.5h.2c1,0,2.1-.2,2.8-.9.9-.8,1.4-2.2,1.4-4.1,0-4-.5-13.2-.8-19.4-.2-.6-.4-1.1-.8-1.6l.2.2h0Z"/>
      <path class="st2" d="M413.9,89h0c0-.2-.3-2.5-1.6-4.3-.5,1-1.1,1.9-1.6,2.6-.2.6-.3,1.2-.6,1.7-2.4,5.5-5.6,8.2-8.7,9.1l3,19.7c1,.4,3.1,1.3,3.9,3s.4,1.4.2,2.1l.8-2.3.2-.8h0l.8.2h.3l.2-.6,1.6-4.4s.2-.8.3-.8l.8.3c.2,0,1.9.6,3.4,0l1.2-3.5-4.4-22.3h0v.2h.2Z"/>
      <path class="st2" d="M433.8,92.5c.3,2.1.5,3.6.7,4.6l3.5-3c-1-.4-2.7-1.1-4.2-1.6h0Z"/>
      <polygon class="st2" points="409.6 120 409.6 120 409.6 120 409.6 120"/>
      <path class="st2" d="M394.6,76.7h0s-1-.9-2.1-.7c-.8.2-1.6.9-2.1,2.3l-.7,1.6h0s3,2.1,5.8,1.4,1.6-.6,2.2-1.2v-.4c-.3-1.2-1.3-2.2-2.9-3h-.2Z"/>
      <path class="st2" d="M213.5,74.9c-1.3-.3-2.8,0-3.9.7-1,.7-5.3,4.2-2.2,13.5,3.5,6.5,7.1,8.6,9.5,9.2,2.6.7,4.4-.2,5.3-.9h0c2.4-1.7,3.6-5.3,2.5-10.3-.6-1.2-1.2-2.4-2-3.6-3.1-5-6.2-8-9.1-8.6h-.1Z"/>
      <circle class="st9" cx="368.1" cy="114.3" r="3.4"/>
      <circle class="st2" cx="368.1" cy="114.3" r="2.8"/>
      <path class="st9" d="M367.2,114.6h1.2c.7,0,.7.3.7.7v1h.7q-.2-.2-.2-.5v-.7c0-.5-.2-.7-.5-.7.3-.2.6-.5.5-.9,0-.8-.7-1.1-1.2-1.1h-1.8v3.9h.5v-1.6h0Z"/>
      <path class="st2" d="M180.9,160.9c0-1.3.9-2.2,2.1-2.2s1.8,1,1.8,1.9v.3h-3.9ZM210.3,162.9c0-2.7.7-4.3,2.6-4.3s2.6,1.6,2.6,4.3-.7,4.3-2.6,4.3-2.6-1.6-2.6-4.3ZM238.5,166c-.6.6-1.3.8-2.1.9-1.1,0-1.5-.6-1.5-1.4,0-1.5,1.6-2.2,3.6-2.5v3h0ZM250.6,166c-.3.5-1.4.9-2.3.9-1.8,0-2.3-2.5-2.3-3.9s.6-4.1,2.6-4.1,1.7.6,2,1v6.1h0ZM258.6,160.9c0-1.3.9-2.2,2.1-2.2s1.8,1,1.8,1.9v.3h-3.9ZM297,166c-.6.6-1.3.8-2.1.9-1,0-1.5-.6-1.5-1.4,0-1.5,1.6-2.2,3.6-2.5v3h0ZM315.1,162.9c0-2.7.7-4.3,2.6-4.3s2.6,1.6,2.6,4.3-.7,4.3-2.6,4.3-2.6-1.6-2.6-4.3ZM343.3,156.4c0-1.3.2-1.6,2-1.6,3.5,0,4.8,2.8,4.8,5.8,0,4.9-2.3,6.3-4.8,6.3s-2.1-.5-2.1-1.2v-9.3h.1ZM367.2,112.8h1.3c.2,0,.7,0,.7.7s-.4.7-.8.7h-1.2v-1.3h0Z"/>
    </g>
  </g>
  <g id="tesla">
    <path class="st10" d="M207.8,106.2h36.4c5.1-1.9,8.8-5.5,9.9-9.7h-56.2c1,4.3,4.8,7.9,9.9,9.7M113,77.4c1.1,4.3,4.8,7.8,9.9,9.7h15.3l.8.3v38.7h9.6v-38.7l.9-.3h15.4c5-1.9,8.7-5.5,9.8-9.7h0c0,0-61.6,0-61.6,0h-.1ZM207.8,126h36.4c5.1-1.9,8.8-5.5,9.9-9.8h-56.2c1,4.3,4.8,7.9,9.9,9.8M207.8,87.2h36.4c5.1-1.9,8.8-5.5,9.9-9.8h-56.2c1,4.3,4.8,7.9,9.9,9.8M449,87h36.4c5.1-1.9,8.7-5.3,9.7-9.6h-56.2c1,4.3,4.9,7.7,10,9.6M404.9,125.7c4.7-2,7.3-5.5,8.2-9.6h-42v-38.8h-9.4v48.3h43.2,0ZM290.9,86.9h33.6c5.1-1.5,8.8-5.3,9.8-9.6h-52.9v28.8h43.7v10.1h-33.8c-5,1.9-8.7,5.2-9.7,9.4l-.2.4h53.1v-29.5h-43.7v-9.6h.1ZM440.8,96.3v29.6h9.4v-19.7h34.3v19.7h9.4v-29.5h-53.1,0Z"/>
  </g>
  <g id="elevata" class="st8">
    <g>
      <g>
        <path class="st10" d="M138.8-18.3v-10.5h2.1v10.5h-2.1Z"/>
        <path class="st10" d="M152-18.3v-11.4l10.2,8v-7.2h2.1v11.3l-10.2-7.9v7.1h-2.1Z"/>
        <path class="st10" d="M182-19.8c1.9,0,3.8-.9,5-2.4v2.8c-1.4,1-3.2,1.5-5,1.5-4.1,0-7.4-2.5-7.4-5.7s3.3-5.7,7.4-5.7,3.6.6,5,1.5v2.8c-1.2-1.5-3.1-2.4-5-2.4-2.9,0-5.3,1.7-5.3,3.8s2.3,3.8,5.3,3.8h0Z"/>
        <path class="st10" d="M204.9-29.3c4.1,0,7.4,2.6,7.4,5.7s-3.3,5.7-7.4,5.7-7.4-2.5-7.4-5.7,3.3-5.7,7.4-5.7ZM204.9-19.8c2.9,0,5.3-1.7,5.3-3.8s-2.3-3.8-5.3-3.8-5.3,1.7-5.3,3.8,2.4,3.8,5.3,3.8Z"/>
        <path class="st10" d="M224.9-18.3h-2.1v-10.5h6.4c1.9,0,4.1.7,4.1,3s-1,2.5-2.3,2.8l3,4.7h-2.5l-2.8-4.5h-3.9v4.5h.1ZM224.9-24.7h4.2c1.6,0,2.2-.4,2.2-1.2s-.6-1.1-2.2-1.1h-4.2v2.3h0Z"/>
        <path class="st10" d="M247.2-18.3h-2.1v-10.5h6.4c1.9,0,4.1.7,4.1,3s-2.2,3-4.1,3h-4.3v4.5h0ZM247.2-24.7h4.2c1.6,0,2.2-.4,2.2-1.2s-.6-1.1-2.2-1.1h-4.2v2.3h0Z"/>
        <path class="st10" d="M272.9-29.3c4.1,0,7.4,2.6,7.4,5.7s-3.3,5.7-7.4,5.7-7.4-2.5-7.4-5.7,3.3-5.7,7.4-5.7ZM272.9-19.8c2.9,0,5.3-1.7,5.3-3.8s-2.3-3.8-5.3-3.8-5.3,1.7-5.3,3.8,2.4,3.8,5.3,3.8Z"/>
        <path class="st10" d="M292.9-18.3h-2.1v-10.5h6.4c1.9,0,4.1.7,4.1,3s-1,2.5-2.3,2.8l3,4.7h-2.5l-2.8-4.5h-3.9v4.5h.1ZM292.9-24.7h4.2c1.6,0,2.2-.4,2.2-1.2s-.6-1.1-2.2-1.1h-4.2v2.3h0Z"/>
        <path class="st10" d="M321.6-21.4h-5.7l-2,3.1h-2.5l7.3-11.3,7.3,11.3h-2.5l-2-3.1h.1,0ZM317.1-23.3h3.2l-1.6-2.5-1.6,2.5h0Z"/>
        <path class="st10" d="M332.8-27v-1.9h12.3v1.9h-5.1v8.7h-2.1v-8.7h-5.1,0Z"/>
        <path class="st10" d="M354.7-28.9h10.5v1.9h-8.4v2.2h7.1v1.9h-7.1v2.7h8.4v1.9h-10.5v-10.5h0Z"/>
        <path class="st10" d="M375.7-18.3v-10.5h5.8c3.2,0,7.2,1.5,7.2,5.3s-4.1,5.3-7.2,5.3h-5.8ZM377.8-20.2h3.6c2.2,0,5.3-.7,5.3-3.4s-3-3.4-5.3-3.4h-3.6v6.8Z"/>
      </g>
      <path class="st2" d="M304.8-102.5c-1.2,0-2.4.3-3.6.6,3.4-.4,5.7-.7,3.6-.6Z"/>
      <path class="st0" d="M258.5-96.1s-.7-9.5-10.4-9.1c0,0,.6.2.6.4,0,0-.8,2,1.6,1.4,0,0,6-1.6,8.2,7.3h0Z"/>
      <g>
        <path class="st4" d="M277.2-96l-22.5-11.4-5.8.9s-6.6-1.8-6.7-1.8,0,0,0,0c-1.8,0-4.8.6-6.9,2.8,0,0,1.6-.9,5.5,2.5,0,0,17.6,12.2,23.4,55.4h.6c3.5-23.1,10.1-39.4,18.9-46-2.9-1-5.7-2.1-6.5-2.6,0,0,0,.2,0,.2Z"/>
        <path class="st4" d="M204.4-92.9s-29.4-4.8-33.3-18.2c0,0-1.6,31.8,46.3,35,0,0,19.3-1.6,35,13.9l-4.5-9.9c-8.5-9-22.1-18.1-43.4-20.8,0,0-.1,0-.1,0Z"/>
        <path class="st4" d="M212.8-71.2s-25.8-4.8-29.5-12.8c0,0,2.5,22,42.3,22.9,0,0,15.9-2.1,32.2,10.9l-2.1-4.5c-6.1-6.6-18.8-15.8-43-16.6h.1Z"/>
        <path class="st4" d="M244.4-86.2c-5.9-6.3-14.6-12.6-27.1-15.6,0,0-18.6-6.1-20.7-14.6,0,0-1.1,21.6,28.5,24.7,0,0,5.3,1.2,12.1,5.3h.4c2.4,0,5.1,0,6.7.2h.1Z"/>
        <path class="st4" d="M275-62.8c15.5-14.7,34.2-13.2,34.2-13.2,47.9-3.2,46.3-35,46.3-35-3.9,13.4-33.3,18.2-33.3,18.2-20.4,2.6-33.7,11-42.3,19.6-1.4,3-3.2,6.6-4.9,10.3h0Z"/>
        <path class="st4" d="M301-61c39.9-.9,42.3-22.9,42.3-22.9-3.7,8-29.5,12.8-29.5,12.8-23.6.8-36.3,9.5-42.5,16-.9,1.8-1.7,3.4-2.4,4.9,16.2-12.9,32-10.8,32-10.8,0,0,.1,0,.1,0Z"/>
        <path class="st4" d="M289.5-86.4h0c6.8-4.1,12.1-5.3,12.1-5.3,29.6-3.2,28.5-24.7,28.5-24.7-2.1,8.5-20.7,14.6-20.7,14.6-12.5,3-21.2,9.3-27,15.6h1.8c.3,0,3.4-.2,5.4-.2h-.1Z"/>
      </g>
      <g>
        <path class="st10" d="M90.5-69.6c0-9.4,0-11.1-.1-13-.1-2-.7-3-3-3.4-.6,0-1.7-.2-2.3-.2s-.5,0-.5-.4.3-.5,1.1-.5h7.7c.5,0,14.2,0,15.8,0,1.3,0,2.4-.2,3-.3.3,0,.6-.3,1-.3s.3.2.3.5-.3,1.1-.6,2.8c0,.6-.2,3.3-.3,4,0,.3-.2.7-.5.7s-.6-.3-.6-.8,0-1.4-.4-2.2c-.5-1-1.2-1.7-4.9-2-1.2,0-8.7-.2-9.4-.2s-.4.2-.4.6v16.6c0,.4,0,.6.4.6.9,0,9.4,0,10.9-.1,1.7-.1,2.6-.2,3.2-.8.5-.5.8-.8,1-.8s.3.1.3.5-.3,1.4-.6,3.4c0,1.2-.3,3.4-.3,3.8s0,1.1-.5,1.1-.5-.2-.5-.5c0-.6,0-1.2-.3-2s-.9-1.9-3.6-2.1c-1.9-.2-8.7-.3-9.8-.3s-.5.2-.5.4v15.6c.2,4.2,1.2,4.9,8,4.9s4.8,0,6.6-.7,2.6-1.9,3.1-4.3c0-.7.3-.9.6-.9s.4.5.4.9-.5,4.6-.9,5.8c-.5,1.6-1,1.6-3.7,1.6-5.2,0-8.9-.1-11.6-.2-2.7-.1-4.3-.2-5.4-.2h-2.8c-1.4,0-3,.1-4,.1s-1.1-.1-1.1-.5,0-.4.5-.4,1.5-.1,2.1-.2c1.4-.2,1.7-1.6,2-3.3.3-2.5.3-7.3.3-13v-10.5s.3.2.3.2Z"/>
        <path class="st10" d="M149.4-59c0,8.8.3,12.7,1.5,13.8,1.1,1,2.9,1.4,8.3,1.4s6.7,0,8.3-1.8c.9-1,1.6-2.5,1.8-3.6,0-.5.2-.8.6-.8s.4.2.4.9-.5,4.3-1,6c-.5,1.4-.7,1.6-4.3,1.6s-8.5-.1-11.4-.2-5-.2-7-.2h-2.8c-1.4,0-2.9.1-3.9.1s-1.1-.1-1.1-.5,0-.4.5-.4c.6,0,1.4-.1,2.1-.2,1.4-.2,1.7-1.6,2-3.3.3-2.5.3-7.3.3-13v-10.5c0-9.4,0-11.1,0-13,0-2-.7-3-3-3.4-.6,0-1.7-.2-2.3-.2s-.5,0-.5-.4.3-.5,1.1-.5c3.1,0,7.4.2,7.8.2s5.4-.2,7.4-.2,1.1,0,1.1.5-.3.4-.5.4c-.5,0-1.5,0-2.3.2-2,.3-2.5,1.3-2.7,3.4,0,1.9,0,3.6,0,13v10.7s-.2,0-.2,0Z"/>
        <path class="st10" d="M289.5-87.1h0c-2,0-5,.2-5.4.2h-1.8c-1.4,0-3.2,0-5,0s-1.5,0-1.5.5.3.4.8.4c.8,0,1.8,0,2.6.2.7.3.9.9.9,1.4s0,0,0,.2c0,.5-.3,1.3-.6,2.1-.3,1-1.1,2.8-2.1,5.2-1.6,3.8-3.9,9-6.1,14-1.4,3.1-2.8,6.2-4.1,8.9-.9,2-1.8,3.8-2.5,5.2l-13.2-30.7c-1-2.3-1.8-4.2-1.8-5s.1-.9.9-1.2c.6-.2,1.8-.3,2.6-.3s.7,0,.7-.4-.6-.4-1.9-.4c-2.6,0-5.7.2-6.4.2h-1.3c-1.6,0-4.4,0-6.7,0s-.3,0-.4,0c-.8,0-1.4,0-1.4.4s.1.4.6.4,1.5,0,2.5.2h.2c2,.5,3.1,1.1,4.2,3.2.2.4.5.9.7,1.5l16.8,36.8c1.3,2.9,1.6,3.7,2.5,3.7s1-1,2.9-4.6c.7-1.3,1.6-3.2,2.8-5.6-1,.8,4.7-9.7,6-12.5h0c1.8-3.7,3.5-7.4,4.9-10.4,1.4-2.9,2.4-5.1,2.8-5.9.9-2.1,1.7-3.3,2.3-4.2.6-.8,1.1-1.2,1.5-1.5.4-.2.9-.4,1.3-.5.9-.2,1.7-.2,2-.2.5,0,.8,0,.8-.4s-.4-.4-1.2-.4v-.3h0Z"/>
        <path class="st10" d="M345.1-42.5c-.7,0-1.7,0-2.7-.4-1.4-.4-3.4-1.3-5.9-6.7-4.2-9.1-15-33.9-16-36.2-.8-1.9-1.1-2.2-1.5-2.2s-.7.4-1.5,2.3l-15.6,37.3c-1.2,3-2.6,5.3-5.8,5.7-.5,0-1.5.1-2,.1s-.6.1-.6.4.4.5,1.3.5c3.2,0,7-.2,7.8-.2s3.7.2,5.4.2,1-.1,1-.5-.2-.4-.7-.4h-.7c-1.2,0-2.6-.5-2.6-1.7s.3-2.5,1-4l4.1-10.6c.1-.3,9.6-.1,9.9-.1l.9-2.5h-9.4c-.2,0-.3-.1-.2-.4l6.1-16.2c.3-.9.7-.9,1,0l14.2,33.9c.4,1,0,1.5-.4,1.6-.3,0-.5.2-.5.4,0,.4.8.4,2.1.4,4.8.1,9.8.1,10.8.1s1.4-.1,1.4-.5-.3-.4-.7-.4"/>
        <path class="st10" d="M379.4-59.1c0,5.8,0,10.5.3,13,.2,1.7.6,3.1,2.7,3.3,1,.1,2.5.2,3.1.2s.5.2.5.4c0,.3-.3.5-1.1.5-3.8,0-8.1-.2-8.5-.2s-4.7.2-6.7.2-1.1-.1-1.1-.5.1-.4.6-.4,1.4-.1,2.1-.2c1.4-.2,1.7-1.6,2-3.3.3-2.5.3-7.3.3-13v-25.4h-10.2c-4.3.2-5.9.6-7,2-.8,1-1,1.4-1.2,1.9s-.4.6-.7.6-.3-.2-.3-.5c0-.6,1.4-5.8,1.5-6.3.1-.4.4-1.1.7-1.1.5,0,1.2.6,3,.7,2,.2,4.6.3,5.4.3h25.8c2.2,0,3.8,0,4.9-.3,1,0,1.6-.3,1.9-.3s.4.4.4.7c0,1.8-.2,6-.2,6.6s-.2.8-.5.8-.5-.2-.5-1v-.7c-.3-1.8-1.9-3.2-8.5-3.3h-8.7c0,0,0,25.3,0,25.3h0Z"/>
        <path class="st10" d="M457.9-42.5c-.7,0-1.7,0-2.8-.4-1.5-.4-3.4-1.3-5.9-6.7-4.2-9.1-15-33.9-16-36.2-.8-1.9-1.1-2.2-1.5-2.2s-.7.4-1.5,2.3l-15.6,37.3c-1.2,3-2.6,5.3-5.8,5.7-.6,0-1.5.1-2,.1s-.6.1-.6.4.4.5,1.3.5c3.2,0,7-.2,7.8-.2s3.7.2,5.4.2,1-.1,1-.5-.2-.4-.7-.4h-.7c-1.2,0-2.6-.5-2.6-1.7s.3-2.5,1-4l4.1-10.6c.1-.3,9.6-.1,9.9-.1l.9-2.5h-9.4c-.2,0-.3-.1-.2-.4l6.1-16.2c.3-.9.7-.9,1,0l14.2,33.9c.4,1,0,1.5-.4,1.6-.3,0-.5.2-.5.4,0,.4.7.4,2.1.4,4.8.1,9.8.1,10.8.1s1.4-.1,1.4-.5-.3-.4-.7-.4"/>
        <path class="st10" d="M197.5-69.6c0-9.4,0-11.1,0-13,0-2-.7-3-3-3.4-.5,0-1.7-.2-2.3-.2s-.6,0-.6-.4.3-.5,1.1-.5h7.7c.5,0,14.2,0,15.8,0,1.3,0,2.4-.2,3-.3.3,0,.6-.3,1-.3s.3.2.3.5-.3,1.1-.6,2.8c0,.6-.2,3.3-.3,4,0,.3-.2.7-.5.7s-.5-.3-.5-.8,0-1.4-.4-2.2c-.5-1-1.2-1.7-4.9-2-1.2,0-8.7-.2-9.4-.2s-.4.2-.4.6v16.6c0,.4,0,.6.4.6.9,0,9.4,0,10.9-.1,1.7-.1,2.6-.2,3.2-.8.5-.5.8-.8,1-.8s.3.1.3.5-.3,1.4-.5,3.4c-.1,1.2-.3,3.4-.3,3.8s0,1.1-.5,1.1-.5-.2-.5-.5c0-.6,0-1.2-.3-2s-.9-1.9-3.6-2.1c-1.9-.2-8.7-.3-9.8-.3s-.5.2-.5.4v15.6c.2,4.2,1.2,4.9,8,4.9s4.8,0,6.6-.7,2.6-1.9,3.1-4.3c.1-.7.3-.9.6-.9s.4.5.4.9-.5,4.6-.9,5.8c-.5,1.6-1,1.6-3.7,1.6-5.2,0-8.9-.1-11.6-.2-2.7-.1-4.3-.2-5.4-.2h-2.8c-1.4,0-3,.1-4,.1s-1.1-.1-1.1-.5,0-.4.5-.4c.6,0,1.5-.1,2.1-.2,1.4-.2,1.7-1.6,2-3.3.3-2.5.3-7.3.3-13v-10.5s.2.2.2.2Z"/>
      </g>
    </g>
  </g>
  <g id="Mirage" class="st8">
    <g>
      <path class="st7" d="M375.4-125.1c-2.9-2.6-6-5.5-9.1-7.7-1.2.3-.9-1.4-1.9-1.4-1.6-.5-3.1-1-4.9-1s-.5.3-.6.6c0,.5.5.7.8.9,1.8,0,3.1,1.5,4.6,2.3,2.8,2.7,5.5,5.6,5.5,9.5s-.6.8-1.1.9h-1c-.6-2.3-2-4.4-3.9-6-.2,0-.3.2-.4.2.3,3.3,2.5,6.5.9,9.9-.3.3-.4.7-.5,1.2-.7.2-1.4.7-2.1.3-.5-.5.1-1,0-1.6.7-.4-.3-.6-.3-1,0-2.6-.9-4.9-2.3-7,.3-1.1-1.3-1.4-1.2-2.5-.3-.5-.8,0-.9.4-3.2,6.3-3.6,13.9-4.1,21.4,0,6.6.9,13.4,0,20-.2,6.6-1.6,12.6-2.5,18.8-.2.9,0,2-.4,2.8-.4,5.7-1.2,11.4-2.1,17.1-.7,1.9-.3,4-1.5,5.6.3,1.6-.9,2.5-1.2,3.9,0-.6.4-1.4-.2-2,.6-.6.5-1.4.2-2.1-.8,0-.6-.8-.5-1.2.4-.2.9-.8.9-1.5-.3-.5-1.6-.4-1.2-1.2.3-.2.7.2.9-.3.2-.8-.7-1.4,0-2.1-.3-.3-.6-.7-.3-1.1,1,0,.5-1.3.6-1.9.5-1.3-1.1-2.4-.4-3.8.4.1.3-.4.4-.6,0-.7-.2-1.4-.4-2,0,.5-1.2.5-.3,1.1.5.4-.4.8-.7,1-.1-.2-.2-.3-.1-.6.3-4.6.6-9.3.9-13.8.6-2,.6-4,.9-6.1.6-.4.9-1.2.6-1.9.8-3.8,1.2-7.9,1.3-11.8.6-.7-.1-1.5.2-2.4.2-.8.4-1.7.1-2.4.7-1-.2-2.2.4-3.3-.6-1.1.1-2.5-.5-3.7.5-4.1-.6-7.8.5-11.5,0-3.5.9-7,1.1-10.4.2-.7,1-1.6.3-2.2h-.2c-1.7,2.1-3.1,4.4-3.7,7.1-.4-.3-1.1.7-.9-.3-.9-1.3,1.6-1.3.5-2.7-.1-.2-.3-.3-.5-.3-.5.5-.7.7-1.2.8-.3-.3,0-.5,0-.9.5-.3-.1-.9.3-1.3.6-1.4,1.1-2.9,1.9-4.2,0-.7.9-1.2.4-1.8-1.8,1.1-3.4,2.6-4.7,4.2-.3-.6-.5.2-.7.3.3-.9.6-2.6.8-4-.8-.8.6-1.6.7-2.5,1.2-1.6,2.6-3.3,3.3-5-1.8.2-3.9,0-5.4,1.2-3.2.5-5.6,3.1-8.9,3.4-.3,0,0-.5.2-.4,1-.9,2-1.7,2.9-2.6,0-.4.2-.5.6-.5s.2.3.4.3c.6-.7-1.8-2.1.2-2,.3.3.9.9,1.4.7,0-.5-.4-.9-.5-1.3,2.4-1.3,4.9-2.7,7.5-3.4,1,.2,2.7.5,3.7-.2-.4-1.4-2.2-.7-3.1-1.6-1.7-1-3.7-1.4-5.6-1.7-1-.7-2.5-.5-2.6-2,0-.3.3-.5.6-.5,1,.6,2.6,0,3.3,1.1,0-.8.8-.3,1.2-.5,1.9-.3,4,.5,6,.8,3.5.7,6.5,2.3,9.2,4.7,1.1,0,.8,1.4,1.8,1.3,5.4-.3,9.3,3.8,13.2,7.2.7,1.7,3.2,2.4,3,4.6.7.2.7,1.1,1.2,1.7,0,.4-.4.4-.6.6"/>
      <path class="st7" d="M344-50.2c-.1-.6,0-1.4,0-2,.2,0,.4.1.4.4-1.1.6,1.2,1.5-.5,1.6"/>
      <path class="st7" d="M344.3-53c-.4.1-.3-.3-.3-.6v-.3c.4,0,.4.6.2.8"/>
      <path class="st7" d="M343.9-47.7c0-.2,0-.8.2-.6-.2.2.2.7-.2.6"/>
      <path class="st7" d="M340.3-123.1c0-.3.2-.4.3-.4,0,.2-.1.3-.3.4"/>
      <path class="st7" d="M321.2-137.2c-.8,0-1.3-.7-1.7-1.3-.8-3.3-4.4-4.6-6.1-7.2-.3,0-.6-.9-.9-.2,1.2,3.1,4.8,5.8,3.2,9.5-.6.4-1.3.6-2,.4-.5-.3-.2-1-.5-1.5-.8-1.9-1.9-3.8-3.3-5.2-.7,0-.4.8-.4,1.2,1,2.3.5,5.2.7,7.8-.1.5-.1,1.2-.7,1.2-.6.4.1.6.2.9-.3.6-.4,1.3-.7,1.8-.7-.4,0-1.1-.4-1.7,0-.2.8-.2.3-.5,0-.2-.3,0-.5,0-.6.3,0,1.2-.5,1.4-.3-.7.4-1.4-.3-2,.4-2.3-.9-4.5-1.2-6.7-.8-1.9-1.4-3.9-2.4-5.8h-.3c-1,2.4-1.3,5.1-2.1,7.5-2.3-2.2-4.9-4.7-7.6-6.4,0-1.2,1.2-2,.8-3.3-.9.4-2.4,1-2.8,2.1-1.6.7-2.1-1.1-3.9-.8-.5-.3-.9,0-.8-.4,1-.8,1.7-2.7,2.8-3.4,0-.4.8-1,.2-1.5-2.5,0-4.2,2-6.6,2,.3-.3,1.2-1,.2-1-.3.3-.9,0-1.3,0-.6-1.6,1.1-2.1,1.3-3.4,3.6-2.7,8.2-3.9,12.9-3.3,1.3.2,3,.4,4.4.6,4.7-2.7,11.4-3.5,17.1-2,.9.8,3,.8,2.5,2.5-1.2.3-2.1-.6-3.5-.5-1.1.4-2.7,0-3.8.2-1.6.9-3.6.8-5.1,1.5.2,1.3,1.8,1.1,2.7,1.7,4.1,3.4,7.5,7.8,10.3,12,0,1.3.4,2.8-.2,4"/>
      <path class="st7" d="M299.5-70.1c-.3,3-.3,6.1-1.6,8.8-.5.5-.4-.4-.5-.7-.2-.5.3-.4.4-.7-.3-1-.5-2.1-.6-3.2,0-.2.4-.4.3-.8-.7-.7.9-1.6-.2-2.4-.2-.6-.8-.3-.9,0-.3,1.7-.5.1-.4-.6,0-.4.3.2.5,0,.5-.9.7-1.9,1.1-2.9-.1-.3-.3-.6-.6-.6-.3,0-.2.5,0,.7-.2.1-.6-.3-.7,0,.4.4.2.8,0,1.3,0,0-.2.2-.3,0,0-5.9-.8-11.6-1.1-17.5-.7-2.5-1.3-5.1-1.4-7.8-.4-11.1,0-21.3,1.4-31.8.3-.7.4-1.6.7-2.4h.4c.5.8.2,2.5,1.5,2.3.4-.4.9,0,1.3-.4.2-2.5-1-4.6-2.5-6.4,0-1.1.3-2,.5-3.1,0,0,.1,0,.2-.2,1.3.9,2.7,2,3.9,3.1v.6c-.6,2.7-.7,5.4-1.6,7.9-.6.6-2.3.7-2,2.2-.8.3-.9,1.2-.7,1.9.6.6,1.9-.5,1.9.5-.2,0-.2.4-.4.5.2,0,.2.2.4.4-.2,5,0,11.1-.9,16.9.8,4.3-.2,9.2.9,13.4-1.1,3.3,1.5,5.7,1,9.1.2,1.7,0,3.6.5,5.2-.8,2.1.3,4.5-.7,6.4"/>
      <path class="st7" d="M296.2-62.5c-.3-.8,0-1.7,0-2.5.5.6.1,1.5.3,2.3,0,0-.1.2-.2.2"/>
      <path class="st7" d="M294.5-137c-.8-.6-1.6-1.4-2.4-1.9.2-.7,0-1.3.5-2.1.9-.2,1.9.3,2.3,1.1.1.5.9.4,1.2.9-.4.8-1,1.3-1.6,2"/>
      <path class="st7" d="M278.4-125c-.6-.5-2-.6-2.5-.9,0-.2,0-.5.2-.8.2-.9.6-1.8,1.2-2.6.6.4,1.2.7,1.7,1.2-.5,1,.2,2.6-.7,3.1"/>
      <path class="st7" d="M237.6-110.7c.1-.2.3,0,.5,0,0,0-.4,0-.5,0"/>
      <path class="st7" d="M271.2-130.9c-.2.4-.5.8-.6,1.2-.2.2-.5,0-.7,0-.1-.5.5-.9.6-1.4,0-.2-.2-.5-.6-.3-1,.6-1.4-.8-2-1.2.9-1.4,2.4-.9,3.3-1.9.3-.4.2-1,0-1.3.8-.7.9-1.8,1.4-2.5-.5-.4-1.5-.3-2.2-.2-3.9.8-7.7,1.8-11.6,2.7-1.9-1.3-3.5-3.5-5.8-4.1-.8-.2-1.4-1-2.3-1.2-3.7-1.1-7.5-2-11.4-2.9-1.4,0-3.3-.5-4.6,0-.4,2.5-3.7.9-5.3,2-.5,0-.7.5-.5.9-.7,1-.8,2.4-1.8,3.2-.7,0-1.6.6-1.8,1.4.2.2.5.3.8.3,1.4-.5,2.9-1.1,4.5-.8.8-.2,1.5-.2,2.2-.4,2-.2,4.2.6,6.5.7.5,0,.9.8,1.5.3,1.1.3,2.4.2,3.3,1.1.1.4-.4.5-.6.8-2.9.7-5.5,2.3-8.2,3.4-3,2.6-6.3,4.9-9,7.5.2.2.4.2.7.2.3-1.2,1.4.3,1.6-1,.4-.3,1-.4,1.4,0,.1.7-.7.3-1,.5.3.9-1,.8-1,1.5-.5,0-.5.7-.9,1-.3,1.2-1.6,1.7-2.2,2.7,0,0,.2.2.4.2,1.7-1.3,3.9-1.4,5.5-2.8,2.1-.8,4.1-1.9,6.1-3.1,1.3-.5,2.6-1.1,4-1.6,2.3-.8,4.4-2.5,6.8-3.1.2.2.2.4,0,.5-2.6,2.1-5,4.8-6.7,7.4,0,.5,0,1-.2,1.4-.1,0-.3,0-.5.2-.2,1.1-.8,2-1.3,3,.2,1.7-1.5,2.8-1.1,4.5.3,0,.5,0,.9,0,.5.5.6,1.2.8,1.8-.3.5-.9,1-1.4,1.3s-1.1-.4-1.3.3c1,.4,2.1,0,2.8-.5,3.2-4.2,5.6-8.8,9.3-12.8,1.8-2.4,4.2-3.6,6.6-5,.5.2-.1.5,0,.9-3.1,3.5-4,7.7-3.9,12.4,1,6,1.7,12.1,2.6,18v6.1c.6,1.6-.1,3.1.4,4.7,0,5.9.5,11.9.2,18.2.1,1.4-.1,3.4,0,4.8-.4,1.1.6,1.8,0,2.7.2,5.1.2,10.3,1.6,15,.2.8.7.3,1.2,0,.2.3,0,1,.5,1,.4.2.7-.2.9-.5.3-2.5,1.8-4.5,2.4-6.8-.6-6.4-.3-13.1-.3-19.6-.6-8.9-.8-18.1-1.5-27.1-.7-.5-.3-1.5-.3-2.2-.4-.4-.4-1-.6-1.4-.2-6.3-3.8-13-.4-19.2.2-.2.6-.2.7,0,1.9,4.5,2.1,9.8,2.7,14.9,0,.5.5,1,.2,1.6.3.7,1.2.5,1.8.8.8-.6.9-1.5,1.7-2.2.4-1.9,1.7-3.9.9-5.8.3-5.5-2.6-10-3.1-15.4,0-.2.3-.4.6-.3,2.6,2.3,6,4.6,7.1,7.9,1.4,2.7.4,6.2,2.6,8.6.5.4,1.3.2,1.8,0,.3-1.9,0-4,.3-5.8-.1-.2-.4-.2-.4-.4.9-3.1-2.2-5.1-3.1-7.6-.2,0-.3,0-.4-.3-.1-1.2-1.6-1.3-1.6-2.5,1,0,2.2,0,3.3.2.4,0,.7-.5.7.2.2,0,.5,0,.9.2.4,0,.7,0,.8-.6.2-.6.1-1.3-.4-1.6-.7,0-1,.8-1.3,1.2-.3,0-.2-.7-.3-1,.6-.6.5-1.6.8-2.4-.8-.9-2,0-3-.5"/>
      <path class="st7" d="M273.6-59.2c.3,0,.4.3.4.6-.1.5-.3.8.2,1.2-1.3,2.1-.4-1-.6-1.7"/>
      <path class="st7" d="M273.6-54.2c-.4-.4-.2-1.4,0-1.9.3.5.4,1.3,0,1.9"/>
      <path class="st7" d="M261.4-139.7c0-.4.3-.8.7-.8-.4.2,0,1.3-.7.8"/>
      <path class="st7" d="M272.7-138.2c-.5.7-.6,1.8-1.4,2.5.2.3.3.9,0,1.3,0,1.1-.2,2.5-.7,3.4-.1.5-.7.9-.6,1.4.2,0,.5,0,.7,0,.2-.4.4-.8.6-1.2,1.1-1.7,2.9-3.2,4.5-4.4h.4c.5.6-.5,1.1-.4,1.9-.7.9-1.1,2-1.5,3.1-.3.8-.2,1.8-.8,2.4.1.3,0,1,.3,1,.3-.5.6-1.3,1.3-1.2.5.3.6,1,.4,1.6,0,.5-.5.7-.8.6.1.5-.1,1.3.3,1.8.2,0,.4,0,.5,0,.2-.5.3-1.1.5-1.6,0-.2,0-.5.2-.8.2-.9.6-1.8,1.2-2.6.5-.9,1.1-1.7,1.8-2.5h.4c.5.9-.3,1.7-.5,2.5v1.2c-.5,1,.2,2.6-.7,3.1-.3,1.9-.4,3.7-.4,5.7-1,3.9-.1,7.8-.5,11.7.4.8,0,2,.1,2.9.7,1-.2,2.2.3,3.4,0,.3-.5.6-.2,1-.4,1.8-.1,3.1-.5,4.8,0,3.9-.6,7.5-1.2,11.3.3.7,0,1.5-.6,1.9-.1,1.9-.1,4.3-.9,6.2-.3,5.1-.8,10.9-.9,16.4h.2c.5-.9-.4-2.2.8-2.8,0-.3-.5-.5-.4-.8.5,0,.1-.5.5-.7.2.7.7,1.5.6,2.3-.5.4-.7.8-.6,1.6.7,1.3.9,3,.4,4.4-.9.2,0,1,0,1.6-.7.6.2,1,0,1.7,0,.6-.7.2-1,.4-.2.9.9.6,1.2,1.2.2.5-.4.9-.6,1.3-.7,0-.3.8-.4,1.3.3,0,.5,0,.7.3.4.8-.2,1.4-.3,2.1.7.4,0,1.3.2,1.8.2-1.2,1.1-2.1,1.1-3.4s1.1-1.8.6-2.9c1.2-4.2,1.6-8.7,2.2-13.2,0-3.4.7-6.7,1-10.1,1.1-6.2,2.3-12.3,2.5-18.9,1.3-9.3-1.2-18.3.5-27.3.8-4.9,1.3-10,3.8-14.1.2,0,.6-.2.7.2-.1,1.1,1.3,1.3,1,2.4,1.5,2.1,2.2,4.5,2.3,7.2,1.1.6-.1,1.3,0,2,.2.5.8.6,1.3.8.2-.7,1.3-.2,1.1-1.2,1.2-1.5,1-3.9.8-5.8-1-1.2-.4-3-1.2-4.2-.1-.3,0-.9.4-.7,1.1.9,2,2.1,2.7,3.3h.4c.5.8.2,2.5,1.5,2.3.4-.4.9,0,1.3-.4.2-2.5-1-4.6-2.5-6.4-.6-.7-1.2-1.5-1.9-2.2h0c-.8-.6-1.6-1.4-2.4-1.9-.7-.5-1.4-.9-2.1-1.2-.5-.5-1.3.3-1.7-.5-.2-.3-.1-.9.3-1.1.9,0,1.9,0,3,.2.3.3.7.5,1.1.6.9-.2,1.9.3,2.3,1.1.1.5.9.4,1.2.9.3.2.7.6,1,.9,1.3.9,2.7,2,3.9,3.1,1.1,1,2.3,2.3,3.4,3.3.2,0,.2.2.5,0,.7-.9-.5-1.5-.6-2.3-.5,0-.4-.6-.4-.9-.4-1.2-1.5-2-2.3-3-2.3-2.2-4.9-4.7-7.6-6.4-.7-.4-1.2-1-2-1.3-1.6.7-2.1-1.1-3.9-.8-.5-.3-.9,0-.8-.4-.2-.4-.5-.6-1.1-.5-3.8-3.6-8.7-4.7-13.7-5.4-.8.5-1.3,0-2.2,0,0,.3-.4.7-.5.6,0-.3,0-.5-.3-.7-1.3.4-2.1-1-3.2-.4-.6,1.8,1.8,1.6,2.6,2.4,1.9,0,3.8.9,5.5,1.6.8,1,2.5.2,3,1.6-.1.6-.9.3-1.3.5-3.6-.8-6.4,1.3-9.3,2.7-1.4.3.4,1.2-.2,1.9-.2,0-.4-.2-.6-.5-.4,0-.4-.5-.7-.6-1.4.3.4,1.3.2,2-.3.4-.6-.3-.9-.2-.3,0,0,.4-.2.6-.9.8-1.5,1.3-2.4,2.2-.1.5-1.3.3-.7.8,3.1-.6,5.5-2.9,8.6-3.4,1.5-1.2,3.5-.9,5.3-1.3,0,0,.1,0,.2.2-.7,1.5-1.8,2.8-2.8,4.1"/>
      <path class="st7" d="M299.5-126.5c-.6.6-2.3.7-2,2.2-.8.3-.9,1.2-.7,1.9.6.6,1.9-.5,1.9.5-.2,0-.2.4-.4.5.2,0,.2.2.4.4,1.2-.3,2.1-1.3,3.3-1.7.8-.2,1.8-.7,2.6-.4,0,.9-.6,1.8-1.5,2.3-.2,1.2-2,1.6-1.8,2.7-.7.5.4,1-.1,1.6-.1,1.7-1.7,2.3-2.6,3.5,2.7-.7,4.6-3,7-4.4.1,0,.3,0,.4,0,.5-1.1,1.7-1.5,2.7-1.9.5.7-.2,1.5-.5,2.1-.9,2.9-2.5,5.6-3.1,8.5.3,0,.6-.5.9-.8.2.3.9,0,.8.6,0,.2-.3.2-.4,0-.9,1.1-.6,3.1-.6,4.4.1,0,.2,0,.3-.2,0-1.1,1.1-1.7,1-2.8,1-1.1,1.5-2.6,2.7-3.6.3-.3.3-1,.8-1.1.1,0,.1.2.2.3-.6,4.1-1.2,8.2-2.3,12-1.6,12.4-2.8,24.4-1.1,37,.7.6.2,1.6.6,2.3.4,5.9.8,11.6,1,17.4h.2c0-.3.5-.9,0-1.1,0,0,0-.3.2-.4.8.6,0-.2.7-.6.3,0,.5.5.6.8-.6.8-.7,1.8-1.2,2.7-.7-.5-.4.6-.5.8.5,0,.4-.7.9-.8.5.3.5.9.8,1.4-.2.4-1,1.2-.2,1.6-.7.7,0,1.3-.2,2.2-.1.7,1,1.4,0,2,0,.4,0,.7.2,1,.5,0,.4-.5.7-.6.5-2.6.8-5.2,1.1-7.9.5-1.6.4-3,.3-4.7.7-2.2-.4-4.4,0-6.7,0-.1,0-.2-.1-.3.5-3.3-2.1-5.7-.9-9-1.1-4.1.1-9.2-.8-13.4,1.3-6.1.6-13.1,1.5-19.4,1.8-7.2,2.6-14.8,5-21.8.2,0,.4,0,.5.2,1.4,4,3.1,7.9,3.2,12.3.6.6.2,1.3.3,2,.6,0,0-1,.6-1.4.2,0,.3,0,.4,0,.5.3,0,.5-.2.5.2.6-.3,1.3.3,1.7.2-.7,1.1-1.6.4-2.2,0-.2,0-.3.2-.4.7,0,.6-.8.7-1.3-.2-2.8.2-5.8-.7-8.4,0-.3,0-.7.4-.6.3.2.6.5.6.8,1.6,1.3,1.9,3.1,2.8,4.7.3.3-.1,1,.3,1.3.7,0,1.6.2,2-.4,1.4-3.3-1.3-5.9-2.8-8.5,0-.4-.6-.8-.2-1.3,1.8,1,3,3.4,4.8,4.6,1.5,1.5,1.5,3.7,3.5,4.7.9-1.1.3-2.8.4-4.1-2.7-4.3-6-8.8-10.1-12.1-.8-.7-2.5-.3-2.6-1.7.8-.6,1.9-.6,2.8-.8,1.9-.9,4.1-.8,6.3-.9,1.1,0,2.2.6,3.3.7.6-2-2-2.1-3-3-5.6-1-11.7-.6-16.4,2.2-1.6-.2-3.1-.4-4.7-.6-4.1-.5-7.8.4-11,2.2"/>
      <path class="st3" d="M285-13.1c-.4,1.2-.7,3-.3,4.3,1.2,1.2,2.3-1.1,3.5-1.4.6-.8,1.3-1.2,1.9-2-.3-1.3-.1-2.7.7-3.7.7-.6,1.8-1.1,2.5-.1,1.1.6.1,2.9,1.5,2.6,3.4-1.2,8.2-4.4,11.4-.7.6,1.1-.5,1.8-1.3,2.4-1.3.4-2.4-.4-3.5-.7-2.4.8-4.8,1.6-6.9,3.2,1.4,1.8.3,4.1-.7,5.7-1.2.5-2.2-.5-2.6-1.5-.1-.9-.6-1.7-.8-2.6-2.1,1.9-4,3.7-7.1,3.3-1.6-1.6-3.2-3.4-3.1-5.9.2-2.2.2-4.9,2.2-5.9.9,0,1.7.2,2.1,1,0,0,.8.8.5,2.1"/>
      <path class="st3" d="M283.2-24.2c-1.1,0-2.1,0-2.7-1.1-.4-.8.2-1.4.4-2,1.2-.4,2.4-.4,3.4.4,0,0,.2.9.1,1.6-.4.4-.6,1.1-1.2,1.1"/>
      <path class="st3" d="M278.1-4.4c-2.3.6-3.9-.8-5.7-1.6-2.5-2.4-2.6-6-5-8.5-2.3.3-3.8,2.1-5.8,2.9-4.4,2.9-9,7.5-14.6,4.9-3.5-2.1-3.2-6.1-5.3-9-4,.3-7.4,3.1-10.9,5-3.8,3.9-8.8,5.8-13.6,7.9-2,.5-3.5-.6-4.6-2.1,0-3.8,1.5-7,2.8-10.3,2.7-5.6,5.2-11.3,7.7-17.1.9-1.8.8-4.6-.3-6.2-5.4-2.3-10.7.2-16.3.2-5.5,2.1-11.3,3.5-16.7,6.2-2.9,1.9-6.2,1.9-9.2,3.8-3.6,2.3-7.2,5.2-11.2,6.6-2.5,1.2-3.9,3.6-6.5,5-4.4,2.3-8.5,5.3-13.2,6.8-1.9,0-4.1,0-4.8-2.1.5-2.4,3.4-2.7,5.2-3.3.7-.4,1.7,0,2.3-.4,20.4-13.7,41.2-26,66.2-28,3.6.3,7.3,1.1,9,4.5,2,8.4-3.8,15.2-6.4,22.6-1.8,2.7-3.4,5.8-3.8,9,.8.6,1.5-.4,2.3-.6,7.8-4.2,14.3-11.8,23.7-11.7,4.2,1,3,5.8,4.2,8.8,1,.9,2.5,1.6,3.8.9,5.1-2.4,9.5-6.7,14.8-8.6,2-.4,4.1,0,4.9,2,1.8,3.2,2.2,8.9,7.2,8.8,1.2.9,1.2,3.6-.5,3.8"/>
      <path class="st3" d="M309.4-8.5c-.8-.4-.7-1.4-.3-2,1.1-1.1,2.3-1.8,3.6-2.2,0,1.9-1.7,3.5-3.3,4.2M318.8-5.5c-1.2.7-2.9.7-4.4.5-.4-.5-1.2-1.2-1.7-1.8-1.5,2-3.8,3.2-6,2.6-1.7-.8-1.8-2.8-2.1-4.4.7-3.5,4.3-6.6,7.5-7.6,1.5,0,3.3.3,3.8,2,1.2,1.9-2.7,6.1,1.8,5.5.9,0,1.8-1,2.8-.3,1,1.5-.6,2.8-1.7,3.5"/>
      <path class="st3" d="M327.4-9.3c-.6.2-2.9.3-1.7-1.1.8-1.4,1.8-2.4,3.3-2.7.3.1.7,0,.9.4-.9,1.1-.9,2.9-2.6,3.4M325.1,23.2c-4.2,1.8-10,3.5-14.3.9-3-2.6-3.8-6.8-4.5-10.6.3-2.9,4.6-6.6,7.4-8.4,2.5-.3,4.5-2.5,6.8-3.6,3.6-1.3,6.9-3.1,10.8-3.7.6,6,1.4,11.8,0,17.8-.5,1.4-1.5,2.7-2.1,4.3-1.4,1.2-2.5,2.4-4,3.4M350.6-11.1c-.4-1.2,1-2,1.5-3,1.2-.3,2,.5,2.6,1.1-.4.7,1.6,1.6-.2,1.5-1.4,0-2.5.6-3.9.4M365.2-5.1c-2.1-.7-3.6.6-5.6.7-4,.8-9,1-11.9-2.3-4.3,1.1-8.7,2-13.1,3,.3,7.8,2.5,17.5-2.3,24.1-3.5,6.4-10.2,8.6-17.1,8.5-4.1-.5-8.5-2.2-10.3-6.5-1.9-3.7-3.3-8.7-1.3-12.7,5.3-8.2,14.5-10.8,22.5-14.2,1.5-.3,3-.8,4.4-1.6-.1-.4-.4-.9-.3-1.4-1.7.9-3.8,2.9-6.3,1.8-1.2-1-2.4-2.3-2.2-3.8.2-3.2,2.5-5.4,5.1-6.8,1.4-.5,3.1-.7,4.4.2.6,1.8,2.3-.3,3.3,1,.5,2.8-2.3,4.9-.5,7.6,0,.2.3.3.4.5,4-1.1,8.2-1.5,12-3,0-2.1,1.1-4.1,2.3-5.8,1.4-.9,2.9-2.1,4.8-1.3,1.4.4,3.4,1.1,3.5,2.9,1.2.8,3.2,1.4,3.2,3.1s-.1.4-.2.6c-2.6,1.3-5.3,2.1-8.1,2.8,4.3,1.2,8.4-.3,12.4-1.1.7.3,1.5.4,2,1.2.3,1.1-.2,2.2-1.3,2.4"/>
      <path class="st7" d="M341,1V0h.7c.4,0,.8,0,.8.5s-.4.6-.9.6h-.7.1ZM341,1.5h.6l1,1.6h.6l-1-1.6c.5,0,.9-.3.9-1s-.4-1-1.3-1h-1.4v3.6h.5v-1.6h0ZM341.6,4.4c1.7,0,3.2-1.3,3.2-3.1s-1.5-3.1-3.2-3.1-3.2,1.3-3.2,3.1,1.5,3.1,3.2,3.1M339.1,1.3c0-1.5,1.1-2.6,2.5-2.6s2.5,1.1,2.5,2.6-1.1,2.6-2.5,2.6-2.5-1.1-2.5-2.6"/>
      <polygon class="st7" points="273.1 10 271.8 10 276 20.9 280.2 10 278.9 10 276 17.9 273.1 10"/>
      <polygon class="st7" points="195.1 10 194 10 194 20.3 197.9 20.3 197.9 19.2 195.1 19.2 195.1 10"/>
      <path class="st3" d="M217.6,16.3h-3.5l1.8-4.1,1.7,4.1ZM218.1,17.4l1.2,2.9h1.3l-4.6-10.8-4.7,10.8h1.3l1.2-2.9h4.4-.1,0Z"/>
      <path class="st7" d="M240.4,11.4c-.6-1-1.5-1.6-2.7-1.6s-2.9,1-2.9,2.6,1,2.1,2.2,2.6l.6.3c.9.4,1.9.8,1.9,2s-1,2-2.1,2-1.9-.8-2.1-1.9l-1.1.3c.3,1.6,1.5,2.7,3.2,2.7s3.2-1.4,3.2-3.2-1.1-2.3-2.5-2.9l-.7-.3c-.7-.3-1.6-.7-1.6-1.6s.8-1.6,1.7-1.6,1.4.4,1.8,1.1l.9-.6h.2Z"/>
      <polygon class="st7" points="294.4 20.3 299.7 20.3 299.7 19.2 295.5 19.2 295.5 15.2 299.6 15.2 299.6 14.1 295.5 14.1 295.5 11.1 299.7 11.1 299.7 10 294.4 10 294.4 20.3"/>
      <path class="st7" d="M318.7,15.1v1.1h3.1c0,1.9-1.9,3.2-3.7,3.2s-2.2-.6-2.9-1.3-1.2-1.8-1.2-2.9c0-2.3,1.9-4.3,4.2-4.3s2.7.7,3.5,1.9l.8-.8c-1.1-1.4-2.5-2.2-4.3-2.2-3,0-5.4,2.4-5.4,5.3s2.4,5.3,5.3,5.3,2.9-.6,3.8-1.7,1.1-2.2,1.1-3.6h-4.3Z"/>
      <path class="st3" d="M343.2,16.3h-3.5l1.8-4.1,1.7,4.1ZM343.6,17.4l1.2,2.9h1.3l-4.6-10.8-4.7,10.8h1.3l1.2-2.9h4.4,0Z"/>
      <path class="st7" d="M365.9,11.4c-.5-1-1.5-1.6-2.7-1.6s-2.9,1-2.9,2.6,1,2.1,2.2,2.6l.6.3c1,.4,1.9.8,1.9,2s-1,2-2.1,2-1.9-.8-2.1-1.9l-1.1.3c.3,1.6,1.6,2.7,3.2,2.7s3.2-1.4,3.2-3.2-1.1-2.3-2.5-2.9l-.7-.3c-.7-.3-1.6-.7-1.6-1.6s.8-1.6,1.7-1.6,1.4.4,1.8,1.1l.9-.6h.2Z"/>
    </g>
  </g>
  <g id="subway" class="st8">
    <g>
      <path id="path3408" class="st5" d="M82.9-26c-.2-.3-.5-.5-.6-.5s-.7-.5-1.3-1c-.6-.6-1.4-1.2-1.8-1.5s-1-.8-1.3-1.1-1-.9-1.4-1.2-1.3-1-2-1.6c-.6-.5-1.3-1.1-1.5-1.3s-.8-.7-1.4-1.1c-.5-.5-1.1-1-1.3-1.1,0-.2-.3-.3-.5-.3s-.9-.6-1.6-1.3-1.5-1.3-1.6-1.3-.7-.5-1.3-1.1l-1.2-1.1,1-1c.6-.5,1.3-1.2,1.7-1.4.4-.3.8-.6,1.1-.8s1.2-1.1,2.3-1.9c1.1-.8,2.2-1.8,2.5-2.1s.6-.6.7-.6c.2,0,2-1.5,2.1-1.7,0,0,.4-.4.9-.7s1.3-1,1.9-1.5,1.3-1.1,1.6-1.3.6-.4.7-.5c.2-.4,2.2-2,2.4-2s.2,0,.2-.2,0-.2.3-.2.3.6.3,4v4h3.4c7.7.4,23.3.5,23.4.3,0-.1.3-.2.4-.2s.5-.3.8-.7c.6-.9.6-2.1,0-3.2s-1.3-1.5-8.8-5.1c-1.4-.7-2.9-1.4-3.4-1.6s-1.6-.8-2.5-1.3-1.8-1-2.1-1.1c-.5-.2-2.7-1.5-4.5-2.8-1.3-.9-4.3-3.7-4.8-4.4,0-.2-.4-.6-.7-1.1-.9-1.3-1.6-2.8-1.8-3.7,0-.5-.3-1.5-.5-2.3-.5-2.4-.3-8,.3-8.6,0,0,.2-.4.2-.7,0-.8,2-4.5,2.4-4.5s.2,0,.2-.3c0-.4,2.5-2.8,3.9-3.8.5-.3,1.7-1,2.8-1.5,4.7-2.3,5.5-2.4,19.7-2.3,6.1,0,12.2,0,13.4.2h2.2v15.5h-24.8c-.3,0-.8.3-1.2.6-.4.3-.6.9-.6,1.8,0,1.3,0,1.4.5,1.9s.9.8,1.3,1,1.6.9,2.7,1.4c1,.6,2.1,1.1,2.4,1.2.3,0,.8.3,1.1.5s.6.3.7.3,1.7.7,4.7,2.2,1.2.5,1.3.5.3,0,.3.2,0,.2.3.2.3,0,.3.1c0,.2,1.5,1,1.8,1s.7.3,1.2.6,1,.6,1.1.6.4.2.8.5c.3.3.9.7,1.3.8.4.2.9.5,1.2.8,1.2,1.1,1.5,1.3,1.9,1.5s.8.7,1.3,1.3c.5.6,1,1.2,1.1,1.3.3.3,1.2,1.7,1.2,1.9s.2.7.5,1.3c1.1,2.7,1.5,7.2.9,10.6-.3,1.7-1.2,4.5-1.8,5.6s-2.6,3.6-3.4,4.2-1,.8-1.3,1.1-.7.6-.9.6-1.5.7-1.7.9c0,0-.6.3-1.2.5s-1.2.5-1.3.5c-.4.3-3.3.9-5.6,1.1-2.9.3-8.6.5-8.6.2s-3-.2-9.8-.2h-11.4v4.1c0,4.5,0,4.7-.9,3.6h0s-.3.3-.3.3ZM155.6-32.2c-2.2-.3-4.5-.9-6.9-1.7-2.2-.8-3-1.1-5.1-2.5-.4-.3-.8-.5-.9-.5-.6,0-5.4-5-5.4-5.7s-.2-.6-.5-1.1c-.5-.9-1.1-2.3-1.6-4-.3-.8-.3-3.7-.3-25.8v-24.9h19v46l.4.8c.7,1.3,1.1,1.7,2.6,2.5l1.4.7h2.6c2.6,0,4.2-.3,4.8-1s.3-.2.5-.2c.3,0,1.5-1.4,1.8-1.9,0-.3.2-9.4.2-23.6v-23.2h19.3v48.5l-.5,1.6c-.3.9-.6,2-.7,2.4-.3,1-1.5,3.3-2.1,3.8-.2.2-.5.6-.7,1-.4.7-3.4,3.6-4.3,4-.4.2-.8.5-1.1.7-.5.5-3.5,2-3.9,2s-.6,0-.9.3c-1.7.8-4.1,1.4-7.3,1.9-2.2.3-8.1.3-10.5,0h0ZM271.4-32.3c-2.3-.2-4.2-.7-6.8-1.5-3.4-1.1-5.5-2.4-7.8-4.5-.8-.7-1.4-1.4-1.4-1.4,0,0-.4-.5-.8-1.1-.9-1.2-1.8-2.7-1.8-3.1s0-.4-.2-.5c-.2-.2-.9-2.3-1.3-4-.3-1.2-.3-3.7-.4-25.6v-24.3h19.2v23c0,20.8,0,23.1.3,23.9.4,1.3,1,1.8,2.6,2.3,2.7.8,6,0,7.1-1.4l.5-.8v-47h19.1v23c0,25.4,0,24.1,1.2,25.2.9.9,2.1,1.3,4.2,1.3s2.1,0,2.8-.4c1.2-.4,1.6-.7,2.1-1.8.3-.7.3-1.4.3-24v-23.3h19.3v23.9c0,20.8,0,24.1-.3,25.4-.3,1.9-1,3.9-1.7,5.2-.3.6-.5,1.1-.5,1.3s-.1.4-.2.5-.5.6-.8,1c-1.1,1.4-2.5,3-3.5,3.7-1.7,1.3-4.1,2.8-5,3-.3,0-1.2.4-1.9.6-3.6,1.3-8.6,1.8-12.5,1.4-2.1-.2-5.7-1.1-6.8-1.5-.3-.2-1-.4-1.5-.6-.9-.3-3.1-1.5-3.7-2.1s-1.1-.6-1.9-.2c-.4.2-.7.5-.7.5,0,.2-2.9,1.8-3.2,1.8s-1.2.3-2,.7c-2.4,1.1-8.2,1.7-12.2,1.3h.2,0ZM335.6-33.4v-24.6c0-22.3,0-24.5.4-25.7.3-1.2,1-3.4,1.4-4.1,0-.2.4-.7.6-1.3.2-.5.6-1.1.7-1.2.6-.6,1.5-1.8,1.5-2s.3-.5.8-.8,1.2-1,1.7-1.5,1-.8,1.1-.8.7-.3,1.3-.7c2.3-1.5,6.3-3,10.5-3.8,2.3-.4,8.1-.6,10.6-.3,3.2.4,6.4,1.1,8,1.9.4.2.9.3,1.1.3.4,0,2.7,1.2,3.4,1.7.3.2.9.6,1.2.8.8.4,3.8,3.1,4.1,3.7.1.3.5.8.9,1.2,1.1,1.2,2.4,4.1,3,7,.3,1.4.3,2.8.3,25.9v24.4h-19.1v-18.8h-14.1v18.8h-9.5c-7.7,0-9.5,0-9.6,0h-.3ZM369-73.4c0-5.9,0-6.3-.4-7.3-.5-1.3-1-1.8-2.5-2.4-2.5-1.1-6.1-1.1-8.5,0-1.4.7-1.7,1-2.3,2.2l-.5,1v12.8h14.1v-6.3h0ZM409.5-42.6v-9.4l-1.6-.5c-.9-.3-2.4-.9-3.2-1.3-.9-.4-1.7-.8-1.8-.8-.3,0-2.1-1.3-3.7-2.6-1.3-1.1-2.6-2.6-3.7-4.2-.3-.5-.6-.9-.7-1.1-.2-.3-1.3-3.3-1.6-4.9-.2-1-.3-3.5-.3-16.1v-14.9h18.9v12.9c0,13.2,0,14.7.7,15.5s2.6,1.9,3.7,2.2c1.3.3,4.3.4,5.5,0,1.9-.4,3.6-1.6,4.3-3.2.3-.7.3-1.3.3-6.7s0-6.8.2-7.7c.2-2,.9-4.8,1.5-6.1.4-.9,2.8-4,3-4s.6-.3,1.1-.8c1.2-.9,2.7-1.6,3.8-1.8.5,0,1.4-.3,2.1-.4,1.1-.2,2.8-.3,9.2-.3h7.9v-4.1c0-4,0-4.6.5-3.8.1.2.5.5.9.8s1.2.9,1.8,1.5c.6.6,1.4,1.2,1.7,1.3s.6.4.7.5c.3.4,2.1,2,2.4,2s.2,0,.2.2,1.1,1.1,2.4,2.1c1.3,1.1,2.6,2.2,2.8,2.4s.4.4.6.4.8.5,1.4,1.1,1.4,1.2,1.6,1.4c.8.5,2.4,2,2.4,2.3s-1.6,1.8-2.7,2.6c-.4.3-.9.7-1.1.9s-1.4,1.2-2.6,2.2-2.3,1.9-2.4,2-.4.3-.7.5c-.3.2-1,.8-1.6,1.3s-1.2,1-1.3,1-.7.5-1.3,1-1.4,1.2-1.7,1.4-1.2.9-1.9,1.5-1.6,1.3-1.8,1.5l-.5.4v-8.2h-4.7c-3.5,0-4.7.2-4.9.3s-.3,1.9-.3,7.2c0,5.6-.8,9.8-2.2,12.7-.4.8-.9,1.7-1.2,2-.3.3-1,1.1-1.6,1.8-.6.7-1.2,1.2-1.3,1.2s-.5.3-.9.6c-.8.8-2.1,1.6-2.9,2-.3.1-1.3.6-2.2,1s-2.1.9-2.9,1.2l-1.3.4v18.8h-19.2v-9.4h0l.2.2h0ZM193.3-65.8v-32.5h16.3c17.8,0,19.8,0,22.8,1,1.9.6,4.5,1.9,5.9,2.9,1.1.8,2.4,2.1,3.6,3.5.7.8,2,3.5,2.5,5.3.5,1.4.5,1.8.5,5s0,3.6-.2,3.8c-.1,0-.3.6-.4,1-.3.8-1.3,2.9-1.9,3.6-.2.3-.3.5-.3.6s-2.9,3-3.1,3-1.2.8-1.2.9.3.3.8.4c.4.2.9.5,1.2.7s.8.6,1.1.9c1.6,1.2,3.8,3.9,4.1,5,.1.4.3.8.4.9.3.4,1.1,3.4,1.2,4.7.2,1.7,0,5.3-.3,6.6-.4,1.6-1.5,4.8-2,5.6-.6,1-1.7,2.6-2.2,3-1.6,1.6-2.7,2.5-3.6,3-.5.3-1.3.7-1.7.9-1.5.8-3.2,1.5-3.7,1.5s-.8,0-1.1.2c-2.2.7-3.8.7-21.4.7h-17.3v-32.5h0v.3h0ZM223.4-47.9c.9-.2,2.1-1,2.3-1.4,0-.1.2-.3.3-.3s.4-.4.7-1c.4-.9.4-1.2.4-3.6v-2.7l-.7-1.1c-.4-.6-1-1.3-1.4-1.6l-.8-.5h-5.9c-3.2-.1-5.9-.2-6-.1s-.1,2.8-.1,6.2v6.1h5.2c3.3,0,5.5,0,6-.2h0v.2ZM223.4-72.9c.9-.5,2.1-2.1,2.3-3.2.6-2.9,0-5.7-1.4-6.9-.9-.7-3.2-1.1-6.9-1.2h-5.2v11.7h5.2c5,0,5.2-.1,6-.5h0Z"/>
      <path id="path3404" class="st6" d="M270.1-32.5c-2.1-.3-3.7-.7-6-1.5s-2.6-.9-4.2-2c-.6-.4-1.3-.8-1.3-.8,0,0-.8-.6-1.6-1.4-2.4-2.3-3.7-4.3-4.7-7.4-1.2-3.6-1.1-2.6-1.1-28.8v-23.8h9.5c7.4,0,9.5,0,9.5.2v23.2c0,22.1,0,23,.4,23.8.4.9,1,1.6,1.3,1.6s.5.1.8.3c.8.4,2.7.6,4.1.5,2.3-.3,3.8-1.3,4.2-3,.1-.4.2-9.3.2-23.6v-23h9.3c8.3,0,9.4,0,9.5.3,0,.2.1,10.6.1,23.3,0,21.9,0,23,.3,23.7.2.4.5.9.8,1.2,1.3,1.2,4.9,1.6,7,.8,1.4-.5,1.5-.6,2.1-1.6l.5-.8v-23.3l.2-23.3h19v24.3c-.1,22.2-.2,24.4-.4,25.6-.4,1.8-1.1,3.8-1.7,4.7-.3.4-.5.9-.5,1.1,0,.4-1.9,2.9-3.4,4.3-.7.7-1.9,1.6-2.6,2.1s-1.6,1-1.9,1.2-1,.5-1.4.6-1,.3-1.3.5c-.9.4-3,1-4.8,1.3-2.4.5-8.9.5-11.1,0-1.5-.3-3.6-1-4.6-1.4-.3,0-.7-.2-.9-.3-.4,0-3.8-2-4-2.3,0,0-.3-.2-.5-.3-.5-.3-1,0-2.6,1.1-.5.3-1.1.8-1.5.9-1.3.7-5.2,2-7.5,2.4-1.9.4-6.9.4-9.2,0h0s0-.4,0-.4ZM335.8-57.4c0-26.9,0-25.4,1.3-29.2.8-2.1,1.2-2.9,2.4-4.3.4-.5.7-.9.7-1s.5-.6,1.1-1.2c.6-.5,1.4-1.3,1.8-1.6.3-.3.7-.6.8-.6s.5-.2,1-.5c1-.7,3.6-2,4-2s.6,0,1-.3c2.1-.9,5.6-1.6,9.3-1.9,4.4-.3,9.3.2,13.2,1.4.9.3,1.9.6,2.4.7,1.1.3,2.9,1.3,4,2,.5.3,1,.6,1.2.7.2,0,.8.5,1.4,1.1s1.2,1.1,1.4,1.2c.2.2.8.8,1.2,1.4s.9,1.3,1.1,1.4c.9.9,2.4,4.8,2.8,7.3.2,1.4.3,4.8.3,25.6v24h-18.9v-18.7h-14.5v18.7h-18.9v-24.1h0ZM369.2-73.3v-6.1l-.5-1.3c-.6-1.5-.8-1.8-2.6-2.6-1.2-.5-1.6-.6-3.4-.7-2.4,0-3.7,0-5.2.8-1.4.6-1.6.9-2.2,2.1l-.5,1v13h14.5v-6.1h0ZM409.5-42.7v-9.4l-.9-.3c-1.3-.4-3.7-1.4-4.5-1.9-.4-.2-1-.5-1.2-.5s-.6-.3-.8-.4-.8-.7-1.4-1.1c-2.4-1.6-5-4.6-6.1-7-.6-1.3-1.4-3.9-1.6-5.3,0-.6-.2-7.6-.2-15.5v-14.3h18.8v13.5c.2,9.5.3,13.7.4,14.1.2.6,1.3,1.7,2.3,2.4.8.5,3.1,1,4.4,1,2.7,0,5.3-.9,6.3-2.2,1.3-1.6,1.2-1.2,1.4-9.5,0-4.1.2-7.8.2-8.1.7-3,1.6-5,2.9-6.7,1.7-2.1,4.6-3.9,7.2-4.3,3.1-.6,4.1-.6,11.2-.6h7.4v-4.1c0-3.9,0-4.1.3-3.7.2.2.6.6,1.1.9s1.2.9,1.8,1.5,1.2,1,1.3,1,.8.6,1.6,1.3,1.5,1.3,1.6,1.3.4.2.7.5c.3.3,1.4,1.3,2.5,2.1,1.1.9,2.1,1.7,2.3,1.9s.9.7,1.5,1.2,1.3,1.1,1.4,1.3c.2.2.4.4.6.4s.8.5,1.5,1.2l1.3,1.2-1,1c-.5.5-1.3,1.2-1.8,1.5-1,.8-4.5,3.7-5.7,4.7-.5.5-1.1.9-1.1.9l-1.2,1c-.6.5-1.4,1.2-1.7,1.4-.3.2-1.1.9-1.7,1.4-.6.6-1.2,1-1.3,1s-.8.6-1.6,1.3c-.8.7-1.5,1.3-1.6,1.3s-.2,0-.2.2,0,.2-.2.2-.2-1.5-.2-4v-4h-4.2c-4.6,0-5.5,0-5.7.7,0,.2-.1,2.8-.1,5.6,0,5.5-.2,7.9-.7,9.9-.3,1.4-1.5,4.1-2.4,5.4-.7,1.1-3,3.5-4.5,4.6-1.2.9-5.5,3-7.7,3.8l-1.5.5v18.6h-19.1v-9.4h0v.5h0Z"/>
    </g>
  </g>
</svg>