<?xml version="1.0" encoding="UTF-8"?>
<svg id="Layer_1" xmlns="http://www.w3.org/2000/svg" version="1.1" viewBox="0 0 460 286">
  <!-- Generator: Adobe Illustrator 29.1.0, SVG Export Plug-In . SVG Version: 2.1.0 Build 142)  -->
  <defs>
    <style>
      .st0, .st1, .st2 {
        fill: #fff;
      }

      .st0, .st3 {
        fill-rule: evenodd;
      }

      .st4 {
        fill: #ebeae9;
      }

      .st5 {
        fill: #e2e2e2;
      }

      .st6 {
        fill: #bcbcbc;
        stroke: #bcbcbc;
        stroke-miterlimit: 4.5;
        stroke-width: 1.1px;
      }

      .st7, .st3 {
        fill: #bbb8b7;
      }

      .st8 {
        fill: #cfcfce;
      }

      .st9 {
        fill: #bcb8b7;
      }

      .st10 {
        fill: #8e8d8d;
      }

      .st2 {
        stroke: #231f20;
        stroke-miterlimit: 10;
      }

      .st11 {
        display: none;
      }
    </style>
  </defs>
  <g id="_x34_60x286" class="st11">
    <rect class="st2" x="-47.1" y="-170.6" width="460" height="286"/>
  </g>
  <g id="countrytime" class="st11">
    <g>
      <path class="st10" d="M206.1,6h0v-24.3c1-1.3,2.8-1.4,2.9-1.4h.6v-4.9c.1,0,.1-.7.1-.7h-2.9c1.1-1.2,2.8-1.3,2.9-1.3h.7v-5c.1,0,.1-.7.1-.7h-.7l-16.3-.6h-.6v.5c-.1,0-6.6,28.1-6.6,28.1l-6.3-29v-.5h-15.9c0,.1-.7.1-.7.1v6.4h.7c.8,0,1.4.3,1.9.7h-2.1v6.2h.7c1.4,0,2.1.9,2.5,1.7V6c0,1.4-.3,2.5-1,3.1-.8.8-1.9.7-1.9.7h-.7v6.5h.5v5.7h14.7v-6.1h0v-5.8h-.7c-1.4,0-2.4-.4-3-1.1-.3-.3-.5-.7-.6-1V-9l7.1,30.5v.5h6.5v-.5c.1,0,7-30.2,7-30.2V7.4c-.2.5-.4.9-.8,1.3-.6.6-1.5.9-2.4,1h-.7v5.8h-.3v6.5h19.2v-5.7h.8v-5.9h-.5c-4.6-1.1-4.2-4.3-4.2-4.4h0ZM250.2,3.5l-.6-.3-.3.6c-2.8,5.1-6.7,5.5-11.2,5.5s-4.3-.9-4.6-1.2V3.6h.8c2.7,0,3,3.3,3,3.4v.6h5.3V1.5h1.8v-12.5c1.3,1.2,1.8,2.3,1.9,2.4l.2.5h.5c0-.1,3.5-1,3.5-1l.7-.2-.3-.7-1.8-4.8,3.3-.9.7-.2-.3-.7-3-8.2v-.4h-.5c-6.2-1.1-29.1-5.7-29.3-5.8l-.8-.2v5.6h.5c1.9.7,2.8,1.6,3.2,2.3l-3.9-.8-.8-.2v5.5h.5c3.5,1.2,3.4,3.3,3.3,3.4V9.3c-.5.4-1.1.6-1.7.6h-.7v5.8h-1.1v6.2h29.7l.2-.5,1.8-5.2h0l.2-.5,3.4-9.8.2-.5-.5-.3-3.1-1.7h-.2ZM154,16.3h.3v-5.7h-.6c-1.4-.2-2.4-.6-3.1-1.3V-15.8c0-3.7,3.4-4.6,3.4-4.6h.5v-6.1l-.8.2c-1,.2-2,.5-3,.7.6-.8,1.5-1.3,2.5-1.7h.5v-6.3l-.8.2c-8.6,2-17.1,3-17.1,3h-.6v6.6h.8c1.1-.3,1.9-.1,2.5.2-.8.1-1.3.2-1.3.2h-.6v6.4h.8c.7-.3,1.4-.2,2.1,0V7.1c0,2.7-2.9,3-3.1,3h-.6v6.1h1.3v5.7h18.2v-5.6h-1c0-.1-.3,0-.3,0h0ZM128.7-16.1l.2-.2.4-.3-.2-.5-4-11.7-.2-.7-.7.3c-5.2,2-28.2,7.5-28.5,7.6h-.4v.5c-.1,0-3.9,14-3.9,14l-.2.8h.8l3.4.4-1.4,5.1L93.8,0h.8l3.5.4h.5L98.8,0c1.9-5.2,4.4-8,6.4-9.4V7.1c0,3.3-3.7,3.8-3.9,3.8h-.6v5.2c-.1,0-.1.7-.1.7h2.5v5c-.1,0-.1.7-.1.7h18.8v-.6l.6-4.2v-.6l-.5-.2c-.6-.2-1.2-.4-1.8-.7h0l.6-4.4v-.6l-.5-.2c-.9-.2-1.7-.6-2.5-1V-13c5.6-.7,8.3,5.5,8.4,5.5l.3.8.7-.5,3.5-2.6.4-.3-.2-.5-2-5.7h0v.2h-.1ZM376.5-51.8l-23.9-4.7-.9-.2-.3.8-1.3,3.4-2.2-.9,1.2-3.2.4-.9-.9-.4-28.4-11.6-.9-.4-.4.9-1.8,3.6c-1.4-3.6-4.4-6.8-9.1-9.4-4.6-2.6-30.7-15.4-31.8-16l-.9-.5-.5.9-2.4,5-.4.9.9.5c1.7.8,2.7,1.8,3.2,3.1l-2.5-1.2-.9-.4-.4.9-2.4,4.9-.4.9.9.4c1.7.8,2.7,1.8,3.1,3-3.1,6.8-9.2,20.4-11.9,25.4-1.1,2-2.3,3.2-3.6,3.4-1.5.3-2.7-.8-2.8-.8l-1-.8-.6,1.2-2.6,5-.5.9.9.5.5.2-.4.7-2.5,4.9-.5.9.9.5,25.6,13,.9.4.5-.8,3-5.2.6-1-1-.3v-.2c.1,0,3.2-5.4,3.2-5.4v-.2c.5,4.1.9,8.6,1.3,13,1.2,14.1,8.8,18.3,11.6,19.8,2.3,1.3,6.3,2.1,9.1,1.1,1.3-.4,2.3-1.4,2.8-2.7.4-1,.3-2-.1-3,0,0-.1-.2-.2-.3.4,0,.7-.2,1.1-.3,1.2-.4,2.2-1.3,2.8-2.4l-.6,1.6-.3,1,1,.3,26.9,9.4.9.3.3-.9,1.9-5.2.2-.7,1.2.4,1,.3.3-1,1.9-5.4.4-1-1-.3c-1.9-.6-3.1-1.5-3.7-2.8-.9-2.1,0-4.4,0-4.4h0l1.4-4.6c5.2-4.4,14.4-12.3,17.6-15.8,3.8-4.2,9-3.4,9.2-3.4h.9c0,.1.2-.7.2-.7l1.3-5.1.3-1-1.1-.2h-.4c2.2-.7,4-.4,4.2-.4l.9.2.2-.9,1.4-5.2.3-1.1-1.1-.2h.2,0Z"/>
      <path class="st10" d="M183.6-47.4v-10c-.7-.1-1.3-.3-1.9-.6v-3.7c.1,0-.8,0-.8,0-7.3-1.3-7-5.6-6.9-5.8h0v-.2l-.9-16.4,20.4,37.4.2.4h.5l13.6,1.9h1c0,.1,0-.9,0-.9l.6-6.6h.1v-1.1c0-.3,2.2-23.7,3.2-36.7.4-1.3,1.3-2.3,2.5-2.8l-.2.3.7.7,2.7,2.6-3.8,4.8-.6.7.7.6,3.4,3.2.7.7.7-.7c5.6-5.5,10.3-6.6,13-6.7-2.9,8.7-6.9,20.7-8.3,24.7-2,5.5-6.8,4.5-7.4,4.4l-1-.4-.3,1.1-1.4,5-.3,1,.9.3,2.7.9c-.6,0-1.1,0-1.7-.1l-1-.4-.3,1.1-1.3,4.9-.3.9.9.3,27.1,8.9,1,.3.3-1,1.8-5.5-1-.3c-1-.3-1.9-.8-2.6-1.5l2.2.7,1,.3.3-1,1.9-5.7-1-.3c-1.6-.5-2.6-1.3-3.2-2.4-.2-.3-.3-.7-.4-1.1,3.2-9.7,6.4-19.5,9.6-29.2,6,3.9,6.8,13.1,6.8,13.2v1h1.1l5-.3h.9v-8.1h1.5l1-.2v-19.4l-.7-.2-38.5-12.8-.7-.2-.5.6-6.8,8.4v-1.4h-.9c0-.1-4.4-.7-4.4-.7l.2-.2c1.9-1.6,4.7-1.2,4.8-1.2l1.1.2v-1.2l.2-5.2v-.9h-.9c0-.1-23.4-3-23.4-3h-1.1c0-.1,0,1,0,1l-.3,5.2v1h1c1.8.1,3.2.7,4,1.8.2.3.4.5.5.8l-4.5-.6h-1.1c0-.1,0,.9,0,.9l-.3,5.1v1h.9c1.8.1,3.1.7,3.9,1.7.5.6.8,1.2.9,2l-.8,8.6-14.5-29.3-.3-.6h-.7l-31.4,1.4h-1v4.7c-.1,0-.7-2.8-.7-2.8l-.2-1-1,.2-22.4,4.2-1.1.2,1.5,5.9.2.8h.8c1.9,0,3.3.6,4.2,1.5l-4.1.8-1.1.2,1.4,5.8.2.8h.8c5.3,0,6.2,5,6.2,5.2h0c0,.2,4.9,18,5.4,20.3,0,.2.1.5.2.8-.4,2.5-2,4.9-5.7,6.3-2.8,1-5.1,1-7,0-3.2-1.7-4.1-5.8-4.1-5.8h0l-6.6-20.6c.1-.6.3-1.1.6-1.6,1.1-1.9,3.3-2.4,3.3-2.4l1.1-.2-.3-1.1-1.3-4.4-.3-1-1,.4-3.8,1.4c.1-.5.3-1,.6-1.5,1.2-2,3.4-2.5,3.4-2.5l1.1-.2-.3-1.1-1.4-4.5-.3-1-1,.4-32.5,11.6.2.9,1.4,5.4.3,1,1-.3c2.2-.6,4-.8,5.5-.3l-5.7,2,.2.9,1.2,4.6c-2.9-2.5-6.3-4.3-9.9-5.4-7-2.1-14.4-1.3-20.5,2-14.2,7.7-15.3,22.7-15.3,27.1,0,8.1,5.1,17.3,6.3,19.3-.8,2.2-5.1,12.1-15.1,17.2-4.8,2.4-9.4,2.9-13.6,1.3-2.4-.9-4.7-2.5-6.8-4.8-.8-1.4-1.4-2.9-2.1-4.4-4.2-10.3-2.9-19.5.7-23.3l.4-.4c.5,1.7,1.2,3.5,2.4,4.9.6.8,1.3,1.4,2.1,1.9.4,1.9,1.2,3.8,2.5,5.4,2.1,2.5,5.1,3.8,9,3.8,8,0,12.5-5.9,13.4-11.4.6-3.7-.4-8.2-4-11.7-.7-4.8-4-9.9-11.7-12.3-10.2-3.1-21.5-1.4-29.6,4.6-5.5,4-12,11.8-12,25.9S-8.2-14.6-1.4-8C5.5,2.7,16.7,7.7,25.5,7.7c13.9,0,31.6-8.8,38.8-28,7.4,4.5,19.1,6,30.4-2.7,9.6-7.5,12.3-21.7,6.9-34.8-.7-4.1-2.1-8.1-4.1-11.8-1.5-2.8-3.3-5.2-5.5-7.3,2.7-.8,4.9-.7,6.5.2.8.5,1.4,1.2,1.9,2l3.1,12.3c.3,1,.6,2,.9,2.9l1.3,5c2.1,7.2,5.3,11.9,9.8,14.4,5.8,3.1,13.7,2.7,26.2-1.3,6-2,10.2-5.2,12.3-9.7.1-.3.3-.6.4-.9l1,.4v5.4s17.7-1.2,27.4-1.3h.8,0ZM14.1,47.7c1.4,0,2.1-.6,2.1-2v-11c0-1.4-.6-1.9-2.1-2v-1.6h7.7v1.6c-1.9,0-2.4.5-2.4,2.2v10.8c0,1.1.2,1.7,1.6,1.7,2.7,0,4.9-.9,7-4.8l1.4.6-2.5,6.1h-12.7v-1.6h-.1ZM41.8,41.8c0-4.1-2.4-5.8-5.4-5.8s-6,2.3-6,6.6,2.2,6.9,6,6.9,4.7-1.5,5.7-3.7l-1.2-.6c-.8,1.6-2,2.6-3.8,2.6s-3.4-2.4-3.4-5,0-.8,0-1.1h8.1,0ZM43.5,47.7c1.6,0,1.8-.7,1.8-1.8v-5.9c0-1-.2-1.3-1.8-1.4v-1.6c1.1,0,2.6-.4,3.5-1.1h1v1.6c1-1,2.4-1.6,3.8-1.6s2.5.4,3.2,1.8c1-.9,2.7-1.8,4-1.8,3.4,0,3.7,2.4,3.7,4.2v5.8c0,1.1.3,1.7,1.8,1.7v1.6h-6.4v-1.6c1.5-.3,1.7-.6,1.7-1.9v-6.3c0-1.1-.3-1.7-1.5-1.7s-1.7.4-2.3,1l-.5.4v6.8c0,1.1.3,1.7,1.8,1.7v1.6h-6.4v-1.6c1.5-.3,1.7-.6,1.7-1.9v-6.3c0-1.1-.3-1.7-1.5-1.7s-1.7.4-2.3,1l-.5.4v6.8c0,1.1.3,1.7,1.8,1.7v1.6h-6.6v-1.6h0ZM66.3,42.6c0,3.8,2.4,6.9,6.4,6.9s6.4-3.2,6.4-6.9-3.1-6.6-6.4-6.6-6.4,2.4-6.4,6.6h0ZM82.7,40.1c0-1-.2-1.3-1.8-1.4v-1.6c1.1,0,2.6-.4,3.5-1.1h1v1.7c1.3-1.2,2.8-1.7,4.3-1.7s3.5.9,3.5,3.7v6.3c0,1.1.3,1.7,1.8,1.7v1.6h-6.2v-1.6c1-.2,1.5-.4,1.5-1.6v-6.2c0-1.7-.6-2.1-1.5-2.1s-2.4.7-3.3,1.5v6.6c0,1.1.3,1.7,1.8,1.7v1.6h-6.6v-1.6c1.6,0,1.8-.7,1.8-1.7v-5.9h.2ZM108.6,47.2c-.4.4-.6.5-1,.5s-.8-.3-.8-1v-6.7c0-2.8-1.4-4-4.7-4s-4.9,1.4-4.9,3.4.3,1.5,1.3,1.5,1.2-.4,1.3-1.9c0-.8.9-1.4,2-1.4,1.6,0,2.1.7,2.1,2.2v1.7c-4.8.5-7.3,2-7.3,4.8s1.2,3.3,3.5,3.3,2.5-.4,4-1.7c.4,1.1,1.2,1.7,2.4,1.7s2.2-.5,2.9-1.4l-.8-.9h0ZM118.8,49.3h4.6v-1.6c-1.6,0-1.8-.7-1.8-1.7v-15.1h-1.2c-.7.4-2.3.8-3.9.9v1.6c1.8,0,2.1.4,2.1,1.6v2.2c-.9-.8-2.1-1.2-3.3-1.2-3.8,0-5.4,3.4-5.4,6.8s1.7,6.8,5.4,6.8,2.5-.5,3.4-1.3v1h0ZM136.3,41.8c0-4.1-2.4-5.8-5.4-5.8s-6,2.3-6,6.6,2.2,6.9,6,6.9,4.7-1.5,5.7-3.7l-1.2-.6c-.8,1.6-2,2.6-3.9,2.6s-3.4-2.4-3.4-5,0-.8,0-1.1h8.2,0ZM145.2,31.2h12.4l2.1,5.2-1.2.6-.6-1c-1.2-1.9-3.3-3.1-5.5-3-1.4,0-1.9.3-1.9,1.9v3.6h1.4c1.7,0,2-.9,2.2-3.3h1.2v8.4h-1.2c-.2-2.6-.7-3.3-2.6-3.3h-1v5.4c0,1.4.6,1.9,2.1,2v1.6h-7.3v-1.6c1.4,0,2.1-.6,2.1-2v-11c0-1.4-.6-1.9-2.1-2v-1.6h-.1ZM159.9,47.7c1.6,0,1.8-.7,1.8-1.8v-11.2c0-1-.2-1.3-1.8-1.4v-1.6c1.2,0,2.6-.4,3.5-.9h1.2v15.1c0,1.1.3,1.7,1.8,1.8v1.6h-6.5v-1.6h0ZM179.8,47.2c-.4.4-.6.5-1,.5s-.8-.3-.8-1v-6.7c0-2.8-1.4-4-4.7-4s-5,1.4-5,3.4.3,1.5,1.3,1.5,1.2-.4,1.3-1.9c0-.8.9-1.4,2-1.4,1.6,0,2.1.7,2.1,2.2v1.7c-4.8.5-7.3,2-7.3,4.8s1.2,3.3,3.5,3.3,2.5-.4,4-1.7c.4,1.1,1.2,1.7,2.4,1.7s2.2-.5,2.9-1.4l-.8-.9h.1ZM185.3,49.5l-3.6-10.1c-.4-1.3-.9-1.6-1.5-1.6h-.1v-1.6h5.9v1.4c-1,0-1.4.3-1.4.8s0,.8.4,1.8l2,5.8,1.9-5.7c.2-.5.3-1.1.3-1.6s-.4-1.1-1.4-1.1v-1.4h5.1v1.6h0s-1.3.2-2.1,2.4l-3.4,9.3h-2.1,0ZM193.8,42.6c0,3.8,2.4,6.9,6.4,6.9s6.4-3.2,6.4-6.9-3.1-6.6-6.4-6.6-6.4,2.4-6.4,6.6ZM210.2,40.1c0-1-.2-1.3-1.8-1.4v-1.6c1.1,0,2.6-.4,3.5-1.1h1v1.8c.9-1,2.1-1.8,3.4-1.8s2,.4,2,1.9-.5,1.5-1.2,1.5c-1.2,0-1.2-1.1-2.3-1.1s-1.5.4-1.6,1.1v6.6c0,1.1.3,1.7,1.8,1.7v1.6h-6.5v-1.6c1.6,0,1.8-.7,1.8-1.7v-5.9h0ZM226.1,49.3h8.9c7.1,0,8.1-6.2,8.1-9.1s-1.1-9-8.3-9h-8.8v1.6c1.4,0,2.1.6,2.1,2v11c0,1.4-.6,1.9-2.1,2v1.6h0ZM246.8,40.1c0-1-.2-1.3-1.8-1.4v-1.6c1.1,0,2.6-.4,3.5-1.1h1v1.8c.9-1,2.1-1.8,3.4-1.8s2,.4,2,1.9-.5,1.5-1.2,1.5c-1.2,0-1.2-1.1-2.3-1.1s-1.5.4-1.6,1.1v6.6c0,1.1.3,1.7,1.8,1.7v1.6h-6.5v-1.6c1.6,0,1.8-.7,1.8-1.7v-5.9h0ZM255.5,37.1c1.1,0,2.6-.4,3.5-.9h1.2v9.7c0,1.1.3,1.7,1.8,1.8v1.6h-6.5v-1.6c1.6,0,1.8-.7,1.8-1.8v-5.9c0-1-.2-1.3-1.8-1.4v-1.6h0Z"/>
      <ellipse class="st10" cx="259" cy="32.7" rx="1.8" ry="2"/>
      <path class="st10" d="M265.4,40.1c0-1-.2-1.3-1.8-1.4v-1.6c1.1,0,2.6-.4,3.5-1.1h1v1.7c1.3-1.2,2.8-1.7,4.3-1.7s3.5.9,3.5,3.7v6.3c0,1.1.3,1.7,1.8,1.7v1.6h-6.2v-1.6c1-.2,1.5-.4,1.5-1.6v-6.2c0-1.7-.6-2.1-1.5-2.1s-2.4.7-3.3,1.5v6.6c0,1.1.3,1.7,1.8,1.7v1.6h-6.6v-1.6c1.6,0,1.8-.7,1.8-1.7v-5.9h.2ZM281.3,34.8c0-1-.2-1.3-1.8-1.4v-1.6c1.1,0,2.6-.4,3.5-.9h1.2v10.7l3.1-2.4c.4-.3.6-.6.6-.8,0-.3-.3-.5-1.4-.6v-1.6h6.2v1.6c-1.2.1-1.8.4-3.1,1.5l-1.6,1.3,3.4,5.7c.6.9,1.4,1.5,2.1,1.5h.3v1.6h-6.3v-1.6c.6,0,1-.3,1-.7s-.2-.7-.5-1.2l-2.1-3.5-1.4,1.2v2.4c0,1.1.3,1.7,1.8,1.7v1.6h-6.5v-1.6c1.6,0,1.8-.7,1.8-1.7v-11.2h-.3ZM304.7,34.7c0-1.4-.6-1.9-2.1-2v-1.6h6.6l3.4,12.3h0l3.7-12.3h6.3v1.6c-1.4,0-2.1.6-2.1,2v11c0,1.4.6,1.9,2.1,2v1.6h-7.6v-1.6c2.1-.3,2.3-.5,2.3-2.6v-11.9h0l-4.8,16.1h-1.5l-4.5-16.1h0v12.5c0,1.4.6,1.9,2.1,2v1.6h-5.9v-1.6c1.4,0,2.1-.6,2.1-2v-11h-.1ZM324,37.1c1.1,0,2.6-.4,3.5-.9h1.2v9.7c0,1.1.3,1.7,1.8,1.8v1.6h-6.5v-1.6c1.6,0,1.8-.7,1.8-1.8v-5.9c0-1-.2-1.3-1.8-1.4v-1.6h0Z"/>
      <ellipse class="st10" cx="327.5" cy="32.7" rx="1.8" ry="2"/>
      <path class="st10" d="M331.3,47.7c1.4-.5,2-1.2,3.2-2.9l1.7-2.3-2.2-3.3c-.5-.8-1.3-1.3-2.2-1.5h0v-1.6h6.3v1.4c-.9,0-1.1.2-1.1.6s.1.4.4.8l1.2,1.9,1.3-1.7c.3-.4.5-.8.5-1.1s-.3-.5-1-.5v-1.4h4.9v1.6h0c-1.2,0-2.2,1.1-2.9,2l-1.9,2.3,3.2,4.4c.7,1,1.4,1.2,2,1.2v1.6h-6.7v-1.4c1.2,0,1.5-.3,1.5-.7s-.1-.4-.7-1.3l-1.5-2.2-2,2.7c-.4.5-.4.7-.4.8,0,.2.1.5,1.3.6v1.4h-4.9v-1.5h0Z"/>
      <path class="st8" d="M21.8-.2C8.5-.2-10.3-11.9-10.3-38S-4.2-58.5.8-62.2c7.6-5.6,18.2-7.2,27.7-4.3,8.7,2.7,11,9.3,10.3,14-.7,4.8-4.7,9.9-11.7,9.9s-5.9-1-7.6-3.1c-3.9-4.7-2.3-13.2-2.3-13.3l.2-.9-.9-.3c-2.9-1-5.6-.2-7.8,2.1-4,4.2-6,14.2-1.1,26.2,3.8,9.2,8.8,15.1,15,17.4,4.7,1.8,9.8,1.3,15.2-1.4,10.1-5,14.6-14.5,15.9-17.7,2.5,1.3,5.4,3.6,6.5,4.6C53.5-9.2,35.6-.2,21.7-.2h.1Z"/>
      <path class="st8" d="M62.2-30.1c-.2-.2-4.6-4.1-8.3-5.8-1-1.6-6.1-10.8-6.1-18.4s1-18.1,14.2-25.3c5.6-3.1,12.5-3.7,18.9-1.8,4.7,1.4,11.2,4.8,15.6,13,7.3,13.7,5.3,29.2-4.7,37-11,8.5-22.2,6.9-29.3,2.5h0l.2-.7-.5-.4h0ZM146.5-102.7c-1.3,1.9-1.5,4.4-.6,7.4l6.6,22c0,.1,2.7,7.2-.4,13.6-2,4.1-5.8,7.1-11.4,8.9-12.1,3.9-19.9,4.4-25.3,1.5-4.2-2.2-7.1-6.6-9.1-13.5l-4.8-19.2c-.5-2-1.7-3.7-3.4-4.8-2-1.2-4.4-1.4-7.4-.7l-.9-3.4,29.6-10.6.8,2.5c-1.1.4-2.7,1.3-3.7,3.1-1.2,2.1-1.4,4.8-.3,8l8,24.7c.1.5,1.3,5.1,5.1,7.2,2.4,1.3,5.4,1.4,8.7.1,9.9-3.7,7.1-13,6-16.5-.1-.5-.3-.9-.3-1.1-.5-2.4-5.3-20.1-5.6-21-.4-2.4-2.5-6.6-7.6-7l-.8-3,20.3-3.8.6,2.9c-1.1.3-2.9,1.1-4,2.9h0v-.2h-.1ZM211.6-96.5c-.5,6.5-3.2,36.5-3.7,42.6l-12.4-1.7-23.1-42.5-2,.6,1.6,30.1c0,.9,0,6,7.8,7.6v3c-.1,0-22.2,1-22.2,1v-3.4c1,0,2.5-.4,3.8-1.6,1.6-1.4,2.4-3.6,2.4-6.5,0-7.6-1.3-29.9-1.4-31,0-1.7-.6-3.4-1.7-4.8-1.4-1.6-3.5-2.5-6.2-2.8v-3.6c.1,0,29.9-1.3,29.9-1.3l15.8,32,1.6,3.3.3-3.6,1.9-19.6c0-.1.3-3-1.5-5.2-1-1.3-2.5-2.1-4.5-2.4l.2-3.1,21.4,2.7v3.2c-1.4,0-3.6.3-5.3,1.7-1.6,1.3-2.4,3.1-2.6,5.6v-.3h0ZM226.5-60.5c2.4-6.7,11.5-34.4,11.6-34.7l.3-1-1-.3c-.3-.1-7.6-2.4-17.1,6.5l-2.1-2,10.2-12.7,37.1,12.4v16l-3.2.2c-.4-3-2.2-11.5-9.1-14.9l-1.1-.5-.4,1.1-12,36.2c0,.1-.9,2.9.4,5.5.7,1.4,1.9,2.4,3.5,3.1l-.9,2.8-26-8.6.9-3.1c2.7.3,7-.5,8.9-5.9h0ZM314.7-55.6c-5.1,12-12.4,10.9-14.5,10.3l-1.6-.4.2,1.6,5,33.1v.6l.7.2c.9.3,3.4,1.3,4.1,2.8.2.5.2.9,0,1.4-.3.7-.9,1.3-1.7,1.5-2.1.8-5.6,0-7.6-1-2.9-1.6-9.7-5.4-10.9-18.8-1.1-12.5-2.5-26.4-2.7-28.5l1.6-3.4c1.5.8,4.6,2.1,7.8,1.4,2.6-.6,4.6-2.4,6.2-5.3.2-.2,2.3-3.7,1.3-7.2-.6-2.1-2.1-3.8-4.6-5-.4-.3-2.2-1.6-4.3-1.2-1.7.4-3.1,1.7-4.2,4l-13.4,29.3s-1.6,3.1-.4,6.1c.6,1.6,1.9,2.9,3.8,3.8l-2,3.5-24.5-12.4,1.6-3.1c1,.5,2.2.7,3.4.5,2-.4,3.7-1.9,5.1-4.5,3.6-6.6,13-27.8,13.7-29.5.3-.5,1.8-2.9,1.1-5.6-.4-1.7-1.6-3.1-3.4-4.2l1.5-3.2c4.8,2.4,26.6,13.2,30.7,15.5,5.6,3.1,11.4,8.6,7.7,17.4h0l.3.3h0ZM363.8-42.5c-4.4,4.9-20.2,18.1-21.5,19.1l-.3.2v.3l-2.9,8.8c-.2.4-1.2,3.3,0,6,.7,1.6,2.1,2.8,4,3.6l-1.2,3.4-25.8-9,1.2-3.5c2.5.5,6.4,0,8.4-4.5l3.1-8.6v-.3c.1,0,0-.3,0-.3l-5.5-28.3c0-.2-.9-6.1-4.8-8.4l1.7-3.4,26.6,10.9-1.3,3.4c-1.3-.4-3.5-.9-5.2.3-1.4,1-1.9,2.9-1.5,5.5,1.1,8.4,1.7,12,1.7,12l.3,1.8,1.4-1.2,12.2-10.5h0c.6-1,.8-2.1.5-3.1-.4-1.3-1.5-2.3-3.3-3.1l1.2-3.2,22,4.3-.9,3.3c-2,0-6.7.1-10.4,4.2h0l.3.3h0ZM114.9-20.9h-.6V6.4c0,.6-.3,4.2,4.8,5.9l-.4,3.1h-16.7v-3.2c1.9-.4,4.6-1.9,4.6-5.1v-26.1h-.8c-.3.2-6.6,1.5-10.5,11.8l-2.2-.2,3.5-12.8c3.1-.7,21.7-5.2,27.6-7.3l3.6,10.5-2.5,1.9c-1.1-2-4.4-6.8-10.3-5.6h0v-.2h-.1ZM140.7,7.2v-28.2c0-.3.2-2.2-1.1-3.4-.7-.7-1.8-1.1-3.1-1v-3.7c5.3-.7,10.6-1.6,15.8-2.7v3.4c-2.5.9-4.1,3.3-4,5.9V6.3c-.1,1.3.2,2.6,1,3.6s2,1.7,3.7,1.9v3.1h-15.9v-3.5c1.5-.3,3.7-1.5,3.7-4.3h-.1ZM195.1,9.6c1.1-1,1.6-2.6,1.6-4.5v-26.6l-1.4-.2-8.3,36.6h-4.3l-8.5-36.8-1.4.2V6.4c0,.3-.1,2.2,1.2,3.6.8.9,1.9,1.4,3.4,1.5v3.5h-12.4v-3.7c.8,0,1.6-.4,2.2-1,1-.9,1.5-2.3,1.5-4.2v-29.9c0-1.5-1-4.3-3.7-4.7v-3.6h14c0-.1,6.8,31.4,6.8,31.4h1.4l7-30.5,15,.5v3c-1.9.3-4.5,1.6-4.5,5V6.1c0,.6-.2,4.3,4.7,5.6v3.4h-17v-4c1-.1,1.9-.6,2.7-1.3h0v-.2h0ZM249.2,14.9h-28.2v-3.7c1.2-.3,3.6-1.2,3.6-5v-28.3c0-.4,0-3.2-3.9-4.6v-2.9c4.1.8,22.2,4.4,28.1,5.5l2.6,7.1-2.3.6c-1-1.6-4.5-6.2-13.2-6.2s-1.8-.2-2.8.7c-.6.6-1,1.4-.9,2.2v11.6h4.4c.9,0,1.8-.3,2.5-.9.9-.8,1.4-2.1,1.5-3.7h2.4V.1h-2.8c-.3-1.7-1.5-4.2-4.4-4.2h-3.7v12.7c.2.2,1.4,2,6,2s8.9-.5,12-5.7l2,1.1-3,8.8h0Z"/>
      <path class="st10" d="M70.7-74.6c-2.2-.5-4.6,0-6.5,1.2-1.7,1.2-9.9,7.8-.9,25.8s10.2,12.9,13.7,13.7h0c2.8.7,5.7.2,8.1-1.4,6.5-4.6,5.9-15.4-1.6-27.6-4.2-6.9-8.5-10.8-12.8-11.8h0ZM87-49.5c1.3,6.1-.2,10.5-3.1,12.5h0c-1,.7-3.3,1.9-6.4,1.1-2.9-.7-7.3-3.3-11.6-11.2-3.7-11.3,1.5-15.6,2.7-16.4,1.4-1,3.1-1.3,4.8-.9,3.5.8,7.4,4.4,11.1,10.5.9,1.5,1.7,3,2.4,4.4h.1Z"/>
      <path class="st1" d="M277.6-36.5c0,.7,0,1.3.3,1.9.5,1.3,1.8,2.4,3.7,3.1l.5.2c-.5-5.6-1-10.3-1.2-12.5l-3.3,7.3Z"/>
      <path class="st1" d="M234.2-14.4h-.7v5h3.1s.8,0,1.5-.6,1.1-1.8,1.1-3.4h0v-.4c-1.4-.4-3-.6-4.9-.6h-.1Z"/>
      <path class="st1" d="M159.7-92.9c-1.1-1.3-3-2-5.6-2.1h-.3v.2h-1.1c0,.1-2.4.5-3.6,2.3l-.2.3,5.5,18.3c1,3,1.4,6.2,1.1,9.3.3,1,.5,2.1.6,3.1h.3c1.2.1,2.5-.3,3.4-1.1,1.1-1,1.7-2.7,1.7-5,0-4.9-.6-16.1-1-23.6-.2-.7-.5-1.3-1-1.9l.2.2Z"/>
      <path class="st1" d="M317.4-47.2h0c0-.2-.4-3-1.9-5.2-.6,1.2-1.3,2.3-2,3.2-.2.7-.4,1.4-.7,2.1-2.9,6.7-6.8,10-10.6,11.1l3.7,24c1.2.5,3.8,1.6,4.8,3.6s.5,1.7.3,2.5l1-2.8.3-1h0l1,.3c.1,0,.2,0,.4.1l.2-.7,1.9-5.4s.3-1,.4-1l1,.4c.3.1,2.3.7,4.1-.1l1.5-4.2-5.3-27.1h0v.2h0Z"/>
      <path class="st1" d="M341.6-42.9c.4,2.6.6,4.4.8,5.6l4.3-3.7c-1.2-.5-3.3-1.3-5.1-1.9h0Z"/>
      <polygon class="st1" points="312.2 -9.5 312.2 -9.5 312.2 -9.5 312.2 -9.5"/>
      <path class="st1" d="M293.9-62.2h0s-1.2-1.1-2.6-.8c-1,.2-1.9,1.1-2.6,2.8l-.9,1.9h0s3.6,2.6,7.1,1.7c1-.2,1.9-.7,2.7-1.4,0-.2,0-.3-.1-.5-.4-1.5-1.6-2.7-3.5-3.6h-.1Z"/>
      <path class="st1" d="M73.5-64.4c-1.6-.4-3.4,0-4.8.9-1.2.8-6.4,5.1-2.7,16.4,4.3,7.9,8.7,10.5,11.6,11.2,3.2.8,5.4-.3,6.4-1.1h0c2.9-2.1,4.4-6.4,3.1-12.5-.7-1.4-1.5-2.9-2.4-4.4-3.8-6.1-7.6-9.7-11.1-10.5h-.1Z"/>
      <circle class="st8" cx="261.7" cy="-16.4" r="4.1"/>
      <circle class="st1" cx="261.7" cy="-16.4" r="3.4"/>
      <path class="st8" d="M260.6-16.1h1.5c.8,0,.8.4.8.8s0,.9.1,1.2h.8c-.2-.2-.2-.3-.2-.6v-.8c0-.6-.3-.8-.6-.9.4-.2.7-.6.6-1.1,0-1-.8-1.3-1.5-1.3h-2.2v4.7h.6v-2h.1Z"/>
      <path class="st1" d="M33.8,40.3c.1-1.6,1.1-2.7,2.6-2.7s2.2,1.2,2.2,2.3v.4h-4.8ZM69.5,42.7c0-3.3.8-5.2,3.2-5.2s3.2,1.9,3.2,5.2-.8,5.2-3.2,5.2-3.2-1.9-3.2-5.2ZM103.9,46.5c-.7.7-1.6,1-2.6,1.1-1.3,0-1.8-.7-1.8-1.7,0-1.8,1.9-2.7,4.4-3v3.7h0ZM118.6,46.5c-.4.6-1.7,1.1-2.8,1.1-2.2,0-2.8-3-2.8-4.8s.7-5,3.2-5,2.1.7,2.4,1.2v7.4h0ZM128.3,40.3c.1-1.6,1.1-2.7,2.6-2.7s2.2,1.2,2.2,2.3v.4h-4.8ZM175.1,46.5c-.7.7-1.6,1-2.6,1.1-1.2,0-1.8-.7-1.8-1.7,0-1.8,1.9-2.7,4.4-3v3.7h0ZM197.1,42.7c0-3.3.8-5.2,3.2-5.2s3.2,1.9,3.2,5.2-.8,5.2-3.2,5.2-3.2-1.9-3.2-5.2ZM231.4,34.8c0-1.6.3-1.9,2.4-1.9,4.2,0,5.9,3.4,5.9,7,0,6-2.8,7.7-5.8,7.7s-2.5-.6-2.5-1.5v-11.3h0ZM260.6-18.3h1.6c.3,0,.8,0,.8.8s-.5.8-1,.8h-1.5v-1.6h.1Z"/>
    </g>
  </g>
  <g id="tesla" class="st11">
    <path class="st9" d="M86.6-24.6h36.4c5.1-1.9,8.8-5.5,9.9-9.7h-56.2c1,4.3,4.8,7.9,9.9,9.7M-8.2-53.4c1.1,4.3,4.8,7.8,9.9,9.7h15.3l.8.3V-4.7h9.6v-38.7l.9-.3h15.4c5-1.9,8.7-5.5,9.8-9.7h0c0-.1-61.6-.1-61.6-.1h0ZM86.6-4.8h36.4c5.1-1.9,8.8-5.5,9.9-9.8h-56.2c1,4.3,4.8,7.9,9.9,9.8M86.6-43.6h36.4c5.1-1.9,8.8-5.5,9.9-9.8h-56.2c1,4.3,4.8,7.9,9.9,9.8M327.8-43.8h36.4c5.1-1.9,8.7-5.3,9.7-9.6h-56.2c1,4.3,4.9,7.7,10,9.6M283.7-5.1c4.7-2,7.3-5.5,8.2-9.6h-42v-38.8h-9.4V-5.2h43.2,0ZM169.7-43.9h33.6c5.1-1.5,8.8-5.3,9.8-9.6h-52.9v28.8h43.7v10.1h-33.8c-5,1.9-8.7,5.2-9.7,9.4l-.2.4h53.1v-29.5h-43.7v-9.6h.1ZM319.6-34.5V-4.9h9.4v-19.7h34.3V-4.9h9.4v-29.5h-53.1,0Z"/>
  </g>
  <g id="elevata">
    <g>
      <g>
        <path class="st9" d="M106.3,186.7v-10.1h2v10.1h-2Z"/>
        <path class="st9" d="M119,186.7v-10.9l9.8,7.7v-6.9h2v10.8l-9.8-7.6v6.8h-2Z"/>
        <path class="st9" d="M147.7,185.3c1.8,0,3.6-.9,4.8-2.3v2.7c-1.3,1-3.1,1.4-4.8,1.4-3.9,0-7.1-2.4-7.1-5.5s3.2-5.5,7.1-5.5,3.4.6,4.8,1.4v2.7c-1.1-1.4-3-2.3-4.8-2.3-2.8,0-5.1,1.6-5.1,3.6s2.2,3.6,5.1,3.6h0Z"/>
        <path class="st9" d="M169.6,176.2c3.9,0,7.1,2.5,7.1,5.5s-3.2,5.5-7.1,5.5-7.1-2.4-7.1-5.5,3.2-5.5,7.1-5.5ZM169.6,185.3c2.8,0,5.1-1.6,5.1-3.6s-2.2-3.6-5.1-3.6-5.1,1.6-5.1,3.6,2.3,3.6,5.1,3.6Z"/>
        <path class="st9" d="M188.8,186.7h-2v-10.1h6.1c1.8,0,3.9.7,3.9,2.9s-1,2.4-2.2,2.7l2.9,4.5h-2.4l-2.7-4.3h-3.7v4.3h0ZM188.8,180.6h4c1.5,0,2.1-.4,2.1-1.1s-.6-1.1-2.1-1.1h-4v2.2h0Z"/>
        <path class="st9" d="M210.2,186.7h-2v-10.1h6.1c1.8,0,3.9.7,3.9,2.9s-2.1,2.9-3.9,2.9h-4.1v4.3ZM210.2,180.6h4c1.5,0,2.1-.4,2.1-1.1s-.6-1.1-2.1-1.1h-4v2.2h0Z"/>
        <path class="st9" d="M234.8,176.2c3.9,0,7.1,2.5,7.1,5.5s-3.2,5.5-7.1,5.5-7.1-2.4-7.1-5.5,3.2-5.5,7.1-5.5ZM234.8,185.3c2.8,0,5.1-1.6,5.1-3.6s-2.2-3.6-5.1-3.6-5.1,1.6-5.1,3.6,2.3,3.6,5.1,3.6Z"/>
        <path class="st9" d="M253.9,186.7h-2v-10.1h6.1c1.8,0,3.9.7,3.9,2.9s-1,2.4-2.2,2.7l2.9,4.5h-2.4l-2.7-4.3h-3.7v4.3h0ZM253.9,180.6h4c1.5,0,2.1-.4,2.1-1.1s-.6-1.1-2.1-1.1h-4v2.2h0Z"/>
        <path class="st9" d="M281.4,183.8h-5.5l-1.9,3h-2.4l7-10.8,7,10.8h-2.4l-1.9-3h0ZM277.1,182h3.1l-1.5-2.4-1.5,2.4Z"/>
        <path class="st9" d="M292.2,178.4v-1.8h11.8v1.8h-4.9v8.3h-2v-8.3h-4.9,0Z"/>
        <path class="st9" d="M313.2,176.6h10.1v1.8h-8v2.1h6.8v1.8h-6.8v2.6h8v1.8h-10.1v-10.1h0Z"/>
        <path class="st9" d="M333.3,186.7v-10.1h5.6c3.1,0,6.9,1.4,6.9,5.1s-3.9,5.1-6.9,5.1h-5.6ZM335.3,184.9h3.4c2.1,0,5.1-.7,5.1-3.3s-2.9-3.3-5.1-3.3h-3.4v6.5Z"/>
      </g>
      <path class="st1" d="M265.4,106.1c-1.1,0-2.3.3-3.4.6,3.3-.4,5.5-.7,3.4-.6Z"/>
      <path class="st0" d="M221,112.2s-.7-9.1-10-8.7c0,0,.6.2.6.4,0,0-.8,1.9,1.5,1.3,0,0,5.7-1.5,7.9,7h0Z"/>
      <g>
        <path class="st4" d="M238.9,112.3l-21.6-10.9-5.6.9s-6.3-1.7-6.4-1.7,0,0,0,0c-1.7,0-4.6.6-6.6,2.7,0,0,1.5-.9,5.3,2.4,0,0,16.9,11.7,22.4,53.1h.6c3.4-22.1,9.7-37.7,18.1-44.1-2.8-1-5.5-2-6.2-2.5v.2Z"/>
        <path class="st4" d="M169.2,115.3s-28.2-4.6-31.9-17.4c0,0-1.5,30.5,44.4,33.5,0,0,18.5-1.5,33.5,13.3l-4.3-9.5c-8.1-8.6-21.2-17.3-41.6-19.9h0Z"/>
        <path class="st4" d="M177.2,136.1s-24.7-4.6-28.3-12.3c0,0,2.4,21.1,40.5,21.9,0,0,15.2-2,30.8,10.4l-2-4.3c-5.8-6.3-18-15.1-41.2-15.9h0Z"/>
        <path class="st4" d="M207.5,121.7c-5.7-6-14-12.1-26-14.9,0,0-17.8-5.8-19.8-14,0,0-1.1,20.7,27.3,23.7,0,0,5.1,1.1,11.6,5.1h.4c2.3,0,4.9,0,6.4.2h0Z"/>
        <path class="st4" d="M236.8,144.1c14.8-14.1,32.8-12.6,32.8-12.6,45.9-3.1,44.4-33.5,44.4-33.5-3.7,12.8-31.9,17.4-31.9,17.4-19.5,2.5-32.3,10.5-40.5,18.8-1.3,2.9-3.1,6.3-4.7,9.9h0Z"/>
        <path class="st4" d="M261.7,145.8c38.2-.9,40.5-21.9,40.5-21.9-3.5,7.7-28.3,12.3-28.3,12.3-22.6.8-34.8,9.1-40.7,15.3-.9,1.7-1.6,3.3-2.3,4.7,15.5-12.4,30.7-10.3,30.7-10.3h0Z"/>
        <path class="st4" d="M250.7,121.5h0c6.5-3.9,11.6-5.1,11.6-5.1,28.4-3.1,27.3-23.7,27.3-23.7-2,8.1-19.8,14-19.8,14-12,2.9-20.3,8.9-25.9,14.9h1.7c.3,0,3.3-.2,5.2-.2h0Z"/>
      </g>
      <g>
        <path class="st9" d="M60,137.6c0-9,0-10.6,0-12.5,0-1.9-.7-2.9-2.9-3.3-.6,0-1.6-.2-2.2-.2s-.5,0-.5-.4.3-.5,1.1-.5h7.4c.5,0,13.6,0,15.1,0,1.2,0,2.3-.2,2.9-.3.3,0,.6-.3,1-.3s.3.2.3.5-.3,1.1-.6,2.7c0,.6-.2,3.2-.3,3.8,0,.3-.2.7-.5.7s-.6-.3-.6-.8,0-1.3-.4-2.1c-.5-1-1.1-1.6-4.7-1.9-1.1,0-8.3-.2-9-.2s-.4.2-.4.6v15.9c0,.4,0,.6.4.6.9,0,9,0,10.4,0,1.6,0,2.5-.2,3.1-.8.5-.5.8-.8,1-.8s.3,0,.3.5-.3,1.3-.6,3.3c0,1.1-.3,3.3-.3,3.6s0,1.1-.5,1.1-.5-.2-.5-.5c0-.6,0-1.1-.3-1.9s-.9-1.8-3.4-2c-1.8-.2-8.3-.3-9.4-.3s-.5.2-.5.4v14.9c.2,4,1.1,4.7,7.7,4.7s4.6,0,6.3-.7,2.5-1.8,3-4.1c0-.7.3-.9.6-.9s.4.5.4.9-.5,4.4-.9,5.6c-.5,1.5-1,1.5-3.5,1.5-5,0-8.5,0-11.1-.2-2.6,0-4.1-.2-5.2-.2h-2.7c-1.3,0-2.9,0-3.8,0s-1.1,0-1.1-.5,0-.4.5-.4,1.4,0,2-.2c1.3-.2,1.6-1.5,1.9-3.2.3-2.4.3-7,.3-12.5v-10.1l.3.2h0Z"/>
        <path class="st9" d="M116.5,147.7c0,8.4.3,12.2,1.4,13.2,1.1,1,2.8,1.3,8,1.3s6.4,0,8-1.7c.9-1,1.5-2.4,1.7-3.4,0-.5.2-.8.6-.8s.4.2.4.9-.5,4.1-1,5.7c-.5,1.3-.7,1.5-4.1,1.5s-8.1,0-10.9-.2c-2.8,0-4.8-.2-6.7-.2h-2.7c-1.3,0-2.8,0-3.7,0s-1.1,0-1.1-.5,0-.4.5-.4c.6,0,1.3,0,2-.2,1.3-.2,1.6-1.5,1.9-3.2.3-2.4.3-7,.3-12.5v-10.1c0-9,0-10.6,0-12.5,0-1.9-.7-2.9-2.9-3.3-.6,0-1.6-.2-2.2-.2s-.5,0-.5-.4.3-.5,1.1-.5c3,0,7.1.2,7.5.2s5.2-.2,7.1-.2,1.1,0,1.1.5-.3.4-.5.4c-.5,0-1.4,0-2.2.2-1.9.3-2.4,1.2-2.6,3.3,0,1.8,0,3.4,0,12.5v10.3h-.2Z"/>
        <path class="st9" d="M250.7,120.8h0c-1.9,0-4.8.2-5.2.2h-1.7c-1.3,0-3.1,0-4.8,0s-1.4,0-1.4.5.3.4.8.4c.8,0,1.7,0,2.5.2.7.3.9.9.9,1.3s0,0,0,.2c0,.5-.3,1.2-.6,2-.3,1-1.1,2.7-2,5-1.5,3.6-3.7,8.6-5.8,13.4-1.3,3-2.7,5.9-3.9,8.5-.9,1.9-1.7,3.6-2.4,5l-12.6-29.4c-1-2.2-1.7-4-1.7-4.8s0-.9.9-1.1c.6-.2,1.7-.3,2.5-.3s.7,0,.7-.4-.6-.4-1.8-.4c-2.5,0-5.5.2-6.1.2h-1.2c-1.5,0-4.2,0-6.4,0s-.3,0-.4,0c-.8,0-1.3,0-1.3.4s0,.4.6.4,1.4,0,2.4.2h.2c1.9.5,3,1.1,4,3.1.2.4.5.9.7,1.4l16.1,35.3c1.2,2.8,1.5,3.5,2.4,3.5s1-1,2.8-4.4c.7-1.2,1.5-3.1,2.7-5.4-1,.8,4.5-9.3,5.7-12h0c1.7-3.5,3.4-7.1,4.7-10,1.3-2.8,2.3-4.9,2.7-5.7.9-2,1.6-3.2,2.2-4,.6-.8,1.1-1.1,1.4-1.4.4-.2.9-.4,1.2-.5.9-.2,1.6-.2,1.9-.2.5,0,.8,0,.8-.4s-.4-.4-1.1-.4v-.3h0Z"/>
        <path class="st9" d="M304,163.6c-.7,0-1.6,0-2.6-.4-1.3-.4-3.3-1.2-5.7-6.4-4-8.7-14.4-32.5-15.3-34.7-.8-1.8-1.1-2.1-1.4-2.1s-.7.4-1.4,2.2l-14.9,35.7c-1.1,2.9-2.5,5.1-5.6,5.5-.5,0-1.4,0-1.9,0s-.6,0-.6.4.4.5,1.2.5c3.1,0,6.7-.2,7.5-.2s3.5.2,5.2.2,1,0,1-.5-.2-.4-.7-.4h-.7c-1.1,0-2.5-.5-2.5-1.6s.3-2.4,1-3.8l3.9-10.2c0-.3,9.2,0,9.5,0l.9-2.4h-9c-.2,0-.3,0-.2-.4l5.8-15.5c.3-.9.7-.9,1,0l13.6,32.5c.4,1,0,1.4-.4,1.5-.3,0-.5.2-.5.4,0,.4.8.4,2,.4,4.6,0,9.4,0,10.3,0s1.3,0,1.3-.5-.3-.4-.7-.4"/>
        <path class="st9" d="M336.8,147.7c0,5.6,0,10.1.3,12.5.2,1.6.6,3,2.6,3.2,1,0,2.4.2,3,.2s.5.2.5.4c0,.3-.3.5-1.1.5-3.6,0-7.8-.2-8.1-.2s-4.5.2-6.4.2-1.1,0-1.1-.5,0-.4.6-.4,1.3,0,2-.2c1.3-.2,1.6-1.5,1.9-3.2.3-2.4.3-7,.3-12.5v-24.3h-9.8c-4.1.2-5.7.6-6.7,1.9-.8,1-1,1.3-1.1,1.8s-.4.6-.7.6-.3-.2-.3-.5c0-.6,1.3-5.6,1.4-6,0-.4.4-1.1.7-1.1.5,0,1.1.6,2.9.7,1.9.2,4.4.3,5.2.3h24.7c2.1,0,3.6,0,4.7-.3,1,0,1.5-.3,1.8-.3s.4.4.4.7c0,1.7-.2,5.7-.2,6.3s-.2.8-.5.8-.5-.2-.5-1v-.7c-.3-1.7-1.8-3.1-8.1-3.2h-8.3c0,0,0,24.2,0,24.2h0Z"/>
        <path class="st9" d="M412,163.6c-.7,0-1.6,0-2.7-.4-1.4-.4-3.3-1.2-5.7-6.4-4-8.7-14.4-32.5-15.3-34.7-.8-1.8-1.1-2.1-1.4-2.1s-.7.4-1.4,2.2l-14.9,35.7c-1.1,2.9-2.5,5.1-5.6,5.5-.6,0-1.4,0-1.9,0s-.6,0-.6.4.4.5,1.2.5c3.1,0,6.7-.2,7.5-.2s3.5.2,5.2.2,1,0,1-.5-.2-.4-.7-.4h-.7c-1.1,0-2.5-.5-2.5-1.6s.3-2.4,1-3.8l3.9-10.2c0-.3,9.2,0,9.5,0l.9-2.4h-9c-.2,0-.3,0-.2-.4l5.8-15.5c.3-.9.7-.9,1,0l13.6,32.5c.4,1,0,1.4-.4,1.5-.3,0-.5.2-.5.4,0,.4.7.4,2,.4,4.6,0,9.4,0,10.3,0s1.3,0,1.3-.5-.3-.4-.7-.4"/>
        <path class="st9" d="M162.6,137.6c0-9,0-10.6,0-12.5,0-1.9-.7-2.9-2.9-3.3-.5,0-1.6-.2-2.2-.2s-.6,0-.6-.4.3-.5,1.1-.5h7.4c.5,0,13.6,0,15.1,0,1.2,0,2.3-.2,2.9-.3.3,0,.6-.3,1-.3s.3.2.3.5-.3,1.1-.6,2.7c0,.6-.2,3.2-.3,3.8,0,.3-.2.7-.5.7s-.5-.3-.5-.8,0-1.3-.4-2.1c-.5-1-1.1-1.6-4.7-1.9-1.1,0-8.3-.2-9-.2s-.4.2-.4.6v15.9c0,.4,0,.6.4.6.9,0,9,0,10.4,0,1.6,0,2.5-.2,3.1-.8.5-.5.8-.8,1-.8s.3,0,.3.5-.3,1.3-.5,3.3c0,1.1-.3,3.3-.3,3.6s0,1.1-.5,1.1-.5-.2-.5-.5c0-.6,0-1.1-.3-1.9s-.9-1.8-3.4-2c-1.8-.2-8.3-.3-9.4-.3s-.5.2-.5.4v14.9c.2,4,1.1,4.7,7.7,4.7s4.6,0,6.3-.7c1.7-.7,2.5-1.8,3-4.1,0-.7.3-.9.6-.9s.4.5.4.9-.5,4.4-.9,5.6c-.5,1.5-1,1.5-3.5,1.5-5,0-8.5,0-11.1-.2-2.6,0-4.1-.2-5.2-.2h-2.7c-1.3,0-2.9,0-3.8,0s-1.1,0-1.1-.5,0-.4.5-.4c.6,0,1.4,0,2-.2,1.3-.2,1.6-1.5,1.9-3.2.3-2.4.3-7,.3-12.5v-10.1l.2.2h0Z"/>
      </g>
    </g>
  </g>
  <g id="Mirage" class="st11">
    <g>
      <path class="st7" d="M287.4-88.1c-2.9-2.6-6-5.5-9.1-7.7-1.2.3-.9-1.4-1.9-1.4-1.6-.5-3.1-1-4.9-1s-.5.3-.6.6c0,.5.5.7.8.9,1.8,0,3.1,1.5,4.6,2.3,2.8,2.7,5.5,5.6,5.5,9.5s-.6.8-1.1.9h-1c-.6-2.3-2-4.4-3.9-6-.2,0-.3.2-.4.2.3,3.3,2.5,6.5.9,9.9-.3.3-.4.7-.5,1.2-.7.2-1.4.7-2.1.3-.5-.5.1-1,0-1.6.7-.4-.3-.6-.3-1,0-2.6-.9-4.9-2.3-7,.3-1.1-1.3-1.4-1.2-2.5-.3-.5-.8.1-.9.4-3.2,6.3-3.6,13.9-4.1,21.4,0,6.6.9,13.4,0,20-.2,6.6-1.6,12.6-2.5,18.8-.2.9,0,2-.4,2.8-.4,5.7-1.2,11.4-2.1,17.1-.7,1.9-.3,4-1.5,5.6.3,1.6-.9,2.5-1.2,3.9,0-.6.4-1.4-.2-2,.6-.6.5-1.4.2-2.1-.8.1-.6-.8-.5-1.2.4-.2.9-.8.9-1.5-.3-.5-1.6-.4-1.2-1.2.3-.2.7.2.9-.3.2-.8-.7-1.4,0-2.1-.3-.3-.6-.7-.3-1.1,1,0,.5-1.3.6-1.9.5-1.3-1.1-2.4-.4-3.8.4.1.3-.4.4-.6,0-.7-.2-1.4-.4-2,0,.5-1.2.5-.3,1.1.5.4-.4.8-.7,1-.1-.2-.2-.3-.1-.6.3-4.6.6-9.3.9-13.8.6-2,.6-4,.9-6.1.6-.4.9-1.2.6-1.9.8-3.8,1.2-7.9,1.3-11.8.6-.7-.1-1.5.2-2.4.2-.8.4-1.7.1-2.4.7-1-.2-2.2.4-3.3-.6-1.1.1-2.5-.5-3.7.5-4.1-.6-7.8.5-11.5,0-3.5.9-7,1.1-10.4.2-.7,1-1.6.3-2.2h-.2c-1.7,2.1-3.1,4.4-3.7,7.1-.4-.3-1.1.7-.9-.3-.9-1.3,1.6-1.3.5-2.7-.1-.2-.3-.3-.5-.3-.5.5-.7.7-1.2.8-.3-.3,0-.5,0-.9.5-.3-.1-.9.3-1.3.6-1.4,1.1-2.9,1.9-4.2,0-.7.9-1.2.4-1.8-1.8,1.1-3.4,2.6-4.7,4.2-.3-.6-.5.2-.7.3.3-.9.6-2.6.8-4-.8-.8.6-1.6.7-2.5,1.2-1.6,2.6-3.3,3.3-5-1.8.2-3.9,0-5.4,1.2-3.2.5-5.6,3.1-8.9,3.4-.3-.1,0-.5.2-.4,1-.9,2-1.7,2.9-2.6,0-.4.2-.5.6-.5s.2.3.4.3c.6-.7-1.8-2.1.2-2,.3.3.9.9,1.4.7,0-.5-.4-.9-.5-1.3,2.4-1.3,4.9-2.7,7.5-3.4,1,.2,2.7.5,3.7-.2-.4-1.4-2.2-.7-3.1-1.6-1.7-1-3.7-1.4-5.6-1.7-1-.7-2.5-.5-2.6-2,0-.3.3-.5.6-.5,1,.6,2.6.1,3.3,1.1,0-.8.8-.3,1.2-.5,1.9-.3,4,.5,6,.8,3.5.7,6.5,2.3,9.2,4.7,1.1-.1.8,1.4,1.8,1.3,5.4-.3,9.3,3.8,13.2,7.2.7,1.7,3.2,2.4,3,4.6.7.2.7,1.1,1.2,1.7,0,.4-.4.4-.6.6"/>
      <path class="st7" d="M256-13.2c-.1-.6,0-1.4,0-2,.2,0,.4.1.4.4-1.1.6,1.2,1.5-.5,1.6"/>
      <path class="st7" d="M256.3-16c-.4.1-.3-.3-.3-.6v-.3c.4,0,.4.6.2.8"/>
      <path class="st7" d="M255.9-10.7c0-.2,0-.8.2-.6-.2.2.2.7-.2.6"/>
      <path class="st7" d="M252.3-86.1c0-.3.2-.4.3-.4,0,.2-.1.3-.3.4"/>
      <path class="st7" d="M233.2-100.2c-.8,0-1.3-.7-1.7-1.3-.8-3.3-4.4-4.6-6.1-7.2-.3,0-.6-.9-.9-.2,1.2,3.1,4.8,5.8,3.2,9.5-.6.4-1.3.6-2,.4-.5-.3-.2-1-.5-1.5-.8-1.9-1.9-3.8-3.3-5.2-.7-.1-.4.8-.4,1.2,1,2.3.5,5.2.7,7.8-.1.5-.1,1.2-.7,1.2-.6.4.1.6.2.9-.3.6-.4,1.3-.7,1.8-.7-.4,0-1.1-.4-1.7,0-.2.8-.2.3-.5,0-.2-.3-.1-.5-.1-.6.3,0,1.2-.5,1.4-.3-.7.4-1.4-.3-2,.4-2.3-.9-4.5-1.2-6.7-.8-1.9-1.4-3.9-2.4-5.8h-.3c-1,2.4-1.3,5.1-2.1,7.5-2.3-2.2-4.9-4.7-7.6-6.4,0-1.2,1.2-2,.8-3.3-.9.4-2.4,1-2.8,2.1-1.6.7-2.1-1.1-3.9-.8-.5-.3-.9,0-.8-.4,1-.8,1.7-2.7,2.8-3.4,0-.4.8-1,.2-1.5-2.5,0-4.2,2-6.6,2,.3-.3,1.2-1,.2-1-.3.3-.9,0-1.3,0-.6-1.6,1.1-2.1,1.3-3.4,3.6-2.7,8.2-3.9,12.9-3.3,1.3.2,3,.4,4.4.6,4.7-2.7,11.4-3.5,17.1-2,.9.8,3,.8,2.5,2.5-1.2.3-2.1-.6-3.5-.5-1.1.4-2.7,0-3.8.2-1.6.9-3.6.8-5.1,1.5.2,1.3,1.8,1.1,2.7,1.7,4.1,3.4,7.5,7.8,10.3,12,0,1.3.4,2.8-.2,4"/>
      <path class="st7" d="M211.5-33.1c-.3,3-.3,6.1-1.6,8.8-.5.5-.4-.4-.5-.7-.2-.5.3-.4.4-.7-.3-1-.5-2.1-.6-3.2,0-.2.4-.4.3-.8-.7-.7.9-1.6-.2-2.4-.2-.6-.8-.3-.9,0-.3,1.7-.5.1-.4-.6,0-.4.3.2.5,0,.5-.9.7-1.9,1.1-2.9-.1-.3-.3-.6-.6-.6-.3.1-.2.5,0,.7-.2.1-.6-.3-.7,0,.4.4.2.8,0,1.3,0,0-.2.2-.3,0,0-5.9-.8-11.6-1.1-17.5-.7-2.5-1.3-5.1-1.4-7.8-.4-11.1,0-21.3,1.4-31.8.3-.7.4-1.6.7-2.4h.4c.5.8.2,2.5,1.5,2.3.4-.4.9,0,1.3-.4.2-2.5-1-4.6-2.5-6.4,0-1.1.3-2,.5-3.1,0,0,.1-.1.2-.2,1.3.9,2.7,2,3.9,3.1v.6c-.6,2.7-.7,5.4-1.6,7.9-.6.6-2.3.7-2,2.2-.8.3-.9,1.2-.7,1.9.6.6,1.9-.5,1.9.5-.2.1-.2.4-.4.5.2.1.2.2.4.4-.2,5,0,11.1-.9,16.9.8,4.3-.2,9.2.9,13.4-1.1,3.3,1.5,5.7,1,9.1.2,1.7,0,3.6.5,5.2-.8,2.1.3,4.5-.7,6.4"/>
      <path class="st7" d="M208.2-25.5c-.3-.8,0-1.7,0-2.5.5.6.1,1.5.3,2.3,0,0-.1.2-.2.2"/>
      <path class="st7" d="M206.5-100c-.8-.6-1.6-1.4-2.4-1.9.2-.7,0-1.3.5-2.1.9-.2,1.9.3,2.3,1.1.1.5.9.4,1.2.9-.4.8-1,1.3-1.6,2"/>
      <path class="st7" d="M190.4-88c-.6-.5-2-.6-2.5-.9,0-.2,0-.5.2-.8.2-.9.6-1.8,1.2-2.6.6.4,1.2.7,1.7,1.2-.5,1,.2,2.6-.7,3.1"/>
      <path class="st7" d="M149.6-73.7c.1-.2.3,0,.5.1,0,0-.4,0-.5-.1"/>
      <path class="st7" d="M183.2-93.9c-.2.4-.5.8-.6,1.2-.2.2-.5.1-.7.1-.1-.5.5-.9.6-1.4,0-.2-.2-.5-.6-.3-1,.6-1.4-.8-2-1.2.9-1.4,2.4-.9,3.3-1.9.3-.4.2-1,0-1.3.8-.7.9-1.8,1.4-2.5-.5-.4-1.5-.3-2.2-.2-3.9.8-7.7,1.8-11.6,2.7-1.9-1.3-3.5-3.5-5.8-4.1-.8-.2-1.4-1-2.3-1.2-3.7-1.1-7.5-2-11.4-2.9-1.4.1-3.3-.5-4.6.1-.4,2.5-3.7.9-5.3,2-.5,0-.7.5-.5.9-.7,1-.8,2.4-1.8,3.2-.7.1-1.6.6-1.8,1.4.2.2.5.3.8.3,1.4-.5,2.9-1.1,4.5-.8.8-.2,1.5-.2,2.2-.4,2-.2,4.2.6,6.5.7.5,0,.9.8,1.5.3,1.1.3,2.4.2,3.3,1.1.1.4-.4.5-.6.8-2.9.7-5.5,2.3-8.2,3.4-3,2.6-6.3,4.9-9,7.5.2.2.4.2.7.2.3-1.2,1.4.3,1.6-1,.4-.3,1-.4,1.4.1.1.7-.7.3-1,.5.3.9-1,.8-1,1.5-.5,0-.5.7-.9,1-.3,1.2-1.6,1.7-2.2,2.7,0,.1.2.2.4.2,1.7-1.3,3.9-1.4,5.5-2.8,2.1-.8,4.1-1.9,6.1-3.1,1.3-.5,2.6-1.1,4-1.6,2.3-.8,4.4-2.5,6.8-3.1.2.2.2.4,0,.5-2.6,2.1-5,4.8-6.7,7.4,0,.5,0,1-.2,1.4-.1.1-.3.1-.5.2-.2,1.1-.8,2-1.3,3,.2,1.7-1.5,2.8-1.1,4.5.3,0,.5-.1.9,0,.5.5.6,1.2.8,1.8-.3.5-.9,1-1.4,1.3s-1.1-.4-1.3.3c1,.4,2.1.1,2.8-.5,3.2-4.2,5.6-8.8,9.3-12.8,1.8-2.4,4.2-3.6,6.6-5,.5.2-.1.5,0,.9-3.1,3.5-4,7.7-3.9,12.4,1,6,1.7,12.1,2.6,18v6.1c.6,1.6-.1,3.1.4,4.7,0,5.9.5,11.9.2,18.2.1,1.4-.1,3.4,0,4.8-.4,1.1.6,1.8,0,2.7.2,5.1.2,10.3,1.6,15,.2.8.7.3,1.2,0,.2.3,0,1,.5,1,.4.2.7-.2.9-.5.3-2.5,1.8-4.5,2.4-6.8-.6-6.4-.3-13.1-.3-19.6-.6-8.9-.8-18.1-1.5-27.1-.7-.5-.3-1.5-.3-2.2-.4-.4-.4-1-.6-1.4-.2-6.3-3.8-13-.4-19.2.2-.2.6-.2.7,0,1.9,4.5,2.1,9.8,2.7,14.9,0,.5.5,1,.2,1.6.3.7,1.2.5,1.8.8.8-.6.9-1.5,1.7-2.2.4-1.9,1.7-3.9.9-5.8.3-5.5-2.6-10-3.1-15.4,0-.2.3-.4.6-.3,2.6,2.3,6,4.6,7.1,7.9,1.4,2.7.4,6.2,2.6,8.6.5.4,1.3.2,1.8,0,.3-1.9,0-4,.3-5.8-.1-.2-.4-.2-.4-.4.9-3.1-2.2-5.1-3.1-7.6-.2-.1-.3-.1-.4-.3-.1-1.2-1.6-1.3-1.6-2.5,1,.1,2.2,0,3.3.2.4,0,.7-.5.7.2.2,0,.5.1.9.2.4,0,.7-.1.8-.6.2-.6.1-1.3-.4-1.6-.7,0-1,.8-1.3,1.2-.3,0-.2-.7-.3-1,.6-.6.5-1.6.8-2.4-.8-.9-2,0-3-.5"/>
      <path class="st7" d="M185.6-22.2c.3,0,.4.3.4.6-.1.5-.3.8.2,1.2-1.3,2.1-.4-1-.6-1.7"/>
      <path class="st7" d="M185.6-17.2c-.4-.4-.2-1.4,0-1.9.3.5.4,1.3,0,1.9"/>
      <path class="st7" d="M173.4-102.7c0-.4.3-.8.7-.8-.4.2,0,1.3-.7.8"/>
      <path class="st7" d="M184.7-101.2c-.5.7-.6,1.8-1.4,2.5.2.3.3.9,0,1.3,0,1.1-.2,2.5-.7,3.4-.1.5-.7.9-.6,1.4.2,0,.5,0,.7-.1.2-.4.4-.8.6-1.2,1.1-1.7,2.9-3.2,4.5-4.4h.4c.5.6-.5,1.1-.4,1.9-.7.9-1.1,2-1.5,3.1-.3.8-.2,1.8-.8,2.4.1.3,0,1,.3,1,.3-.5.6-1.3,1.3-1.2.5.3.6,1,.4,1.6,0,.5-.5.7-.8.6.1.5-.1,1.3.3,1.8.2,0,.4,0,.5-.1.2-.5.3-1.1.5-1.6,0-.2,0-.5.2-.8.2-.9.6-1.8,1.2-2.6.5-.9,1.1-1.7,1.8-2.5h.4c.5.9-.3,1.7-.5,2.5v1.2c-.5,1,.2,2.6-.7,3.1-.3,1.9-.4,3.7-.4,5.7-1,3.9-.1,7.8-.5,11.7.4.8,0,2,.1,2.9.7,1-.2,2.2.3,3.4,0,.3-.5.6-.2,1-.4,1.8-.1,3.1-.5,4.8,0,3.9-.6,7.5-1.2,11.3.3.7,0,1.5-.6,1.9-.1,1.9-.1,4.3-.9,6.2-.3,5.1-.8,10.9-.9,16.4h.2c.5-.9-.4-2.2.8-2.8,0-.3-.5-.5-.4-.8.5,0,.1-.5.5-.7.2.7.7,1.5.6,2.3-.5.4-.7.8-.6,1.6.7,1.3.9,3,.4,4.4-.9.2,0,1,0,1.6-.7.6.2,1,0,1.7,0,.6-.7.2-1,.4-.2.9.9.6,1.2,1.2.2.5-.4.9-.6,1.3-.7,0-.3.8-.4,1.3.3,0,.5,0,.7.3.4.8-.2,1.4-.3,2.1.7.4,0,1.3.2,1.8.2-1.2,1.1-2.1,1.1-3.4s1.1-1.8.6-2.9c1.2-4.2,1.6-8.7,2.2-13.2,0-3.4.7-6.7,1-10.1,1.1-6.2,2.3-12.3,2.5-18.9,1.3-9.3-1.2-18.3.5-27.3.8-4.9,1.3-10,3.8-14.1.2-.1.6-.2.7.2-.1,1.1,1.3,1.3,1,2.4,1.5,2.1,2.2,4.5,2.3,7.2,1.1.6-.1,1.3,0,2,.2.5.8.6,1.3.8.2-.7,1.3-.2,1.1-1.2,1.2-1.5,1-3.9.8-5.8-1-1.2-.4-3-1.2-4.2-.1-.3,0-.9.4-.7,1.1.9,2,2.1,2.7,3.3h.4c.5.8.2,2.5,1.5,2.3.4-.4.9,0,1.3-.4.2-2.5-1-4.6-2.5-6.4-.6-.7-1.2-1.5-1.9-2.2h0c-.8-.6-1.6-1.4-2.4-1.9-.7-.5-1.4-.9-2.1-1.2-.5-.5-1.3.3-1.7-.5-.2-.3-.1-.9.3-1.1.9,0,1.9,0,3,.2.3.3.7.5,1.1.6.9-.2,1.9.3,2.3,1.1.1.5.9.4,1.2.9.3.2.7.6,1,.9,1.3.9,2.7,2,3.9,3.1,1.1,1,2.3,2.3,3.4,3.3.2,0,.2.2.5.1.7-.9-.5-1.5-.6-2.3-.5,0-.4-.6-.4-.9-.4-1.2-1.5-2-2.3-3-2.3-2.2-4.9-4.7-7.6-6.4-.7-.4-1.2-1-2-1.3-1.6.7-2.1-1.1-3.9-.8-.5-.3-.9,0-.8-.4-.2-.4-.5-.6-1.1-.5-3.8-3.6-8.7-4.7-13.7-5.4-.8.5-1.3,0-2.2,0,0,.3-.4.7-.5.6,0-.3,0-.5-.3-.7-1.3.4-2.1-1-3.2-.4-.6,1.8,1.8,1.6,2.6,2.4,1.9.1,3.8.9,5.5,1.6.8,1,2.5.2,3,1.6-.1.6-.9.3-1.3.5-3.6-.8-6.4,1.3-9.3,2.7-1.4.3.4,1.2-.2,1.9-.2,0-.4-.2-.6-.5-.4.1-.4-.5-.7-.6-1.4.3.4,1.3.2,2-.3.4-.6-.3-.9-.2-.3,0,0,.4-.2.6-.9.8-1.5,1.3-2.4,2.2-.1.5-1.3.3-.7.8,3.1-.6,5.5-2.9,8.6-3.4,1.5-1.2,3.5-.9,5.3-1.3,0,0,.1.1.2.2-.7,1.5-1.8,2.8-2.8,4.1"/>
      <path class="st7" d="M211.5-89.5c-.6.6-2.3.7-2,2.2-.8.3-.9,1.2-.7,1.9.6.6,1.9-.5,1.9.5-.2.1-.2.4-.4.5.2.1.2.2.4.4,1.2-.3,2.1-1.3,3.3-1.7.8-.2,1.8-.7,2.6-.4,0,.9-.6,1.8-1.5,2.3-.2,1.2-2,1.6-1.8,2.7-.7.5.4,1-.1,1.6-.1,1.7-1.7,2.3-2.6,3.5,2.7-.7,4.6-3,7-4.4.1,0,.3-.1.4,0,.5-1.1,1.7-1.5,2.7-1.9.5.7-.2,1.5-.5,2.1-.9,2.9-2.5,5.6-3.1,8.5.3-.1.6-.5.9-.8.2.3.9,0,.8.6,0,.2-.3.2-.4,0-.9,1.1-.6,3.1-.6,4.4.1,0,.2,0,.3-.2,0-1.1,1.1-1.7,1-2.8,1-1.1,1.5-2.6,2.7-3.6.3-.3.3-1,.8-1.1.1,0,.1.2.2.3-.6,4.1-1.2,8.2-2.3,12-1.6,12.4-2.8,24.4-1.1,37,.7.6.2,1.6.6,2.3.4,5.9.8,11.6,1,17.4h.2c0-.3.5-.9,0-1.1,0-.1,0-.3.2-.4.8.6,0-.2.7-.6.3,0,.5.5.6.8-.6.8-.7,1.8-1.2,2.7-.7-.5-.4.6-.5.8.5,0,.4-.7.9-.8.5.3.5.9.8,1.4-.2.4-1,1.2-.2,1.6-.7.7,0,1.3-.2,2.2-.1.7,1,1.4,0,2,0,.4,0,.7.2,1,.5.1.4-.5.7-.6.5-2.6.8-5.2,1.1-7.9.5-1.6.4-3,.3-4.7.7-2.2-.4-4.4,0-6.7,0-.1,0-.2-.1-.3.5-3.3-2.1-5.7-.9-9-1.1-4.1.1-9.2-.8-13.4,1.3-6.1.6-13.1,1.5-19.4,1.8-7.2,2.6-14.8,5-21.8.2,0,.4,0,.5.2,1.4,4,3.1,7.9,3.2,12.3.6.6.2,1.3.3,2,.6,0,0-1,.6-1.4.2,0,.3,0,.4.1.5.3,0,.5-.2.5.2.6-.3,1.3.3,1.7.2-.7,1.1-1.6.4-2.2,0-.2,0-.3.2-.4.7,0,.6-.8.7-1.3-.2-2.8.2-5.8-.7-8.4,0-.3,0-.7.4-.6.3.2.6.5.6.8,1.6,1.3,1.9,3.1,2.8,4.7.3.3-.1,1,.3,1.3.7.1,1.6.2,2-.4,1.4-3.3-1.3-5.9-2.8-8.5,0-.4-.6-.8-.2-1.3,1.8,1,3,3.4,4.8,4.6,1.5,1.5,1.5,3.7,3.5,4.7.9-1.1.3-2.8.4-4.1-2.7-4.3-6-8.8-10.1-12.1-.8-.7-2.5-.3-2.6-1.7.8-.6,1.9-.6,2.8-.8,1.9-.9,4.1-.8,6.3-.9,1.1,0,2.2.6,3.3.7.6-2-2-2.1-3-3-5.6-1-11.7-.6-16.4,2.2-1.6-.2-3.1-.4-4.7-.6-4.1-.5-7.8.4-11,2.2"/>
      <path class="st3" d="M197,23.9c-.4,1.2-.7,3-.3,4.3,1.2,1.2,2.3-1.1,3.5-1.4.6-.8,1.3-1.2,1.9-2-.3-1.3-.1-2.7.7-3.7.7-.6,1.8-1.1,2.5-.1,1.1.6.1,2.9,1.5,2.6,3.4-1.2,8.2-4.4,11.4-.7.6,1.1-.5,1.8-1.3,2.4-1.3.4-2.4-.4-3.5-.7-2.4.8-4.8,1.6-6.9,3.2,1.4,1.8.3,4.1-.7,5.7-1.2.5-2.2-.5-2.6-1.5-.1-.9-.6-1.7-.8-2.6-2.1,1.9-4,3.7-7.1,3.3-1.6-1.6-3.2-3.4-3.1-5.9.2-2.2.2-4.9,2.2-5.9.9,0,1.7.2,2.1,1,0,0,.8.8.5,2.1"/>
      <path class="st3" d="M195.2,12.8c-1.1,0-2.1,0-2.7-1.1-.4-.8.2-1.4.4-2,1.2-.4,2.4-.4,3.4.4,0,0,.2.9.1,1.6-.4.4-.6,1.1-1.2,1.1"/>
      <path class="st3" d="M190.1,32.6c-2.3.6-3.9-.8-5.7-1.6-2.5-2.4-2.6-6-5-8.5-2.3.3-3.8,2.1-5.8,2.9-4.4,2.9-9,7.5-14.6,4.9-3.5-2.1-3.2-6.1-5.3-9-4,.3-7.4,3.1-10.9,5-3.8,3.9-8.8,5.8-13.6,7.9-2,.5-3.5-.6-4.6-2.1,0-3.8,1.5-7,2.8-10.3,2.7-5.6,5.2-11.3,7.7-17.1.9-1.8.8-4.6-.3-6.2-5.4-2.3-10.7.2-16.3.2-5.5,2.1-11.3,3.5-16.7,6.2-2.9,1.9-6.2,1.9-9.2,3.8-3.6,2.3-7.2,5.2-11.2,6.6-2.5,1.2-3.9,3.6-6.5,5-4.4,2.3-8.5,5.3-13.2,6.8-1.9,0-4.1,0-4.8-2.1.5-2.4,3.4-2.7,5.2-3.3.7-.4,1.7,0,2.3-.4C84.8,7.6,105.6-4.7,130.6-6.7c3.6.3,7.3,1.1,9,4.5,2,8.4-3.8,15.2-6.4,22.6-1.8,2.7-3.4,5.8-3.8,9,.8.6,1.5-.4,2.3-.6,7.8-4.2,14.3-11.8,23.7-11.7,4.2,1,3,5.8,4.2,8.8,1,.9,2.5,1.6,3.8.9,5.1-2.4,9.5-6.7,14.8-8.6,2-.4,4.1,0,4.9,2,1.8,3.2,2.2,8.9,7.2,8.8,1.2.9,1.2,3.6-.5,3.8"/>
      <path class="st3" d="M221.4,28.5c-.8-.4-.7-1.4-.3-2,1.1-1.1,2.3-1.8,3.6-2.2,0,1.9-1.7,3.5-3.3,4.2M230.8,31.5c-1.2.7-2.9.7-4.4.5-.4-.5-1.2-1.2-1.7-1.8-1.5,2-3.8,3.2-6,2.6-1.7-.8-1.8-2.8-2.1-4.4.7-3.5,4.3-6.6,7.5-7.6,1.5,0,3.3.3,3.8,2,1.2,1.9-2.7,6.1,1.8,5.5.9-.1,1.8-1,2.8-.3,1,1.5-.6,2.8-1.7,3.5"/>
      <path class="st3" d="M239.4,27.7c-.6.2-2.9.3-1.7-1.1.8-1.4,1.8-2.4,3.3-2.7.3.1.7,0,.9.4-.9,1.1-.9,2.9-2.6,3.4M237.1,60.2c-4.2,1.8-10,3.5-14.3.9-3-2.6-3.8-6.8-4.5-10.6.3-2.9,4.6-6.6,7.4-8.4,2.5-.3,4.5-2.5,6.8-3.6,3.6-1.3,6.9-3.1,10.8-3.7.6,6,1.4,11.8,0,17.8-.5,1.4-1.5,2.7-2.1,4.3-1.4,1.2-2.5,2.4-4,3.4M262.6,25.9c-.4-1.2,1-2,1.5-3,1.2-.3,2,.5,2.6,1.1-.4.7,1.6,1.6-.2,1.5-1.4,0-2.5.6-3.9.4M277.2,31.9c-2.1-.7-3.6.6-5.6.7-4,.8-9,1-11.9-2.3-4.3,1.1-8.7,2-13.1,3,.3,7.8,2.5,17.5-2.3,24.1-3.5,6.4-10.2,8.6-17.1,8.5-4.1-.5-8.5-2.2-10.3-6.5-1.9-3.7-3.3-8.7-1.3-12.7,5.3-8.2,14.5-10.8,22.5-14.2,1.5-.3,3-.8,4.4-1.6-.1-.4-.4-.9-.3-1.4-1.7.9-3.8,2.9-6.3,1.8-1.2-1-2.4-2.3-2.2-3.8.2-3.2,2.5-5.4,5.1-6.8,1.4-.5,3.1-.7,4.4.2.6,1.8,2.3-.3,3.3,1,.5,2.8-2.3,4.9-.5,7.6,0,.2.3.3.4.5,4-1.1,8.2-1.5,12-3,0-2.1,1.1-4.1,2.3-5.8,1.4-.9,2.9-2.1,4.8-1.3,1.4.4,3.4,1.1,3.5,2.9,1.2.8,3.2,1.4,3.2,3.1s-.1.4-.2.6c-2.6,1.3-5.3,2.1-8.1,2.8,4.3,1.2,8.4-.3,12.4-1.1.7.3,1.5.4,2,1.2.3,1.1-.2,2.2-1.3,2.4"/>
      <path class="st7" d="M253,38v-1.1h.7c.4,0,.8,0,.8.5s-.4.6-.9.6h-.7.1ZM253,38.5h.6l1,1.6h.6l-1-1.6c.5,0,.9-.3.9-1s-.4-1-1.3-1h-1.4v3.6h.5v-1.6h0ZM253.6,41.4c1.7,0,3.2-1.3,3.2-3.1s-1.5-3.1-3.2-3.1-3.2,1.3-3.2,3.1,1.5,3.1,3.2,3.1M251.1,38.3c0-1.5,1.1-2.6,2.5-2.6s2.5,1.1,2.5,2.6-1.1,2.6-2.5,2.6-2.5-1.1-2.5-2.6"/>
      <polygon class="st7" points="185.1 47 183.8 47 188 57.9 192.2 47 190.9 47 188 54.9 185.1 47"/>
      <polygon class="st7" points="107.1 47 106 47 106 57.3 109.9 57.3 109.9 56.2 107.1 56.2 107.1 47"/>
      <path class="st3" d="M129.6,53.3h-3.5l1.8-4.1,1.7,4.1ZM130.1,54.4l1.2,2.9h1.3l-4.6-10.8-4.7,10.8h1.3l1.2-2.9h4.4-.1Z"/>
      <path class="st7" d="M152.4,48.4c-.6-1-1.5-1.6-2.7-1.6s-2.9,1-2.9,2.6,1,2.1,2.2,2.6l.6.3c.9.4,1.9.8,1.9,2s-1,2-2.1,2-1.9-.8-2.1-1.9l-1.1.3c.3,1.6,1.5,2.7,3.2,2.7s3.2-1.4,3.2-3.2-1.1-2.3-2.5-2.9l-.7-.3c-.7-.3-1.6-.7-1.6-1.6s.8-1.6,1.7-1.6,1.4.4,1.8,1.1l.9-.6h.2Z"/>
      <polygon class="st7" points="206.4 57.3 211.7 57.3 211.7 56.2 207.5 56.2 207.5 52.2 211.6 52.2 211.6 51.1 207.5 51.1 207.5 48.1 211.7 48.1 211.7 47 206.4 47 206.4 57.3"/>
      <path class="st7" d="M230.7,52.1v1.1h3.1c0,1.9-1.9,3.2-3.7,3.2s-2.2-.6-2.9-1.3-1.2-1.8-1.2-2.9c0-2.3,1.9-4.3,4.2-4.3s2.7.7,3.5,1.9l.8-.8c-1.1-1.4-2.5-2.2-4.3-2.2-3,0-5.4,2.4-5.4,5.3s2.4,5.3,5.3,5.3,2.9-.6,3.8-1.7,1.1-2.2,1.1-3.6h-4.3Z"/>
      <path class="st3" d="M255.2,53.3h-3.5l1.8-4.1,1.7,4.1ZM255.6,54.4l1.2,2.9h1.3l-4.6-10.8-4.7,10.8h1.3l1.2-2.9h4.4,0Z"/>
      <path class="st7" d="M277.9,48.4c-.5-1-1.5-1.6-2.7-1.6s-2.9,1-2.9,2.6,1,2.1,2.2,2.6l.6.3c1,.4,1.9.8,1.9,2s-1,2-2.1,2-1.9-.8-2.1-1.9l-1.1.3c.3,1.6,1.6,2.7,3.2,2.7s3.2-1.4,3.2-3.2-1.1-2.3-2.5-2.9l-.7-.3c-.7-.3-1.6-.7-1.6-1.6s.8-1.6,1.7-1.6,1.4.4,1.8,1.1l.9-.6h.2Z"/>
    </g>
  </g>
  <g id="subway" class="st11">
    <g>
      <path id="path3408" class="st5" d="M-5.1,11c-.2-.3-.5-.5-.6-.5s-.7-.5-1.3-1c-.6-.6-1.4-1.2-1.8-1.5s-1-.8-1.3-1.1-1-.9-1.4-1.2-1.3-1-2-1.6c-.6-.5-1.3-1.1-1.5-1.3s-.8-.7-1.4-1.1c-.5-.5-1.1-1-1.3-1.1,0-.2-.3-.3-.5-.3s-.9-.6-1.6-1.3-1.5-1.3-1.6-1.3-.7-.5-1.3-1.1l-1.2-1.1,1-1c.6-.5,1.3-1.2,1.7-1.4.4-.3.8-.6,1.1-.8s1.2-1.1,2.3-1.9c1.1-.8,2.2-1.8,2.5-2.1s.6-.6.7-.6c.2,0,2-1.5,2.1-1.7,0,0,.4-.4.9-.7s1.3-1,1.9-1.5,1.3-1.1,1.6-1.3.6-.4.7-.5c.2-.4,2.2-2,2.4-2s.2,0,.2-.2,0-.2.3-.2.3.6.3,4v4H-.8c7.7.4,23.3.5,23.4.3,0-.1.3-.2.4-.2s.5-.3.8-.7c.6-.9.6-2.1,0-3.2s-1.3-1.5-8.8-5.1c-1.4-.7-2.9-1.4-3.4-1.6s-1.6-.8-2.5-1.3-1.8-1-2.1-1.1c-.5-.2-2.7-1.5-4.5-2.8-1.3-.9-4.3-3.7-4.8-4.4,0-.2-.4-.6-.7-1.1-.9-1.3-1.6-2.8-1.8-3.7,0-.5-.3-1.5-.5-2.3-.5-2.4-.3-8,.3-8.6,0,0,.2-.4.2-.7,0-.8,2-4.5,2.4-4.5s.2-.1.2-.3c0-.4,2.5-2.8,3.9-3.8.5-.3,1.7-1,2.8-1.5,4.7-2.3,5.5-2.4,19.7-2.3,6.1,0,12.2.1,13.4.2h2.2v15.5H15c-.3,0-.8.3-1.2.6-.4.3-.6.9-.6,1.8,0,1.3,0,1.4.5,1.9.3.3.9.8,1.3,1s1.6.9,2.7,1.4c1,.6,2.1,1.1,2.4,1.2.3,0,.8.3,1.1.5s.6.3.7.3,1.7.7,4.7,2.2c.6.3,1.2.5,1.3.5s.3,0,.3.2.1.2.3.2.3,0,.3.1c0,.2,1.5,1,1.8,1s.7.3,1.2.6,1,.6,1.1.6.4.2.8.5c.3.3.9.7,1.3.8.4.2.9.5,1.2.8,1.2,1.1,1.5,1.3,1.9,1.5s.8.7,1.3,1.3c.5.6,1,1.2,1.1,1.3.3.3,1.2,1.7,1.2,1.9s.2.7.5,1.3c1.1,2.7,1.5,7.2.9,10.6-.3,1.7-1.2,4.5-1.8,5.6s-2.6,3.6-3.4,4.2c-.4.3-1,.8-1.3,1.1C36.3-.3,35.9,0,35.7,0s-1.5.7-1.7.9c0,0-.6.3-1.2.5s-1.2.5-1.3.5c-.4.3-3.3.9-5.6,1.1-2.9.3-8.6.5-8.6.2s-3-.2-9.8-.2H-3.9v4.1c0,4.5,0,4.7-.9,3.6h0l-.3.3h0ZM67.6,4.8c-2.2-.3-4.5-.9-6.9-1.7-2.2-.8-3-1.1-5.1-2.5-.4-.3-.8-.5-.9-.5-.6,0-5.4-5-5.4-5.7s-.2-.6-.5-1.1c-.5-.9-1.1-2.3-1.6-4-.3-.8-.3-3.7-.3-25.8v-24.9h19V-15.4l.4.8c.7,1.3,1.1,1.7,2.6,2.5l1.4.7h2.6c2.6,0,4.2-.3,4.8-1s.3-.2.5-.2c.3,0,1.5-1.4,1.8-1.9.1-.3.2-9.4.2-23.6v-23.2h19.3V-12.8l-.5,1.6c-.3.9-.6,2-.7,2.4-.3,1-1.5,3.3-2.1,3.8-.2.2-.5.6-.7,1-.4.7-3.4,3.6-4.3,4-.4.2-.8.5-1.1.7-.5.5-3.5,2-3.9,2s-.6.1-.9.3c-1.7.8-4.1,1.4-7.3,1.9-2.2.3-8.1.3-10.5,0h0ZM183.4,4.7c-2.3-.2-4.2-.7-6.8-1.5-3.4-1.1-5.5-2.4-7.8-4.5-.8-.7-1.4-1.4-1.4-1.4,0,0-.4-.5-.8-1.1-.9-1.2-1.8-2.7-1.8-3.1s0-.4-.2-.5c-.2-.2-.9-2.3-1.3-4-.3-1.2-.3-3.7-.4-25.6v-24.3h19.2v23c0,20.8,0,23.1.3,23.9.4,1.3,1,1.8,2.6,2.3,2.7.8,6,.1,7.1-1.4l.5-.8v-47h19.1v23c0,25.4,0,24.1,1.2,25.2.9.9,2.1,1.3,4.2,1.3s2.1-.1,2.8-.4c1.2-.4,1.6-.7,2.1-1.8.3-.7.3-1.4.3-24v-23.3h19.3v23.9c0,20.8,0,24.1-.3,25.4-.3,1.9-1,3.9-1.7,5.2-.3.6-.5,1.1-.5,1.3s-.1.4-.2.5-.5.6-.8,1c-1.1,1.4-2.5,3-3.5,3.7-1.7,1.3-4.1,2.8-5,3-.3,0-1.2.4-1.9.6-3.6,1.3-8.6,1.8-12.5,1.4-2.1-.2-5.7-1.1-6.8-1.5-.3-.2-1-.4-1.5-.6-.9-.3-3.1-1.5-3.7-2.1s-1.1-.6-1.9-.2c-.4.2-.7.5-.7.5,0,.2-2.9,1.8-3.2,1.8s-1.2.3-2,.7c-2.4,1.1-8.2,1.7-12.2,1.3h.2,0ZM247.6,3.6v-24.6c0-22.3,0-24.5.4-25.7.3-1.2,1-3.4,1.4-4.1,0-.2.4-.7.6-1.3.2-.5.6-1.1.7-1.2.6-.6,1.5-1.8,1.5-2s.3-.5.8-.8,1.2-1,1.7-1.5,1-.8,1.1-.8.7-.3,1.3-.7c2.3-1.5,6.3-3,10.5-3.8,2.3-.4,8.1-.6,10.6-.3,3.2.4,6.4,1.1,8,1.9.4.2.9.3,1.1.3.4,0,2.7,1.2,3.4,1.7.3.2.9.6,1.2.8.8.4,3.8,3.1,4.1,3.7.1.3.5.8.9,1.2,1.1,1.2,2.4,4.1,3,7,.3,1.4.3,2.8.3,25.9V3.7h-19.1V-15.1h-14.1V3.7h-9.5c-7.7,0-9.5,0-9.6-.1h-.3ZM281-36.4c0-5.9,0-6.3-.4-7.3-.5-1.3-1-1.8-2.5-2.4-2.5-1.1-6.1-1.1-8.5,0-1.4.7-1.7,1-2.3,2.2l-.5,1v12.8h14.1v-6.3h0ZM321.5-5.6v-9.4l-1.6-.5c-.9-.3-2.4-.9-3.2-1.3-.9-.4-1.7-.8-1.8-.8-.3,0-2.1-1.3-3.7-2.6-1.3-1.1-2.6-2.6-3.7-4.2-.3-.5-.6-.9-.7-1.1-.2-.3-1.3-3.3-1.6-4.9-.2-1-.3-3.5-.3-16.1v-14.9h18.9v12.9c0,13.2,0,14.7.7,15.5s2.6,1.9,3.7,2.2c1.3.3,4.3.4,5.5,0,1.9-.4,3.6-1.6,4.3-3.2.3-.7.3-1.3.3-6.7s0-6.8.2-7.7c.2-2,.9-4.8,1.5-6.1.4-.9,2.8-4,3-4s.6-.3,1.1-.8c1.2-.9,2.7-1.6,3.8-1.8.5,0,1.4-.3,2.1-.4,1.1-.2,2.8-.3,9.2-.3h7.9v-4.1c0-4,0-4.6.5-3.8.1.2.5.5.9.8s1.2.9,1.8,1.5c.6.6,1.4,1.2,1.7,1.3s.6.4.7.5c.3.4,2.1,2,2.4,2s.2,0,.2.2,1.1,1.1,2.4,2.1c1.3,1.1,2.6,2.2,2.8,2.4s.4.4.6.4.8.5,1.4,1.1,1.4,1.2,1.6,1.4c.8.5,2.4,2,2.4,2.3s-1.6,1.8-2.7,2.6c-.4.3-.9.7-1.1.9s-1.4,1.2-2.6,2.2-2.3,1.9-2.4,2-.4.3-.7.5c-.3.2-1,.8-1.6,1.3s-1.2,1-1.3,1-.7.5-1.3,1-1.4,1.2-1.7,1.4-1.2.9-1.9,1.5-1.6,1.3-1.8,1.5l-.5.4v-8.2h-4.7c-3.5,0-4.7.2-4.9.3s-.3,1.9-.3,7.2c0,5.6-.8,9.8-2.2,12.7-.4.8-.9,1.7-1.2,2-.3.3-1,1.1-1.6,1.8-.6.7-1.2,1.2-1.3,1.2s-.5.3-.9.6c-.8.8-2.1,1.6-2.9,2-.3.1-1.3.6-2.2,1s-2.1.9-2.9,1.2l-1.3.4V3.6h-19.2V-5.8h0l.2.2h0ZM105.3-28.8v-32.5h16.3c17.8,0,19.8,0,22.8,1,1.9.6,4.5,1.9,5.9,2.9,1.1.8,2.4,2.1,3.6,3.5.7.8,2,3.5,2.5,5.3.5,1.4.5,1.8.5,5s0,3.6-.2,3.8c-.1.1-.3.6-.4,1-.3.8-1.3,2.9-1.9,3.6-.2.3-.3.5-.3.6s-2.9,3-3.1,3-1.2.8-1.2.9.3.3.8.4c.4.2.9.5,1.2.7s.8.6,1.1.9c1.6,1.2,3.8,3.9,4.1,5,.1.4.3.8.4.9.3.4,1.1,3.4,1.2,4.7.2,1.7,0,5.3-.3,6.6-.4,1.6-1.5,4.8-2,5.6-.6,1-1.7,2.6-2.2,3-1.6,1.6-2.7,2.5-3.6,3-.5.3-1.3.7-1.7.9-1.5.8-3.2,1.5-3.7,1.5s-.8,0-1.1.2c-2.2.7-3.8.7-21.4.7h-17.3V-29.1h0v.3h0ZM135.4-10.9c.9-.2,2.1-1,2.3-1.4,0-.1.2-.3.3-.3s.4-.4.7-1c.4-.9.4-1.2.4-3.6v-2.7l-.7-1.1c-.4-.6-1-1.3-1.4-1.6l-.8-.5h-5.9c-3.2-.1-5.9-.2-6-.1s-.1,2.8-.1,6.2v6.1h5.2c3.3,0,5.5,0,6-.2h0v.2ZM135.4-35.9c.9-.5,2.1-2.1,2.3-3.2.6-2.9,0-5.7-1.4-6.9-.9-.7-3.2-1.1-6.9-1.2h-5.2v11.7h5.2c5,0,5.2-.1,6-.5h0Z"/>
      <path id="path3404" class="st6" d="M182.1,4.5c-2.1-.3-3.7-.7-6-1.5s-2.6-.9-4.2-2c-.6-.4-1.3-.8-1.3-.8,0,0-.8-.6-1.6-1.4-2.4-2.3-3.7-4.3-4.7-7.4-1.2-3.6-1.1-2.6-1.1-28.8v-23.8h9.5c7.4,0,9.5,0,9.5.2v23.2c0,22.1,0,23,.4,23.8.4.9,1,1.6,1.3,1.6s.5.1.8.3c.8.4,2.7.6,4.1.5,2.3-.3,3.8-1.3,4.2-3,.1-.4.2-9.3.2-23.6v-23h9.3c8.3,0,9.4,0,9.5.3,0,.2.1,10.6.1,23.3,0,21.9,0,23,.3,23.7.2.4.5.9.8,1.2,1.3,1.2,4.9,1.6,7,.8,1.4-.5,1.5-.6,2.1-1.6l.5-.8v-23.3l.2-23.3h19v24.3c-.1,22.2-.2,24.4-.4,25.6-.4,1.8-1.1,3.8-1.7,4.7-.3.4-.5.9-.5,1.1,0,.4-1.9,2.9-3.4,4.3-.7.7-1.9,1.6-2.6,2.1s-1.6,1-1.9,1.2-1,.5-1.4.6-1,.3-1.3.5c-.9.4-3,1-4.8,1.3-2.4.5-8.9.5-11.1,0-1.5-.3-3.6-1-4.6-1.4-.3-.1-.7-.2-.9-.3-.4,0-3.8-2-4-2.3,0,0-.3-.2-.5-.3-.5-.3-1,0-2.6,1.1-.5.3-1.1.8-1.5.9-1.3.7-5.2,2-7.5,2.4-1.9.4-6.9.4-9.2,0h0v-.4h0ZM247.8-20.4c0-26.9,0-25.4,1.3-29.2.8-2.1,1.2-2.9,2.4-4.3.4-.5.7-.9.7-1s.5-.6,1.1-1.2c.6-.5,1.4-1.3,1.8-1.6.3-.3.7-.6.8-.6s.5-.2,1-.5c1-.7,3.6-2,4-2s.6-.1,1-.3c2.1-.9,5.6-1.6,9.3-1.9,4.4-.3,9.3.2,13.2,1.4.9.3,1.9.6,2.4.7,1.1.3,2.9,1.3,4,2,.5.3,1,.6,1.2.7.2,0,.8.5,1.4,1.1s1.2,1.1,1.4,1.2c.2.2.8.8,1.2,1.4s.9,1.3,1.1,1.4c.9.9,2.4,4.8,2.8,7.3.2,1.4.3,4.8.3,25.6V3.8h-18.9V-14.9h-14.5V3.8h-18.9v-24.1h0ZM281.2-36.3v-6.1l-.5-1.3c-.6-1.5-.8-1.8-2.6-2.6-1.2-.5-1.6-.6-3.4-.7-2.4,0-3.7.1-5.2.8-1.4.6-1.6.9-2.2,2.1l-.5,1v13h14.5v-6.1h0ZM321.5-5.7v-9.4l-.9-.3c-1.3-.4-3.7-1.4-4.5-1.9-.4-.2-1-.5-1.2-.5s-.6-.3-.8-.4-.8-.7-1.4-1.1c-2.4-1.6-5-4.6-6.1-7-.6-1.3-1.4-3.9-1.6-5.3,0-.6-.2-7.6-.2-15.5v-14.3h18.8v13.5c.2,9.5.3,13.7.4,14.1.2.6,1.3,1.7,2.3,2.4.8.5,3.1,1,4.4,1,2.7,0,5.3-.9,6.3-2.2,1.3-1.6,1.2-1.2,1.4-9.5,0-4.1.2-7.8.2-8.1.7-3,1.6-5,2.9-6.7,1.7-2.1,4.6-3.9,7.2-4.3,3.1-.6,4.1-.6,11.2-.6h7.4v-4.1c0-3.9,0-4.1.3-3.7.2.2.6.6,1.1.9s1.2.9,1.8,1.5,1.2,1,1.3,1,.8.6,1.6,1.3,1.5,1.3,1.6,1.3.4.2.7.5c.3.3,1.4,1.3,2.5,2.1,1.1.9,2.1,1.7,2.3,1.9s.9.7,1.5,1.2,1.3,1.1,1.4,1.3c.2.2.4.4.6.4s.8.5,1.5,1.2l1.3,1.2-1,1c-.5.5-1.3,1.2-1.8,1.5-1,.8-4.5,3.7-5.7,4.7-.5.5-1.1.9-1.1.9l-1.2,1c-.6.5-1.4,1.2-1.7,1.4-.3.2-1.1.9-1.7,1.4-.6.6-1.2,1-1.3,1s-.8.6-1.6,1.3c-.8.7-1.5,1.3-1.6,1.3s-.2,0-.2.2,0,.2-.2.2-.2-1.5-.2-4v-4h-4.2c-4.6,0-5.5,0-5.7.7,0,.2-.1,2.8-.1,5.6,0,5.5-.2,7.9-.7,9.9-.3,1.4-1.5,4.1-2.4,5.4-.7,1.1-3,3.5-4.5,4.6-1.2.9-5.5,3-7.7,3.8l-1.5.5V3.2h-19.1V-6.2h0v.5h0Z"/>
    </g>
  </g>
</svg>