<?xml version="1.0" encoding="UTF-8"?>
<svg id="Layer_1" xmlns="http://www.w3.org/2000/svg" version="1.1" viewBox="0 0 460 286">
  <!-- Generator: Adobe Illustrator 29.1.0, SVG Export Plug-In . SVG Version: 2.1.0 Build 142)  -->
  <defs>
    <style>
      .st0, .st1, .st2 {
        fill: #fff;
      }

      .st0, .st3 {
        fill-rule: evenodd;
      }

      .st4 {
        fill: #ebeae9;
      }

      .st5 {
        fill: #e2e2e2;
      }

      .st6 {
        fill: #bcbcbc;
        stroke: #bcbcbc;
        stroke-miterlimit: 4.5;
        stroke-width: 1.1px;
      }

      .st7, .st3 {
        fill: #bbb8b7;
      }

      .st1 {
        stroke: #231f20;
        stroke-miterlimit: 10;
      }

      .st1, .st8 {
        display: none;
      }

      .st9 {
        fill: #bcb8b7;
      }
    </style>
  </defs>
  <g id="_x34_60x286">
    <rect class="st1" x="-32.1" y="-166.6" width="460" height="286"/>
  </g>
  <g id="tesla" class="st8">
    <path class="st9" d="M101.6-20.6h36.4c5.1-1.9,8.8-5.5,9.9-9.7h-56.2c1,4.3,4.8,7.9,9.9,9.7M6.8-49.4c1.1,4.3,4.8,7.8,9.9,9.7h15.3l.8.3V-.7h9.6v-38.7l.9-.3h15.4c5-1.9,8.7-5.5,9.8-9.7h0c0-.1-61.6-.1-61.6-.1h0ZM101.6-.8h36.4c5.1-1.9,8.8-5.5,9.9-9.8h-56.2c1,4.3,4.8,7.9,9.9,9.8M101.6-39.6h36.4c5.1-1.9,8.8-5.5,9.9-9.8h-56.2c1,4.3,4.8,7.9,9.9,9.8M342.8-39.8h36.4c5.1-1.9,8.7-5.3,9.7-9.6h-56.2c1,4.3,4.9,7.7,10,9.6M298.7-1.1c4.7-2,7.3-5.5,8.2-9.6h-42v-38.8h-9.4V-1.2h43.2,0ZM184.7-39.9h33.6c5.1-1.5,8.8-5.3,9.8-9.6h-52.9v28.8h43.7v10.1h-33.8c-5,1.9-8.7,5.2-9.7,9.4l-.2.4h53.1v-29.5h-43.7v-9.6h.1ZM334.6-30.5V-.9h9.4v-19.7h34.3V-.9h9.4v-29.5h-53.1,0Z"/>
  </g>
  <g id="elevata" class="st8">
    <g>
      <g>
        <path class="st9" d="M65.8,22.7v-10.5h2.1v10.5h-2.1Z"/>
        <path class="st9" d="M79,22.7v-11.4l10.2,8v-7.2h2.1v11.3l-10.2-7.9v7.1h-2.1Z"/>
        <path class="st9" d="M109,21.2c1.9,0,3.8-.9,5-2.4v2.8c-1.4,1-3.2,1.5-5,1.5-4.1,0-7.4-2.5-7.4-5.7s3.3-5.7,7.4-5.7,3.6.6,5,1.5v2.8c-1.2-1.5-3.1-2.4-5-2.4-2.9,0-5.3,1.7-5.3,3.8s2.3,3.8,5.3,3.8h0Z"/>
        <path class="st9" d="M131.9,11.7c4.1,0,7.4,2.6,7.4,5.7s-3.3,5.7-7.4,5.7-7.4-2.5-7.4-5.7,3.3-5.7,7.4-5.7ZM131.9,21.2c2.9,0,5.3-1.7,5.3-3.8s-2.3-3.8-5.3-3.8-5.3,1.7-5.3,3.8,2.4,3.8,5.3,3.8Z"/>
        <path class="st9" d="M151.9,22.7h-2.1v-10.5h6.4c1.9,0,4.1.7,4.1,3s-1,2.5-2.3,2.8l3,4.7h-2.5l-2.8-4.5h-3.9v4.5h0ZM151.9,16.3h4.2c1.6,0,2.2-.4,2.2-1.2s-.6-1.1-2.2-1.1h-4.2v2.3h0Z"/>
        <path class="st9" d="M174.2,22.7h-2.1v-10.5h6.4c1.9,0,4.1.7,4.1,3s-2.2,3-4.1,3h-4.3v4.5ZM174.2,16.3h4.2c1.6,0,2.2-.4,2.2-1.2s-.6-1.1-2.2-1.1h-4.2v2.3h0Z"/>
        <path class="st9" d="M199.9,11.7c4.1,0,7.4,2.6,7.4,5.7s-3.3,5.7-7.4,5.7-7.4-2.5-7.4-5.7,3.3-5.7,7.4-5.7ZM199.9,21.2c2.9,0,5.3-1.7,5.3-3.8s-2.3-3.8-5.3-3.8-5.3,1.7-5.3,3.8,2.4,3.8,5.3,3.8Z"/>
        <path class="st9" d="M219.9,22.7h-2.1v-10.5h6.4c1.9,0,4.1.7,4.1,3s-1,2.5-2.3,2.8l3,4.7h-2.5l-2.8-4.5h-3.9v4.5h0ZM219.9,16.3h4.2c1.6,0,2.2-.4,2.2-1.2s-.6-1.1-2.2-1.1h-4.2v2.3h0Z"/>
        <path class="st9" d="M248.6,19.6h-5.7l-2,3.1h-2.5l7.3-11.3,7.3,11.3h-2.5l-2-3.1h.1ZM244.1,17.7h3.2l-1.6-2.5-1.6,2.5Z"/>
        <path class="st9" d="M259.8,14v-1.9h12.3v1.9h-5.1v8.7h-2.1v-8.7h-5.1,0Z"/>
        <path class="st9" d="M281.7,12.1h10.5v1.9h-8.4v2.2h7.1v1.9h-7.1v2.7h8.4v1.9h-10.5v-10.5h0Z"/>
        <path class="st9" d="M302.7,22.7v-10.5h5.8c3.2,0,7.2,1.5,7.2,5.3s-4.1,5.3-7.2,5.3h-5.8ZM304.8,20.8h3.6c2.2,0,5.3-.7,5.3-3.4s-3-3.4-5.3-3.4h-3.6v6.8Z"/>
      </g>
      <path class="st2" d="M231.8-61.5c-1.2,0-2.4.3-3.6.6,3.4-.4,5.7-.7,3.6-.6Z"/>
      <path class="st0" d="M185.5-55.1s-.7-9.5-10.4-9.1c0,0,.6.2.6.4,0,0-.8,2,1.6,1.4,0,0,6-1.6,8.2,7.3h0Z"/>
      <g>
        <path class="st4" d="M204.2-55l-22.5-11.4-5.8.9s-6.6-1.8-6.7-1.8,0,0,0,0c-1.8,0-4.8.6-6.9,2.8,0,0,1.6-.9,5.5,2.5,0,0,17.6,12.2,23.4,55.4h.6c3.5-23.1,10.1-39.4,18.9-46-2.9-1-5.7-2.1-6.5-2.6v.2Z"/>
        <path class="st4" d="M131.4-51.9s-29.4-4.8-33.3-18.2c0,0-1.6,31.8,46.3,35,0,0,19.3-1.6,35,13.9l-4.5-9.9c-8.5-9-22.1-18.1-43.4-20.8h-.1Z"/>
        <path class="st4" d="M139.8-30.2s-25.8-4.8-29.5-12.8c0,0,2.5,22,42.3,22.9,0,0,15.9-2.1,32.2,10.9l-2.1-4.5c-6.1-6.6-18.8-15.8-43-16.6h0Z"/>
        <path class="st4" d="M171.4-45.2c-5.9-6.3-14.6-12.6-27.1-15.6,0,0-18.6-6.1-20.7-14.6,0,0-1.1,21.6,28.5,24.7,0,0,5.3,1.2,12.1,5.3h.4c2.4,0,5.1.1,6.7.2h.1Z"/>
        <path class="st4" d="M202-21.8c15.5-14.7,34.2-13.2,34.2-13.2,47.9-3.2,46.3-35,46.3-35-3.9,13.4-33.3,18.2-33.3,18.2-20.4,2.6-33.7,11-42.3,19.6-1.4,3-3.2,6.6-4.9,10.3h0Z"/>
        <path class="st4" d="M228-20c39.9-.9,42.3-22.9,42.3-22.9-3.7,8-29.5,12.8-29.5,12.8-23.6.8-36.3,9.5-42.5,16-.9,1.8-1.7,3.4-2.4,4.9,16.2-12.9,32-10.8,32-10.8h.1Z"/>
        <path class="st4" d="M216.5-45.4h0c6.8-4.1,12.1-5.3,12.1-5.3,29.6-3.2,28.5-24.7,28.5-24.7-2.1,8.5-20.7,14.6-20.7,14.6-12.5,3-21.2,9.3-27,15.6h1.8c.3,0,3.4-.2,5.4-.2h0Z"/>
      </g>
      <g>
        <path class="st9" d="M17.5-28.6c0-9.4,0-11.1-.1-13-.1-2-.7-3-3-3.4-.6-.1-1.7-.2-2.3-.2s-.5-.1-.5-.4.3-.5,1.1-.5h7.7c.5.1,14.2.1,15.8,0,1.3,0,2.4-.2,3-.3.3,0,.6-.3,1-.3s.3.2.3.5-.3,1.1-.6,2.8c0,.6-.2,3.3-.3,4,0,.3-.2.7-.5.7s-.6-.3-.6-.8,0-1.4-.4-2.2c-.5-1-1.2-1.7-4.9-2-1.2-.1-8.7-.2-9.4-.2s-.4.2-.4.6v16.6c0,.4,0,.6.4.6.9,0,9.4,0,10.9-.1,1.7-.1,2.6-.2,3.2-.8.5-.5.8-.8,1-.8s.3.1.3.5-.3,1.4-.6,3.4c-.1,1.2-.3,3.4-.3,3.8s0,1.1-.5,1.1-.5-.2-.5-.5c0-.6,0-1.2-.3-2s-.9-1.9-3.6-2.1c-1.9-.2-8.7-.3-9.8-.3s-.5.2-.5.4V-7.9c.2,4.2,1.2,4.9,8,4.9s4.8,0,6.6-.7,2.6-1.9,3.1-4.3c.1-.7.3-.9.6-.9s.4.5.4.9-.5,4.6-.9,5.8c-.5,1.6-1,1.6-3.7,1.6-5.2,0-8.9-.1-11.6-.2-2.7-.1-4.3-.2-5.4-.2h-2.8c-1.4,0-3,.1-4,.1s-1.1-.1-1.1-.5,0-.4.5-.4c.6,0,1.5-.1,2.1-.2,1.4-.2,1.7-1.6,2-3.3.3-2.5.3-7.3.3-13v-10.5l.3.2Z"/>
        <path class="st9" d="M76.4-18c0,8.8.3,12.7,1.5,13.8,1.1,1,2.9,1.4,8.3,1.4s6.7,0,8.3-1.8c.9-1,1.6-2.5,1.8-3.6,0-.5.2-.8.6-.8s.4.2.4.9-.5,4.3-1,6c-.5,1.4-.7,1.6-4.3,1.6s-8.5-.1-11.4-.2-5-.2-7-.2h-2.8c-1.4,0-2.9.1-3.9.1s-1.1-.1-1.1-.5.1-.4.5-.4c.6,0,1.4-.1,2.1-.2,1.4-.2,1.7-1.6,2-3.3.3-2.5.3-7.3.3-13v-10.5c0-9.4,0-11.1-.1-13-.1-2-.7-3-3-3.4-.6-.1-1.7-.2-2.3-.2s-.5-.1-.5-.4.3-.5,1.1-.5c3.1,0,7.4.2,7.8.2s5.4-.2,7.4-.2,1.1.1,1.1.5-.3.4-.5.4c-.5,0-1.5,0-2.3.2-2,.3-2.5,1.3-2.7,3.4-.1,1.9-.1,3.6-.1,13v10.7h-.2Z"/>
        <path class="st9" d="M216.5-46.1h0c-2,0-5,.2-5.4.2h-1.8c-1.4,0-3.2-.1-5-.1s-1.5.1-1.5.5.3.4.8.4c.8,0,1.8,0,2.6.2.7.3.9.9.9,1.4s0,.1,0,.2c0,.5-.3,1.3-.6,2.1-.3,1-1.1,2.8-2.1,5.2-1.6,3.8-3.9,9-6.1,14-1.4,3.1-2.8,6.2-4.1,8.9-.9,2-1.8,3.8-2.5,5.2l-13.2-30.7c-1-2.3-1.8-4.2-1.8-5s.1-.9.9-1.2c.6-.2,1.8-.3,2.6-.3s.7-.1.7-.4-.6-.4-1.9-.4c-2.6,0-5.7.2-6.4.2h-1.3c-1.6,0-4.4-.1-6.7-.1s-.3,0-.4,0c-.8,0-1.4.1-1.4.4s.1.4.6.4,1.5,0,2.5.2h.2c2,.5,3.1,1.1,4.2,3.2.2.4.5.9.7,1.5L187.8-3.3c1.3,2.9,1.6,3.7,2.5,3.7s1-1,2.9-4.6c.7-1.3,1.6-3.2,2.8-5.6-1,.8,4.7-9.7,6-12.5h0c1.8-3.7,3.5-7.4,4.9-10.4,1.4-2.9,2.4-5.1,2.8-5.9.9-2.1,1.7-3.3,2.3-4.2.6-.8,1.1-1.2,1.5-1.5.4-.2.9-.4,1.3-.5.9-.2,1.7-.2,2-.2.5,0,.8-.1.8-.4s-.4-.4-1.2-.4v-.3Z"/>
        <path class="st9" d="M272.1-1.5c-.7,0-1.7,0-2.7-.4-1.4-.4-3.4-1.3-5.9-6.7-4.2-9.1-15-33.9-16-36.2-.8-1.9-1.1-2.2-1.5-2.2s-.7.4-1.5,2.3l-15.6,37.3c-1.2,3-2.6,5.3-5.8,5.7-.5,0-1.5.1-2,.1s-.6.1-.6.4.4.5,1.3.5c3.2,0,7-.2,7.8-.2s3.7.2,5.4.2,1-.1,1-.5-.2-.4-.7-.4h-.7c-1.2,0-2.6-.5-2.6-1.7s.3-2.5,1-4l4.1-10.6c.1-.3,9.6-.1,9.9-.1l.9-2.5h-9.4c-.2,0-.3-.1-.2-.4l6.1-16.2c.3-.9.7-.9,1,0l14.2,33.9c.4,1,0,1.5-.4,1.6-.3,0-.5.2-.5.4,0,.4.8.4,2.1.4,4.8.1,9.8.1,10.8.1s1.4-.1,1.4-.5-.3-.4-.7-.4"/>
        <path class="st9" d="M306.4-18.1c0,5.8,0,10.5.3,13,.2,1.7.6,3.1,2.7,3.3,1,.1,2.5.2,3.1.2s.5.2.5.4c0,.3-.3.5-1.1.5-3.8,0-8.1-.2-8.5-.2s-4.7.2-6.7.2-1.1-.1-1.1-.5.1-.4.6-.4,1.4-.1,2.1-.2c1.4-.2,1.7-1.6,2-3.3.3-2.5.3-7.3.3-13v-25.4h-10.2c-4.3.2-5.9.6-7,2-.8,1-1,1.4-1.2,1.9s-.4.6-.7.6-.3-.2-.3-.5c0-.6,1.4-5.8,1.5-6.3.1-.4.4-1.1.7-1.1.5,0,1.2.6,3,.7,2,.2,4.6.3,5.4.3h25.8c2.2,0,3.8-.1,4.9-.3,1-.1,1.6-.3,1.9-.3s.4.4.4.7c0,1.8-.2,6-.2,6.6s-.2.8-.5.8-.5-.2-.5-1v-.7c-.3-1.8-1.9-3.2-8.5-3.3h-8.7c0-.1,0,25.3,0,25.3h0Z"/>
        <path class="st9" d="M384.9-1.5c-.7,0-1.7,0-2.8-.4-1.5-.4-3.4-1.3-5.9-6.7-4.2-9.1-15-33.9-16-36.2-.8-1.9-1.1-2.2-1.5-2.2s-.7.4-1.5,2.3l-15.6,37.3c-1.2,3-2.6,5.3-5.8,5.7-.6,0-1.5.1-2,.1s-.6.1-.6.4.4.5,1.3.5c3.2,0,7-.2,7.8-.2s3.7.2,5.4.2,1-.1,1-.5-.2-.4-.7-.4h-.7c-1.2,0-2.6-.5-2.6-1.7s.3-2.5,1-4l4.1-10.6c.1-.3,9.6-.1,9.9-.1l.9-2.5h-9.4c-.2,0-.3-.1-.2-.4l6.1-16.2c.3-.9.7-.9,1,0l14.2,33.9c.4,1,0,1.5-.4,1.6-.3,0-.5.2-.5.4,0,.4.7.4,2.1.4,4.8.1,9.8.1,10.8.1s1.4-.1,1.4-.5-.3-.4-.7-.4"/>
        <path class="st9" d="M124.5-28.6c0-9.4,0-11.1-.1-13-.1-2-.7-3-3-3.4-.5-.1-1.7-.2-2.3-.2s-.6-.1-.6-.4.3-.5,1.1-.5h7.7c.5.1,14.2.1,15.8,0,1.3,0,2.4-.2,3-.3.3,0,.6-.3,1-.3s.3.2.3.5-.3,1.1-.6,2.8c0,.6-.2,3.3-.3,4,0,.3-.2.7-.5.7s-.5-.3-.5-.8,0-1.4-.4-2.2c-.5-1-1.2-1.7-4.9-2-1.2-.1-8.7-.2-9.4-.2s-.4.2-.4.6v16.6c0,.4,0,.6.4.6.9,0,9.4,0,10.9-.1,1.7-.1,2.6-.2,3.2-.8.5-.5.8-.8,1-.8s.3.1.3.5-.3,1.4-.5,3.4c-.1,1.2-.3,3.4-.3,3.8s0,1.1-.5,1.1-.5-.2-.5-.5c0-.6,0-1.2-.3-2s-.9-1.9-3.6-2.1c-1.9-.2-8.7-.3-9.8-.3s-.5.2-.5.4V-7.9c.2,4.2,1.2,4.9,8,4.9s4.8,0,6.6-.7,2.6-1.9,3.1-4.3c.1-.7.3-.9.6-.9s.4.5.4.9-.5,4.6-.9,5.8c-.5,1.6-1,1.6-3.7,1.6-5.2,0-8.9-.1-11.6-.2-2.7-.1-4.3-.2-5.4-.2h-2.8c-1.4,0-3,.1-4,.1s-1.1-.1-1.1-.5.1-.4.5-.4c.6,0,1.5-.1,2.1-.2,1.4-.2,1.7-1.6,2-3.3.3-2.5.3-7.3.3-13v-10.5l.2.2Z"/>
      </g>
    </g>
  </g>
  <g id="Mirage" class="st8">
    <g>
      <path class="st7" d="M302.4-84.1c-2.9-2.6-6-5.5-9.1-7.7-1.2.3-.9-1.4-1.9-1.4-1.6-.5-3.1-1-4.9-1s-.5.3-.6.6c0,.5.5.7.8.9,1.8,0,3.1,1.5,4.6,2.3,2.8,2.7,5.5,5.6,5.5,9.5s-.6.8-1.1.9h-1c-.6-2.3-2-4.4-3.9-6-.2,0-.3.2-.4.2.3,3.3,2.5,6.5.9,9.9-.3.3-.4.7-.5,1.2-.7.2-1.4.7-2.1.3-.5-.5.1-1,0-1.6.7-.4-.3-.6-.3-1,0-2.6-.9-4.9-2.3-7,.3-1.1-1.3-1.4-1.2-2.5-.3-.5-.8.1-.9.4-3.2,6.3-3.6,13.9-4.1,21.4,0,6.6.9,13.4,0,20-.2,6.6-1.6,12.6-2.5,18.8-.2.9,0,2-.4,2.8-.4,5.7-1.2,11.4-2.1,17.1-.7,1.9-.3,4-1.5,5.6.3,1.6-.9,2.5-1.2,3.9,0-.6.4-1.4-.2-2,.6-.6.5-1.4.2-2.1-.8.1-.6-.8-.5-1.2.4-.2.9-.8.9-1.5-.3-.5-1.6-.4-1.2-1.2.3-.2.7.2.9-.3.2-.8-.7-1.4,0-2.1-.3-.3-.6-.7-.3-1.1,1,0,.5-1.3.6-1.9.5-1.3-1.1-2.4-.4-3.8.4.1.3-.4.4-.6,0-.7-.2-1.4-.4-2,0,.5-1.2.5-.3,1.1.5.4-.4.8-.7,1-.1-.2-.2-.3-.1-.6.3-4.6.6-9.3.9-13.8.6-2,.6-4,.9-6.1.6-.4.9-1.2.6-1.9.8-3.8,1.2-7.9,1.3-11.8.6-.7-.1-1.5.2-2.4.2-.8.4-1.7.1-2.4.7-1-.2-2.2.4-3.3-.6-1.1.1-2.5-.5-3.7.5-4.1-.6-7.8.5-11.5,0-3.5.9-7,1.1-10.4.2-.7,1-1.6.3-2.2h-.2c-1.7,2.1-3.1,4.4-3.7,7.1-.4-.3-1.1.7-.9-.3-.9-1.3,1.6-1.3.5-2.7-.1-.2-.3-.3-.5-.3-.5.5-.7.7-1.2.8-.3-.3,0-.5,0-.9.5-.3-.1-.9.3-1.3.6-1.4,1.1-2.9,1.9-4.2,0-.7.9-1.2.4-1.8-1.8,1.1-3.4,2.6-4.7,4.2-.3-.6-.5.2-.7.3.3-.9.6-2.6.8-4-.8-.8.6-1.6.7-2.5,1.2-1.6,2.6-3.3,3.3-5-1.8.2-3.9,0-5.4,1.2-3.2.5-5.6,3.1-8.9,3.4-.3-.1,0-.5.2-.4,1-.9,2-1.7,2.9-2.6,0-.4.2-.5.6-.5s.2.3.4.3c.6-.7-1.8-2.1.2-2,.3.3.9.9,1.4.7,0-.5-.4-.9-.5-1.3,2.4-1.3,4.9-2.7,7.5-3.4,1,.2,2.7.5,3.7-.2-.4-1.4-2.2-.7-3.1-1.6-1.7-1-3.7-1.4-5.6-1.7-1-.7-2.5-.5-2.6-2,0-.3.3-.5.6-.5,1,.6,2.6.1,3.3,1.1,0-.8.8-.3,1.2-.5,1.9-.3,4,.5,6,.8,3.5.7,6.5,2.3,9.2,4.7,1.1-.1.8,1.4,1.8,1.3,5.4-.3,9.3,3.8,13.2,7.2.7,1.7,3.2,2.4,3,4.6.7.2.7,1.1,1.2,1.7,0,.4-.4.4-.6.6"/>
      <path class="st7" d="M271-9.2c-.1-.6,0-1.4,0-2,.2,0,.4.1.4.4-1.1.6,1.2,1.5-.5,1.6"/>
      <path class="st7" d="M271.3-12c-.4.1-.3-.3-.3-.6v-.3c.4,0,.4.6.2.8"/>
      <path class="st7" d="M270.9-6.7c0-.2,0-.8.2-.6-.2.2.2.7-.2.6"/>
      <path class="st7" d="M267.3-82.1c0-.3.2-.4.3-.4,0,.2-.1.3-.3.4"/>
      <path class="st7" d="M248.2-96.2c-.8,0-1.3-.7-1.7-1.3-.8-3.3-4.4-4.6-6.1-7.2-.3,0-.6-.9-.9-.2,1.2,3.1,4.8,5.8,3.2,9.5-.6.4-1.3.6-2,.4-.5-.3-.2-1-.5-1.5-.8-1.9-1.9-3.8-3.3-5.2-.7-.1-.4.8-.4,1.2,1,2.3.5,5.2.7,7.8-.1.5-.1,1.2-.7,1.2-.6.4.1.6.2.9-.3.6-.4,1.3-.7,1.8-.7-.4,0-1.1-.4-1.7,0-.2.8-.2.3-.5,0-.2-.3-.1-.5-.1-.6.3,0,1.2-.5,1.4-.3-.7.4-1.4-.3-2,.4-2.3-.9-4.5-1.2-6.7-.8-1.9-1.4-3.9-2.4-5.8h-.3c-1,2.4-1.3,5.1-2.1,7.5-2.3-2.2-4.9-4.7-7.6-6.4,0-1.2,1.2-2,.8-3.3-.9.4-2.4,1-2.8,2.1-1.6.7-2.1-1.1-3.9-.8-.5-.3-.9,0-.8-.4,1-.8,1.7-2.7,2.8-3.4,0-.4.8-1,.2-1.5-2.5,0-4.2,2-6.6,2,.3-.3,1.2-1,.2-1-.3.3-.9,0-1.3,0-.6-1.6,1.1-2.1,1.3-3.4,3.6-2.7,8.2-3.9,12.9-3.3,1.3.2,3,.4,4.4.6,4.7-2.7,11.4-3.5,17.1-2,.9.8,3,.8,2.5,2.5-1.2.3-2.1-.6-3.5-.5-1.1.4-2.7,0-3.8.2-1.6.9-3.6.8-5.1,1.5.2,1.3,1.8,1.1,2.7,1.7,4.1,3.4,7.5,7.8,10.3,12,0,1.3.4,2.8-.2,4"/>
      <path class="st7" d="M226.5-29.1c-.3,3-.3,6.1-1.6,8.8-.5.5-.4-.4-.5-.7-.2-.5.3-.4.4-.7-.3-1-.5-2.1-.6-3.2,0-.2.4-.4.3-.8-.7-.7.9-1.6-.2-2.4-.2-.6-.8-.3-.9,0-.3,1.7-.5.1-.4-.6,0-.4.3.2.5,0,.5-.9.7-1.9,1.1-2.9-.1-.3-.3-.6-.6-.6-.3.1-.2.5,0,.7-.2.1-.6-.3-.7,0,.4.4.2.8,0,1.3,0,0-.2.2-.3,0,0-5.9-.8-11.6-1.1-17.5-.7-2.5-1.3-5.1-1.4-7.8-.4-11.1,0-21.3,1.4-31.8.3-.7.4-1.6.7-2.4h.4c.5.8.2,2.5,1.5,2.3.4-.4.9,0,1.3-.4.2-2.5-1-4.6-2.5-6.4,0-1.1.3-2,.5-3.1,0,0,.1-.1.2-.2,1.3.9,2.7,2,3.9,3.1v.6c-.6,2.7-.7,5.4-1.6,7.9-.6.6-2.3.7-2,2.2-.8.3-.9,1.2-.7,1.9.6.6,1.9-.5,1.9.5-.2.1-.2.4-.4.5.2.1.2.2.4.4-.2,5,0,11.1-.9,16.9.8,4.3-.2,9.2.9,13.4-1.1,3.3,1.5,5.7,1,9.1.2,1.7,0,3.6.5,5.2-.8,2.1.3,4.5-.7,6.4"/>
      <path class="st7" d="M223.2-21.5c-.3-.8,0-1.7,0-2.5.5.6.1,1.5.3,2.3,0,0-.1.2-.2.2"/>
      <path class="st7" d="M221.5-96c-.8-.6-1.6-1.4-2.4-1.9.2-.7,0-1.3.5-2.1.9-.2,1.9.3,2.3,1.1.1.5.9.4,1.2.9-.4.8-1,1.3-1.6,2"/>
      <path class="st7" d="M205.4-84c-.6-.5-2-.6-2.5-.9,0-.2,0-.5.2-.8.2-.9.6-1.8,1.2-2.6.6.4,1.2.7,1.7,1.2-.5,1,.2,2.6-.7,3.1"/>
      <path class="st7" d="M164.6-69.7c.1-.2.3,0,.5.1,0,0-.4,0-.5-.1"/>
      <path class="st7" d="M198.2-89.9c-.2.4-.5.8-.6,1.2-.2.2-.5.1-.7.1-.1-.5.5-.9.6-1.4,0-.2-.2-.5-.6-.3-1,.6-1.4-.8-2-1.2.9-1.4,2.4-.9,3.3-1.9.3-.4.2-1,0-1.3.8-.7.9-1.8,1.4-2.5-.5-.4-1.5-.3-2.2-.2-3.9.8-7.7,1.8-11.6,2.7-1.9-1.3-3.5-3.5-5.8-4.1-.8-.2-1.4-1-2.3-1.2-3.7-1.1-7.5-2-11.4-2.9-1.4.1-3.3-.5-4.6.1-.4,2.5-3.7.9-5.3,2-.5,0-.7.5-.5.9-.7,1-.8,2.4-1.8,3.2-.7.1-1.6.6-1.8,1.4.2.2.5.3.8.3,1.4-.5,2.9-1.1,4.5-.8.8-.2,1.5-.2,2.2-.4,2-.2,4.2.6,6.5.7.5,0,.9.8,1.5.3,1.1.3,2.4.2,3.3,1.1.1.4-.4.5-.6.8-2.9.7-5.5,2.3-8.2,3.4-3,2.6-6.3,4.9-9,7.5.2.2.4.2.7.2.3-1.2,1.4.3,1.6-1,.4-.3,1-.4,1.4.1.1.7-.7.3-1,.5.3.9-1,.8-1,1.5-.5,0-.5.7-.9,1-.3,1.2-1.6,1.7-2.2,2.7,0,.1.2.2.4.2,1.7-1.3,3.9-1.4,5.5-2.8,2.1-.8,4.1-1.9,6.1-3.1,1.3-.5,2.6-1.1,4-1.6,2.3-.8,4.4-2.5,6.8-3.1.2.2.2.4,0,.5-2.6,2.1-5,4.8-6.7,7.4,0,.5,0,1-.2,1.4-.1.1-.3.1-.5.2-.2,1.1-.8,2-1.3,3,.2,1.7-1.5,2.8-1.1,4.5.3,0,.5-.1.9,0,.5.5.6,1.2.8,1.8-.3.5-.9,1-1.4,1.3s-1.1-.4-1.3.3c1,.4,2.1.1,2.8-.5,3.2-4.2,5.6-8.8,9.3-12.8,1.8-2.4,4.2-3.6,6.6-5,.5.2-.1.5,0,.9-3.1,3.5-4,7.7-3.9,12.4,1,6,1.7,12.1,2.6,18v6.1c.6,1.6-.1,3.1.4,4.7,0,5.9.5,11.9.2,18.2.1,1.4-.1,3.4,0,4.8-.4,1.1.6,1.8,0,2.7.2,5.1.2,10.3,1.6,15,.2.8.7.3,1.2,0,.2.3,0,1,.5,1,.4.2.7-.2.9-.5.3-2.5,1.8-4.5,2.4-6.8-.6-6.4-.3-13.1-.3-19.6-.6-8.9-.8-18.1-1.5-27.1-.7-.5-.3-1.5-.3-2.2-.4-.4-.4-1-.6-1.4-.2-6.3-3.8-13-.4-19.2.2-.2.6-.2.7,0,1.9,4.5,2.1,9.8,2.7,14.9,0,.5.5,1,.2,1.6.3.7,1.2.5,1.8.8.8-.6.9-1.5,1.7-2.2.4-1.9,1.7-3.9.9-5.8.3-5.5-2.6-10-3.1-15.4,0-.2.3-.4.6-.3,2.6,2.3,6,4.6,7.1,7.9,1.4,2.7.4,6.2,2.6,8.6.5.4,1.3.2,1.8,0,.3-1.9,0-4,.3-5.8-.1-.2-.4-.2-.4-.4.9-3.1-2.2-5.1-3.1-7.6-.2-.1-.3-.1-.4-.3-.1-1.2-1.6-1.3-1.6-2.5,1,.1,2.2,0,3.3.2.4,0,.7-.5.7.2.2,0,.5.1.9.2.4,0,.7-.1.8-.6.2-.6.1-1.3-.4-1.6-.7,0-1,.8-1.3,1.2-.3,0-.2-.7-.3-1,.6-.6.5-1.6.8-2.4-.8-.9-2,0-3-.5"/>
      <path class="st7" d="M200.6-18.2c.3,0,.4.3.4.6-.1.5-.3.8.2,1.2-1.3,2.1-.4-1-.6-1.7"/>
      <path class="st7" d="M200.6-13.2c-.4-.4-.2-1.4,0-1.9.3.5.4,1.3,0,1.9"/>
      <path class="st7" d="M188.4-98.7c0-.4.3-.8.7-.8-.4.2,0,1.3-.7.8"/>
      <path class="st7" d="M199.7-97.2c-.5.7-.6,1.8-1.4,2.5.2.3.3.9,0,1.3,0,1.1-.2,2.5-.7,3.4-.1.5-.7.9-.6,1.4.2,0,.5,0,.7-.1.2-.4.4-.8.6-1.2,1.1-1.7,2.9-3.2,4.5-4.4h.4c.5.6-.5,1.1-.4,1.9-.7.9-1.1,2-1.5,3.1-.3.8-.2,1.8-.8,2.4.1.3,0,1,.3,1,.3-.5.6-1.3,1.3-1.2.5.3.6,1,.4,1.6,0,.5-.5.7-.8.6.1.5-.1,1.3.3,1.8.2,0,.4,0,.5-.1.2-.5.3-1.1.5-1.6,0-.2,0-.5.2-.8.2-.9.6-1.8,1.2-2.6.5-.9,1.1-1.7,1.8-2.5h.4c.5.9-.3,1.7-.5,2.5v1.2c-.5,1,.2,2.6-.7,3.1-.3,1.9-.4,3.7-.4,5.7-1,3.9-.1,7.8-.5,11.7.4.8,0,2,.1,2.9.7,1-.2,2.2.3,3.4,0,.3-.5.6-.2,1-.4,1.8-.1,3.1-.5,4.8,0,3.9-.6,7.5-1.2,11.3.3.7,0,1.5-.6,1.9-.1,1.9-.1,4.3-.9,6.2-.3,5.1-.8,10.9-.9,16.4h.2c.5-.9-.4-2.2.8-2.8,0-.3-.5-.5-.4-.8.5,0,.1-.5.5-.7.2.7.7,1.5.6,2.3-.5.4-.7.8-.6,1.6.7,1.3.9,3,.4,4.4-.9.2,0,1,0,1.6-.7.6.2,1,0,1.7,0,.6-.7.2-1,.4-.2.9.9.6,1.2,1.2.2.5-.4.9-.6,1.3-.7,0-.3.8-.4,1.3.3,0,.5,0,.7.3.4.8-.2,1.4-.3,2.1.7.4,0,1.3.2,1.8.2-1.2,1.1-2.1,1.1-3.4s1.1-1.8.6-2.9c1.2-4.2,1.6-8.7,2.2-13.2,0-3.4.7-6.7,1-10.1,1.1-6.2,2.3-12.3,2.5-18.9,1.3-9.3-1.2-18.3.5-27.3.8-4.9,1.3-10,3.8-14.1.2-.1.6-.2.7.2-.1,1.1,1.3,1.3,1,2.4,1.5,2.1,2.2,4.5,2.3,7.2,1.1.6-.1,1.3,0,2,.2.5.8.6,1.3.8.2-.7,1.3-.2,1.1-1.2,1.2-1.5,1-3.9.8-5.8-1-1.2-.4-3-1.2-4.2-.1-.3,0-.9.4-.7,1.1.9,2,2.1,2.7,3.3h.4c.5.8.2,2.5,1.5,2.3.4-.4.9,0,1.3-.4.2-2.5-1-4.6-2.5-6.4-.6-.7-1.2-1.5-1.9-2.2h0c-.8-.6-1.6-1.4-2.4-1.9-.7-.5-1.4-.9-2.1-1.2-.5-.5-1.3.3-1.7-.5-.2-.3-.1-.9.3-1.1.9,0,1.9,0,3,.2.3.3.7.5,1.1.6.9-.2,1.9.3,2.3,1.1.1.5.9.4,1.2.9.3.2.7.6,1,.9,1.3.9,2.7,2,3.9,3.1,1.1,1,2.3,2.3,3.4,3.3.2,0,.2.2.5.1.7-.9-.5-1.5-.6-2.3-.5,0-.4-.6-.4-.9-.4-1.2-1.5-2-2.3-3-2.3-2.2-4.9-4.7-7.6-6.4-.7-.4-1.2-1-2-1.3-1.6.7-2.1-1.1-3.9-.8-.5-.3-.9,0-.8-.4-.2-.4-.5-.6-1.1-.5-3.8-3.6-8.7-4.7-13.7-5.4-.8.5-1.3,0-2.2,0,0,.3-.4.7-.5.6,0-.3,0-.5-.3-.7-1.3.4-2.1-1-3.2-.4-.6,1.8,1.8,1.6,2.6,2.4,1.9.1,3.8.9,5.5,1.6.8,1,2.5.2,3,1.6-.1.6-.9.3-1.3.5-3.6-.8-6.4,1.3-9.3,2.7-1.4.3.4,1.2-.2,1.9-.2,0-.4-.2-.6-.5-.4.1-.4-.5-.7-.6-1.4.3.4,1.3.2,2-.3.4-.6-.3-.9-.2-.3,0,0,.4-.2.6-.9.8-1.5,1.3-2.4,2.2-.1.5-1.3.3-.7.8,3.1-.6,5.5-2.9,8.6-3.4,1.5-1.2,3.5-.9,5.3-1.3,0,0,.1.1.2.2-.7,1.5-1.8,2.8-2.8,4.1"/>
      <path class="st7" d="M226.5-85.5c-.6.6-2.3.7-2,2.2-.8.3-.9,1.2-.7,1.9.6.6,1.9-.5,1.9.5-.2.1-.2.4-.4.5.2.1.2.2.4.4,1.2-.3,2.1-1.3,3.3-1.7.8-.2,1.8-.7,2.6-.4,0,.9-.6,1.8-1.5,2.3-.2,1.2-2,1.6-1.8,2.7-.7.5.4,1-.1,1.6-.1,1.7-1.7,2.3-2.6,3.5,2.7-.7,4.6-3,7-4.4.1,0,.3-.1.4,0,.5-1.1,1.7-1.5,2.7-1.9.5.7-.2,1.5-.5,2.1-.9,2.9-2.5,5.6-3.1,8.5.3-.1.6-.5.9-.8.2.3.9,0,.8.6,0,.2-.3.2-.4,0-.9,1.1-.6,3.1-.6,4.4.1,0,.2,0,.3-.2,0-1.1,1.1-1.7,1-2.8,1-1.1,1.5-2.6,2.7-3.6.3-.3.3-1,.8-1.1.1,0,.1.2.2.3-.6,4.1-1.2,8.2-2.3,12-1.6,12.4-2.8,24.4-1.1,37,.7.6.2,1.6.6,2.3.4,5.9.8,11.6,1,17.4h.2c0-.3.5-.9,0-1.1,0-.1,0-.3.2-.4.8.6,0-.2.7-.6.3,0,.5.5.6.8-.6.8-.7,1.8-1.2,2.7-.7-.5-.4.6-.5.8.5,0,.4-.7.9-.8.5.3.5.9.8,1.4-.2.4-1,1.2-.2,1.6-.7.7,0,1.3-.2,2.2-.1.7,1,1.4,0,2,0,.4,0,.7.2,1,.5.1.4-.5.7-.6.5-2.6.8-5.2,1.1-7.9.5-1.6.4-3,.3-4.7.7-2.2-.4-4.4,0-6.7q0-.2-.1-.3c.5-3.3-2.1-5.7-.9-9-1.1-4.1.1-9.2-.8-13.4,1.3-6.1.6-13.1,1.5-19.4,1.8-7.2,2.6-14.8,5-21.8.2,0,.4,0,.5.2,1.4,4,3.1,7.9,3.2,12.3.6.6.2,1.3.3,2,.6,0,0-1,.6-1.4.2,0,.3,0,.4.1.5.3,0,.5-.2.5.2.6-.3,1.3.3,1.7.2-.7,1.1-1.6.4-2.2,0-.2,0-.3.2-.4.7,0,.6-.8.7-1.3-.2-2.8.2-5.8-.7-8.4,0-.3,0-.7.4-.6.3.2.6.5.6.8,1.6,1.3,1.9,3.1,2.8,4.7.3.3-.1,1,.3,1.3.7.1,1.6.2,2-.4,1.4-3.3-1.3-5.9-2.8-8.5,0-.4-.6-.8-.2-1.3,1.8,1,3,3.4,4.8,4.6,1.5,1.5,1.5,3.7,3.5,4.7.9-1.1.3-2.8.4-4.1-2.7-4.3-6-8.8-10.1-12.1-.8-.7-2.5-.3-2.6-1.7.8-.6,1.9-.6,2.8-.8,1.9-.9,4.1-.8,6.3-.9,1.1,0,2.2.6,3.3.7.6-2-2-2.1-3-3-5.6-1-11.7-.6-16.4,2.2-1.6-.2-3.1-.4-4.7-.6-4.1-.5-7.8.4-11,2.2"/>
      <path class="st3" d="M212,27.9c-.4,1.2-.7,3-.3,4.3,1.2,1.2,2.3-1.1,3.5-1.4.6-.8,1.3-1.2,1.9-2-.3-1.3-.1-2.7.7-3.7.7-.6,1.8-1.1,2.5-.1,1.1.6.1,2.9,1.5,2.6,3.4-1.2,8.2-4.4,11.4-.7.6,1.1-.5,1.8-1.3,2.4-1.3.4-2.4-.4-3.5-.7-2.4.8-4.8,1.6-6.9,3.2,1.4,1.8.3,4.1-.7,5.7-1.2.5-2.2-.5-2.6-1.5-.1-.9-.6-1.7-.8-2.6-2.1,1.9-4,3.7-7.1,3.3-1.6-1.6-3.2-3.4-3.1-5.9.2-2.2.2-4.9,2.2-5.9.9,0,1.7.2,2.1,1,0,0,.8.8.5,2.1"/>
      <path class="st3" d="M210.2,16.8c-1.1,0-2.1,0-2.7-1.1-.4-.8.2-1.4.4-2,1.2-.4,2.4-.4,3.4.4,0,0,.2.9.1,1.6-.4.4-.6,1.1-1.2,1.1"/>
      <path class="st3" d="M205.1,36.6c-2.3.6-3.9-.8-5.7-1.6-2.5-2.4-2.6-6-5-8.5-2.3.3-3.8,2.1-5.8,2.9-4.4,2.9-9,7.5-14.6,4.9-3.5-2.1-3.2-6.1-5.3-9-4,.3-7.4,3.1-10.9,5-3.8,3.9-8.8,5.8-13.6,7.9-2,.5-3.5-.6-4.6-2.1,0-3.8,1.5-7,2.8-10.3,2.7-5.6,5.2-11.3,7.7-17.1.9-1.8.8-4.6-.3-6.2-5.4-2.3-10.7.2-16.3.2-5.5,2.1-11.3,3.5-16.7,6.2-2.9,1.9-6.2,1.9-9.2,3.8-3.6,2.3-7.2,5.2-11.2,6.6-2.5,1.2-3.9,3.6-6.5,5-4.4,2.3-8.5,5.3-13.2,6.8-1.9,0-4.1,0-4.8-2.1.5-2.4,3.4-2.7,5.2-3.3.7-.4,1.7,0,2.3-.4C99.8,11.6,120.6-.7,145.6-2.7c3.6.3,7.3,1.1,9,4.5,2,8.4-3.8,15.2-6.4,22.6-1.8,2.7-3.4,5.8-3.8,9,.8.6,1.5-.4,2.3-.6,7.8-4.2,14.3-11.8,23.7-11.7,4.2,1,3,5.8,4.2,8.8,1,.9,2.5,1.6,3.8.9,5.1-2.4,9.5-6.7,14.8-8.6,2-.4,4.1,0,4.9,2,1.8,3.2,2.2,8.9,7.2,8.8,1.2.9,1.2,3.6-.5,3.8"/>
      <path class="st3" d="M236.4,32.5c-.8-.4-.7-1.4-.3-2,1.1-1.1,2.3-1.8,3.6-2.2,0,1.9-1.7,3.5-3.3,4.2M245.8,35.5c-1.2.7-2.9.7-4.4.5-.4-.5-1.2-1.2-1.7-1.8-1.5,2-3.8,3.2-6,2.6-1.7-.8-1.8-2.8-2.1-4.4.7-3.5,4.3-6.6,7.5-7.6,1.5,0,3.3.3,3.8,2,1.2,1.9-2.7,6.1,1.8,5.5.9-.1,1.8-1,2.8-.3,1,1.5-.6,2.8-1.7,3.5"/>
      <path class="st3" d="M254.4,31.7c-.6.2-2.9.3-1.7-1.1.8-1.4,1.8-2.4,3.3-2.7.3.1.7,0,.9.4-.9,1.1-.9,2.9-2.6,3.4M252.1,64.2c-4.2,1.8-10,3.5-14.3.9-3-2.6-3.8-6.8-4.5-10.6.3-2.9,4.6-6.6,7.4-8.4,2.5-.3,4.5-2.5,6.8-3.6,3.6-1.3,6.9-3.1,10.8-3.7.6,6,1.4,11.8,0,17.8-.5,1.4-1.5,2.7-2.1,4.3-1.4,1.2-2.5,2.4-4,3.4M277.6,29.9c-.4-1.2,1-2,1.5-3,1.2-.3,2,.5,2.6,1.1-.4.7,1.6,1.6-.2,1.5-1.4,0-2.5.6-3.9.4M292.2,35.9c-2.1-.7-3.6.6-5.6.7-4,.8-9,1-11.9-2.3-4.3,1.1-8.7,2-13.1,3,.3,7.8,2.5,17.5-2.3,24.1-3.5,6.4-10.2,8.6-17.1,8.5-4.1-.5-8.5-2.2-10.3-6.5-1.9-3.7-3.3-8.7-1.3-12.7,5.3-8.2,14.5-10.8,22.5-14.2,1.5-.3,3-.8,4.4-1.6-.1-.4-.4-.9-.3-1.4-1.7.9-3.8,2.9-6.3,1.8-1.2-1-2.4-2.3-2.2-3.8.2-3.2,2.5-5.4,5.1-6.8,1.4-.5,3.1-.7,4.4.2.6,1.8,2.3-.3,3.3,1,.5,2.8-2.3,4.9-.5,7.6,0,.2.3.3.4.5,4-1.1,8.2-1.5,12-3,0-2.1,1.1-4.1,2.3-5.8,1.4-.9,2.9-2.1,4.8-1.3,1.4.4,3.4,1.1,3.5,2.9,1.2.8,3.2,1.4,3.2,3.1s-.1.4-.2.6c-2.6,1.3-5.3,2.1-8.1,2.8,4.3,1.2,8.4-.3,12.4-1.1.7.3,1.5.4,2,1.2.3,1.1-.2,2.2-1.3,2.4"/>
      <path class="st7" d="M268,42v-1.1h.7c.4,0,.8,0,.8.5s-.4.6-.9.6h-.7.1ZM268,42.5h.6l1,1.6h.6l-1-1.6c.5,0,.9-.3.9-1s-.4-1-1.3-1h-1.4v3.6h.5v-1.6h0ZM268.6,45.4c1.7,0,3.2-1.3,3.2-3.1s-1.5-3.1-3.2-3.1-3.2,1.3-3.2,3.1,1.5,3.1,3.2,3.1M266.1,42.3c0-1.5,1.1-2.6,2.5-2.6s2.5,1.1,2.5,2.6-1.1,2.6-2.5,2.6-2.5-1.1-2.5-2.6"/>
      <polygon class="st7" points="200.1 51 198.8 51 203 61.9 207.2 51 205.9 51 203 58.9 200.1 51"/>
      <polygon class="st7" points="122.1 51 121 51 121 61.3 124.9 61.3 124.9 60.2 122.1 60.2 122.1 51"/>
      <path class="st3" d="M144.6,57.3h-3.5l1.8-4.1,1.7,4.1ZM145.1,58.4l1.2,2.9h1.3l-4.6-10.8-4.7,10.8h1.3l1.2-2.9h4.4-.1Z"/>
      <path class="st7" d="M167.4,52.4c-.6-1-1.5-1.6-2.7-1.6s-2.9,1-2.9,2.6,1,2.1,2.2,2.6l.6.3c.9.4,1.9.8,1.9,2s-1,2-2.1,2-1.9-.8-2.1-1.9l-1.1.3c.3,1.6,1.5,2.7,3.2,2.7s3.2-1.4,3.2-3.2-1.1-2.3-2.5-2.9l-.7-.3c-.7-.3-1.6-.7-1.6-1.6s.8-1.6,1.7-1.6,1.4.4,1.8,1.1l.9-.6h.2Z"/>
      <polygon class="st7" points="221.4 61.3 226.7 61.3 226.7 60.2 222.5 60.2 222.5 56.2 226.6 56.2 226.6 55.1 222.5 55.1 222.5 52.1 226.7 52.1 226.7 51 221.4 51 221.4 61.3"/>
      <path class="st7" d="M245.7,56.1v1.1h3.1c0,1.9-1.9,3.2-3.7,3.2s-2.2-.6-2.9-1.3-1.2-1.8-1.2-2.9c0-2.3,1.9-4.3,4.2-4.3s2.7.7,3.5,1.9l.8-.8c-1.1-1.4-2.5-2.2-4.3-2.2-3,0-5.4,2.4-5.4,5.3s2.4,5.3,5.3,5.3,2.9-.6,3.8-1.7,1.1-2.2,1.1-3.6h-4.3Z"/>
      <path class="st3" d="M270.2,57.3h-3.5l1.8-4.1,1.7,4.1ZM270.6,58.4l1.2,2.9h1.3l-4.6-10.8-4.7,10.8h1.3l1.2-2.9h4.4,0Z"/>
      <path class="st7" d="M292.9,52.4c-.5-1-1.5-1.6-2.7-1.6s-2.9,1-2.9,2.6,1,2.1,2.2,2.6l.6.3c1,.4,1.9.8,1.9,2s-1,2-2.1,2-1.9-.8-2.1-1.9l-1.1.3c.3,1.6,1.6,2.7,3.2,2.7s3.2-1.4,3.2-3.2-1.1-2.3-2.5-2.9l-.7-.3c-.7-.3-1.6-.7-1.6-1.6s.8-1.6,1.7-1.6,1.4.4,1.8,1.1l.9-.6h.2Z"/>
    </g>
  </g>
  <g id="subway" class="st8">
    <g>
      <path id="path3408" class="st5" d="M9.9,15c-.2-.3-.5-.5-.6-.5s-.7-.5-1.3-1c-.6-.6-1.4-1.2-1.8-1.5s-1-.8-1.3-1.1-1-.9-1.4-1.2-1.3-1-2-1.6C.9,7.6.2,7,0,6.8s-.8-.7-1.4-1.1c-.5-.5-1.1-1-1.3-1.1,0-.2-.3-.3-.5-.3s-.9-.6-1.6-1.3-1.5-1.3-1.6-1.3-.7-.5-1.3-1.1l-1.2-1.1,1-1c.6-.5,1.3-1.2,1.7-1.4.4-.3.8-.6,1.1-.8s1.2-1.1,2.3-1.9c1.1-.8,2.2-1.8,2.5-2.1s.6-.6.7-.6c.2,0,2-1.5,2.1-1.7,0,0,.4-.4.9-.7s1.3-1,1.9-1.5,1.3-1.1,1.6-1.3.6-.4.7-.5c.2-.4,2.2-2,2.4-2s.2,0,.2-.2,0-.2.3-.2.3.6.3,4v4h3.4c7.7.4,23.3.5,23.4.3,0-.1.3-.2.4-.2s.5-.3.8-.7c.6-.9.6-2.1,0-3.2s-1.3-1.5-8.8-5.1c-1.4-.7-2.9-1.4-3.4-1.6s-1.6-.8-2.5-1.3-1.8-1-2.1-1.1c-.5-.2-2.7-1.5-4.5-2.8-1.3-.9-4.3-3.7-4.8-4.4,0-.2-.4-.6-.7-1.1-.9-1.3-1.6-2.8-1.8-3.7,0-.5-.3-1.5-.5-2.3-.5-2.4-.3-8,.3-8.6,0,0,.2-.4.2-.7,0-.8,2-4.5,2.4-4.5s.2-.1.2-.3c0-.4,2.5-2.8,3.9-3.8.5-.3,1.7-1,2.8-1.5,4.7-2.3,5.5-2.4,19.7-2.3,6.1,0,12.2.1,13.4.2h2.2v15.5h-24.8c-.3,0-.8.3-1.2.6q-.6.5-.6,1.8c0,1.3,0,1.4.5,1.9.3.3.9.8,1.3,1s1.6.9,2.7,1.4c1,.6,2.1,1.1,2.4,1.2.3,0,.8.3,1.1.5s.6.3.7.3,1.7.7,4.7,2.2c.6.3,1.2.5,1.3.5s.3,0,.3.2.1.2.3.2.3,0,.3.1c0,.2,1.5,1,1.8,1s.7.3,1.2.6,1,.6,1.1.6.4.2.8.5c.3.3.9.7,1.3.8.4.2.9.5,1.2.8,1.2,1.1,1.5,1.3,1.9,1.5s.8.7,1.3,1.3c.5.6,1,1.2,1.1,1.3.3.3,1.2,1.7,1.2,1.9s.2.7.5,1.3c1.1,2.7,1.5,7.2.9,10.6-.3,1.7-1.2,4.5-1.8,5.6s-2.6,3.6-3.4,4.2c-.4.3-1,.8-1.3,1.1-.3.3-.7.6-.9.6s-1.5.7-1.7.9c0,0-.6.3-1.2.5s-1.2.5-1.3.5c-.4.3-3.3.9-5.6,1.1-2.9.3-8.6.5-8.6.2s-3-.2-9.8-.2h-11.4v4.1c0,4.5,0,4.7-.9,3.6h0l-.3.3ZM82.6,8.8c-2.2-.3-4.5-.9-6.9-1.7-2.2-.8-3-1.1-5.1-2.5-.4-.3-.8-.5-.9-.5-.6,0-5.4-5-5.4-5.7s-.2-.6-.5-1.1c-.5-.9-1.1-2.3-1.6-4-.3-.8-.3-3.7-.3-25.8v-24.9h19V-11.4l.4.8c.7,1.3,1.1,1.7,2.6,2.5l1.4.7h2.6c2.6,0,4.2-.3,4.8-1s.3-.2.5-.2c.3,0,1.5-1.4,1.8-1.9.1-.3.2-9.4.2-23.6v-23.2h19.3V-8.8l-.5,1.6c-.3.9-.6,2-.7,2.4-.3,1-1.5,3.3-2.1,3.8-.2.2-.5.6-.7,1-.4.7-3.4,3.6-4.3,4-.4.2-.8.5-1.1.7-.5.5-3.5,2-3.9,2s-.6.1-.9.3c-1.7.8-4.1,1.4-7.3,1.9-2.2.3-8.1.3-10.5,0h0ZM198.4,8.7c-2.3-.2-4.2-.7-6.8-1.5-3.4-1.1-5.5-2.4-7.8-4.5-.8-.7-1.4-1.4-1.4-1.4,0,0-.4-.5-.8-1.1-.9-1.2-1.8-2.7-1.8-3.1s0-.4-.2-.5c-.2-.2-.9-2.3-1.3-4-.3-1.2-.3-3.7-.4-25.6v-24.3h19.2v23c0,20.8,0,23.1.3,23.9.4,1.3,1,1.8,2.6,2.3,2.7.8,6,.1,7.1-1.4l.5-.8v-47h19.1v23c0,25.4,0,24.1,1.2,25.2.9.9,2.1,1.3,4.2,1.3s2.1-.1,2.8-.4c1.2-.4,1.6-.7,2.1-1.8.3-.7.3-1.4.3-24v-23.3h19.3v23.9c0,20.8,0,24.1-.3,25.4-.3,1.9-1,3.9-1.7,5.2-.3.6-.5,1.1-.5,1.3s-.1.4-.2.5-.5.6-.8,1c-1.1,1.4-2.5,3-3.5,3.7-1.7,1.3-4.1,2.8-5,3-.3,0-1.2.4-1.9.6-3.6,1.3-8.6,1.8-12.5,1.4-2.1-.2-5.7-1.1-6.8-1.5-.3-.2-1-.4-1.5-.6-.9-.3-3.1-1.5-3.7-2.1s-1.1-.6-1.9-.2c-.4.2-.7.5-.7.5,0,.2-2.9,1.8-3.2,1.8s-1.2.3-2,.7c-2.4,1.1-8.2,1.7-12.2,1.3h.2ZM262.6,7.6v-24.6c0-22.3,0-24.5.4-25.7.3-1.2,1-3.4,1.4-4.1,0-.2.4-.7.6-1.3.2-.5.6-1.1.7-1.2.6-.6,1.5-1.8,1.5-2s.3-.5.8-.8,1.2-1,1.7-1.5,1-.8,1.1-.8.7-.3,1.3-.7c2.3-1.5,6.3-3,10.5-3.8,2.3-.4,8.1-.6,10.6-.3,3.2.4,6.4,1.1,8,1.9.4.2.9.3,1.1.3.4,0,2.7,1.2,3.4,1.7.3.2.9.6,1.2.8.8.4,3.8,3.1,4.1,3.7.1.3.5.8.9,1.2,1.1,1.2,2.4,4.1,3,7,.3,1.4.3,2.8.3,25.9V7.7h-19.1V-11.1h-14.1V7.7h-9.5c-7.7,0-9.5,0-9.6-.1h-.3ZM296-32.4c0-5.9,0-6.3-.4-7.3-.5-1.3-1-1.8-2.5-2.4-2.5-1.1-6.1-1.1-8.5,0-1.4.7-1.7,1-2.3,2.2l-.5,1v12.8h14.1v-6.3h0ZM336.5-1.6v-9.4l-1.6-.5c-.9-.3-2.4-.9-3.2-1.3-.9-.4-1.7-.8-1.8-.8-.3,0-2.1-1.3-3.7-2.6-1.3-1.1-2.6-2.6-3.7-4.2-.3-.5-.6-.9-.7-1.1-.2-.3-1.3-3.3-1.6-4.9-.2-1-.3-3.5-.3-16.1v-14.9h18.9v12.9c0,13.2,0,14.7.7,15.5s2.6,1.9,3.7,2.2c1.3.3,4.3.4,5.5,0,1.9-.4,3.6-1.6,4.3-3.2.3-.7.3-1.3.3-6.7s0-6.8.2-7.7c.2-2,.9-4.8,1.5-6.1.4-.9,2.8-4,3-4s.6-.3,1.1-.8c1.2-.9,2.7-1.6,3.8-1.8.5,0,1.4-.3,2.1-.4,1.1-.2,2.8-.3,9.2-.3h7.9v-4.1c0-4,0-4.6.5-3.8.1.2.5.5.9.8s1.2.9,1.8,1.5c.6.6,1.4,1.2,1.7,1.3s.6.4.7.5c.3.4,2.1,2,2.4,2s.2,0,.2.2,1.1,1.1,2.4,2.1c1.3,1.1,2.6,2.2,2.8,2.4s.4.4.6.4.8.5,1.4,1.1,1.4,1.2,1.6,1.4c.8.5,2.4,2,2.4,2.3s-1.6,1.8-2.7,2.6c-.4.3-.9.7-1.1.9s-1.4,1.2-2.6,2.2-2.3,1.9-2.4,2-.4.3-.7.5c-.3.2-1,.8-1.6,1.3s-1.2,1-1.3,1-.7.5-1.3,1-1.4,1.2-1.7,1.4-1.2.9-1.9,1.5-1.6,1.3-1.8,1.5l-.5.4v-8.2h-4.7c-3.5,0-4.7.2-4.9.3s-.3,1.9-.3,7.2q-.1,8.4-2.2,12.7c-.4.8-.9,1.7-1.2,2-.3.3-1,1.1-1.6,1.8-.6.7-1.2,1.2-1.3,1.2s-.5.3-.9.6c-.8.8-2.1,1.6-2.9,2-.3.1-1.3.6-2.2,1s-2.1.9-2.9,1.2l-1.3.4V7.6h-19.2V-1.8h0s0,0,0,0l.2.2ZM120.3-24.8v-32.5h16.3c17.8,0,19.8,0,22.8,1,1.9.6,4.5,1.9,5.9,2.9,1.1.8,2.4,2.1,3.6,3.5.7.8,2,3.5,2.5,5.3.5,1.4.5,1.8.5,5s0,3.6-.2,3.8c-.1.1-.3.6-.4,1-.3.8-1.3,2.9-1.9,3.6-.2.3-.3.5-.3.6s-2.9,3-3.1,3-1.2.8-1.2.9.3.3.8.4c.4.2.9.5,1.2.7s.8.6,1.1.9c1.6,1.2,3.8,3.9,4.1,5,.1.4.3.8.4.9.3.4,1.1,3.4,1.2,4.7.2,1.7,0,5.3-.3,6.6-.4,1.6-1.5,4.8-2,5.6-.6,1-1.7,2.6-2.2,3-1.6,1.6-2.7,2.5-3.6,3-.5.3-1.3.7-1.7.9-1.5.8-3.2,1.5-3.7,1.5s-.8,0-1.1.2c-2.2.7-3.8.7-21.4.7h-17.3V-25.1h0v.3ZM150.4-6.9c.9-.2,2.1-1,2.3-1.4,0-.1.2-.3.3-.3s.4-.4.7-1c.4-.9.4-1.2.4-3.6v-2.7l-.7-1.1c-.4-.6-1-1.3-1.4-1.6l-.8-.5h-5.9c-3.2-.1-5.9-.2-6-.1s-.1,2.8-.1,6.2v6.1h5.2c3.3,0,5.5,0,6-.2h0v.2ZM150.4-31.9c.9-.5,2.1-2.1,2.3-3.2.6-2.9,0-5.7-1.4-6.9q-1.3-1.1-6.9-1.2h-5.2v11.7h5.2c5,0,5.2-.1,6-.5h0Z"/>
      <path id="path3404" class="st6" d="M197.1,8.5c-2.1-.3-3.7-.7-6-1.5s-2.6-.9-4.2-2c-.6-.4-1.3-.8-1.3-.8,0,0-.8-.6-1.6-1.4-2.4-2.3-3.7-4.3-4.7-7.4-1.2-3.6-1.1-2.6-1.1-28.8v-23.8h9.5c7.4,0,9.5,0,9.5.2v23.2c0,22.1,0,23,.4,23.8.4.9,1,1.6,1.3,1.6s.5.1.8.3c.8.4,2.7.6,4.1.5,2.3-.3,3.8-1.3,4.2-3,.1-.4.2-9.3.2-23.6v-23h9.3c8.3,0,9.4,0,9.5.3,0,.2.1,10.6.1,23.3,0,21.9,0,23,.3,23.7.2.4.5.9.8,1.2,1.3,1.2,4.9,1.6,7,.8,1.4-.5,1.5-.6,2.1-1.6l.5-.8v-23.3l.2-23.3h19v24.3c-.1,22.2-.2,24.4-.4,25.6-.4,1.8-1.1,3.8-1.7,4.7-.3.4-.5.9-.5,1.1,0,.4-1.9,2.9-3.4,4.3-.7.7-1.9,1.6-2.6,2.1s-1.6,1-1.9,1.2-1,.5-1.4.6-1,.3-1.3.5c-.9.4-3,1-4.8,1.3-2.4.5-8.9.5-11.1,0-1.5-.3-3.6-1-4.6-1.4-.3-.1-.7-.2-.9-.3-.4,0-3.8-2-4-2.3,0,0-.3-.2-.5-.3-.5-.3-1,0-2.6,1.1-.5.3-1.1.8-1.5.9-1.3.7-5.2,2-7.5,2.4-1.9.4-6.9.4-9.2,0h0v-.4ZM262.8-16.4c0-26.9,0-25.4,1.3-29.2.8-2.1,1.2-2.9,2.4-4.3.4-.5.7-.9.7-1s.5-.6,1.1-1.2c.6-.5,1.4-1.3,1.8-1.6.3-.3.7-.6.8-.6s.5-.2,1-.5c1-.7,3.6-2,4-2s.6-.1,1-.3c2.1-.9,5.6-1.6,9.3-1.9,4.4-.3,9.3.2,13.2,1.4.9.3,1.9.6,2.4.7,1.1.3,2.9,1.3,4,2,.5.3,1,.6,1.2.7.2,0,.8.5,1.4,1.1s1.2,1.1,1.4,1.2c.2.2.8.8,1.2,1.4s.9,1.3,1.1,1.4c.9.9,2.4,4.8,2.8,7.3.2,1.4.3,4.8.3,25.6V7.8h-18.9V-10.9h-14.5V7.8h-18.9v-24.1h0ZM296.2-32.3v-6.1l-.5-1.3c-.6-1.5-.8-1.8-2.6-2.6-1.2-.5-1.6-.6-3.4-.7-2.4,0-3.7.1-5.2.8-1.4.6-1.6.9-2.2,2.1l-.5,1v13h14.5v-6.1h0ZM336.5-1.7v-9.4l-.9-.3c-1.3-.4-3.7-1.4-4.5-1.9-.4-.2-1-.5-1.2-.5s-.6-.3-.8-.4-.8-.7-1.4-1.1c-2.4-1.6-5-4.6-6.1-7-.6-1.3-1.4-3.9-1.6-5.3,0-.6-.2-7.6-.2-15.5v-14.3h18.8v13.5c.2,9.5.3,13.7.4,14.1.2.6,1.3,1.7,2.3,2.4.8.5,3.1,1,4.4,1,2.7,0,5.3-.9,6.3-2.2,1.3-1.6,1.2-1.2,1.4-9.5,0-4.1.2-7.8.2-8.1.7-3,1.6-5,2.9-6.7,1.7-2.1,4.6-3.9,7.2-4.3,3.1-.6,4.1-.6,11.2-.6h7.4v-4.1c0-3.9,0-4.1.3-3.7.2.2.6.6,1.1.9s1.2.9,1.8,1.5,1.2,1,1.3,1,.8.6,1.6,1.3,1.5,1.3,1.6,1.3.4.2.7.5c.3.3,1.4,1.3,2.5,2.1,1.1.9,2.1,1.7,2.3,1.9s.9.7,1.5,1.2,1.3,1.1,1.4,1.3c.2.2.4.4.6.4s.8.5,1.5,1.2l1.3,1.2-1,1c-.5.5-1.3,1.2-1.8,1.5-1,.8-4.5,3.7-5.7,4.7-.5.5-1.1.9-1.1.9l-1.2,1c-.6.5-1.4,1.2-1.7,1.4-.3.2-1.1.9-1.7,1.4-.6.6-1.2,1-1.3,1s-.8.6-1.6,1.3c-.8.7-1.5,1.3-1.6,1.3s-.2,0-.2.2,0,.2-.2.2-.2-1.5-.2-4v-4h-4.2c-4.6,0-5.5,0-5.7.7,0,.2-.1,2.8-.1,5.6,0,5.5-.2,7.9-.7,9.9-.3,1.4-1.5,4.1-2.4,5.4-.7,1.1-3,3.5-4.5,4.6-1.2.9-5.5,3-7.7,3.8l-1.5.5V7.2h-19.1V-2.2h0v.5Z"/>
    </g>
  </g>
  <g id="Mirage1" data-name="Mirage">
    <g>
      <path class="st7" d="M321.3,80.6c-2.9-2.6-6-5.5-9.1-7.7-1.2.3-.9-1.4-1.9-1.4-1.6-.5-3.1-1-4.9-1s-.5.3-.6.6c0,.5.5.7.8.9,1.8,0,3.1,1.5,4.6,2.3,2.8,2.7,5.5,5.6,5.5,9.5s-.6.8-1.1.9h-1c-.6-2.3-2-4.4-3.9-6-.2,0-.3.2-.4.2.3,3.3,2.5,6.5.9,9.9-.3.3-.4.7-.5,1.2-.7.2-1.4.7-2.1.3-.5-.5.1-1,0-1.6.7-.4-.3-.6-.3-1,0-2.6-.9-4.9-2.3-7,.3-1.1-1.3-1.4-1.2-2.5-.3-.5-.8.1-.9.4-3.2,6.3-3.6,13.9-4.1,21.4,0,6.6.9,13.4,0,20-.2,6.6-1.6,12.6-2.5,18.8-.2.9,0,2-.4,2.8-.4,5.7-1.2,11.4-2.1,17.1-.7,1.9-.3,4-1.5,5.6.3,1.6-.9,2.5-1.2,3.9,0-.6.4-1.4-.2-2,.6-.6.5-1.4.2-2.1-.8.1-.6-.8-.5-1.2.4-.2.9-.8.9-1.5-.3-.5-1.6-.4-1.2-1.2.3-.2.7.2.9-.3.2-.8-.7-1.4,0-2.1-.3-.3-.6-.7-.3-1.1,1,0,.5-1.3.6-1.9.5-1.3-1.1-2.4-.4-3.8.4.1.3-.4.4-.6,0-.7-.2-1.4-.4-2,0,.5-1.2.5-.3,1.1.5.4-.4.8-.7,1-.1-.2-.2-.3-.1-.6.3-4.6.6-9.3.9-13.8.6-2,.6-4,.9-6.1.6-.4.9-1.2.6-1.9.8-3.8,1.2-7.9,1.3-11.8.6-.7-.1-1.5.2-2.4.2-.8.4-1.7.1-2.4.7-1-.2-2.2.4-3.3-.6-1.1.1-2.5-.5-3.7.5-4.1-.6-7.8.5-11.5,0-3.5.9-7,1.1-10.4.2-.7,1-1.6.3-2.2h-.2c-1.7,2.1-3.1,4.4-3.7,7.1-.4-.3-1.1.7-.9-.3-.9-1.3,1.6-1.3.5-2.7-.1-.2-.3-.3-.5-.3-.5.5-.7.7-1.2.8-.3-.3,0-.5,0-.9.5-.3-.1-.9.3-1.3.6-1.4,1.1-2.9,1.9-4.2,0-.7.9-1.2.4-1.8-1.8,1.1-3.4,2.6-4.7,4.2-.3-.6-.5.2-.7.3.3-.9.6-2.6.8-4-.8-.8.6-1.6.7-2.5,1.2-1.6,2.6-3.3,3.3-5-1.8.2-3.9,0-5.4,1.2-3.2.5-5.6,3.1-8.9,3.4-.3-.1,0-.5.2-.4,1-.9,2-1.7,2.9-2.6,0-.4.2-.5.6-.5s.2.3.4.3c.6-.7-1.8-2.1.2-2,.3.3.9.9,1.4.7,0-.5-.4-.9-.5-1.3,2.4-1.3,4.9-2.7,7.5-3.4,1,.2,2.7.5,3.7-.2-.4-1.4-2.2-.7-3.1-1.6-1.7-1-3.7-1.4-5.6-1.7-1-.7-2.5-.5-2.6-2,0-.3.3-.5.6-.5,1,.6,2.6.1,3.3,1.1,0-.8.8-.3,1.2-.5,1.9-.3,4,.5,6,.8,3.5.7,6.5,2.3,9.2,4.7,1.1-.1.8,1.4,1.8,1.3,5.4-.3,9.3,3.8,13.2,7.2.7,1.7,3.2,2.4,3,4.6.7.2.7,1.1,1.2,1.7,0,.4-.4.4-.6.6"/>
      <path class="st7" d="M289.9,155.5c-.1-.6,0-1.4,0-2,.2,0,.4.1.4.4-1.1.6,1.2,1.5-.5,1.6"/>
      <path class="st7" d="M290.2,152.7c-.4.1-.3-.3-.3-.6v-.3c.4,0,.4.6.2.8"/>
      <path class="st7" d="M289.8,158c0-.2,0-.8.2-.6-.2.2.2.7-.2.6"/>
      <path class="st7" d="M286.2,82.6c0-.3.2-.4.3-.4,0,.2-.1.3-.3.4"/>
      <path class="st7" d="M267.1,68.5c-.8,0-1.3-.7-1.7-1.3-.8-3.3-4.4-4.6-6.1-7.2-.3,0-.6-.9-.9-.2,1.2,3.1,4.8,5.8,3.2,9.5-.6.4-1.3.6-2,.4-.5-.3-.2-1-.5-1.5-.8-1.9-1.9-3.8-3.3-5.2-.7-.1-.4.8-.4,1.2,1,2.3.5,5.2.7,7.8-.1.5-.1,1.2-.7,1.2-.6.4.1.6.2.9-.3.6-.4,1.3-.7,1.8-.7-.4,0-1.1-.4-1.7,0-.2.8-.2.3-.5,0-.2-.3-.1-.5-.1-.6.3,0,1.2-.5,1.4-.3-.7.4-1.4-.3-2,.4-2.3-.9-4.5-1.2-6.7-.8-1.9-1.4-3.9-2.4-5.8h-.3c-1,2.4-1.3,5.1-2.1,7.5-2.3-2.2-4.9-4.7-7.6-6.4,0-1.2,1.2-2,.8-3.3-.9.4-2.4,1-2.8,2.1-1.6.7-2.1-1.1-3.9-.8-.5-.3-.9,0-.8-.4,1-.8,1.7-2.7,2.8-3.4,0-.4.8-1,.2-1.5-2.5,0-4.2,2-6.6,2,.3-.3,1.2-1,.2-1-.3.3-.9,0-1.3,0-.6-1.6,1.1-2.1,1.3-3.4,3.6-2.7,8.2-3.9,12.9-3.3,1.3.2,3,.4,4.4.6,4.7-2.7,11.4-3.5,17.1-2,.9.8,3,.8,2.5,2.5-1.2.3-2.1-.6-3.5-.5-1.1.4-2.7,0-3.8.2-1.6.9-3.6.8-5.1,1.5.2,1.3,1.8,1.1,2.7,1.7,4.1,3.4,7.5,7.8,10.3,12,0,1.3.4,2.8-.2,4"/>
      <path class="st7" d="M245.4,135.6c-.3,3-.3,6.1-1.6,8.8-.5.5-.4-.4-.5-.7-.2-.5.3-.4.4-.7-.3-1-.5-2.1-.6-3.2,0-.2.4-.4.3-.8-.7-.7.9-1.6-.2-2.4-.2-.6-.8-.3-.9,0-.3,1.7-.5.1-.4-.6,0-.4.3.2.5,0,.5-.9.7-1.9,1.1-2.9-.1-.3-.3-.6-.6-.6-.3.1-.2.5,0,.7-.2.1-.6-.3-.7,0,.4.4.2.8,0,1.3,0,0-.2.2-.3,0,0-5.9-.8-11.6-1.1-17.5-.7-2.5-1.3-5.1-1.4-7.8-.4-11.1,0-21.3,1.4-31.8.3-.7.4-1.6.7-2.4h.4c.5.8.2,2.5,1.5,2.3.4-.4.9,0,1.3-.4.2-2.5-1-4.6-2.5-6.4,0-1.1.3-2,.5-3.1,0,0,.1-.1.2-.2,1.3.9,2.7,2,3.9,3.1v.6c-.6,2.7-.7,5.4-1.6,7.9-.6.6-2.3.7-2,2.2-.8.3-.9,1.2-.7,1.9.6.6,1.9-.5,1.9.5-.2.1-.2.4-.4.5.2.1.2.2.4.4-.2,5,0,11.1-.9,16.9.8,4.3-.2,9.2.9,13.4-1.1,3.3,1.5,5.7,1,9.1.2,1.7,0,3.6.5,5.2-.8,2.1.3,4.5-.7,6.4"/>
      <path class="st7" d="M242.1,143.2c-.3-.8,0-1.7,0-2.5.5.6.1,1.5.3,2.3,0,0-.1.2-.2.2"/>
      <path class="st7" d="M240.4,68.7c-.8-.6-1.6-1.4-2.4-1.9.2-.7,0-1.3.5-2.1.9-.2,1.9.3,2.3,1.1.1.5.9.4,1.2.9-.4.8-1,1.3-1.6,2"/>
      <path class="st7" d="M224.3,80.7c-.6-.5-2-.6-2.5-.9,0-.2,0-.5.2-.8.2-.9.6-1.8,1.2-2.6.6.4,1.2.7,1.7,1.2-.5,1,.2,2.6-.7,3.1"/>
      <path class="st7" d="M183.5,95c.1-.2.3,0,.5.1,0,0-.4,0-.5-.1"/>
      <path class="st7" d="M217.1,74.8c-.2.4-.5.8-.6,1.2-.2.2-.5.1-.7.1-.1-.5.5-.9.6-1.4,0-.2-.2-.5-.6-.3-1,.6-1.4-.8-2-1.2.9-1.4,2.4-.9,3.3-1.9.3-.4.2-1,0-1.3.8-.7.9-1.8,1.4-2.5-.5-.4-1.5-.3-2.2-.2-3.9.8-7.7,1.8-11.6,2.7-1.9-1.3-3.5-3.5-5.8-4.1-.8-.2-1.4-1-2.3-1.2-3.7-1.1-7.5-2-11.4-2.9-1.4.1-3.3-.5-4.6.1-.4,2.5-3.7.9-5.3,2-.5,0-.7.5-.5.9-.7,1-.8,2.4-1.8,3.2-.7.1-1.6.6-1.8,1.4.2.2.5.3.8.3,1.4-.5,2.9-1.1,4.5-.8.8-.2,1.5-.2,2.2-.4,2-.2,4.2.6,6.5.7.5,0,.9.8,1.5.3,1.1.3,2.4.2,3.3,1.1.1.4-.4.5-.6.8-2.9.7-5.5,2.3-8.2,3.4-3,2.6-6.3,4.9-9,7.5.2.2.4.2.7.2.3-1.2,1.4.3,1.6-1,.4-.3,1-.4,1.4.1.1.7-.7.3-1,.5.3.9-1,.8-1,1.5-.5,0-.5.7-.9,1-.3,1.2-1.6,1.7-2.2,2.7,0,.1.2.2.4.2,1.7-1.3,3.9-1.4,5.5-2.8,2.1-.8,4.1-1.9,6.1-3.1,1.3-.5,2.6-1.1,4-1.6,2.3-.8,4.4-2.5,6.8-3.1.2.2.2.4,0,.5-2.6,2.1-5,4.8-6.7,7.4,0,.5,0,1-.2,1.4-.1.1-.3.1-.5.2-.2,1.1-.8,2-1.3,3,.2,1.7-1.5,2.8-1.1,4.5.3,0,.5-.1.9,0,.5.5.6,1.2.8,1.8-.3.5-.9,1-1.4,1.3s-1.1-.4-1.3.3c1,.4,2.1.1,2.8-.5,3.2-4.2,5.6-8.8,9.3-12.8,1.8-2.4,4.2-3.6,6.6-5,.5.2-.1.5,0,.9-3.1,3.5-4,7.7-3.9,12.4,1,6,1.7,12.1,2.6,18v6.1c.6,1.6-.1,3.1.4,4.7,0,5.9.5,11.9.2,18.2.1,1.4-.1,3.4,0,4.8-.4,1.1.6,1.8,0,2.7.2,5.1.2,10.3,1.6,15,.2.8.7.3,1.2,0,.2.3,0,1,.5,1,.4.2.7-.2.9-.5.3-2.5,1.8-4.5,2.4-6.8-.6-6.4-.3-13.1-.3-19.6-.6-8.9-.8-18.1-1.5-27.1-.7-.5-.3-1.5-.3-2.2-.4-.4-.4-1-.6-1.4-.2-6.3-3.8-13-.4-19.2.2-.2.6-.2.7,0,1.9,4.5,2.1,9.8,2.7,14.9,0,.5.5,1,.2,1.6.3.7,1.2.5,1.8.8.8-.6.9-1.5,1.7-2.2.4-1.9,1.7-3.9.9-5.8.3-5.5-2.6-10-3.1-15.4,0-.2.3-.4.6-.3,2.6,2.3,6,4.6,7.1,7.9,1.4,2.7.4,6.2,2.6,8.6.5.4,1.3.2,1.8,0,.3-1.9,0-4,.3-5.8-.1-.2-.4-.2-.4-.4.9-3.1-2.2-5.1-3.1-7.6-.2-.1-.3-.1-.4-.3-.1-1.2-1.6-1.3-1.6-2.5,1,.1,2.2,0,3.3.2.4,0,.7-.5.7.2.2,0,.5.1.9.2.4,0,.7-.1.8-.6.2-.6.1-1.3-.4-1.6-.7,0-1,.8-1.3,1.2-.3,0-.2-.7-.3-1,.6-.6.5-1.6.8-2.4-.8-.9-2,0-3-.5"/>
      <path class="st7" d="M219.5,146.5c.3,0,.4.3.4.6-.1.5-.3.8.2,1.2-1.3,2.1-.4-1-.6-1.7"/>
      <path class="st7" d="M219.5,151.5c-.4-.4-.2-1.4,0-1.9.3.5.4,1.3,0,1.9"/>
      <path class="st7" d="M207.3,66c0-.4.3-.8.7-.8-.4.2,0,1.3-.7.8"/>
      <path class="st7" d="M218.6,67.5c-.5.7-.6,1.8-1.4,2.5.2.3.3.9,0,1.3,0,1.1-.2,2.5-.7,3.4-.1.5-.7.9-.6,1.4.2,0,.5,0,.7-.1.2-.4.4-.8.6-1.2,1.1-1.7,2.9-3.2,4.5-4.4h.4c.5.6-.5,1.1-.4,1.9-.7.9-1.1,2-1.5,3.1-.3.8-.2,1.8-.8,2.4.1.3,0,1,.3,1,.3-.5.6-1.3,1.3-1.2.5.3.6,1,.4,1.6,0,.5-.5.7-.8.6.1.5-.1,1.3.3,1.8.2,0,.4,0,.5-.1.2-.5.3-1.1.5-1.6,0-.2,0-.5.2-.8.2-.9.6-1.8,1.2-2.6.5-.9,1.1-1.7,1.8-2.5h.4c.5.9-.3,1.7-.5,2.5v1.2c-.5,1,.2,2.6-.7,3.1-.3,1.9-.4,3.7-.4,5.7-1,3.9-.1,7.8-.5,11.7.4.8,0,2,.1,2.9.7,1-.2,2.2.3,3.4,0,.3-.5.6-.2,1-.4,1.8-.1,3.1-.5,4.8,0,3.9-.6,7.5-1.2,11.3.3.7,0,1.5-.6,1.9-.1,1.9-.1,4.3-.9,6.2-.3,5.1-.8,10.9-.9,16.4h.2c.5-.9-.4-2.2.8-2.8,0-.3-.5-.5-.4-.8.5,0,.1-.5.5-.7.2.7.7,1.5.6,2.3-.5.4-.7.8-.6,1.6.7,1.3.9,3,.4,4.4-.9.2,0,1,0,1.6-.7.6.2,1,0,1.7,0,.6-.7.2-1,.4-.2.9.9.6,1.2,1.2.2.5-.4.9-.6,1.3-.7,0-.3.8-.4,1.3.3,0,.5,0,.7.3.4.8-.2,1.4-.3,2.1.7.4,0,1.3.2,1.8.2-1.2,1.1-2.1,1.1-3.4s1.1-1.8.6-2.9c1.2-4.2,1.6-8.7,2.2-13.2,0-3.4.7-6.7,1-10.1,1.1-6.2,2.3-12.3,2.5-18.9,1.3-9.3-1.2-18.3.5-27.3.8-4.9,1.3-10,3.8-14.1.2-.1.6-.2.7.2-.1,1.1,1.3,1.3,1,2.4,1.5,2.1,2.2,4.5,2.3,7.2,1.1.6-.1,1.3,0,2,.2.5.8.6,1.3.8.2-.7,1.3-.2,1.1-1.2,1.2-1.5,1-3.9.8-5.8-1-1.2-.4-3-1.2-4.2-.1-.3,0-.9.4-.7,1.1.9,2,2.1,2.7,3.3h.4c.5.8.2,2.5,1.5,2.3.4-.4.9,0,1.3-.4.2-2.5-1-4.6-2.5-6.4-.6-.7-1.2-1.5-1.9-2.2h0c-.8-.6-1.6-1.4-2.4-1.9-.7-.5-1.4-.9-2.1-1.2-.5-.5-1.3.3-1.7-.5-.2-.3-.1-.9.3-1.1.9,0,1.9,0,3,.2.3.3.7.5,1.1.6.9-.2,1.9.3,2.3,1.1.1.5.9.4,1.2.9.3.2.7.6,1,.9,1.3.9,2.7,2,3.9,3.1,1.1,1,2.3,2.3,3.4,3.3.2,0,.2.2.5.1.7-.9-.5-1.5-.6-2.3-.5,0-.4-.6-.4-.9-.4-1.2-1.5-2-2.3-3-2.3-2.2-4.9-4.7-7.6-6.4-.7-.4-1.2-1-2-1.3-1.6.7-2.1-1.1-3.9-.8-.5-.3-.9,0-.8-.4-.2-.4-.5-.6-1.1-.5-3.8-3.6-8.7-4.7-13.7-5.4-.8.5-1.3,0-2.2,0,0,.3-.4.7-.5.6,0-.3,0-.5-.3-.7-1.3.4-2.1-1-3.2-.4-.6,1.8,1.8,1.6,2.6,2.4,1.9.1,3.8.9,5.5,1.6.8,1,2.5.2,3,1.6-.1.6-.9.3-1.3.5-3.6-.8-6.4,1.3-9.3,2.7-1.4.3.4,1.2-.2,1.9-.2,0-.4-.2-.6-.5-.4.1-.4-.5-.7-.6-1.4.3.4,1.3.2,2-.3.4-.6-.3-.9-.2-.3,0,0,.4-.2.6-.9.8-1.5,1.3-2.4,2.2-.1.5-1.3.3-.7.8,3.1-.6,5.5-2.9,8.6-3.4,1.5-1.2,3.5-.9,5.3-1.3,0,0,.1.1.2.2-.7,1.5-1.8,2.8-2.8,4.1"/>
      <path class="st7" d="M245.4,79.2c-.6.6-2.3.7-2,2.2-.8.3-.9,1.2-.7,1.9.6.6,1.9-.5,1.9.5-.2.1-.2.4-.4.5.2.1.2.2.4.4,1.2-.3,2.1-1.3,3.3-1.7.8-.2,1.8-.7,2.6-.4,0,.9-.6,1.8-1.5,2.3-.2,1.2-2,1.6-1.8,2.7-.7.5.4,1-.1,1.6-.1,1.7-1.7,2.3-2.6,3.5,2.7-.7,4.6-3,7-4.4.1,0,.3-.1.4,0,.5-1.1,1.7-1.5,2.7-1.9.5.7-.2,1.5-.5,2.1-.9,2.9-2.5,5.6-3.1,8.5.3-.1.6-.5.9-.8.2.3.9,0,.8.6,0,.2-.3.2-.4,0-.9,1.1-.6,3.1-.6,4.4.1,0,.2,0,.3-.2,0-1.1,1.1-1.7,1-2.8,1-1.1,1.5-2.6,2.7-3.6.3-.3.3-1,.8-1.1.1,0,.1.2.2.3-.6,4.1-1.2,8.2-2.3,12-1.6,12.4-2.8,24.4-1.1,37,.7.6.2,1.6.6,2.3.4,5.9.8,11.6,1,17.4h.2c0-.3.5-.9,0-1.1,0-.1,0-.3.2-.4.8.6,0-.2.7-.6.3,0,.5.5.6.8-.6.8-.7,1.8-1.2,2.7-.7-.5-.4.6-.5.8.5,0,.4-.7.9-.8.5.3.5.9.8,1.4-.2.4-1,1.2-.2,1.6-.7.7,0,1.3-.2,2.2-.1.7,1,1.4,0,2,0,.4,0,.7.2,1,.5.1.4-.5.7-.6.5-2.6.8-5.2,1.1-7.9.5-1.6.4-3,.3-4.7.7-2.2-.4-4.4,0-6.7,0-.1,0-.2-.1-.3.5-3.3-2.1-5.7-.9-9-1.1-4.1.1-9.2-.8-13.4,1.3-6.1.6-13.1,1.5-19.4,1.8-7.2,2.6-14.8,5-21.8.2,0,.4,0,.5.2,1.4,4,3.1,7.9,3.2,12.3.6.6.2,1.3.3,2,.6,0,0-1,.6-1.4.2,0,.3,0,.4.1.5.3,0,.5-.2.5.2.6-.3,1.3.3,1.7.2-.7,1.1-1.6.4-2.2,0-.2,0-.3.2-.4.7,0,.6-.8.7-1.3-.2-2.8.2-5.8-.7-8.4,0-.3,0-.7.4-.6.3.2.6.5.6.8,1.6,1.3,1.9,3.1,2.8,4.7.3.3-.1,1,.3,1.3.7.1,1.6.2,2-.4,1.4-3.3-1.3-5.9-2.8-8.5,0-.4-.6-.8-.2-1.3,1.8,1,3,3.4,4.8,4.6,1.5,1.5,1.5,3.7,3.5,4.7.9-1.1.3-2.8.4-4.1-2.7-4.3-6-8.8-10.1-12.1-.8-.7-2.5-.3-2.6-1.7.8-.6,1.9-.6,2.8-.8,1.9-.9,4.1-.8,6.3-.9,1.1,0,2.2.6,3.3.7.6-2-2-2.1-3-3-5.6-1-11.7-.6-16.4,2.2-1.6-.2-3.1-.4-4.7-.6-4.1-.5-7.8.4-11,2.2"/>
      <path class="st3" d="M230.9,192.6c-.4,1.2-.7,3-.3,4.3,1.2,1.2,2.3-1.1,3.5-1.4.6-.8,1.3-1.2,1.9-2-.3-1.3-.1-2.7.7-3.7.7-.6,1.8-1.1,2.5-.1,1.1.6.1,2.9,1.5,2.6,3.4-1.2,8.2-4.4,11.4-.7.6,1.1-.5,1.8-1.3,2.4-1.3.4-2.4-.4-3.5-.7-2.4.8-4.8,1.6-6.9,3.2,1.4,1.8.3,4.1-.7,5.7-1.2.5-2.2-.5-2.6-1.5-.1-.9-.6-1.7-.8-2.6-2.1,1.9-4,3.7-7.1,3.3-1.6-1.6-3.2-3.4-3.1-5.9.2-2.2.2-4.9,2.2-5.9.9,0,1.7.2,2.1,1,0,0,.8.8.5,2.1"/>
      <path class="st3" d="M229.1,181.5c-1.1,0-2.1,0-2.7-1.1-.4-.8.2-1.4.4-2,1.2-.4,2.4-.4,3.4.4,0,0,.2.9.1,1.6-.4.4-.6,1.1-1.2,1.1"/>
      <path class="st3" d="M224,201.3c-2.3.6-3.9-.8-5.7-1.6-2.5-2.4-2.6-6-5-8.5-2.3.3-3.8,2.1-5.8,2.9-4.4,2.9-9,7.5-14.6,4.9-3.5-2.1-3.2-6.1-5.3-9-4,.3-7.4,3.1-10.9,5-3.8,3.9-8.8,5.8-13.6,7.9-2,.5-3.5-.6-4.6-2.1,0-3.8,1.5-7,2.8-10.3,2.7-5.6,5.2-11.3,7.7-17.1.9-1.8.8-4.6-.3-6.2-5.4-2.3-10.7.2-16.3.2-5.5,2.1-11.3,3.5-16.7,6.2-2.9,1.9-6.2,1.9-9.2,3.8-3.6,2.3-7.2,5.2-11.2,6.6-2.5,1.2-3.9,3.6-6.5,5-4.4,2.3-8.5,5.3-13.2,6.8-1.9,0-4.1,0-4.8-2.1.5-2.4,3.4-2.7,5.2-3.3.7-.4,1.7,0,2.3-.4,20.4-13.7,41.2-26,66.2-28,3.6.3,7.3,1.1,9,4.5,2,8.4-3.8,15.2-6.4,22.6-1.8,2.7-3.4,5.8-3.8,9,.8.6,1.5-.4,2.3-.6,7.8-4.2,14.3-11.8,23.7-11.7,4.2,1,3,5.8,4.2,8.8,1,.9,2.5,1.6,3.8.9,5.1-2.4,9.5-6.7,14.8-8.6,2-.4,4.1,0,4.9,2,1.8,3.2,2.2,8.9,7.2,8.8,1.2.9,1.2,3.6-.5,3.8"/>
      <path class="st3" d="M255.3,197.2c-.8-.4-.7-1.4-.3-2,1.1-1.1,2.3-1.8,3.6-2.2,0,1.9-1.7,3.5-3.3,4.2M264.7,200.2c-1.2.7-2.9.7-4.4.5-.4-.5-1.2-1.2-1.7-1.8-1.5,2-3.8,3.2-6,2.6-1.7-.8-1.8-2.8-2.1-4.4.7-3.5,4.3-6.6,7.5-7.6,1.5,0,3.3.3,3.8,2,1.2,1.9-2.7,6.1,1.8,5.5.9-.1,1.8-1,2.8-.3,1,1.5-.6,2.8-1.7,3.5"/>
      <path class="st3" d="M273.3,196.4c-.6.2-2.9.3-1.7-1.1.8-1.4,1.8-2.4,3.3-2.7.3.1.7,0,.9.4-.9,1.1-.9,2.9-2.6,3.4M271,228.9c-4.2,1.8-10,3.5-14.3.9-3-2.6-3.8-6.8-4.5-10.6.3-2.9,4.6-6.6,7.4-8.4,2.5-.3,4.5-2.5,6.8-3.6,3.6-1.3,6.9-3.1,10.8-3.7.6,6,1.4,11.8,0,17.8-.5,1.4-1.5,2.7-2.1,4.3-1.4,1.2-2.5,2.4-4,3.4M296.5,194.6c-.4-1.2,1-2,1.5-3,1.2-.3,2,.5,2.6,1.1-.4.7,1.6,1.6-.2,1.5-1.4,0-2.5.6-3.9.4M311.1,200.6c-2.1-.7-3.6.6-5.6.7-4,.8-9,1-11.9-2.3-4.3,1.1-8.7,2-13.1,3,.3,7.8,2.5,17.5-2.3,24.1-3.5,6.4-10.2,8.6-17.1,8.5-4.1-.5-8.5-2.2-10.3-6.5-1.9-3.7-3.3-8.7-1.3-12.7,5.3-8.2,14.5-10.8,22.5-14.2,1.5-.3,3-.8,4.4-1.6-.1-.4-.4-.9-.3-1.4-1.7.9-3.8,2.9-6.3,1.8-1.2-1-2.4-2.3-2.2-3.8.2-3.2,2.5-5.4,5.1-6.8,1.4-.5,3.1-.7,4.4.2.6,1.8,2.3-.3,3.3,1,.5,2.8-2.3,4.9-.5,7.6,0,.2.3.3.4.5,4-1.1,8.2-1.5,12-3,0-2.1,1.1-4.1,2.3-5.8,1.4-.9,2.9-2.1,4.8-1.3,1.4.4,3.4,1.1,3.5,2.9,1.2.8,3.2,1.4,3.2,3.1s-.1.4-.2.6c-2.6,1.3-5.3,2.1-8.1,2.8,4.3,1.2,8.4-.3,12.4-1.1.7.3,1.5.4,2,1.2.3,1.1-.2,2.2-1.3,2.4"/>
      <path class="st7" d="M286.9,206.7v-1.1h.7c.4,0,.8,0,.8.5s-.4.6-.9.6h-.7.1ZM286.9,207.2h.6l1,1.6h.6l-1-1.6c.5,0,.9-.3.9-1s-.4-1-1.3-1h-1.4v3.6h.5v-1.6h0ZM287.5,210.1c1.7,0,3.2-1.3,3.2-3.1s-1.5-3.1-3.2-3.1-3.2,1.3-3.2,3.1,1.5,3.1,3.2,3.1M285,207c0-1.5,1.1-2.6,2.5-2.6s2.5,1.1,2.5,2.6-1.1,2.6-2.5,2.6-2.5-1.1-2.5-2.6"/>
      <polygon class="st7" points="219 215.7 217.7 215.7 221.9 226.6 226.1 215.7 224.8 215.7 221.9 223.6 219 215.7"/>
      <polygon class="st7" points="141 215.7 139.9 215.7 139.9 226 143.8 226 143.8 224.9 141 224.9 141 215.7"/>
      <path class="st3" d="M163.5,222h-3.5l1.8-4.1,1.7,4.1ZM164,223.1l1.2,2.9h1.3l-4.6-10.8-4.7,10.8h1.3l1.2-2.9h4.4-.1Z"/>
      <path class="st7" d="M186.3,217.1c-.6-1-1.5-1.6-2.7-1.6s-2.9,1-2.9,2.6,1,2.1,2.2,2.6l.6.3c.9.4,1.9.8,1.9,2s-1,2-2.1,2-1.9-.8-2.1-1.9l-1.1.3c.3,1.6,1.5,2.7,3.2,2.7s3.2-1.4,3.2-3.2-1.1-2.3-2.5-2.9l-.7-.3c-.7-.3-1.6-.7-1.6-1.6s.8-1.6,1.7-1.6,1.4.4,1.8,1.1l.9-.6h.2Z"/>
      <polygon class="st7" points="240.3 226 245.6 226 245.6 224.9 241.4 224.9 241.4 220.9 245.5 220.9 245.5 219.8 241.4 219.8 241.4 216.8 245.6 216.8 245.6 215.7 240.3 215.7 240.3 226"/>
      <path class="st7" d="M264.6,220.8v1.1h3.1c0,1.9-1.9,3.2-3.7,3.2s-2.2-.6-2.9-1.3-1.2-1.8-1.2-2.9c0-2.3,1.9-4.3,4.2-4.3s2.7.7,3.5,1.9l.8-.8c-1.1-1.4-2.5-2.2-4.3-2.2-3,0-5.4,2.4-5.4,5.3s2.4,5.3,5.3,5.3,2.9-.6,3.8-1.7,1.1-2.2,1.1-3.6h-4.3Z"/>
      <path class="st3" d="M289.1,222h-3.5l1.8-4.1,1.7,4.1ZM289.5,223.1l1.2,2.9h1.3l-4.6-10.8-4.7,10.8h1.3l1.2-2.9h4.4,0Z"/>
      <path class="st7" d="M311.8,217.1c-.5-1-1.5-1.6-2.7-1.6s-2.9,1-2.9,2.6,1,2.1,2.2,2.6l.6.3c1,.4,1.9.8,1.9,2s-1,2-2.1,2-1.9-.8-2.1-1.9l-1.1.3c.3,1.6,1.6,2.7,3.2,2.7s3.2-1.4,3.2-3.2-1.1-2.3-2.5-2.9l-.7-.3c-.7-.3-1.6-.7-1.6-1.6s.8-1.6,1.7-1.6,1.4.4,1.8,1.1l.9-.6h.2Z"/>
    </g>
  </g>
</svg>