<?xml version="1.0" encoding="UTF-8"?>
<svg id="Layer_1" xmlns="http://www.w3.org/2000/svg" version="1.1" viewBox="0 0 612 792">
  <!-- Generator: Adobe Illustrator 29.1.0, SVG Export Plug-In . SVG Version: 2.1.0 Build 142)  -->
  <defs>
    <style>
      .st0, .st1, .st2 {
        fill: #fff;
      }

      .st0, .st3 {
        fill-rule: evenodd;
      }

      .st4 {
        fill: #ebeae9;
      }

      .st5 {
        fill: #e2e2e2;
      }

      .st6 {
        fill: #bcbcbc;
        stroke: #bcbcbc;
        stroke-miterlimit: 4.5;
        stroke-width: 1.1px;
      }

      .st7, .st3 {
        fill: #bbb8b7;
      }

      .st8 {
        fill: #cfcfce;
      }

      .st9 {
        fill: #bcb8b7;
      }

      .st10 {
        fill: #8e8d8d;
      }

      .st2 {
        stroke: #231f20;
        stroke-miterlimit: 10;
      }

      .st11 {
        display: none;
      }
    </style>
  </defs>
  <g id="_x34_60x286" class="st11">
    <rect class="st2" x="80.4" y="146.4" width="460" height="286"/>
  </g>
  <g id="countrytime" class="st11">
    <g>
      <path class="st10" d="M333.6,323h0v-24.3c1-1.3,2.8-1.4,2.9-1.4h.6v-4.9c.1,0,.1-.7.1-.7h-2.9c1.1-1.2,2.8-1.3,2.9-1.3h.7v-5c.1,0,.1-.7.1-.7h-.7l-16.3-.6h-.6v.5c-.1,0-6.6,28.1-6.6,28.1l-6.3-29v-.5h-15.9c0,.1-.7.1-.7.1v6.4h.7c.8,0,1.4.3,1.9.7h-2.1v6.2h.7c1.4,0,2.1.9,2.5,1.7v24.7c0,1.4-.3,2.5-1,3.1-.8.8-1.9.7-1.9.7h-.7v6.5h.5v5.7h14.7v-6.1h0v-5.8h-.7c-1.4,0-2.4-.4-3-1.1-.3-.3-.5-.7-.6-1v-17l7.1,30.5v.5h6.5v-.5c.1,0,7-30.2,7-30.2v16.1c-.2.5-.4.9-.8,1.3-.6.6-1.5.9-2.4,1h-.7v5.8h-.3v6.5h19.2v-5.7h.8v-5.9h-.5c-4.6-1.1-4.2-4.3-4.2-4.4h0ZM377.7,320.5l-.6-.3-.3.6c-2.8,5.1-6.7,5.5-11.2,5.5s-4.3-.9-4.6-1.2v-4.5h.8c2.7,0,3,3.3,3,3.4v.6h5.3v-6.1h1.8v-12.5c1.3,1.2,1.8,2.3,1.9,2.4l.2.5h.5c0-.1,3.5-1,3.5-1l.7-.2-.3-.7-1.8-4.8,3.3-.9.7-.2-.3-.7-3-8.2v-.4h-.5c-6.2-1.1-29.1-5.7-29.3-5.8l-.8-.2v5.6h.5c1.9.7,2.8,1.6,3.2,2.3l-3.9-.8-.8-.2v5.5h.5c3.5,1.2,3.4,3.3,3.3,3.4v24.7c-.5.4-1.1.6-1.7.6h-.7v5.8h-1.1v6.2h29.7l.2-.5,1.8-5.2h0l.2-.5,3.4-9.8.2-.5-.5-.3-3.1-1.7h-.2ZM281.5,333.3h.3v-5.7h-.6c-1.4-.2-2.4-.6-3.1-1.3v-25.1c0-3.7,3.4-4.6,3.4-4.6h.5v-6.1l-.8.2c-1,.2-2,.5-3,.7.6-.8,1.5-1.3,2.5-1.7h.5v-6.3l-.8.2c-8.6,2-17.1,3-17.1,3h-.6v6.6h.8c1.1-.3,1.9-.1,2.5.2-.8.1-1.3.2-1.3.2h-.6v6.4h.8c.7-.3,1.4-.2,2.1,0v24.1c0,2.7-2.9,3-3.1,3h-.6v6.1h1.3v5.7h18.2v-5.6h-1c0-.1-.3,0-.3,0ZM256.2,300.9l.2-.2.4-.3-.2-.5-4-11.7-.2-.7-.7.3c-5.2,2-28.2,7.5-28.5,7.6h-.4v.5c-.1,0-3.9,14-3.9,14l-.2.8h.8l3.4.4-1.4,5.1-.2.8h.8l3.5.4h.5l.2-.4c1.9-5.2,4.4-8,6.4-9.4v16.5c0,3.3-3.7,3.8-3.9,3.8h-.6v5.2c-.1,0-.1.7-.1.7h2.5v5c-.1,0-.1.7-.1.7h18.8v-.6l.6-4.2v-.6l-.5-.2c-.6-.2-1.2-.4-1.8-.7h0l.6-4.4v-.6l-.5-.2c-.9-.2-1.7-.6-2.5-1v-23c5.6-.7,8.3,5.5,8.4,5.5l.3.8.7-.5,3.5-2.6.4-.3-.2-.5-2-5.7h0v.2ZM504,265.2l-23.9-4.7-.9-.2-.3.8-1.3,3.4-2.2-.9,1.2-3.2.4-.9-.9-.4-28.4-11.6-.9-.4-.4.9-1.8,3.6c-1.4-3.6-4.4-6.8-9.1-9.4-4.6-2.6-30.7-15.4-31.8-16l-.9-.5-.5.9-2.4,5-.4.9.9.5c1.7.8,2.7,1.8,3.2,3.1l-2.5-1.2-.9-.4-.4.9-2.4,4.9-.4.9.9.4c1.7.8,2.7,1.8,3.1,3-3.1,6.8-9.2,20.4-11.9,25.4-1.1,2-2.3,3.2-3.6,3.4-1.5.3-2.7-.8-2.8-.8l-1-.8-.6,1.2-2.6,5-.5.9.9.5.5.2-.4.7-2.5,4.9-.5.9.9.5,25.6,13,.9.4.5-.8,3-5.2.6-1-1-.3v-.2c.1,0,3.2-5.4,3.2-5.4v-.2c.5,4.1.9,8.6,1.3,13,1.2,14.1,8.8,18.3,11.6,19.8,2.3,1.3,6.3,2.1,9.1,1.1,1.3-.4,2.3-1.4,2.8-2.7.4-1,.3-2-.1-3,0,0-.1-.2-.2-.3.4,0,.7-.2,1.1-.3,1.2-.4,2.2-1.3,2.8-2.4l-.6,1.6-.3,1,1,.3,26.9,9.4.9.3.3-.9,1.9-5.2.2-.7,1.2.4,1,.3.3-1,1.9-5.4.4-1-1-.3c-1.9-.6-3.1-1.5-3.7-2.8-.9-2.1,0-4.4,0-4.4h0l1.4-4.6c5.2-4.4,14.4-12.3,17.6-15.8,3.8-4.2,9-3.4,9.2-3.4h.9c0,.1.2-.7.2-.7l1.3-5.1.3-1-1.1-.2h-.4c2.2-.7,4-.4,4.2-.4l.9.2.2-.9,1.4-5.2.3-1.1-1.1-.2h.2Z"/>
      <path class="st10" d="M311.1,269.6v-10c-.7-.1-1.3-.3-1.9-.6v-3.7c.1,0-.8,0-.8,0-7.3-1.3-7-5.6-6.9-5.8h0v-.2l-.9-16.4,20.4,37.4.2.4h.5l13.6,1.9h1c0,.1,0-.9,0-.9l.6-6.6h.1v-1.1c0-.3,2.2-23.7,3.2-36.7.4-1.3,1.3-2.3,2.5-2.8l-.2.3.7.7,2.7,2.6-3.8,4.8-.6.7.7.6,3.4,3.2.7.7.7-.7c5.6-5.5,10.3-6.6,13-6.7-2.9,8.7-6.9,20.7-8.3,24.7-2,5.5-6.8,4.5-7.4,4.4l-1-.4-.3,1.1-1.4,5-.3,1,.9.3,2.7.9c-.6,0-1.1,0-1.7-.1l-1-.4-.3,1.1-1.3,4.9-.3.9.9.3,27.1,8.9,1,.3.3-1,1.8-5.5-1-.3c-1-.3-1.9-.8-2.6-1.5l2.2.7,1,.3.3-1,1.9-5.7-1-.3c-1.6-.5-2.6-1.3-3.2-2.4-.2-.3-.3-.7-.4-1.1,3.2-9.7,6.4-19.5,9.6-29.2,6,3.9,6.8,13.1,6.8,13.2v1h1.1l5-.3h.9v-8.1h1.5l1-.2v-19.4l-.7-.2-38.5-12.8-.7-.2-.5.6-6.8,8.4v-1.4h-.9c0-.1-4.4-.7-4.4-.7l.2-.2c1.9-1.6,4.7-1.2,4.8-1.2l1.1.2v-1.2l.2-5.2v-.9h-.9c0-.1-23.4-3-23.4-3h-1.1c0-.1,0,1,0,1l-.3,5.2v1h1c1.8.1,3.2.7,4,1.8.2.3.4.5.5.8l-4.5-.6h-1.1c0-.1,0,.9,0,.9l-.3,5.1v1h.9c1.8.1,3.1.7,3.9,1.7.5.6.8,1.2.9,2l-.8,8.6-14.5-29.3-.3-.6h-.7l-31.4,1.4h-1v4.7c-.1,0-.7-2.8-.7-2.8l-.2-1-1,.2-22.4,4.2-1.1.2,1.5,5.9.2.8h.8c1.9,0,3.3.6,4.2,1.5l-4.1.8-1.1.2,1.4,5.8.2.8h.8c5.3,0,6.2,5,6.2,5.2h0c0,.2,4.9,18,5.4,20.3,0,.2.1.5.2.8-.4,2.5-2,4.9-5.7,6.3-2.8,1-5.1,1-7,0-3.2-1.7-4.1-5.8-4.1-5.8h0l-6.6-20.6c.1-.6.3-1.1.6-1.6,1.1-1.9,3.3-2.4,3.3-2.4l1.1-.2-.3-1.1-1.3-4.4-.3-1-1,.4-3.8,1.4c.1-.5.3-1,.6-1.5,1.2-2,3.4-2.5,3.4-2.5l1.1-.2-.3-1.1-1.4-4.5-.3-1-1,.4-32.5,11.6.2.9,1.4,5.4.3,1,1-.3c2.2-.6,4-.8,5.5-.3l-5.7,2,.2.9,1.2,4.6c-2.9-2.5-6.3-4.3-9.9-5.4-7-2.1-14.4-1.3-20.5,2-14.2,7.7-15.3,22.7-15.3,27.1,0,8.1,5.1,17.3,6.3,19.3-.8,2.2-5.1,12.1-15.1,17.2-4.8,2.4-9.4,2.9-13.6,1.3-2.4-.9-4.7-2.5-6.8-4.8-.8-1.4-1.4-2.9-2.1-4.4-4.2-10.3-2.9-19.5.7-23.3l.4-.4c.5,1.7,1.2,3.5,2.4,4.9.6.8,1.3,1.4,2.1,1.9.4,1.9,1.2,3.8,2.5,5.4,2.1,2.5,5.1,3.8,9,3.8,8,0,12.5-5.9,13.4-11.4.6-3.7-.4-8.2-4-11.7-.7-4.8-4-9.9-11.7-12.3-10.2-3.1-21.5-1.4-29.6,4.6-5.5,4-12,11.8-12,25.9s5,23.7,11.8,30.3c6.9,10.7,18.1,15.7,26.9,15.7,13.9,0,31.6-8.8,38.8-28,7.4,4.5,19.1,6,30.4-2.7,9.6-7.5,12.3-21.7,6.9-34.8-.7-4.1-2.1-8.1-4.1-11.8-1.5-2.8-3.3-5.2-5.5-7.3,2.7-.8,4.9-.7,6.5.2.8.5,1.4,1.2,1.9,2l3.1,12.3c.3,1,.6,2,.9,2.9l1.3,5c2.1,7.2,5.3,11.9,9.8,14.4,5.8,3.1,13.7,2.7,26.2-1.3,6-2,10.2-5.2,12.3-9.7.1-.3.3-.6.4-.9l1,.4v5.4s17.7-1.2,27.4-1.3h.8ZM141.6,364.7c1.4,0,2.1-.6,2.1-2v-11c0-1.4-.6-1.9-2.1-2v-1.6h7.7v1.6c-1.9,0-2.4.5-2.4,2.2v10.8c0,1.1.2,1.7,1.6,1.7,2.7,0,4.9-.9,7-4.8l1.4.6-2.5,6.1h-12.7v-1.6h-.1ZM169.3,358.8c0-4.1-2.4-5.8-5.4-5.8s-6,2.3-6,6.6,2.2,6.9,6,6.9,4.7-1.5,5.7-3.7l-1.2-.6c-.8,1.6-2,2.6-3.8,2.6s-3.4-2.4-3.4-5,0-.8,0-1.1h8.1,0ZM171,364.7c1.6,0,1.8-.7,1.8-1.8v-5.9c0-1-.2-1.3-1.8-1.4v-1.6c1.1,0,2.6-.4,3.5-1.1h1v1.6c1-1,2.4-1.6,3.8-1.6s2.5.4,3.2,1.8c1-.9,2.7-1.8,4-1.8,3.4,0,3.7,2.4,3.7,4.2v5.8c0,1.1.3,1.7,1.8,1.7v1.6h-6.4v-1.6c1.5-.3,1.7-.6,1.7-1.9v-6.3c0-1.1-.3-1.7-1.5-1.7s-1.7.4-2.3,1l-.5.4v6.8c0,1.1.3,1.7,1.8,1.7v1.6h-6.4v-1.6c1.5-.3,1.7-.6,1.7-1.9v-6.3c0-1.1-.3-1.7-1.5-1.7s-1.7.4-2.3,1l-.5.4v6.8c0,1.1.3,1.7,1.8,1.7v1.6h-6.6v-1.6h0ZM193.8,359.6c0,3.8,2.4,6.9,6.4,6.9s6.4-3.2,6.4-6.9-3.1-6.6-6.4-6.6-6.4,2.4-6.4,6.6h0ZM210.2,357.1c0-1-.2-1.3-1.8-1.4v-1.6c1.1,0,2.6-.4,3.5-1.1h1v1.7c1.3-1.2,2.8-1.7,4.3-1.7s3.5.9,3.5,3.7v6.3c0,1.1.3,1.7,1.8,1.7v1.6h-6.2v-1.6c1-.2,1.5-.4,1.5-1.6v-6.2c0-1.7-.6-2.1-1.5-2.1s-2.4.7-3.3,1.5v6.6c0,1.1.3,1.7,1.8,1.7v1.6h-6.6v-1.6c1.6,0,1.8-.7,1.8-1.7v-5.9h.2ZM236.1,364.2c-.4.4-.6.5-1,.5s-.8-.3-.8-1v-6.7c0-2.8-1.4-4-4.7-4s-4.9,1.4-4.9,3.4.3,1.5,1.3,1.5,1.2-.4,1.3-1.9c0-.8.9-1.4,2-1.4,1.6,0,2.1.7,2.1,2.2v1.7c-4.8.5-7.3,2-7.3,4.8s1.2,3.3,3.5,3.3,2.5-.4,4-1.7c.4,1.1,1.2,1.7,2.4,1.7s2.2-.5,2.9-1.4l-.8-.9h0ZM246.3,366.3h4.6v-1.6c-1.6,0-1.8-.7-1.8-1.7v-15.1h-1.2c-.7.4-2.3.8-3.9.9v1.6c1.8,0,2.1.4,2.1,1.6v2.2c-.9-.8-2.1-1.2-3.3-1.2-3.8,0-5.4,3.4-5.4,6.8s1.7,6.8,5.4,6.8,2.5-.5,3.4-1.3v1h0ZM263.8,358.8c0-4.1-2.4-5.8-5.4-5.8s-6,2.3-6,6.6,2.2,6.9,6,6.9,4.7-1.5,5.7-3.7l-1.2-.6c-.8,1.6-2,2.6-3.9,2.6s-3.4-2.4-3.4-5,0-.8,0-1.1h8.2ZM272.7,348.2h12.4l2.1,5.2-1.2.6-.6-1c-1.2-1.9-3.3-3.1-5.5-3-1.4,0-1.9.3-1.9,1.9v3.6h1.4c1.7,0,2-.9,2.2-3.3h1.2v8.4h-1.2c-.2-2.6-.7-3.3-2.6-3.3h-1v5.4c0,1.4.6,1.9,2.1,2v1.6h-7.3v-1.6c1.4,0,2.1-.6,2.1-2v-11c0-1.4-.6-1.9-2.1-2v-1.6h-.1ZM287.4,364.7c1.6,0,1.8-.7,1.8-1.8v-11.2c0-1-.2-1.3-1.8-1.4v-1.6c1.2,0,2.6-.4,3.5-.9h1.2v15.1c0,1.1.3,1.7,1.8,1.8v1.6h-6.5v-1.6h0ZM307.3,364.2c-.4.4-.6.5-1,.5s-.8-.3-.8-1v-6.7c0-2.8-1.4-4-4.7-4s-5,1.4-5,3.4.3,1.5,1.3,1.5,1.2-.4,1.3-1.9c0-.8.9-1.4,2-1.4,1.6,0,2.1.7,2.1,2.2v1.7c-4.8.5-7.3,2-7.3,4.8s1.2,3.3,3.5,3.3,2.5-.4,4-1.7c.4,1.1,1.2,1.7,2.4,1.7s2.2-.5,2.9-1.4l-.8-.9h.1ZM312.8,366.5l-3.6-10.1c-.4-1.3-.9-1.6-1.5-1.6h-.1v-1.6h5.9v1.4c-1,0-1.4.3-1.4.8s0,.8.4,1.8l2,5.8,1.9-5.7c.2-.5.3-1.1.3-1.6s-.4-1.1-1.4-1.1v-1.4h5.1v1.6h0s-1.3.2-2.1,2.4l-3.4,9.3h-2.1ZM321.3,359.6c0,3.8,2.4,6.9,6.4,6.9s6.4-3.2,6.4-6.9-3.1-6.6-6.4-6.6-6.4,2.4-6.4,6.6ZM337.7,357.1c0-1-.2-1.3-1.8-1.4v-1.6c1.1,0,2.6-.4,3.5-1.1h1v1.8c.9-1,2.1-1.8,3.4-1.8s2,.4,2,1.9-.5,1.5-1.2,1.5c-1.2,0-1.2-1.1-2.3-1.1s-1.5.4-1.6,1.1v6.6c0,1.1.3,1.7,1.8,1.7v1.6h-6.5v-1.6c1.6,0,1.8-.7,1.8-1.7v-5.9h0ZM353.6,366.3h8.9c7.1,0,8.1-6.2,8.1-9.1s-1.1-9-8.3-9h-8.8v1.6c1.4,0,2.1.6,2.1,2v11c0,1.4-.6,1.9-2.1,2v1.6h0ZM374.3,357.1c0-1-.2-1.3-1.8-1.4v-1.6c1.1,0,2.6-.4,3.5-1.1h1v1.8c.9-1,2.1-1.8,3.4-1.8s2,.4,2,1.9-.5,1.5-1.2,1.5c-1.2,0-1.2-1.1-2.3-1.1s-1.5.4-1.6,1.1v6.6c0,1.1.3,1.7,1.8,1.7v1.6h-6.5v-1.6c1.6,0,1.8-.7,1.8-1.7v-5.9h0ZM383,354.1c1.1,0,2.6-.4,3.5-.9h1.2v9.7c0,1.1.3,1.7,1.8,1.8v1.6h-6.5v-1.6c1.6,0,1.8-.7,1.8-1.8v-5.9c0-1-.2-1.3-1.8-1.4v-1.6h0Z"/>
      <ellipse class="st10" cx="386.5" cy="349.7" rx="1.8" ry="2"/>
      <path class="st10" d="M392.9,357.1c0-1-.2-1.3-1.8-1.4v-1.6c1.1,0,2.6-.4,3.5-1.1h1v1.7c1.3-1.2,2.8-1.7,4.3-1.7s3.5.9,3.5,3.7v6.3c0,1.1.3,1.7,1.8,1.7v1.6h-6.2v-1.6c1-.2,1.5-.4,1.5-1.6v-6.2c0-1.7-.6-2.1-1.5-2.1s-2.4.7-3.3,1.5v6.6c0,1.1.3,1.7,1.8,1.7v1.6h-6.6v-1.6c1.6,0,1.8-.7,1.8-1.7v-5.9h.2ZM408.8,351.8c0-1-.2-1.3-1.8-1.4v-1.6c1.1,0,2.6-.4,3.5-.9h1.2v10.7l3.1-2.4c.4-.3.6-.6.6-.8,0-.3-.3-.5-1.4-.6v-1.6h6.2v1.6c-1.2.1-1.8.4-3.1,1.5l-1.6,1.3,3.4,5.7c.6.9,1.4,1.5,2.1,1.5h.3v1.6h-6.3v-1.6c.6,0,1-.3,1-.7s-.2-.7-.5-1.2l-2.1-3.5-1.4,1.2v2.4c0,1.1.3,1.7,1.8,1.7v1.6h-6.5v-1.6c1.6,0,1.8-.7,1.8-1.7v-11.2h-.3ZM432.2,351.7c0-1.4-.6-1.9-2.1-2v-1.6h6.6l3.4,12.3h0l3.7-12.3h6.3v1.6c-1.4,0-2.1.6-2.1,2v11c0,1.4.6,1.9,2.1,2v1.6h-7.6v-1.6c2.1-.3,2.3-.5,2.3-2.6v-11.9h0l-4.8,16.1h-1.5l-4.5-16.1h0v12.5c0,1.4.6,1.9,2.1,2v1.6h-5.9v-1.6c1.4,0,2.1-.6,2.1-2v-11h-.1ZM451.5,354.1c1.1,0,2.6-.4,3.5-.9h1.2v9.7c0,1.1.3,1.7,1.8,1.8v1.6h-6.5v-1.6c1.6,0,1.8-.7,1.8-1.8v-5.9c0-1-.2-1.3-1.8-1.4v-1.6h0Z"/>
      <ellipse class="st10" cx="455" cy="349.7" rx="1.8" ry="2"/>
      <path class="st10" d="M458.8,364.7c1.4-.5,2-1.2,3.2-2.9l1.7-2.3-2.2-3.3c-.5-.8-1.3-1.3-2.2-1.5h0v-1.6h6.3v1.4c-.9,0-1.1.2-1.1.6s.1.4.4.8l1.2,1.9,1.3-1.7c.3-.4.5-.8.5-1.1s-.3-.5-1-.5v-1.4h4.9v1.6h0c-1.2,0-2.2,1.1-2.9,2l-1.9,2.3,3.2,4.4c.7,1,1.4,1.2,2,1.2v1.6h-6.7v-1.4c1.2,0,1.5-.3,1.5-.7s-.1-.4-.7-1.3l-1.5-2.2-2,2.7c-.4.5-.4.7-.4.8,0,.2.1.5,1.3.6v1.4h-4.9v-1.5h0Z"/>
      <path class="st8" d="M149.3,316.8c-13.3,0-32.1-11.7-32.1-37.8s6.1-20.5,11.1-24.2c7.6-5.6,18.2-7.2,27.7-4.3,8.7,2.7,11,9.3,10.3,14-.7,4.8-4.7,9.9-11.7,9.9s-5.9-1-7.6-3.1c-3.9-4.7-2.3-13.2-2.3-13.3l.2-.9-.9-.3c-2.9-1-5.6-.2-7.8,2.1-4,4.2-6,14.2-1.1,26.2,3.8,9.2,8.8,15.1,15,17.4,4.7,1.8,9.8,1.3,15.2-1.4,10.1-5,14.6-14.5,15.9-17.7,2.5,1.3,5.4,3.6,6.5,4.6-6.7,19.8-24.6,28.8-38.5,28.8h.1Z"/>
      <path class="st8" d="M189.7,286.9c-.2-.2-4.6-4.1-8.3-5.8-1-1.6-6.1-10.8-6.1-18.4s1-18.1,14.2-25.3c5.6-3.1,12.5-3.7,18.9-1.8,4.7,1.4,11.2,4.8,15.6,13,7.3,13.7,5.3,29.2-4.7,37-11,8.5-22.2,6.9-29.3,2.5h0l.2-.7-.5-.4h0ZM274,214.3c-1.3,1.9-1.5,4.4-.6,7.4l6.6,22c0,.1,2.7,7.2-.4,13.6-2,4.1-5.8,7.1-11.4,8.9-12.1,3.9-19.9,4.4-25.3,1.5-4.2-2.2-7.1-6.6-9.1-13.5l-4.8-19.2c-.5-2-1.7-3.7-3.4-4.8-2-1.2-4.4-1.4-7.4-.7l-.9-3.4,29.6-10.6.8,2.5c-1.1.4-2.7,1.3-3.7,3.1-1.2,2.1-1.4,4.8-.3,8l8,24.7c.1.5,1.3,5.1,5.1,7.2,2.4,1.3,5.4,1.4,8.7.1,9.9-3.7,7.1-13,6-16.5-.1-.5-.3-.9-.3-1.1-.5-2.4-5.3-20.1-5.6-21-.4-2.4-2.5-6.6-7.6-7l-.8-3,20.3-3.8.6,2.9c-1.1.3-2.9,1.1-4,2.9h0v-.2ZM339.1,220.5c-.5,6.5-3.2,36.5-3.7,42.6l-12.4-1.7-23.1-42.5-2,.6,1.6,30.1c0,.9,0,6,7.8,7.6v3c-.1,0-22.2,1-22.2,1v-3.4c1,0,2.5-.4,3.8-1.6,1.6-1.4,2.4-3.6,2.4-6.5,0-7.6-1.3-29.9-1.4-31,0-1.7-.6-3.4-1.7-4.8-1.4-1.6-3.5-2.5-6.2-2.8v-3.6c.1,0,29.9-1.3,29.9-1.3l15.8,32,1.6,3.3.3-3.6,1.9-19.6c0-.1.3-3-1.5-5.2-1-1.3-2.5-2.1-4.5-2.4l.2-3.1,21.4,2.7v3.2c-1.4,0-3.6.3-5.3,1.7-1.6,1.3-2.4,3.1-2.6,5.6v-.3ZM354,256.5c2.4-6.7,11.5-34.4,11.6-34.7l.3-1-1-.3c-.3-.1-7.6-2.4-17.1,6.5l-2.1-2,10.2-12.7,37.1,12.4v16l-3.2.2c-.4-3-2.2-11.5-9.1-14.9l-1.1-.5-.4,1.1-12,36.2c0,.1-.9,2.9.4,5.5.7,1.4,1.9,2.4,3.5,3.1l-.9,2.8-26-8.6.9-3.1c2.7.3,7-.5,8.9-5.9h0ZM442.2,261.4c-5.1,12-12.4,10.9-14.5,10.3l-1.6-.4.2,1.6,5,33.1v.6l.7.2c.9.3,3.4,1.3,4.1,2.8.2.5.2.9,0,1.4-.3.7-.9,1.3-1.7,1.5-2.1.8-5.6,0-7.6-1-2.9-1.6-9.7-5.4-10.9-18.8-1.1-12.5-2.5-26.4-2.7-28.5l1.6-3.4c1.5.8,4.6,2.1,7.8,1.4,2.6-.6,4.6-2.4,6.2-5.3.2-.2,2.3-3.7,1.3-7.2-.6-2.1-2.1-3.8-4.6-5-.4-.3-2.2-1.6-4.3-1.2-1.7.4-3.1,1.7-4.2,4l-13.4,29.3s-1.6,3.1-.4,6.1c.6,1.6,1.9,2.9,3.8,3.8l-2,3.5-24.5-12.4,1.6-3.1c1,.5,2.2.7,3.4.5,2-.4,3.7-1.9,5.1-4.5,3.6-6.6,13-27.8,13.7-29.5.3-.5,1.8-2.9,1.1-5.6-.4-1.7-1.6-3.1-3.4-4.2l1.5-3.2c4.8,2.4,26.6,13.2,30.7,15.5,5.6,3.1,11.4,8.6,7.7,17.4h0l.3.3ZM491.3,274.5c-4.4,4.9-20.2,18.1-21.5,19.1l-.3.2v.3l-2.9,8.8c-.2.4-1.2,3.3,0,6,.7,1.6,2.1,2.8,4,3.6l-1.2,3.4-25.8-9,1.2-3.5c2.5.5,6.4,0,8.4-4.5l3.1-8.6v-.3c.1,0,0-.3,0-.3l-5.5-28.3c0-.2-.9-6.1-4.8-8.4l1.7-3.4,26.6,10.9-1.3,3.4c-1.3-.4-3.5-.9-5.2.3-1.4,1-1.9,2.9-1.5,5.5,1.1,8.4,1.7,12,1.7,12l.3,1.8,1.4-1.2,12.2-10.5h0c.6-1,.8-2.1.5-3.1-.4-1.3-1.5-2.3-3.3-3.1l1.2-3.2,22,4.3-.9,3.3c-2,0-6.7.1-10.4,4.2h0l.3.3ZM242.4,296.1h-.6v27.3c0,.6-.3,4.2,4.8,5.9l-.4,3.1h-16.7v-3.2c1.9-.4,4.6-1.9,4.6-5.1v-26.1h-.8c-.3.2-6.6,1.5-10.5,11.8l-2.2-.2,3.5-12.8c3.1-.7,21.7-5.2,27.6-7.3l3.6,10.5-2.5,1.9c-1.1-2-4.4-6.8-10.3-5.6h0v-.2ZM268.2,324.2v-28.2c0-.3.2-2.2-1.1-3.4-.7-.7-1.8-1.1-3.1-1v-3.7c5.3-.7,10.6-1.6,15.8-2.7v3.4c-2.5.9-4.1,3.3-4,5.9v28.8c-.1,1.3.2,2.6,1,3.6s2,1.7,3.7,1.9v3.1h-15.9v-3.5c1.5-.3,3.7-1.5,3.7-4.3h-.1ZM322.6,326.6c1.1-1,1.6-2.6,1.6-4.5v-26.6l-1.4-.2-8.3,36.6h-4.3l-8.5-36.8-1.4.2v28.1c0,.3-.1,2.2,1.2,3.6.8.9,1.9,1.4,3.4,1.5v3.5h-12.4v-3.7c.8,0,1.6-.4,2.2-1,1-.9,1.5-2.3,1.5-4.2v-29.9c0-1.5-1-4.3-3.7-4.7v-3.6h14c0-.1,6.8,31.4,6.8,31.4h1.4l7-30.5,15,.5v3c-1.9.3-4.5,1.6-4.5,5v28.8c0,.6-.2,4.3,4.7,5.6v3.4h-17v-4c1-.1,1.9-.6,2.7-1.3h0v-.2ZM376.7,331.9h-28.2v-3.7c1.2-.3,3.6-1.2,3.6-5v-28.3c0-.4,0-3.2-3.9-4.6v-2.9c4.1.8,22.2,4.4,28.1,5.5l2.6,7.1-2.3.6c-1-1.6-4.5-6.2-13.2-6.2s-1.8-.2-2.8.7c-.6.6-1,1.4-.9,2.2v11.6h4.4c.9,0,1.8-.3,2.5-.9.9-.8,1.4-2.1,1.5-3.7h2.4v12.8h-2.8c-.3-1.7-1.5-4.2-4.4-4.2h-3.7v12.7c.2.2,1.4,2,6,2s8.9-.5,12-5.7l2,1.1-3,8.8h0Z"/>
      <path class="st10" d="M198.2,242.4c-2.2-.5-4.6,0-6.5,1.2-1.7,1.2-9.9,7.8-.9,25.8s10.2,12.9,13.7,13.7h0c2.8.7,5.7.2,8.1-1.4,6.5-4.6,5.9-15.4-1.6-27.6-4.2-6.9-8.5-10.8-12.8-11.8h0ZM214.5,267.5c1.3,6.1-.2,10.5-3.1,12.5h0c-1,.7-3.3,1.9-6.4,1.1-2.9-.7-7.3-3.3-11.6-11.2-3.7-11.3,1.5-15.6,2.7-16.4,1.4-1,3.1-1.3,4.8-.9,3.5.8,7.4,4.4,11.1,10.5.9,1.5,1.7,3,2.4,4.4h.1Z"/>
      <path class="st1" d="M405.1,280.5c0,.7,0,1.3.3,1.9.5,1.3,1.8,2.4,3.7,3.1l.5.2c-.5-5.6-1-10.3-1.2-12.5l-3.3,7.3Z"/>
      <path class="st1" d="M361.7,302.6h-.7v5h3.1s.8,0,1.5-.6,1.1-1.8,1.1-3.4h0v-.4c-1.4-.4-3-.6-4.9-.6h-.1Z"/>
      <path class="st1" d="M287.2,224.1c-1.1-1.3-3-2-5.6-2.1h-.3v.2h-1.1c0,.1-2.4.5-3.6,2.3l-.2.3,5.5,18.3c1,3,1.4,6.2,1.1,9.3.3,1,.5,2.1.6,3.1h.3c1.2.1,2.5-.3,3.4-1.1,1.1-1,1.7-2.7,1.7-5,0-4.9-.6-16.1-1-23.6-.2-.7-.5-1.3-1-1.9l.2.2Z"/>
      <path class="st1" d="M444.9,269.8h0c0-.2-.4-3-1.9-5.2-.6,1.2-1.3,2.3-2,3.2-.2.7-.4,1.4-.7,2.1-2.9,6.7-6.8,10-10.6,11.1l3.7,24c1.2.5,3.8,1.6,4.8,3.6s.5,1.7.3,2.5l1-2.8.3-1h0l1,.3c.1,0,.2,0,.4.1l.2-.7,1.9-5.4s.3-1,.4-1l1,.4c.3.1,2.3.7,4.1-.1l1.5-4.2-5.3-27.1h0v.2Z"/>
      <path class="st1" d="M469.1,274.1c.4,2.6.6,4.4.8,5.6l4.3-3.7c-1.2-.5-3.3-1.3-5.1-1.9h0Z"/>
      <polygon class="st1" points="439.7 307.5 439.7 307.5 439.7 307.5 439.7 307.5"/>
      <path class="st1" d="M421.4,254.8h0s-1.2-1.1-2.6-.8c-1,.2-1.9,1.1-2.6,2.8l-.9,1.9h0s3.6,2.6,7.1,1.7c1-.2,1.9-.7,2.7-1.4,0-.2,0-.3-.1-.5-.4-1.5-1.6-2.7-3.5-3.6h-.1Z"/>
      <path class="st1" d="M201,252.6c-1.6-.4-3.4,0-4.8.9-1.2.8-6.4,5.1-2.7,16.4,4.3,7.9,8.7,10.5,11.6,11.2,3.2.8,5.4-.3,6.4-1.1h0c2.9-2.1,4.4-6.4,3.1-12.5-.7-1.4-1.5-2.9-2.4-4.4-3.8-6.1-7.6-9.7-11.1-10.5h-.1Z"/>
      <circle class="st8" cx="389.2" cy="300.6" r="4.1"/>
      <circle class="st1" cx="389.2" cy="300.6" r="3.4"/>
      <path class="st8" d="M388.1,300.9h1.5c.8,0,.8.4.8.8s0,.9.1,1.2h.8c-.2-.2-.2-.3-.2-.6v-.8c0-.6-.3-.8-.6-.9.4-.2.7-.6.6-1.1,0-1-.8-1.3-1.5-1.3h-2.2v4.7h.6v-2h.1Z"/>
      <path class="st1" d="M161.3,357.3c.1-1.6,1.1-2.7,2.6-2.7s2.2,1.2,2.2,2.3v.4h-4.8ZM197,359.7c0-3.3.8-5.2,3.2-5.2s3.2,1.9,3.2,5.2-.8,5.2-3.2,5.2-3.2-1.9-3.2-5.2ZM231.4,363.5c-.7.7-1.6,1-2.6,1.1-1.3,0-1.8-.7-1.8-1.7,0-1.8,1.9-2.7,4.4-3v3.7h0ZM246.1,363.5c-.4.6-1.7,1.1-2.8,1.1-2.2,0-2.8-3-2.8-4.8s.7-5,3.2-5,2.1.7,2.4,1.2v7.4h0ZM255.8,357.3c.1-1.6,1.1-2.7,2.6-2.7s2.2,1.2,2.2,2.3v.4h-4.8ZM302.6,363.5c-.7.7-1.6,1-2.6,1.1-1.2,0-1.8-.7-1.8-1.7,0-1.8,1.9-2.7,4.4-3v3.7h0ZM324.6,359.7c0-3.3.8-5.2,3.2-5.2s3.2,1.9,3.2,5.2-.8,5.2-3.2,5.2-3.2-1.9-3.2-5.2ZM358.9,351.8c0-1.6.3-1.9,2.4-1.9,4.2,0,5.9,3.4,5.9,7,0,6-2.8,7.7-5.8,7.7s-2.5-.6-2.5-1.5v-11.3h0ZM388.1,298.7h1.6c.3,0,.8,0,.8.8s-.5.8-1,.8h-1.5v-1.6h.1Z"/>
    </g>
  </g>
  <g id="tesla" class="st11">
    <path class="st9" d="M214.1,292.4h36.4c5.1-1.9,8.8-5.5,9.9-9.7h-56.2c1,4.3,4.8,7.9,9.9,9.7M119.3,263.6c1.1,4.3,4.8,7.8,9.9,9.7h15.3l.8.3v38.7h9.6v-38.7l.9-.3h15.4c5-1.9,8.7-5.5,9.8-9.7h0c0-.1-61.6-.1-61.6-.1h0ZM214.1,312.2h36.4c5.1-1.9,8.8-5.5,9.9-9.8h-56.2c1,4.3,4.8,7.9,9.9,9.8M214.1,273.4h36.4c5.1-1.9,8.8-5.5,9.9-9.8h-56.2c1,4.3,4.8,7.9,9.9,9.8M455.3,273.2h36.4c5.1-1.9,8.7-5.3,9.7-9.6h-56.2c1,4.3,4.9,7.7,10,9.6M411.2,311.9c4.7-2,7.3-5.5,8.2-9.6h-42v-38.8h-9.4v48.3h43.2,0ZM297.2,273.1h33.6c5.1-1.5,8.8-5.3,9.8-9.6h-52.9v28.8h43.7v10.1h-33.8c-5,1.9-8.7,5.2-9.7,9.4l-.2.4h53.1v-29.5h-43.7v-9.6h.1ZM447.1,282.5v29.6h9.4v-19.7h34.3v19.7h9.4v-29.5h-53.1,0Z"/>
  </g>
  <g id="elevata" class="st11">
    <g>
      <g>
        <path class="st9" d="M178.3,335.7v-10.5h2.1v10.5h-2.1Z"/>
        <path class="st9" d="M191.5,335.7v-11.4l10.2,8v-7.2h2.1v11.3l-10.2-7.9v7.1h-2.1Z"/>
        <path class="st9" d="M221.5,334.2c1.9,0,3.8-.9,5-2.4v2.8c-1.4,1-3.2,1.5-5,1.5-4.1,0-7.4-2.5-7.4-5.7s3.3-5.7,7.4-5.7,3.6.6,5,1.5v2.8c-1.2-1.5-3.1-2.4-5-2.4-2.9,0-5.3,1.7-5.3,3.8s2.3,3.8,5.3,3.8h0Z"/>
        <path class="st9" d="M244.4,324.7c4.1,0,7.4,2.6,7.4,5.7s-3.3,5.7-7.4,5.7-7.4-2.5-7.4-5.7,3.3-5.7,7.4-5.7ZM244.4,334.2c2.9,0,5.3-1.7,5.3-3.8s-2.3-3.8-5.3-3.8-5.3,1.7-5.3,3.8,2.4,3.8,5.3,3.8Z"/>
        <path class="st9" d="M264.4,335.7h-2.1v-10.5h6.4c1.9,0,4.1.7,4.1,3s-1,2.5-2.3,2.8l3,4.7h-2.5l-2.8-4.5h-3.9v4.5h0ZM264.4,329.3h4.2c1.6,0,2.2-.4,2.2-1.2s-.6-1.1-2.2-1.1h-4.2v2.3h0Z"/>
        <path class="st9" d="M286.7,335.7h-2.1v-10.5h6.4c1.9,0,4.1.7,4.1,3s-2.2,3-4.1,3h-4.3v4.5ZM286.7,329.3h4.2c1.6,0,2.2-.4,2.2-1.2s-.6-1.1-2.2-1.1h-4.2v2.3h0Z"/>
        <path class="st9" d="M312.4,324.7c4.1,0,7.4,2.6,7.4,5.7s-3.3,5.7-7.4,5.7-7.4-2.5-7.4-5.7,3.3-5.7,7.4-5.7ZM312.4,334.2c2.9,0,5.3-1.7,5.3-3.8s-2.3-3.8-5.3-3.8-5.3,1.7-5.3,3.8,2.4,3.8,5.3,3.8Z"/>
        <path class="st9" d="M332.4,335.7h-2.1v-10.5h6.4c1.9,0,4.1.7,4.1,3s-1,2.5-2.3,2.8l3,4.7h-2.5l-2.8-4.5h-3.9v4.5h0ZM332.4,329.3h4.2c1.6,0,2.2-.4,2.2-1.2s-.6-1.1-2.2-1.1h-4.2v2.3h0Z"/>
        <path class="st9" d="M361.1,332.6h-5.7l-2,3.1h-2.5l7.3-11.3,7.3,11.3h-2.5l-2-3.1h.1ZM356.6,330.7h3.2l-1.6-2.5-1.6,2.5Z"/>
        <path class="st9" d="M372.3,327v-1.9h12.3v1.9h-5.1v8.7h-2.1v-8.7h-5.1,0Z"/>
        <path class="st9" d="M394.2,325.1h10.5v1.9h-8.4v2.2h7.1v1.9h-7.1v2.7h8.4v1.9h-10.5v-10.5h0Z"/>
        <path class="st9" d="M415.2,335.7v-10.5h5.8c3.2,0,7.2,1.5,7.2,5.3s-4.1,5.3-7.2,5.3h-5.8ZM417.3,333.8h3.6c2.2,0,5.3-.7,5.3-3.4s-3-3.4-5.3-3.4h-3.6v6.8Z"/>
      </g>
      <path class="st1" d="M344.3,251.5c-1.2,0-2.4.3-3.6.6,3.4-.4,5.7-.7,3.6-.6Z"/>
      <path class="st0" d="M298,257.9s-.7-9.5-10.4-9.1c0,0,.6.2.6.4,0,0-.8,2,1.6,1.4,0,0,6-1.6,8.2,7.3h0Z"/>
      <g>
        <path class="st4" d="M316.7,258l-22.5-11.4-5.8.9s-6.6-1.8-6.7-1.8,0,0,0,0c-1.8,0-4.8.6-6.9,2.8,0,0,1.6-.9,5.5,2.5,0,0,17.6,12.2,23.4,55.4h.6c3.5-23.1,10.1-39.4,18.9-46-2.9-1-5.7-2.1-6.5-2.6v.2Z"/>
        <path class="st4" d="M243.9,261.1s-29.4-4.8-33.3-18.2c0,0-1.6,31.8,46.3,35,0,0,19.3-1.6,35,13.9l-4.5-9.9c-8.5-9-22.1-18.1-43.4-20.8h-.1Z"/>
        <path class="st4" d="M252.3,282.8s-25.8-4.8-29.5-12.8c0,0,2.5,22,42.3,22.9,0,0,15.9-2.1,32.2,10.9l-2.1-4.5c-6.1-6.6-18.8-15.8-43-16.6h0Z"/>
        <path class="st4" d="M283.9,267.8c-5.9-6.3-14.6-12.6-27.1-15.6,0,0-18.6-6.1-20.7-14.6,0,0-1.1,21.6,28.5,24.7,0,0,5.3,1.2,12.1,5.3h.4c2.4,0,5.1.1,6.7.2h.1Z"/>
        <path class="st4" d="M314.5,291.2c15.5-14.7,34.2-13.2,34.2-13.2,47.9-3.2,46.3-35,46.3-35-3.9,13.4-33.3,18.2-33.3,18.2-20.4,2.6-33.7,11-42.3,19.6-1.4,3-3.2,6.6-4.9,10.3h0Z"/>
        <path class="st4" d="M340.5,293c39.9-.9,42.3-22.9,42.3-22.9-3.7,8-29.5,12.8-29.5,12.8-23.6.8-36.3,9.5-42.5,16-.9,1.8-1.7,3.4-2.4,4.9,16.2-12.9,32-10.8,32-10.8h.1Z"/>
        <path class="st4" d="M329,267.6h0c6.8-4.1,12.1-5.3,12.1-5.3,29.6-3.2,28.5-24.7,28.5-24.7-2.1,8.5-20.7,14.6-20.7,14.6-12.5,3-21.2,9.3-27,15.6h1.8c.3,0,3.4-.2,5.4-.2h0Z"/>
      </g>
      <g>
        <path class="st9" d="M130,284.4c0-9.4,0-11.1-.1-13-.1-2-.7-3-3-3.4-.6-.1-1.7-.2-2.3-.2s-.5-.1-.5-.4.3-.5,1.1-.5h7.7c.5.1,14.2.1,15.8,0,1.3,0,2.4-.2,3-.3.3,0,.6-.3,1-.3s.3.2.3.5-.3,1.1-.6,2.8c0,.6-.2,3.3-.3,4,0,.3-.2.7-.5.7s-.6-.3-.6-.8,0-1.4-.4-2.2c-.5-1-1.2-1.7-4.9-2-1.2-.1-8.7-.2-9.4-.2s-.4.2-.4.6v16.6c0,.4,0,.6.4.6.9,0,9.4,0,10.9-.1,1.7-.1,2.6-.2,3.2-.8.5-.5.8-.8,1-.8s.3.1.3.5-.3,1.4-.6,3.4c-.1,1.2-.3,3.4-.3,3.8s0,1.1-.5,1.1-.5-.2-.5-.5c0-.6,0-1.2-.3-2s-.9-1.9-3.6-2.1c-1.9-.2-8.7-.3-9.8-.3s-.5.2-.5.4v15.6c.2,4.2,1.2,4.9,8,4.9s4.8,0,6.6-.7,2.6-1.9,3.1-4.3c.1-.7.3-.9.6-.9s.4.5.4.9-.5,4.6-.9,5.8c-.5,1.6-1,1.6-3.7,1.6-5.2,0-8.9-.1-11.6-.2-2.7-.1-4.3-.2-5.4-.2h-2.8c-1.4,0-3,.1-4,.1s-1.1-.1-1.1-.5,0-.4.5-.4c.6,0,1.5-.1,2.1-.2,1.4-.2,1.7-1.6,2-3.3.3-2.5.3-7.3.3-13v-10.5l.3.2Z"/>
        <path class="st9" d="M188.9,295c0,8.8.3,12.7,1.5,13.8,1.1,1,2.9,1.4,8.3,1.4s6.7,0,8.3-1.8c.9-1,1.6-2.5,1.8-3.6,0-.5.2-.8.6-.8s.4.2.4.9-.5,4.3-1,6c-.5,1.4-.7,1.6-4.3,1.6s-8.5-.1-11.4-.2-5-.2-7-.2h-2.8c-1.4,0-2.9.1-3.9.1s-1.1-.1-1.1-.5.1-.4.5-.4c.6,0,1.4-.1,2.1-.2,1.4-.2,1.7-1.6,2-3.3.3-2.5.3-7.3.3-13v-10.5c0-9.4,0-11.1-.1-13-.1-2-.7-3-3-3.4-.6-.1-1.7-.2-2.3-.2s-.5-.1-.5-.4.3-.5,1.1-.5c3.1,0,7.4.2,7.8.2s5.4-.2,7.4-.2,1.1.1,1.1.5-.3.4-.5.4c-.5,0-1.5,0-2.3.2-2,.3-2.5,1.3-2.7,3.4-.1,1.9-.1,3.6-.1,13v10.7h-.2Z"/>
        <path class="st9" d="M329,266.9h0c-2,0-5,.2-5.4.2h-1.8c-1.4,0-3.2-.1-5-.1s-1.5.1-1.5.5.3.4.8.4c.8,0,1.8,0,2.6.2.7.3.9.9.9,1.4s0,.1,0,.2c0,.5-.3,1.3-.6,2.1-.3,1-1.1,2.8-2.1,5.2-1.6,3.8-3.9,9-6.1,14-1.4,3.1-2.8,6.2-4.1,8.9-.9,2-1.8,3.8-2.5,5.2l-13.2-30.7c-1-2.3-1.8-4.2-1.8-5s.1-.9.9-1.2c.6-.2,1.8-.3,2.6-.3s.7-.1.7-.4-.6-.4-1.9-.4c-2.6,0-5.7.2-6.4.2h-1.3c-1.6,0-4.4-.1-6.7-.1s-.3,0-.4,0c-.8,0-1.4.1-1.4.4s.1.4.6.4,1.5,0,2.5.2h.2c2,.5,3.1,1.1,4.2,3.2.2.4.5.9.7,1.5l16.8,36.8c1.3,2.9,1.6,3.7,2.5,3.7s1-1,2.9-4.6c.7-1.3,1.6-3.2,2.8-5.6-1,.8,4.7-9.7,6-12.5h0c1.8-3.7,3.5-7.4,4.9-10.4,1.4-2.9,2.4-5.1,2.8-5.9.9-2.1,1.7-3.3,2.3-4.2.6-.8,1.1-1.2,1.5-1.5.4-.2.9-.4,1.3-.5.9-.2,1.7-.2,2-.2.5,0,.8-.1.8-.4s-.4-.4-1.2-.4v-.3Z"/>
        <path class="st9" d="M384.6,311.5c-.7,0-1.7,0-2.7-.4-1.4-.4-3.4-1.3-5.9-6.7-4.2-9.1-15-33.9-16-36.2-.8-1.9-1.1-2.2-1.5-2.2s-.7.4-1.5,2.3l-15.6,37.3c-1.2,3-2.6,5.3-5.8,5.7-.5,0-1.5.1-2,.1s-.6.1-.6.4.4.5,1.3.5c3.2,0,7-.2,7.8-.2s3.7.2,5.4.2,1-.1,1-.5-.2-.4-.7-.4h-.7c-1.2,0-2.6-.5-2.6-1.7s.3-2.5,1-4l4.1-10.6c.1-.3,9.6-.1,9.9-.1l.9-2.5h-9.4c-.2,0-.3-.1-.2-.4l6.1-16.2c.3-.9.7-.9,1,0l14.2,33.9c.4,1,0,1.5-.4,1.6-.3,0-.5.2-.5.4,0,.4.8.4,2.1.4,4.8.1,9.8.1,10.8.1s1.4-.1,1.4-.5-.3-.4-.7-.4"/>
        <path class="st9" d="M418.9,294.9c0,5.8,0,10.5.3,13,.2,1.7.6,3.1,2.7,3.3,1,.1,2.5.2,3.1.2s.5.2.5.4c0,.3-.3.5-1.1.5-3.8,0-8.1-.2-8.5-.2s-4.7.2-6.7.2-1.1-.1-1.1-.5.1-.4.6-.4,1.4-.1,2.1-.2c1.4-.2,1.7-1.6,2-3.3.3-2.5.3-7.3.3-13v-25.4h-10.2c-4.3.2-5.9.6-7,2-.8,1-1,1.4-1.2,1.9s-.4.6-.7.6-.3-.2-.3-.5c0-.6,1.4-5.8,1.5-6.3.1-.4.4-1.1.7-1.1.5,0,1.2.6,3,.7,2,.2,4.6.3,5.4.3h25.8c2.2,0,3.8-.1,4.9-.3,1-.1,1.6-.3,1.9-.3s.4.4.4.7c0,1.8-.2,6-.2,6.6s-.2.8-.5.8-.5-.2-.5-1v-.7c-.3-1.8-1.9-3.2-8.5-3.3h-8.7c0-.1,0,25.3,0,25.3h0Z"/>
        <path class="st9" d="M497.4,311.5c-.7,0-1.7,0-2.8-.4-1.5-.4-3.4-1.3-5.9-6.7-4.2-9.1-15-33.9-16-36.2-.8-1.9-1.1-2.2-1.5-2.2s-.7.4-1.5,2.3l-15.6,37.3c-1.2,3-2.6,5.3-5.8,5.7-.6,0-1.5.1-2,.1s-.6.1-.6.4.4.5,1.3.5c3.2,0,7-.2,7.8-.2s3.7.2,5.4.2,1-.1,1-.5-.2-.4-.7-.4h-.7c-1.2,0-2.6-.5-2.6-1.7s.3-2.5,1-4l4.1-10.6c.1-.3,9.6-.1,9.9-.1l.9-2.5h-9.4c-.2,0-.3-.1-.2-.4l6.1-16.2c.3-.9.7-.9,1,0l14.2,33.9c.4,1,0,1.5-.4,1.6-.3,0-.5.2-.5.4,0,.4.7.4,2.1.4,4.8.1,9.8.1,10.8.1s1.4-.1,1.4-.5-.3-.4-.7-.4"/>
        <path class="st9" d="M237,284.4c0-9.4,0-11.1-.1-13-.1-2-.7-3-3-3.4-.5-.1-1.7-.2-2.3-.2s-.6-.1-.6-.4.3-.5,1.1-.5h7.7c.5.1,14.2.1,15.8,0,1.3,0,2.4-.2,3-.3.3,0,.6-.3,1-.3s.3.2.3.5-.3,1.1-.6,2.8c0,.6-.2,3.3-.3,4,0,.3-.2.7-.5.7s-.5-.3-.5-.8,0-1.4-.4-2.2c-.5-1-1.2-1.7-4.9-2-1.2-.1-8.7-.2-9.4-.2s-.4.2-.4.6v16.6c0,.4,0,.6.4.6.9,0,9.4,0,10.9-.1,1.7-.1,2.6-.2,3.2-.8.5-.5.8-.8,1-.8s.3.1.3.5-.3,1.4-.5,3.4c-.1,1.2-.3,3.4-.3,3.8s0,1.1-.5,1.1-.5-.2-.5-.5c0-.6,0-1.2-.3-2s-.9-1.9-3.6-2.1c-1.9-.2-8.7-.3-9.8-.3s-.5.2-.5.4v15.6c.2,4.2,1.2,4.9,8,4.9s4.8,0,6.6-.7,2.6-1.9,3.1-4.3c.1-.7.3-.9.6-.9s.4.5.4.9-.5,4.6-.9,5.8c-.5,1.6-1,1.6-3.7,1.6-5.2,0-8.9-.1-11.6-.2-2.7-.1-4.3-.2-5.4-.2h-2.8c-1.4,0-3,.1-4,.1s-1.1-.1-1.1-.5.1-.4.5-.4c.6,0,1.5-.1,2.1-.2,1.4-.2,1.7-1.6,2-3.3.3-2.5.3-7.3.3-13v-10.5l.2.2Z"/>
      </g>
    </g>
  </g>
  <g id="Mirage" class="st11">
    <g>
      <path class="st7" d="M414.9,228.9c-2.9-2.6-6-5.5-9.1-7.7-1.2.3-.9-1.4-1.9-1.4-1.6-.5-3.1-1-4.9-1s-.5.3-.6.6c0,.5.5.7.8.9,1.8,0,3.1,1.5,4.6,2.3,2.8,2.7,5.5,5.6,5.5,9.5s-.6.8-1.1.9h-1c-.6-2.3-2-4.4-3.9-6-.2,0-.3.2-.4.2.3,3.3,2.5,6.5.9,9.9-.3.3-.4.7-.5,1.2-.7.2-1.4.7-2.1.3-.5-.5.1-1,0-1.6.7-.4-.3-.6-.3-1,0-2.6-.9-4.9-2.3-7,.3-1.1-1.3-1.4-1.2-2.5-.3-.5-.8.1-.9.4-3.2,6.3-3.6,13.9-4.1,21.4,0,6.6.9,13.4,0,20-.2,6.6-1.6,12.6-2.5,18.8-.2.9,0,2-.4,2.8-.4,5.7-1.2,11.4-2.1,17.1-.7,1.9-.3,4-1.5,5.6.3,1.6-.9,2.5-1.2,3.9,0-.6.4-1.4-.2-2,.6-.6.5-1.4.2-2.1-.8.1-.6-.8-.5-1.2.4-.2.9-.8.9-1.5-.3-.5-1.6-.4-1.2-1.2.3-.2.7.2.9-.3.2-.8-.7-1.4,0-2.1-.3-.3-.6-.7-.3-1.1,1,0,.5-1.3.6-1.9.5-1.3-1.1-2.4-.4-3.8.4.1.3-.4.4-.6,0-.7-.2-1.4-.4-2,0,.5-1.2.5-.3,1.1.5.4-.4.8-.7,1-.1-.2-.2-.3-.1-.6.3-4.6.6-9.3.9-13.8.6-2,.6-4,.9-6.1.6-.4.9-1.2.6-1.9.8-3.8,1.2-7.9,1.3-11.8.6-.7-.1-1.5.2-2.4.2-.8.4-1.7.1-2.4.7-1-.2-2.2.4-3.3-.6-1.1.1-2.5-.5-3.7.5-4.1-.6-7.8.5-11.5,0-3.5.9-7,1.1-10.4.2-.7,1-1.6.3-2.2h-.2c-1.7,2.1-3.1,4.4-3.7,7.1-.4-.3-1.1.7-.9-.3-.9-1.3,1.6-1.3.5-2.7-.1-.2-.3-.3-.5-.3-.5.5-.7.7-1.2.8-.3-.3,0-.5,0-.9.5-.3-.1-.9.3-1.3.6-1.4,1.1-2.9,1.9-4.2,0-.7.9-1.2.4-1.8-1.8,1.1-3.4,2.6-4.7,4.2-.3-.6-.5.2-.7.3.3-.9.6-2.6.8-4-.8-.8.6-1.6.7-2.5,1.2-1.6,2.6-3.3,3.3-5-1.8.2-3.9,0-5.4,1.2-3.2.5-5.6,3.1-8.9,3.4-.3-.1,0-.5.2-.4,1-.9,2-1.7,2.9-2.6,0-.4.2-.5.6-.5s.2.3.4.3c.6-.7-1.8-2.1.2-2,.3.3.9.9,1.4.7,0-.5-.4-.9-.5-1.3,2.4-1.3,4.9-2.7,7.5-3.4,1,.2,2.7.5,3.7-.2-.4-1.4-2.2-.7-3.1-1.6-1.7-1-3.7-1.4-5.6-1.7-1-.7-2.5-.5-2.6-2,0-.3.3-.5.6-.5,1,.6,2.6.1,3.3,1.1,0-.8.8-.3,1.2-.5,1.9-.3,4,.5,6,.8,3.5.7,6.5,2.3,9.2,4.7,1.1-.1.8,1.4,1.8,1.3,5.4-.3,9.3,3.8,13.2,7.2.7,1.7,3.2,2.4,3,4.6.7.2.7,1.1,1.2,1.7,0,.4-.4.4-.6.6"/>
      <path class="st7" d="M383.5,303.8c-.1-.6,0-1.4,0-2,.2,0,.4.1.4.4-1.1.6,1.2,1.5-.5,1.6"/>
      <path class="st7" d="M383.8,301c-.4.1-.3-.3-.3-.6v-.3c.4,0,.4.6.2.8"/>
      <path class="st7" d="M383.4,306.3c0-.2,0-.8.2-.6-.2.2.2.7-.2.6"/>
      <path class="st7" d="M379.8,230.9c0-.3.2-.4.3-.4,0,.2-.1.3-.3.4"/>
      <path class="st7" d="M360.7,216.8c-.8,0-1.3-.7-1.7-1.3-.8-3.3-4.4-4.6-6.1-7.2-.3,0-.6-.9-.9-.2,1.2,3.1,4.8,5.8,3.2,9.5-.6.4-1.3.6-2,.4-.5-.3-.2-1-.5-1.5-.8-1.9-1.9-3.8-3.3-5.2-.7-.1-.4.8-.4,1.2,1,2.3.5,5.2.7,7.8-.1.5-.1,1.2-.7,1.2-.6.4.1.6.2.9-.3.6-.4,1.3-.7,1.8-.7-.4,0-1.1-.4-1.7,0-.2.8-.2.3-.5,0-.2-.3-.1-.5-.1-.6.3,0,1.2-.5,1.4-.3-.7.4-1.4-.3-2,.4-2.3-.9-4.5-1.2-6.7-.8-1.9-1.4-3.9-2.4-5.8h-.3c-1,2.4-1.3,5.1-2.1,7.5-2.3-2.2-4.9-4.7-7.6-6.4,0-1.2,1.2-2,.8-3.3-.9.4-2.4,1-2.8,2.1-1.6.7-2.1-1.1-3.9-.8-.5-.3-.9,0-.8-.4,1-.8,1.7-2.7,2.8-3.4,0-.4.8-1,.2-1.5-2.5,0-4.2,2-6.6,2,.3-.3,1.2-1,.2-1-.3.3-.9,0-1.3,0-.6-1.6,1.1-2.1,1.3-3.4,3.6-2.7,8.2-3.9,12.9-3.3,1.3.2,3,.4,4.4.6,4.7-2.7,11.4-3.5,17.1-2,.9.8,3,.8,2.5,2.5-1.2.3-2.1-.6-3.5-.5-1.1.4-2.7,0-3.8.2-1.6.9-3.6.8-5.1,1.5.2,1.3,1.8,1.1,2.7,1.7,4.1,3.4,7.5,7.8,10.3,12,0,1.3.4,2.8-.2,4"/>
      <path class="st7" d="M339,283.9c-.3,3-.3,6.1-1.6,8.8-.5.5-.4-.4-.5-.7-.2-.5.3-.4.4-.7-.3-1-.5-2.1-.6-3.2,0-.2.4-.4.3-.8-.7-.7.9-1.6-.2-2.4-.2-.6-.8-.3-.9,0-.3,1.7-.5.1-.4-.6,0-.4.3.2.5,0,.5-.9.7-1.9,1.1-2.9-.1-.3-.3-.6-.6-.6-.3.1-.2.5,0,.7-.2.1-.6-.3-.7,0,.4.4.2.8,0,1.3,0,0-.2.2-.3,0,0-5.9-.8-11.6-1.1-17.5-.7-2.5-1.3-5.1-1.4-7.8-.4-11.1,0-21.3,1.4-31.8.3-.7.4-1.6.7-2.4h.4c.5.8.2,2.5,1.5,2.3.4-.4.9,0,1.3-.4.2-2.5-1-4.6-2.5-6.4,0-1.1.3-2,.5-3.1,0,0,.1-.1.2-.2,1.3.9,2.7,2,3.9,3.1v.6c-.6,2.7-.7,5.4-1.6,7.9-.6.6-2.3.7-2,2.2-.8.3-.9,1.2-.7,1.9.6.6,1.9-.5,1.9.5-.2.1-.2.4-.4.5.2.1.2.2.4.4-.2,5,0,11.1-.9,16.9.8,4.3-.2,9.2.9,13.4-1.1,3.3,1.5,5.7,1,9.1.2,1.7,0,3.6.5,5.2-.8,2.1.3,4.5-.7,6.4"/>
      <path class="st7" d="M335.7,291.5c-.3-.8,0-1.7,0-2.5.5.6.1,1.5.3,2.3,0,0-.1.2-.2.2"/>
      <path class="st7" d="M334,217c-.8-.6-1.6-1.4-2.4-1.9.2-.7,0-1.3.5-2.1.9-.2,1.9.3,2.3,1.1.1.5.9.4,1.2.9-.4.8-1,1.3-1.6,2"/>
      <path class="st7" d="M317.9,229c-.6-.5-2-.6-2.5-.9,0-.2,0-.5.2-.8.2-.9.6-1.8,1.2-2.6.6.4,1.2.7,1.7,1.2-.5,1,.2,2.6-.7,3.1"/>
      <path class="st7" d="M277.1,243.3c.1-.2.3,0,.5.1,0,0-.4,0-.5-.1"/>
      <path class="st7" d="M310.7,223.1c-.2.4-.5.8-.6,1.2-.2.2-.5.1-.7.1-.1-.5.5-.9.6-1.4,0-.2-.2-.5-.6-.3-1,.6-1.4-.8-2-1.2.9-1.4,2.4-.9,3.3-1.9.3-.4.2-1,0-1.3.8-.7.9-1.8,1.4-2.5-.5-.4-1.5-.3-2.2-.2-3.9.8-7.7,1.8-11.6,2.7-1.9-1.3-3.5-3.5-5.8-4.1-.8-.2-1.4-1-2.3-1.2-3.7-1.1-7.5-2-11.4-2.9-1.4.1-3.3-.5-4.6.1-.4,2.5-3.7.9-5.3,2-.5,0-.7.5-.5.9-.7,1-.8,2.4-1.8,3.2-.7.1-1.6.6-1.8,1.4.2.2.5.3.8.3,1.4-.5,2.9-1.1,4.5-.8.8-.2,1.5-.2,2.2-.4,2-.2,4.2.6,6.5.7.5,0,.9.8,1.5.3,1.1.3,2.4.2,3.3,1.1.1.4-.4.5-.6.8-2.9.7-5.5,2.3-8.2,3.4-3,2.6-6.3,4.9-9,7.5.2.2.4.2.7.2.3-1.2,1.4.3,1.6-1,.4-.3,1-.4,1.4.1.1.7-.7.3-1,.5.3.9-1,.8-1,1.5-.5,0-.5.7-.9,1-.3,1.2-1.6,1.7-2.2,2.7,0,.1.2.2.4.2,1.7-1.3,3.9-1.4,5.5-2.8,2.1-.8,4.1-1.9,6.1-3.1,1.3-.5,2.6-1.1,4-1.6,2.3-.8,4.4-2.5,6.8-3.1.2.2.2.4,0,.5-2.6,2.1-5,4.8-6.7,7.4,0,.5,0,1-.2,1.4-.1.1-.3.1-.5.2-.2,1.1-.8,2-1.3,3,.2,1.7-1.5,2.8-1.1,4.5.3,0,.5-.1.9,0,.5.5.6,1.2.8,1.8-.3.5-.9,1-1.4,1.3s-1.1-.4-1.3.3c1,.4,2.1.1,2.8-.5,3.2-4.2,5.6-8.8,9.3-12.8,1.8-2.4,4.2-3.6,6.6-5,.5.2-.1.5,0,.9-3.1,3.5-4,7.7-3.9,12.4,1,6,1.7,12.1,2.6,18v6.1c.6,1.6-.1,3.1.4,4.7,0,5.9.5,11.9.2,18.2.1,1.4-.1,3.4,0,4.8-.4,1.1.6,1.8,0,2.7.2,5.1.2,10.3,1.6,15,.2.8.7.3,1.2,0,.2.3,0,1,.5,1,.4.2.7-.2.9-.5.3-2.5,1.8-4.5,2.4-6.8-.6-6.4-.3-13.1-.3-19.6-.6-8.9-.8-18.1-1.5-27.1-.7-.5-.3-1.5-.3-2.2-.4-.4-.4-1-.6-1.4-.2-6.3-3.8-13-.4-19.2.2-.2.6-.2.7,0,1.9,4.5,2.1,9.8,2.7,14.9,0,.5.5,1,.2,1.6.3.7,1.2.5,1.8.8.8-.6.9-1.5,1.7-2.2.4-1.9,1.7-3.9.9-5.8.3-5.5-2.6-10-3.1-15.4,0-.2.3-.4.6-.3,2.6,2.3,6,4.6,7.1,7.9,1.4,2.7.4,6.2,2.6,8.6.5.4,1.3.2,1.8,0,.3-1.9,0-4,.3-5.8-.1-.2-.4-.2-.4-.4.9-3.1-2.2-5.1-3.1-7.6-.2-.1-.3-.1-.4-.3-.1-1.2-1.6-1.3-1.6-2.5,1,.1,2.2,0,3.3.2.4,0,.7-.5.7.2.2,0,.5.1.9.2.4,0,.7-.1.8-.6.2-.6.1-1.3-.4-1.6-.7,0-1,.8-1.3,1.2-.3,0-.2-.7-.3-1,.6-.6.5-1.6.8-2.4-.8-.9-2,0-3-.5"/>
      <path class="st7" d="M313.1,294.8c.3,0,.4.3.4.6-.1.5-.3.8.2,1.2-1.3,2.1-.4-1-.6-1.7"/>
      <path class="st7" d="M313.1,299.8c-.4-.4-.2-1.4,0-1.9.3.5.4,1.3,0,1.9"/>
      <path class="st7" d="M300.9,214.3c0-.4.3-.8.7-.8-.4.2,0,1.3-.7.8"/>
      <path class="st7" d="M312.2,215.8c-.5.7-.6,1.8-1.4,2.5.2.3.3.9,0,1.3,0,1.1-.2,2.5-.7,3.4-.1.5-.7.9-.6,1.4.2,0,.5,0,.7-.1.2-.4.4-.8.6-1.2,1.1-1.7,2.9-3.2,4.5-4.4h.4c.5.6-.5,1.1-.4,1.9-.7.9-1.1,2-1.5,3.1-.3.8-.2,1.8-.8,2.4.1.3,0,1,.3,1,.3-.5.6-1.3,1.3-1.2.5.3.6,1,.4,1.6,0,.5-.5.7-.8.6.1.5-.1,1.3.3,1.8.2,0,.4,0,.5-.1.2-.5.3-1.1.5-1.6,0-.2,0-.5.2-.8.2-.9.6-1.8,1.2-2.6.5-.9,1.1-1.7,1.8-2.5h.4c.5.9-.3,1.7-.5,2.5v1.2c-.5,1,.2,2.6-.7,3.1-.3,1.9-.4,3.7-.4,5.7-1,3.9-.1,7.8-.5,11.7.4.8,0,2,.1,2.9.7,1-.2,2.2.3,3.4,0,.3-.5.6-.2,1-.4,1.8-.1,3.1-.5,4.8,0,3.9-.6,7.5-1.2,11.3.3.7,0,1.5-.6,1.9-.1,1.9-.1,4.3-.9,6.2-.3,5.1-.8,10.9-.9,16.4h.2c.5-.9-.4-2.2.8-2.8,0-.3-.5-.5-.4-.8.5,0,.1-.5.5-.7.2.7.7,1.5.6,2.3-.5.4-.7.8-.6,1.6.7,1.3.9,3,.4,4.4-.9.2,0,1,0,1.6-.7.6.2,1,0,1.7,0,.6-.7.2-1,.4-.2.9.9.6,1.2,1.2.2.5-.4.9-.6,1.3-.7,0-.3.8-.4,1.3.3,0,.5,0,.7.3.4.8-.2,1.4-.3,2.1.7.4,0,1.3.2,1.8.2-1.2,1.1-2.1,1.1-3.4s1.1-1.8.6-2.9c1.2-4.2,1.6-8.7,2.2-13.2,0-3.4.7-6.7,1-10.1,1.1-6.2,2.3-12.3,2.5-18.9,1.3-9.3-1.2-18.3.5-27.3.8-4.9,1.3-10,3.8-14.1.2-.1.6-.2.7.2-.1,1.1,1.3,1.3,1,2.4,1.5,2.1,2.2,4.5,2.3,7.2,1.1.6-.1,1.3,0,2,.2.5.8.6,1.3.8.2-.7,1.3-.2,1.1-1.2,1.2-1.5,1-3.9.8-5.8-1-1.2-.4-3-1.2-4.2-.1-.3,0-.9.4-.7,1.1.9,2,2.1,2.7,3.3h.4c.5.8.2,2.5,1.5,2.3.4-.4.9,0,1.3-.4.2-2.5-1-4.6-2.5-6.4-.6-.7-1.2-1.5-1.9-2.2h0c-.8-.6-1.6-1.4-2.4-1.9-.7-.5-1.4-.9-2.1-1.2-.5-.5-1.3.3-1.7-.5-.2-.3-.1-.9.3-1.1.9,0,1.9,0,3,.2.3.3.7.5,1.1.6.9-.2,1.9.3,2.3,1.1.1.5.9.4,1.2.9.3.2.7.6,1,.9,1.3.9,2.7,2,3.9,3.1,1.1,1,2.3,2.3,3.4,3.3.2,0,.2.2.5.1.7-.9-.5-1.5-.6-2.3-.5,0-.4-.6-.4-.9-.4-1.2-1.5-2-2.3-3-2.3-2.2-4.9-4.7-7.6-6.4-.7-.4-1.2-1-2-1.3-1.6.7-2.1-1.1-3.9-.8-.5-.3-.9,0-.8-.4-.2-.4-.5-.6-1.1-.5-3.8-3.6-8.7-4.7-13.7-5.4-.8.5-1.3,0-2.2,0,0,.3-.4.7-.5.6,0-.3,0-.5-.3-.7-1.3.4-2.1-1-3.2-.4-.6,1.8,1.8,1.6,2.6,2.4,1.9.1,3.8.9,5.5,1.6.8,1,2.5.2,3,1.6-.1.6-.9.3-1.3.5-3.6-.8-6.4,1.3-9.3,2.7-1.4.3.4,1.2-.2,1.9-.2,0-.4-.2-.6-.5-.4.1-.4-.5-.7-.6-1.4.3.4,1.3.2,2-.3.4-.6-.3-.9-.2-.3,0,0,.4-.2.6-.9.8-1.5,1.3-2.4,2.2-.1.5-1.3.3-.7.8,3.1-.6,5.5-2.9,8.6-3.4,1.5-1.2,3.5-.9,5.3-1.3,0,0,.1.1.2.2-.7,1.5-1.8,2.8-2.8,4.1"/>
      <path class="st7" d="M339,227.5c-.6.6-2.3.7-2,2.2-.8.3-.9,1.2-.7,1.9.6.6,1.9-.5,1.9.5-.2.1-.2.4-.4.5.2.1.2.2.4.4,1.2-.3,2.1-1.3,3.3-1.7.8-.2,1.8-.7,2.6-.4,0,.9-.6,1.8-1.5,2.3-.2,1.2-2,1.6-1.8,2.7-.7.5.4,1-.1,1.6-.1,1.7-1.7,2.3-2.6,3.5,2.7-.7,4.6-3,7-4.4.1,0,.3-.1.4,0,.5-1.1,1.7-1.5,2.7-1.9.5.7-.2,1.5-.5,2.1-.9,2.9-2.5,5.6-3.1,8.5.3-.1.6-.5.9-.8.2.3.9,0,.8.6,0,.2-.3.2-.4,0-.9,1.1-.6,3.1-.6,4.4.1,0,.2,0,.3-.2,0-1.1,1.1-1.7,1-2.8,1-1.1,1.5-2.6,2.7-3.6.3-.3.3-1,.8-1.1.1,0,.1.2.2.3-.6,4.1-1.2,8.2-2.3,12-1.6,12.4-2.8,24.4-1.1,37,.7.6.2,1.6.6,2.3.4,5.9.8,11.6,1,17.4h.2c0-.3.5-.9,0-1.1,0-.1,0-.3.2-.4.8.6,0-.2.7-.6.3,0,.5.5.6.8-.6.8-.7,1.8-1.2,2.7-.7-.5-.4.6-.5.8.5,0,.4-.7.9-.8.5.3.5.9.8,1.4-.2.4-1,1.2-.2,1.6-.7.7,0,1.3-.2,2.2-.1.7,1,1.4,0,2,0,.4,0,.7.2,1,.5.1.4-.5.7-.6.5-2.6.8-5.2,1.1-7.9.5-1.6.4-3,.3-4.7.7-2.2-.4-4.4,0-6.7q0-.2-.1-.3c.5-3.3-2.1-5.7-.9-9-1.1-4.1.1-9.2-.8-13.4,1.3-6.1.6-13.1,1.5-19.4,1.8-7.2,2.6-14.8,5-21.8.2,0,.4,0,.5.2,1.4,4,3.1,7.9,3.2,12.3.6.6.2,1.3.3,2,.6,0,0-1,.6-1.4.2,0,.3,0,.4.1.5.3,0,.5-.2.5.2.6-.3,1.3.3,1.7.2-.7,1.1-1.6.4-2.2,0-.2,0-.3.2-.4.7,0,.6-.8.7-1.3-.2-2.8.2-5.8-.7-8.4,0-.3,0-.7.4-.6.3.2.6.5.6.8,1.6,1.3,1.9,3.1,2.8,4.7.3.3-.1,1,.3,1.3.7.1,1.6.2,2-.4,1.4-3.3-1.3-5.9-2.8-8.5,0-.4-.6-.8-.2-1.3,1.8,1,3,3.4,4.8,4.6,1.5,1.5,1.5,3.7,3.5,4.7.9-1.1.3-2.8.4-4.1-2.7-4.3-6-8.8-10.1-12.1-.8-.7-2.5-.3-2.6-1.7.8-.6,1.9-.6,2.8-.8,1.9-.9,4.1-.8,6.3-.9,1.1,0,2.2.6,3.3.7.6-2-2-2.1-3-3-5.6-1-11.7-.6-16.4,2.2-1.6-.2-3.1-.4-4.7-.6-4.1-.5-7.8.4-11,2.2"/>
      <path class="st3" d="M324.5,340.9c-.4,1.2-.7,3-.3,4.3,1.2,1.2,2.3-1.1,3.5-1.4.6-.8,1.3-1.2,1.9-2-.3-1.3-.1-2.7.7-3.7.7-.6,1.8-1.1,2.5-.1,1.1.6.1,2.9,1.5,2.6,3.4-1.2,8.2-4.4,11.4-.7.6,1.1-.5,1.8-1.3,2.4-1.3.4-2.4-.4-3.5-.7-2.4.8-4.8,1.6-6.9,3.2,1.4,1.8.3,4.1-.7,5.7-1.2.5-2.2-.5-2.6-1.5-.1-.9-.6-1.7-.8-2.6-2.1,1.9-4,3.7-7.1,3.3-1.6-1.6-3.2-3.4-3.1-5.9.2-2.2.2-4.9,2.2-5.9.9,0,1.7.2,2.1,1,0,0,.8.8.5,2.1"/>
      <path class="st3" d="M322.7,329.8c-1.1,0-2.1,0-2.7-1.1-.4-.8.2-1.4.4-2,1.2-.4,2.4-.4,3.4.4,0,0,.2.9.1,1.6-.4.4-.6,1.1-1.2,1.1"/>
      <path class="st3" d="M317.6,349.6c-2.3.6-3.9-.8-5.7-1.6-2.5-2.4-2.6-6-5-8.5-2.3.3-3.8,2.1-5.8,2.9-4.4,2.9-9,7.5-14.6,4.9-3.5-2.1-3.2-6.1-5.3-9-4,.3-7.4,3.1-10.9,5-3.8,3.9-8.8,5.8-13.6,7.9-2,.5-3.5-.6-4.6-2.1,0-3.8,1.5-7,2.8-10.3,2.7-5.6,5.2-11.3,7.7-17.1.9-1.8.8-4.6-.3-6.2-5.4-2.3-10.7.2-16.3.2-5.5,2.1-11.3,3.5-16.7,6.2-2.9,1.9-6.2,1.9-9.2,3.8-3.6,2.3-7.2,5.2-11.2,6.6-2.5,1.2-3.9,3.6-6.5,5-4.4,2.3-8.5,5.3-13.2,6.8-1.9,0-4.1,0-4.8-2.1.5-2.4,3.4-2.7,5.2-3.3.7-.4,1.7,0,2.3-.4,20.4-13.7,41.2-26,66.2-28,3.6.3,7.3,1.1,9,4.5,2,8.4-3.8,15.2-6.4,22.6-1.8,2.7-3.4,5.8-3.8,9,.8.6,1.5-.4,2.3-.6,7.8-4.2,14.3-11.8,23.7-11.7,4.2,1,3,5.8,4.2,8.8,1,.9,2.5,1.6,3.8.9,5.1-2.4,9.5-6.7,14.8-8.6,2-.4,4.1,0,4.9,2,1.8,3.2,2.2,8.9,7.2,8.8,1.2.9,1.2,3.6-.5,3.8"/>
      <path class="st3" d="M348.9,345.5c-.8-.4-.7-1.4-.3-2,1.1-1.1,2.3-1.8,3.6-2.2,0,1.9-1.7,3.5-3.3,4.2M358.3,348.5c-1.2.7-2.9.7-4.4.5-.4-.5-1.2-1.2-1.7-1.8-1.5,2-3.8,3.2-6,2.6-1.7-.8-1.8-2.8-2.1-4.4.7-3.5,4.3-6.6,7.5-7.6,1.5,0,3.3.3,3.8,2,1.2,1.9-2.7,6.1,1.8,5.5.9-.1,1.8-1,2.8-.3,1,1.5-.6,2.8-1.7,3.5"/>
      <path class="st3" d="M366.9,344.7c-.6.2-2.9.3-1.7-1.1.8-1.4,1.8-2.4,3.3-2.7.3.1.7,0,.9.4-.9,1.1-.9,2.9-2.6,3.4M364.6,377.2c-4.2,1.8-10,3.5-14.3.9-3-2.6-3.8-6.8-4.5-10.6.3-2.9,4.6-6.6,7.4-8.4,2.5-.3,4.5-2.5,6.8-3.6,3.6-1.3,6.9-3.1,10.8-3.7.6,6,1.4,11.8,0,17.8-.5,1.4-1.5,2.7-2.1,4.3-1.4,1.2-2.5,2.4-4,3.4M390.1,342.9c-.4-1.2,1-2,1.5-3,1.2-.3,2,.5,2.6,1.1-.4.7,1.6,1.6-.2,1.5-1.4,0-2.5.6-3.9.4M404.7,348.9c-2.1-.7-3.6.6-5.6.7-4,.8-9,1-11.9-2.3-4.3,1.1-8.7,2-13.1,3,.3,7.8,2.5,17.5-2.3,24.1-3.5,6.4-10.2,8.6-17.1,8.5-4.1-.5-8.5-2.2-10.3-6.5-1.9-3.7-3.3-8.7-1.3-12.7,5.3-8.2,14.5-10.8,22.5-14.2,1.5-.3,3-.8,4.4-1.6-.1-.4-.4-.9-.3-1.4-1.7.9-3.8,2.9-6.3,1.8-1.2-1-2.4-2.3-2.2-3.8.2-3.2,2.5-5.4,5.1-6.8,1.4-.5,3.1-.7,4.4.2.6,1.8,2.3-.3,3.3,1,.5,2.8-2.3,4.9-.5,7.6,0,.2.3.3.4.5,4-1.1,8.2-1.5,12-3,0-2.1,1.1-4.1,2.3-5.8,1.4-.9,2.9-2.1,4.8-1.3,1.4.4,3.4,1.1,3.5,2.9,1.2.8,3.2,1.4,3.2,3.1s-.1.4-.2.6c-2.6,1.3-5.3,2.1-8.1,2.8,4.3,1.2,8.4-.3,12.4-1.1.7.3,1.5.4,2,1.2.3,1.1-.2,2.2-1.3,2.4"/>
      <path class="st7" d="M380.5,355v-1.1h.7c.4,0,.8,0,.8.5s-.4.6-.9.6h-.7.1ZM380.5,355.5h.6l1,1.6h.6l-1-1.6c.5,0,.9-.3.9-1s-.4-1-1.3-1h-1.4v3.6h.5v-1.6h0ZM381.1,358.4c1.7,0,3.2-1.3,3.2-3.1s-1.5-3.1-3.2-3.1-3.2,1.3-3.2,3.1,1.5,3.1,3.2,3.1M378.6,355.3c0-1.5,1.1-2.6,2.5-2.6s2.5,1.1,2.5,2.6-1.1,2.6-2.5,2.6-2.5-1.1-2.5-2.6"/>
      <polygon class="st7" points="312.6 364 311.3 364 315.5 374.9 319.7 364 318.4 364 315.5 371.9 312.6 364"/>
      <polygon class="st7" points="234.6 364 233.5 364 233.5 374.3 237.4 374.3 237.4 373.2 234.6 373.2 234.6 364"/>
      <path class="st3" d="M257.1,370.3h-3.5l1.8-4.1,1.7,4.1ZM257.6,371.4l1.2,2.9h1.3l-4.6-10.8-4.7,10.8h1.3l1.2-2.9h4.4-.1Z"/>
      <path class="st7" d="M279.9,365.4c-.6-1-1.5-1.6-2.7-1.6s-2.9,1-2.9,2.6,1,2.1,2.2,2.6l.6.3c.9.4,1.9.8,1.9,2s-1,2-2.1,2-1.9-.8-2.1-1.9l-1.1.3c.3,1.6,1.5,2.7,3.2,2.7s3.2-1.4,3.2-3.2-1.1-2.3-2.5-2.9l-.7-.3c-.7-.3-1.6-.7-1.6-1.6s.8-1.6,1.7-1.6,1.4.4,1.8,1.1l.9-.6h.2Z"/>
      <polygon class="st7" points="333.9 374.3 339.2 374.3 339.2 373.2 335 373.2 335 369.2 339.1 369.2 339.1 368.1 335 368.1 335 365.1 339.2 365.1 339.2 364 333.9 364 333.9 374.3"/>
      <path class="st7" d="M358.2,369.1v1.1h3.1c0,1.9-1.9,3.2-3.7,3.2s-2.2-.6-2.9-1.3-1.2-1.8-1.2-2.9c0-2.3,1.9-4.3,4.2-4.3s2.7.7,3.5,1.9l.8-.8c-1.1-1.4-2.5-2.2-4.3-2.2-3,0-5.4,2.4-5.4,5.3s2.4,5.3,5.3,5.3,2.9-.6,3.8-1.7,1.1-2.2,1.1-3.6h-4.3Z"/>
      <path class="st3" d="M382.7,370.3h-3.5l1.8-4.1,1.7,4.1ZM383.1,371.4l1.2,2.9h1.3l-4.6-10.8-4.7,10.8h1.3l1.2-2.9h4.4,0Z"/>
      <path class="st7" d="M405.4,365.4c-.5-1-1.5-1.6-2.7-1.6s-2.9,1-2.9,2.6,1,2.1,2.2,2.6l.6.3c1,.4,1.9.8,1.9,2s-1,2-2.1,2-1.9-.8-2.1-1.9l-1.1.3c.3,1.6,1.6,2.7,3.2,2.7s3.2-1.4,3.2-3.2-1.1-2.3-2.5-2.9l-.7-.3c-.7-.3-1.6-.7-1.6-1.6s.8-1.6,1.7-1.6,1.4.4,1.8,1.1l.9-.6h.2Z"/>
    </g>
  </g>
  <g id="subway">
    <g>
      <path id="path3408" class="st5" d="M122.4,328c-.2-.3-.5-.5-.6-.5s-.7-.5-1.3-1c-.6-.6-1.4-1.2-1.8-1.5s-1-.8-1.3-1.1-1-.9-1.4-1.2-1.3-1-2-1.6c-.6-.5-1.3-1.1-1.5-1.3s-.8-.7-1.4-1.1c-.5-.5-1.1-1-1.3-1.1,0-.2-.3-.3-.5-.3s-.9-.6-1.6-1.3-1.5-1.3-1.6-1.3-.7-.5-1.3-1.1l-1.2-1.1,1-1c.6-.5,1.3-1.2,1.7-1.4.4-.3.8-.6,1.1-.8s1.2-1.1,2.3-1.9c1.1-.8,2.2-1.8,2.5-2.1s.6-.6.7-.6c.2,0,2-1.5,2.1-1.7,0,0,.4-.4.9-.7s1.3-1,1.9-1.5,1.3-1.1,1.6-1.3.6-.4.7-.5c.2-.4,2.2-2,2.4-2s.2,0,.2-.2,0-.2.3-.2.3.6.3,4v4h3.4c7.7.4,23.3.5,23.4.3,0-.1.3-.2.4-.2s.5-.3.8-.7c.6-.9.6-2.1,0-3.2s-1.3-1.5-8.8-5.1c-1.4-.7-2.9-1.4-3.4-1.6s-1.6-.8-2.5-1.3-1.8-1-2.1-1.1c-.5-.2-2.7-1.5-4.5-2.8-1.3-.9-4.3-3.7-4.8-4.4,0-.2-.4-.6-.7-1.1-.9-1.3-1.6-2.8-1.8-3.7,0-.5-.3-1.5-.5-2.3-.5-2.4-.3-8,.3-8.6,0,0,.2-.4.2-.7,0-.8,2-4.5,2.4-4.5s.2-.1.2-.3c0-.4,2.5-2.8,3.9-3.8.5-.3,1.7-1,2.8-1.5,4.7-2.3,5.5-2.4,19.7-2.3,6.1,0,12.2.1,13.4.2h2.2v15.5h-24.8c-.3,0-.8.3-1.2.6q-.6.5-.6,1.8c0,1.3,0,1.4.5,1.9.3.3.9.8,1.3,1s1.6.9,2.7,1.4c1,.6,2.1,1.1,2.4,1.2.3,0,.8.3,1.1.5s.6.3.7.3,1.7.7,4.7,2.2c.6.3,1.2.5,1.3.5s.3,0,.3.2.1.2.3.2.3,0,.3.1c0,.2,1.5,1,1.8,1s.7.3,1.2.6,1,.6,1.1.6.4.2.8.5c.3.3.9.7,1.3.8.4.2.9.5,1.2.8,1.2,1.1,1.5,1.3,1.9,1.5s.8.7,1.3,1.3c.5.6,1,1.2,1.1,1.3.3.3,1.2,1.7,1.2,1.9s.2.7.5,1.3c1.1,2.7,1.5,7.2.9,10.6-.3,1.7-1.2,4.5-1.8,5.6s-2.6,3.6-3.4,4.2c-.4.3-1,.8-1.3,1.1-.3.3-.7.6-.9.6s-1.5.7-1.7.9c0,0-.6.3-1.2.5s-1.2.5-1.3.5c-.4.3-3.3.9-5.6,1.1-2.9.3-8.6.5-8.6.2s-3-.2-9.8-.2h-11.4v4.1c0,4.5,0,4.7-.9,3.6h0l-.3.3ZM195.1,321.8c-2.2-.3-4.5-.9-6.9-1.7-2.2-.8-3-1.1-5.1-2.5-.4-.3-.8-.5-.9-.5-.6,0-5.4-5-5.4-5.7s-.2-.6-.5-1.1c-.5-.9-1.1-2.3-1.6-4-.3-.8-.3-3.7-.3-25.8v-24.9h19v46l.4.8c.7,1.3,1.1,1.7,2.6,2.5l1.4.7h2.6c2.6,0,4.2-.3,4.8-1s.3-.2.5-.2c.3,0,1.5-1.4,1.8-1.9.1-.3.2-9.4.2-23.6v-23.2h19.3v48.5l-.5,1.6c-.3.9-.6,2-.7,2.4-.3,1-1.5,3.3-2.1,3.8-.2.2-.5.6-.7,1-.4.7-3.4,3.6-4.3,4-.4.2-.8.5-1.1.7-.5.5-3.5,2-3.9,2s-.6.1-.9.3c-1.7.8-4.1,1.4-7.3,1.9-2.2.3-8.1.3-10.5,0h0ZM310.9,321.7c-2.3-.2-4.2-.7-6.8-1.5-3.4-1.1-5.5-2.4-7.8-4.5-.8-.7-1.4-1.4-1.4-1.4,0,0-.4-.5-.8-1.1-.9-1.2-1.8-2.7-1.8-3.1s0-.4-.2-.5c-.2-.2-.9-2.3-1.3-4-.3-1.2-.3-3.7-.4-25.6v-24.3h19.2v23c0,20.8,0,23.1.3,23.9.4,1.3,1,1.8,2.6,2.3,2.7.8,6,.1,7.1-1.4l.5-.8v-47h19.1v23c0,25.4,0,24.1,1.2,25.2.9.9,2.1,1.3,4.2,1.3s2.1-.1,2.8-.4c1.2-.4,1.6-.7,2.1-1.8.3-.7.3-1.4.3-24v-23.3h19.3v23.9c0,20.8,0,24.1-.3,25.4-.3,1.9-1,3.9-1.7,5.2-.3.6-.5,1.1-.5,1.3s-.1.4-.2.5-.5.6-.8,1c-1.1,1.4-2.5,3-3.5,3.7-1.7,1.3-4.1,2.8-5,3-.3,0-1.2.4-1.9.6-3.6,1.3-8.6,1.8-12.5,1.4-2.1-.2-5.7-1.1-6.8-1.5-.3-.2-1-.4-1.5-.6-.9-.3-3.1-1.5-3.7-2.1s-1.1-.6-1.9-.2c-.4.2-.7.5-.7.5,0,.2-2.9,1.8-3.2,1.8s-1.2.3-2,.7c-2.4,1.1-8.2,1.7-12.2,1.3h.2ZM375.1,320.6v-24.6c0-22.3,0-24.5.4-25.7.3-1.2,1-3.4,1.4-4.1,0-.2.4-.7.6-1.3.2-.5.6-1.1.7-1.2.6-.6,1.5-1.8,1.5-2s.3-.5.8-.8,1.2-1,1.7-1.5,1-.8,1.1-.8.7-.3,1.3-.7c2.3-1.5,6.3-3,10.5-3.8,2.3-.4,8.1-.6,10.6-.3,3.2.4,6.4,1.1,8,1.9.4.2.9.3,1.1.3.4,0,2.7,1.2,3.4,1.7.3.2.9.6,1.2.8.8.4,3.8,3.1,4.1,3.7.1.3.5.8.9,1.2,1.1,1.2,2.4,4.1,3,7,.3,1.4.3,2.8.3,25.9v24.4h-19.1v-18.8h-14.1v18.8h-9.5c-7.7,0-9.5,0-9.6-.1h-.3ZM408.5,280.6c0-5.9,0-6.3-.4-7.3-.5-1.3-1-1.8-2.5-2.4-2.5-1.1-6.1-1.1-8.5,0-1.4.7-1.7,1-2.3,2.2l-.5,1v12.8h14.1v-6.3h0ZM449,311.4v-9.4l-1.6-.5c-.9-.3-2.4-.9-3.2-1.3-.9-.4-1.7-.8-1.8-.8-.3,0-2.1-1.3-3.7-2.6-1.3-1.1-2.6-2.6-3.7-4.2-.3-.5-.6-.9-.7-1.1-.2-.3-1.3-3.3-1.6-4.9-.2-1-.3-3.5-.3-16.1v-14.9h18.9v12.9c0,13.2,0,14.7.7,15.5s2.6,1.9,3.7,2.2c1.3.3,4.3.4,5.5,0,1.9-.4,3.6-1.6,4.3-3.2.3-.7.3-1.3.3-6.7s0-6.8.2-7.7c.2-2,.9-4.8,1.5-6.1.4-.9,2.8-4,3-4s.6-.3,1.1-.8c1.2-.9,2.7-1.6,3.8-1.8.5,0,1.4-.3,2.1-.4,1.1-.2,2.8-.3,9.2-.3h7.9v-4.1c0-4,0-4.6.5-3.8.1.2.5.5.9.8s1.2.9,1.8,1.5c.6.6,1.4,1.2,1.7,1.3s.6.4.7.5c.3.4,2.1,2,2.4,2s.2,0,.2.2,1.1,1.1,2.4,2.1c1.3,1.1,2.6,2.2,2.8,2.4s.4.4.6.4.8.5,1.4,1.1,1.4,1.2,1.6,1.4c.8.5,2.4,2,2.4,2.3s-1.6,1.8-2.7,2.6c-.4.3-.9.7-1.1.9s-1.4,1.2-2.6,2.2-2.3,1.9-2.4,2-.4.3-.7.5c-.3.2-1,.8-1.6,1.3s-1.2,1-1.3,1-.7.5-1.3,1-1.4,1.2-1.7,1.4-1.2.9-1.9,1.5-1.6,1.3-1.8,1.5l-.5.4v-8.2h-4.7c-3.5,0-4.7.2-4.9.3s-.3,1.9-.3,7.2q-.1,8.4-2.2,12.7c-.4.8-.9,1.7-1.2,2-.3.3-1,1.1-1.6,1.8-.6.7-1.2,1.2-1.3,1.2s-.5.3-.9.6c-.8.8-2.1,1.6-2.9,2-.3.1-1.3.6-2.2,1s-2.1.9-2.9,1.2l-1.3.4v18.8h-19.2v-9.4h0s0,0,0,0l.2.2ZM232.8,288.2v-32.5h16.3c17.8,0,19.8,0,22.8,1,1.9.6,4.5,1.9,5.9,2.9,1.1.8,2.4,2.1,3.6,3.5.7.8,2,3.5,2.5,5.3.5,1.4.5,1.8.5,5s0,3.6-.2,3.8c-.1.1-.3.6-.4,1-.3.8-1.3,2.9-1.9,3.6-.2.3-.3.5-.3.6s-2.9,3-3.1,3-1.2.8-1.2.9.3.3.8.4c.4.2.9.5,1.2.7s.8.6,1.1.9c1.6,1.2,3.8,3.9,4.1,5,.1.4.3.8.4.9.3.4,1.1,3.4,1.2,4.7.2,1.7,0,5.3-.3,6.6-.4,1.6-1.5,4.8-2,5.6-.6,1-1.7,2.6-2.2,3-1.6,1.6-2.7,2.5-3.6,3-.5.3-1.3.7-1.7.9-1.5.8-3.2,1.5-3.7,1.5s-.8,0-1.1.2c-2.2.7-3.8.7-21.4.7h-17.3v-32.5h0v.3ZM262.9,306.1c.9-.2,2.1-1,2.3-1.4,0-.1.2-.3.3-.3s.4-.4.7-1c.4-.9.4-1.2.4-3.6v-2.7l-.7-1.1c-.4-.6-1-1.3-1.4-1.6l-.8-.5h-5.9c-3.2-.1-5.9-.2-6-.1s-.1,2.8-.1,6.2v6.1h5.2c3.3,0,5.5,0,6-.2h0v.2ZM262.9,281.1c.9-.5,2.1-2.1,2.3-3.2.6-2.9,0-5.7-1.4-6.9q-1.3-1.1-6.9-1.2h-5.2v11.7h5.2c5,0,5.2-.1,6-.5h0Z"/>
      <path id="path3404" class="st6" d="M309.6,321.5c-2.1-.3-3.7-.7-6-1.5s-2.6-.9-4.2-2c-.6-.4-1.3-.8-1.3-.8,0,0-.8-.6-1.6-1.4-2.4-2.3-3.7-4.3-4.7-7.4-1.2-3.6-1.1-2.6-1.1-28.8v-23.8h9.5c7.4,0,9.5,0,9.5.2v23.2c0,22.1,0,23,.4,23.8.4.9,1,1.6,1.3,1.6s.5.1.8.3c.8.4,2.7.6,4.1.5,2.3-.3,3.8-1.3,4.2-3,.1-.4.2-9.3.2-23.6v-23h9.3c8.3,0,9.4,0,9.5.3,0,.2.1,10.6.1,23.3,0,21.9,0,23,.3,23.7.2.4.5.9.8,1.2,1.3,1.2,4.9,1.6,7,.8,1.4-.5,1.5-.6,2.1-1.6l.5-.8v-23.3l.2-23.3h19v24.3c-.1,22.2-.2,24.4-.4,25.6-.4,1.8-1.1,3.8-1.7,4.7-.3.4-.5.9-.5,1.1,0,.4-1.9,2.9-3.4,4.3-.7.7-1.9,1.6-2.6,2.1s-1.6,1-1.9,1.2-1,.5-1.4.6-1,.3-1.3.5c-.9.4-3,1-4.8,1.3-2.4.5-8.9.5-11.1,0-1.5-.3-3.6-1-4.6-1.4-.3-.1-.7-.2-.9-.3-.4,0-3.8-2-4-2.3,0,0-.3-.2-.5-.3-.5-.3-1,0-2.6,1.1-.5.3-1.1.8-1.5.9-1.3.7-5.2,2-7.5,2.4-1.9.4-6.9.4-9.2,0h0v-.4ZM375.3,296.6c0-26.9,0-25.4,1.3-29.2.8-2.1,1.2-2.9,2.4-4.3.4-.5.7-.9.7-1s.5-.6,1.1-1.2c.6-.5,1.4-1.3,1.8-1.6.3-.3.7-.6.8-.6s.5-.2,1-.5c1-.7,3.6-2,4-2s.6-.1,1-.3c2.1-.9,5.6-1.6,9.3-1.9,4.4-.3,9.3.2,13.2,1.4.9.3,1.9.6,2.4.7,1.1.3,2.9,1.3,4,2,.5.3,1,.6,1.2.7.2,0,.8.5,1.4,1.1s1.2,1.1,1.4,1.2c.2.2.8.8,1.2,1.4s.9,1.3,1.1,1.4c.9.9,2.4,4.8,2.8,7.3.2,1.4.3,4.8.3,25.6v24h-18.9v-18.7h-14.5v18.7h-18.9v-24.1h0ZM408.7,280.7v-6.1l-.5-1.3c-.6-1.5-.8-1.8-2.6-2.6-1.2-.5-1.6-.6-3.4-.7-2.4,0-3.7.1-5.2.8-1.4.6-1.6.9-2.2,2.1l-.5,1v13h14.5v-6.1h0ZM449,311.3v-9.4l-.9-.3c-1.3-.4-3.7-1.4-4.5-1.9-.4-.2-1-.5-1.2-.5s-.6-.3-.8-.4-.8-.7-1.4-1.1c-2.4-1.6-5-4.6-6.1-7-.6-1.3-1.4-3.9-1.6-5.3,0-.6-.2-7.6-.2-15.5v-14.3h18.8v13.5c.2,9.5.3,13.7.4,14.1.2.6,1.3,1.7,2.3,2.4.8.5,3.1,1,4.4,1,2.7,0,5.3-.9,6.3-2.2,1.3-1.6,1.2-1.2,1.4-9.5,0-4.1.2-7.8.2-8.1.7-3,1.6-5,2.9-6.7,1.7-2.1,4.6-3.9,7.2-4.3,3.1-.6,4.1-.6,11.2-.6h7.4v-4.1c0-3.9,0-4.1.3-3.7.2.2.6.6,1.1.9s1.2.9,1.8,1.5,1.2,1,1.3,1,.8.6,1.6,1.3,1.5,1.3,1.6,1.3.4.2.7.5c.3.3,1.4,1.3,2.5,2.1,1.1.9,2.1,1.7,2.3,1.9s.9.7,1.5,1.2,1.3,1.1,1.4,1.3c.2.2.4.4.6.4s.8.5,1.5,1.2l1.3,1.2-1,1c-.5.5-1.3,1.2-1.8,1.5-1,.8-4.5,3.7-5.7,4.7-.5.5-1.1.9-1.1.9l-1.2,1c-.6.5-1.4,1.2-1.7,1.4-.3.2-1.1.9-1.7,1.4-.6.6-1.2,1-1.3,1s-.8.6-1.6,1.3c-.8.7-1.5,1.3-1.6,1.3s-.2,0-.2.2,0,.2-.2.2-.2-1.5-.2-4v-4h-4.2c-4.6,0-5.5,0-5.7.7,0,.2-.1,2.8-.1,5.6,0,5.5-.2,7.9-.7,9.9-.3,1.4-1.5,4.1-2.4,5.4-.7,1.1-3,3.5-4.5,4.6-1.2.9-5.5,3-7.7,3.8l-1.5.5v18.6h-19.1v-9.4h0v.5Z"/>
    </g>
  </g>
</svg>