<svg width="324" height="357" viewBox="0 0 324 357" fill="none" xmlns="http://www.w3.org/2000/svg">
<path d="M166.92 151.154C165.45 152.794 164.17 154.604 162.24 156.924C153.8 163.434 145.57 170.244 136.85 176.354C131.58 180.044 131.69 180.374 136.49 184.784C140.23 188.224 143.24 192.934 145.16 197.664C145.9 199.474 142.67 202.874 141.29 205.564C138.22 211.564 134.04 217.714 136.69 224.624C141.15 236.254 141.89 248.244 142.03 260.414C142.11 267.904 141.97 275.394 142.12 282.874C142.14 283.964 143.22 285.034 143.81 286.104C144.38 285.184 145.27 284.334 145.45 283.344C146.71 276.544 147.55 269.664 149.01 262.914C153.1 244.094 157.78 225.394 161.55 206.514C165.11 188.684 167.84 170.694 170.81 152.754C171.01 151.534 170.2 150.144 169.86 148.834C168.86 149.594 167.72 150.224 166.9 151.134L166.92 151.154Z" fill="white"/>
<path d="M102.62 160.354L101.44 165.354L93.31 237.884L91.99 276.424L101.29 314.974L110.59 322.504L118.13 300.354L125.21 247.634L129.64 215.734L120.78 196.234L129.64 183.834L127.87 171.874L102.62 160.354Z" fill="white"/>
<path d="M311.34 296.964C308.61 285.524 304.85 274.314 301.23 263.104C294.05 240.904 286.64 218.774 279.35 196.604C277.69 191.554 275.07 187.414 269.6 185.844C264.1 184.274 258.53 182.884 253.09 181.124C230.71 173.884 208.39 166.484 186.01 159.264C177.87 156.634 174.57 149.754 170.86 143.064C168.2 138.254 170.53 134.384 172.63 130.294C173.18 129.214 173.36 127.714 173.14 126.504C172.17 121.194 174.35 117.444 178.35 114.174C181.21 111.834 183.47 109.234 181.47 104.754C180.66 102.944 181.86 100.114 182.46 97.8336C183.88 92.4836 188.22 85.8736 186.43 82.1436C183.35 75.7136 183.47 70.1836 184.72 63.9536C184.79 63.5836 184.81 63.1636 184.72 62.8036C181.99 52.7836 180.89 41.9036 176.17 32.9236C165.38 12.3936 147.92 0.673637 124.02 0.0136369C108.5 -0.416363 98.69 9.39364 88.98 19.4036C88.1 20.3136 87.62 21.6636 86.66 22.4536C81.26 26.8836 77.43 32.7536 75.38 39.0236C73.06 46.1136 72.8 53.8836 71.67 61.3536C71.59 61.8936 71.59 62.5336 71.8 63.0236C74.42 69.2436 77.17 75.4136 79.66 81.6836C80.25 83.1736 80.22 85.0036 80.16 86.6636C80.03 89.7936 78.88 93.0936 79.56 95.9936C81.09 102.574 84.25 108.844 85.25 115.464C86.04 120.654 87.8 124.564 91.6 127.924C92.8 128.984 94.17 130.454 94.39 131.904C95.65 140.334 102.45 146.374 102.76 155.774C103.09 165.754 112.43 171.764 120.27 176.904C125.63 180.424 124.6 182.044 120.92 185.704C112.02 194.554 112.71 201.354 119.17 208.674C122.8 212.784 125.02 217.384 122.62 223.704C119.51 231.864 116.92 240.434 115.68 249.054C112.75 269.354 108.63 289.574 109.63 310.294C109.72 312.214 108.35 314.204 107.67 316.154C106.82 314.354 105.53 312.634 105.2 310.754C103.86 303.194 102.75 295.584 101.68 287.974C100.08 276.694 98.06 265.444 97.23 254.114C96.66 246.264 97.89 238.294 98.18 230.374C98.63 218.234 98.72 206.064 99.44 193.944C99.92 185.844 101.28 177.794 102.1 169.714C102.24 168.304 101.67 166.824 101.43 165.374C100.12 165.684 98.54 165.644 97.54 166.374C94.83 168.354 92.66 171.204 89.76 172.744C65.52 185.674 41.14 198.334 16.91 211.274C14.76 212.424 12.14 214.894 11.87 217.024C10.29 229.184 9.07 241.404 8.28 253.644C7.52 265.574 7.42999 277.544 7.04999 289.504C7.02999 290.274 7.14 291.054 7.03 291.814C4.74 307.594 0.81 323.334 0.5 339.144C0.39 344.844 0.22 350.524 0 356.204H323.24C322.4 350.484 321.3 344.774 319.86 339.084C316.37 325.224 314.66 310.914 311.33 296.994L311.34 296.964ZM170.82 152.764C167.85 170.704 165.12 188.694 161.56 206.524C157.79 225.404 153.11 244.104 149.02 262.924C147.55 269.674 146.71 276.554 145.46 283.354C145.28 284.344 144.38 285.194 143.82 286.114C143.23 285.034 142.16 283.964 142.13 282.884C141.98 275.404 142.12 267.914 142.04 260.424C141.91 248.264 141.17 236.264 136.7 224.634C134.05 217.724 138.23 211.574 141.3 205.574C142.68 202.884 145.9 199.484 145.17 197.674C143.25 192.954 140.24 188.234 136.5 184.794C131.7 180.374 131.6 180.054 136.86 176.364C145.58 170.254 153.81 163.444 162.25 156.934C164.18 154.614 165.46 152.804 166.93 151.164C167.75 150.244 168.89 149.614 169.89 148.864C170.23 150.174 171.04 151.564 170.84 152.784L170.82 152.764Z" fill="#ADADAD"/>
</svg>
