<svg width="325" height="399" viewBox="0 0 325 399" fill="none" xmlns="http://www.w3.org/2000/svg">
<path d="M126.77 138.42L120.98 145.29L139.39 208.5L167.18 262.94L182.82 267.57L186.29 241.51L182.82 198.66L175.87 185.34L181.66 169.13L126.77 138.42Z" fill="white"/>
<path d="M215.57 187.84C212.75 177 206.13 167.29 206.3 155.55C206.33 153.26 204.48 152.26 202.33 154.53C199.23 157.81 196.03 161.01 192.74 164.12C190.43 166.3 187.77 168.13 185.59 170.42C185.03 171.01 185.2 173.26 185.86 173.9C191.93 179.72 198.29 185.25 204.32 191.11C206.25 192.99 207.57 195.54 208.95 197.9C209.32 198.53 208.91 199.62 208.85 200.5C208.08 200.25 207.06 200.23 206.57 199.72C202.89 195.82 199.34 191.8 195.7 187.86C194.76 186.84 193.65 185.97 192.62 185.03C191.76 186.49 190.71 187.88 190.09 189.44C189.72 190.39 190.02 191.6 190.02 192.69C190.09 206.51 194.85 219.23 199.44 231.94C206 250.1 210.66 268.62 211.91 287.96C212.41 295.68 213.33 303.38 214.06 312.18C214.42 319.68 214.88 327.17 215.12 334.67C215.29 339.94 215.11 345.23 215.2 350.51C215.21 351.4 215.79 352.27 216.11 353.16C216.89 352.52 217.82 352 218.39 351.22C218.96 350.43 219.34 349.4 219.5 348.42C221.36 336.98 223.54 325.58 224.9 314.08C226.72 298.71 228.51 283.28 229.15 267.83C229.57 257.8 227.8 247.69 227.2 237.61C226.18 220.33 219.86 204.34 215.56 187.83L215.57 187.84Z" fill="white"/>
<path d="M320.01 317.1C318.77 303.66 316.91 290.28 315.77 276.84C314.98 267.56 315.09 258.2 314.57 248.9C313.82 235.5 313.05 222.11 309.2 209.08C306.18 198.86 302.81 190.69 290.46 186.98C267.94 180.22 246.12 171.07 224.15 162.56C219.78 160.86 214.08 158.45 212.37 154.79C207.37 144.07 202.1 132.86 207.48 120.37C209.46 115.77 209.2 109.84 216.21 108.77C217.54 108.57 218.82 105.66 219.46 103.77C220.81 99.76 222.27 95.65 222.67 91.48C223.19 86.03 224.4 79.69 222.27 75.17C219.53 69.37 220.9 64.49 221.27 59.02C221.71 52.43 223.21 45.9 220.89 39.11C217.73 29.89 211.32 23.08 205.18 16.16C197.37 7.37 187.73 2.14 175.36 1.05C164.49 0.0900024 154.07 1.13001 144.92 6.07001C138.65 9.45001 133.85 15.9 129.02 21.52C119.34 32.79 113.98 45.32 117.7 60.83C118.99 66.21 120.27 72.28 116.46 77.88C115.04 79.98 114.16 83.45 114.82 85.78C117.41 94.84 118.21 104.67 125.23 112.08C126.63 113.56 127.63 116.06 127.62 118.09C127.61 124.87 127.02 131.64 126.76 138.42C126.73 139.16 127.24 140.1 127.8 140.64C129.99 142.72 132.09 145.01 134.61 146.61C148 155.11 161.51 163.41 174.95 171.83C175.76 172.34 176.27 173.32 176.93 174.08C176.24 174.41 175.58 174.81 174.87 175.06C168.36 177.34 166.57 184.24 169.28 189.39C171.09 192.83 173.12 196.17 174.65 199.73C175.29 201.22 175.11 203.18 174.94 204.89C173.41 220.95 171.92 236.98 176.49 252.87C176.94 254.44 176.2 256.36 176.02 258.12C174.92 256.9 173.42 255.85 172.78 254.42C164.96 236.9 157.63 219.16 149.45 201.82C140.75 183.37 131.26 165.3 125.95 145.44C125.56 144 124.7 142.69 124.05 141.31C123.02 142.63 121.86 143.87 120.98 145.29C117.76 150.5 115.88 156.62 109.88 159.81C93.6 168.45 77.48 177.4 61.15 185.94C52.2 190.62 42.92 194.69 33.84 199.13C28.99 201.5 23.76 203.21 21.69 209.31C17.84 220.65 17.68 232.24 19.13 243.82C19.91 250.05 20.53 255.66 16.28 261C12.75 265.43 8.06997 269.93 6.96997 275.06C5.44997 282.16 5.75998 290.1 7.22998 297.28C8.54998 303.73 10.59 309.5 6.45001 315.57C1.99001 322.11 0.729971 329.52 0.969971 337.35C1.17997 344.14 1.01001 350.95 1.01001 357.75C1.01001 367.58 1.14002 377.42 0.960022 387.25C0.890022 391.07 0.580017 394.89 0.330017 398.7H324.23C324.11 385.62 323.7 372.54 323.21 359.47C322.68 345.33 321.29 331.22 319.99 317.13L320.01 317.1ZM229.16 267.84C228.52 283.29 226.74 298.72 224.91 314.09C223.55 325.59 221.37 336.99 219.51 348.43C219.35 349.4 218.97 350.43 218.4 351.23C217.83 352.02 216.89 352.54 216.12 353.17C215.8 352.29 215.23 351.41 215.21 350.52C215.12 345.24 215.3 339.96 215.13 334.68C214.89 327.18 214.43 319.69 214.07 312.19C213.34 303.39 212.42 295.69 211.92 287.97C210.67 268.64 206.01 250.11 199.45 231.95C194.86 219.24 190.1 206.52 190.03 192.7C190.03 191.61 189.73 190.4 190.1 189.45C190.71 187.89 191.76 186.5 192.63 185.04C193.66 185.98 194.76 186.85 195.71 187.87C199.35 191.81 202.9 195.83 206.58 199.73C207.07 200.25 208.09 200.26 208.86 200.51C208.91 199.63 209.33 198.54 208.96 197.91C207.58 195.54 206.26 192.99 204.33 191.12C198.3 185.26 191.94 179.73 185.87 173.91C185.21 173.28 185.04 171.02 185.6 170.43C187.78 168.14 190.44 166.31 192.75 164.13C196.03 161.03 199.24 157.83 202.34 154.54C204.49 152.26 206.34 153.27 206.31 155.56C206.15 167.3 212.76 177.01 215.58 187.85C219.88 204.35 226.2 220.35 227.22 237.63C227.82 247.71 229.58 257.82 229.17 267.85L229.16 267.84Z" fill="#ADADAD"/>
</svg>
