<svg width="284" height="383" viewBox="0 0 284 383" fill="none" xmlns="http://www.w3.org/2000/svg">
<path d="M163.8 294.25C170.12 270 172.3 245.17 174.49 220.31C174.55 219.59 174.61 218.87 174.68 218.15C174.76 217.18 174.93 216.22 175.12 215.14C175.22 214.62 175.32 214.06 175.42 213.46C178.69 214 181.2 215.6 183.65 217.16C184.45 217.67 185.25 218.18 186.07 218.65C187.21 219.3 188.34 219.99 189.5 220.69C191.52 221.92 193.64 223.2 196.08 224.47C195.93 224.39 195.67 222.46 195.39 220.38C195.09 218.2 194.77 215.84 194.53 215.25C193.06 211.7 190.69 210.12 187.66 208.12L187.38 207.93C182.39 204.62 178.31 197.07 174.5 190.02C172.15 185.67 169.9 181.5 167.6 178.64C165.59 183.68 163.31 190.5 160.97 197.52C157.95 206.57 154.82 215.96 151.98 222.34C151.75 222.85 151.52 223.36 151.3 223.87C146.67 234.25 142.12 244.5 135.52 253.84C128.33 241.96 123.63 229.98 118.97 218.11C118.45 216.77 117.92 215.44 117.4 214.1C112.17 200.86 109.25 186.98 106.31 172.35C105.92 172.73 105.58 173.03 105.29 173.28C104.75 173.75 104.38 174.08 104.12 174.48C100.73 179.96 97.36 185.45 93.99 190.94C92.28 193.73 90.57 196.52 88.85 199.31C85 205.55 81.88 212.13 79.11 218.8C80.27 219.87 81.03 219.38 81.74 218.92C81.91 218.81 82.08 218.7 82.25 218.62C83.59 217.96 84.93 217.28 86.26 216.61C88.78 215.34 91.3 214.07 93.86 212.87C94.57 212.53 95.37 212.41 96.3 212.26C96.8 212.18 97.33 212.1 97.91 211.97C97.95 212.68 98 213.34 98.04 213.97C98.13 215.2 98.21 216.31 98.23 217.41C98.31 220.98 98.35 224.55 98.38 228.13C98.45 235.57 98.52 243.01 99 250.42C100 265.7 102.06 280.89 105.38 295.88C111.8 324.77 120.23 353.06 130.89 380.69C131.13 381.31 131.4 381.92 131.67 382.53H135.1C147.5 354.03 156 324.26 163.8 294.28V294.25Z" fill="white"/>
<path d="M277.1 316.17C276.73 311.85 276.39 307.54 276.04 303.23C273.72 274.18 271.41 245.32 261.32 217.54C259.9 213.64 257.46 211.93 253.4 210.97C252.87 210.84 252.33 210.72 251.79 210.59C242.24 208.36 231.65 205.88 223.12 201.46C222.09 200.93 221.11 200.32 219.88 199.55C219.31 199.19 218.68 198.8 217.98 198.37C218.88 198.18 219.64 198.02 220.31 197.88C221.3 197.67 222.11 197.5 222.91 197.34C234.04 195.13 246.63 190.75 248.79 177.91C248.81 177.8 248.83 177.69 248.85 177.57C249.22 175.45 249.98 171.11 247.85 169.96C246.72 169.35 245.22 171.3 244.41 172.34L244.37 172.4C238.22 180.33 230.84 180.52 223.44 178.54C219.54 177.49 216.62 174.9 214.29 171.65C212.76 169.49 212.53 167.29 214.1 165.04C222.06 153.44 224.82 140.88 222.84 127.05C219.57 104.3 212.09 82.33 204.41 60.75C197.63 41.73 189.1 21.94 171.78 10.14C162.47 3.79 152.24 0.0599999 140.77 0.17C135.24 0.22 129.99 1.18 125.22 4.03C123.67 4.95 122.16 5.51 120.32 5.25C103.78 2.92 90.6 17.66 83.19 30.55C73.69 47.06 68.69 66.57 63.88 85.34C62.78 89.67 61.68 93.95 60.54 98.16C53.75 123.17 48.91 149.93 59.9 174.53C60.37 175.58 60.81 176.63 61.21 177.59C61.33 177.88 61.44 178.15 61.55 178.42C60.9 180.74 59.27 181.34 57.5 181.57C52.03 182.29 46.97 181.06 42.25 178.27C41.93 178.07 41.51 177.71 41.04 177.3C39.9 176.29 38.49 175.06 37.61 175.75C35.34 177.51 40.51 184.42 41.88 186.27L41.99 186.41C44.67 190 48.12 193.06 52.16 195.04C53.89 195.88 55.76 196.4 57.63 196.91C58.43 197.13 59.23 197.35 60.01 197.59C60.21 199.11 59.18 199.53 58.31 199.89C58.26 199.91 58.21 199.93 58.17 199.95C46.25 204.9 33.62 208.65 21.07 211.62C16.67 212.66 15.89 216.09 15.06 219.78C14.91 220.42 14.77 221.07 14.6 221.71C7.76998 247.93 3.10001 273.85 4.76001 300.87C4.85001 302.38 4.94998 303.9 5.03998 305.43C6.31998 325.57 7.65999 346.58 0.739992 365.83C-0.170008 368.36 0.120009 370.4 2.07001 372.3C5.49001 375.65 8.83003 379.07 12.15 382.52H48.1C48.1 378.33 48.82 374.29 49.55 370.21C49.98 367.82 50.41 365.42 50.7 362.96C50.9 361.3 51.32 359.66 52.37 358.03C53.38 363.14 54.87 372.41 56.26 382.52H131.67C131.4 381.92 131.13 381.31 130.89 380.68C120.23 353.05 111.8 324.76 105.38 295.87C102.06 280.88 100 265.7 99 250.41C98.52 243 98.45 235.56 98.38 228.12C98.35 224.55 98.31 220.98 98.23 217.4C98.21 216.3 98.13 215.19 98.04 213.96C98 213.33 97.95 212.67 97.91 211.96C97.33 212.08 96.8 212.17 96.3 212.25C95.37 212.4 94.57 212.52 93.86 212.86C91.3 214.06 88.78 215.33 86.26 216.6C84.93 217.27 83.59 217.95 82.25 218.61C82.08 218.7 81.91 218.8 81.74 218.91C81.03 219.37 80.27 219.87 79.11 218.79C81.88 212.12 85 205.55 88.85 199.3C90.57 196.51 92.28 193.72 93.99 190.93C97.36 185.44 100.73 179.95 104.12 174.47C104.38 174.07 104.75 173.74 105.29 173.27C105.58 173.01 105.92 172.71 106.31 172.34C109.25 186.96 112.17 200.85 117.4 214.09C117.92 215.42 118.45 216.76 118.97 218.1C123.63 229.98 128.33 241.95 135.52 253.83C142.12 244.49 146.67 234.25 151.3 223.86C151.52 223.35 151.75 222.84 151.98 222.33C154.82 215.95 157.95 206.56 160.97 197.51C163.31 190.48 165.59 183.66 167.6 178.63C169.9 181.49 172.15 185.66 174.5 190.01C178.31 197.06 182.39 204.61 187.38 207.92L187.66 208.11C190.69 210.11 193.06 211.69 194.53 215.25C194.77 215.82 195.09 218.18 195.39 220.37C195.67 222.46 195.93 224.39 196.08 224.46C193.64 223.19 191.52 221.91 189.5 220.68C188.34 219.98 187.21 219.3 186.07 218.64C185.25 218.18 184.45 217.67 183.65 217.15C181.2 215.59 178.69 214 175.42 213.45C175.32 214.05 175.22 214.6 175.12 215.13C174.93 216.21 174.76 217.17 174.68 218.14C174.61 218.86 174.55 219.58 174.49 220.3C172.3 245.16 170.12 269.99 163.8 294.24C156 324.22 147.5 353.99 135.1 382.49H215.8C217.76 370.65 220.02 358.56 222.58 347.15C222.74 346.4 222.98 345.67 223.33 344.6C223.52 344 223.75 343.3 224.02 342.43C223.31 344.7 224.27 348.9 225.08 352.51C225.48 354.25 225.84 355.85 225.97 357.04C226.78 364.21 227.01 371.42 227.24 378.62C227.28 379.91 227.32 381.21 227.37 382.5H283.38C283.02 378.79 282.66 375.08 282.29 371.36C280.49 352.97 278.68 334.58 277.1 316.17Z" fill="#ADADAD"/>
</svg>
