<svg width="280" height="381" viewBox="0 0 280 381" fill="none" xmlns="http://www.w3.org/2000/svg">
<path d="M94.5601 162.47L114.9 345.55L143.38 364.53L177.28 355.04L184.06 235.7L174.57 155.69L94.5601 162.47Z" fill="white"/>
<path d="M263.9 375.19C263.9 373.35 258.95 284.45 258.76 270.49C258.4 255.98 254.54 226.41 250.68 209.33C248.48 199.6 248.3 199.41 243.34 198.49C225.9 195.37 212.13 191.33 212.68 189.49C214.51 183.62 212.86 171.13 208.09 155.88C203.68 141.92 202.58 135.68 200.93 115.29C197.99 80.21 191.93 55.41 180.73 33.74C170.45 13.72 158.88 4.17 142.54 1.78C125.83 -0.609996 117.76 -0.0599964 109.13 4.17C94.44 11.33 85.81 25.29 75.89 58.35C66.35 89.76 64.14 100.41 62.67 122.64C61.02 147.25 59.9201 152.58 53.6801 166.35C50.9201 172.23 48.54 179.76 47.99 183.25C47.07 190.23 47.99 189.68 28.34 194.27C23.38 195.37 18.9801 196.84 18.4301 197.39C17.5101 198.31 12.73 221.82 9.60999 240.55C7.03999 256.53 5.76 273.25 3.37 322.66C2.48 341.03 1.32005 362.44 0.300049 380.14H50.48C50.7 377.42 50.91 374.72 51.11 372.06C52.21 357 53.49 343.23 54.04 341.76C55.64 336.64 62.2499 363.81 63.9399 380.14H279.49C276.74 378.3 272.16 376.47 269.23 376.11C266.29 375.74 263.9 375.19 263.9 375.19ZM161.64 253.78C159.8 290.51 157.23 306.31 148.6 333.68C145.85 342.31 143.28 349.29 142.36 349.66C140.15 349.47 128.22 307.41 124.18 285.55C117.94 251.02 114.27 224.76 109.68 182.7C109.13 177.92 109.31 174.62 110.23 174.06C111.15 173.51 114.27 176.64 117.57 181.04C120.69 185.45 125.28 190.96 127.67 193.53C131.34 197.57 131.71 198.31 129.69 199.41C128.59 200.15 126.38 202.53 125.1 204.55C123.81 206.57 123.63 207.49 124.55 206.57C127.49 203.82 128.22 204.37 129.14 210.98C129.69 214.47 130.61 217.6 131.34 217.96C132.08 218.33 133.73 214.84 135.2 210.25L137.77 201.8L144.93 209.88C150.99 216.68 152.09 217.41 152.09 214.66C152.09 210.06 148.23 202.35 144.38 199.41L141.26 196.84L145.3 192.98C147.68 190.78 151.35 186.19 153.93 182.51C156.5 178.84 159.07 176.09 159.8 176.27C161.82 176.82 162.92 224.94 161.64 253.78Z" fill="#ADADAD"/>
</svg>
