<svg width="296" height="376" viewBox="0 0 296 376" fill="none" xmlns="http://www.w3.org/2000/svg">
<path d="M172.103 209.859C183.273 216.069 193.412 221.859 204.802 228.059C198.172 203.449 191.143 180.709 168.583 168.299C157.823 192.699 147.063 217.309 136.093 241.909C134.853 241.909 133.402 242.119 132.162 242.119C122.022 217.719 111.672 193.319 101.532 168.509C80.4325 181.119 70.4925 202.419 64.7025 227.649C75.6725 221.649 85.8125 216.069 97.1925 209.859C103.773 266.789 116.283 321.269 133.713 374.919H134.353C152.563 321.469 162.853 266.389 172.103 209.859Z" fill="white"/>
<path d="M258.733 232.029C255.223 217.969 247.773 208.459 233.283 204.939C228.933 203.909 224.803 201.639 220.453 199.979C223.353 195.019 226.453 190.879 228.733 186.329C234.113 174.959 231.623 165.659 221.903 158.209C210.313 149.319 209.693 146.009 217.143 133.189C225.623 118.509 225.623 113.549 214.453 101.349C207.213 93.2891 205.143 83.7791 203.073 73.8491C200.173 60.6191 197.483 46.9691 192.723 34.3591C183.203 9.33905 158.993 -5.14095 136.643 1.68905C135.193 2.09905 133.333 2.09905 132.093 1.68905C111.813 -5.14095 89.8725 10.9891 82.6325 27.3291C76.2125 42.0091 73.1125 58.1391 68.1425 73.4391C65.4525 82.5291 63.1825 92.049 58.4225 99.899C52.2125 110.449 51.1726 119.339 58.8326 129.059C60.6926 131.329 62.1425 133.809 63.3825 136.299C66.2825 142.499 65.0426 147.869 60.0726 152.419C58.8326 153.459 57.5926 154.489 56.3526 155.319C38.5526 166.279 38.9625 178.889 48.9025 195.429C49.5225 196.469 50.3426 197.499 51.5926 199.569C44.9626 202.049 39.1725 204.319 33.3825 206.389C24.0625 209.489 17.6525 214.869 15.3725 224.789L1.71258 327.149C-9.66742 306.059 39.3925 375.169 39.3925 375.169C44.3925 362.419 49.3225 349.869 50.5525 344.929H51.7925C53.3825 354.989 54.9226 365.049 56.4526 375.169H134.043C116.623 321.519 104.103 267.039 97.5225 210.109C86.1425 216.319 76.0025 221.899 65.0325 227.899C70.8225 202.669 80.7625 181.369 101.862 168.759C112.002 193.569 122.352 217.969 132.492 242.369C133.732 242.369 135.183 242.159 136.423 242.159C147.393 217.559 158.153 192.949 168.913 168.549C191.473 180.959 198.503 203.699 205.133 228.309C193.743 222.109 183.603 216.319 172.433 210.109C163.183 266.629 152.893 321.709 134.683 375.169H215.693C217.773 363.839 219.803 352.799 221.893 341.829L224.583 341.619C228.283 352.699 231.973 363.789 235.733 375.169H295.242C288.862 349.119 282.233 323.139 275.693 297.159C270.113 275.449 264.103 253.739 258.723 232.029H258.733Z" fill="#ADADAD"/>
</svg>
