<svg width="266" height="378" viewBox="0 0 266 378" fill="none" xmlns="http://www.w3.org/2000/svg">
<g clip-path="url(#clip0_55_38)">
<path d="M87.91 177.62L107.41 230.78L137.53 290.15L158.8 335.34L182.72 358.38L206.65 344.2L215.51 284.83L197.79 221.92L183.61 200.66L174.74 185.08L87.91 177.62Z" fill="white"/>
<path d="M59.34 353.4C60.14 353.2 60.84 353 61.64 352.8C64.88 360.91 68.21 368.99 71.49 377.08H265.92C264.82 352.34 265.59 328.57 264.44 304.9C263.34 281.6 260.24 258.5 257.64 235.3C256.64 226.3 250.44 221.5 241.74 219.4C221.54 214.5 201.74 208.2 184.44 196C184.24 195.8 183.64 196.2 182.54 196.5C183.94 201.2 184.94 206 186.64 210.6C195.24 232.6 198.54 255.7 202.64 278.7C207.44 305.2 199.24 328.2 187.94 352.1C186.94 349.1 186.24 346.9 185.64 344.7C174.94 308.8 159.94 275.1 137.64 244.8C128.54 232.5 119.84 219.8 111.84 206.8C108.44 201.3 107.24 194.5 104.94 188.3C136.74 202.1 155.24 228.8 176.34 253.2C168.94 230.9 173.34 209.8 180.94 189C200.14 188.3 204.74 186.6 209.94 178.2C198.34 180.1 193.94 175.9 197.54 166.1C197.84 165.2 198.24 164.4 198.74 163.6C204.44 153.3 210.04 143 215.74 132.7C216.34 133 216.04 132.9 216.64 133.1C213.54 141.3 210.54 149.6 207.74 157C218.54 150.2 223.14 138.9 219.74 122.7C216.34 106.2 212.94 89.6 207.84 73.5C202.24 55.8 196.74 37.6 187.64 21.6C176.74 2.20001 158.74 -3.19999 136.94 1.70001C135.44 2.00001 132.84 2.00001 131.34 1.60001C119.84 -1.29999 109.74 2.10001 102.44 10.5C95.24 18.8 88.24 28 84.04 38.1C74.64 60.6 66.94 83.8 58.74 106.8C53.44 121.7 52.34 135.6 66.84 146.9C72.34 151.2 72.34 160.2 68.44 165.4C63.44 172 59.04 166.2 55.14 164.4V174.1C54.54 174.6 53.84 175.2 53.24 175.7C61.74 179.6 70.24 183.5 79.74 187.9C80.54 187.6 82.94 186.6 86.44 185.3C74.54 201.3 74.04 201.4 56.74 204.8C46.34 206.9 36.14 210 25.74 212.4C15.54 214.7 10.34 221 9.44 231.4C7.04 259.3 3.04 287.2 2.04 315.2C1.3 335.83 0.62 356.45 0 377.08H56.61C57.49 369.19 58.4 361.29 59.34 353.4Z" fill="#AEADAE"/>
</g>
<defs>
<clipPath id="clip0_55_38">
<rect width="265.92" height="377.08" fill="white"/>
</clipPath>
</defs>
</svg>
