<svg width="491" height="119" viewBox="0 0 491 119" fill="none" xmlns="http://www.w3.org/2000/svg">
<g clip-path="url(#clip0_2126_226)">
<path d="M134.8 62.3299H137.9C137.4 72.0299 132.6 76.8299 123.6 76.8299C114.6 76.8299 116.7 75.8299 114.5 73.7299C112.3 71.7299 110.8 68.6299 110.1 64.6299C104.4 68.6299 99.2998 71.7299 94.5998 73.7299C89.8998 75.7299 85.6998 76.8299 82.0998 76.8299C78.4998 76.8299 73.2998 75.4299 69.8998 72.7299C66.4998 70.0299 64.7998 66.4299 64.7998 61.9299C64.7998 57.4299 67.5998 51.0299 73.2998 46.6299C78.9998 42.2299 86.8998 38.0299 96.8998 33.9299L110.1 28.5299V25.1299C110.1 20.3299 109.8 16.8299 109.2 14.6299C108.6 12.4299 107 10.5299 104.4 8.82988C101.8 7.12988 98.3998 6.32988 94.0998 6.32988C85.5998 6.32988 80.8998 9.12988 79.8998 14.8299C78.9998 20.6299 76.5998 23.5299 72.7998 23.5299C68.9998 23.5299 67.5998 21.9299 67.5998 18.6299C67.5998 15.3299 69.8998 11.9299 74.4998 8.22988C79.0998 4.52988 86.1998 2.62988 95.8998 2.62988C105.6 2.62988 108.7 3.72988 112.6 6.02988C116.6 8.32988 119.2 10.8299 120.5 13.7299C121.8 16.6299 122.4 21.0299 122.4 27.0299V55.1299C122.4 61.7299 122.7 65.9299 123.4 67.8299C124.1 69.7299 125.6 70.6299 127.8 70.6299C131.5 70.6299 133.9 67.8299 134.8 62.3299ZM110.2 32.5299L100.9 36.2299C86.2998 42.1299 78.9998 49.6299 78.9998 58.6299C78.9998 67.6299 79.8998 65.0299 81.7998 67.2299C83.6998 69.4299 86.0998 70.5299 89.0998 70.5299C92.0998 70.5299 94.7998 69.6299 98.3998 67.9299C101.9 66.1299 105.8 63.5299 110.2 60.0299V32.5299Z" fill="white"/>
<path d="M184.8 11.6298C189.6 6.22979 194.5 3.42979 199.4 3.42979C204.3 3.42979 204.2 4.12979 205.7 5.62979C207.2 7.12979 208 8.72979 208 10.4298C208 14.1298 206.3 16.0298 202.9 16.0298C199.5 16.0298 199.4 14.8298 198.1 12.5298C196.9 10.3298 195.6 9.32979 194.2 9.32979C192 9.32979 189.7 10.8298 187.1 13.7298C190 18.3298 191.5 23.3298 191.5 28.5298C191.5 33.7298 189.1 41.3298 184.2 46.5298C179.3 51.8298 171.1 54.6298 159.6 55.0298C147.6 55.4298 141.6 57.8298 141.6 62.3298C141.6 66.8298 143 65.9298 145.7 66.7298C148.4 67.6298 154 68.3298 162.5 68.7298C171.8 69.2298 179 70.0298 184.1 71.3298C189.1 72.6298 193.2 75.1298 196.2 79.0298C199.2 82.9298 200.7 87.4298 200.7 92.8298C200.7 98.2298 197.6 106.33 191.5 110.93C185.4 115.53 176.6 117.83 165.1 117.83C153.6 117.83 146.1 115.83 139.8 111.73C133.5 107.63 130.3 102.53 130.3 96.2298C130.3 89.9298 131.2 89.9298 133 87.7298C134.8 85.5298 137.4 84.4298 140.7 84.4298C144 84.4298 142.4 84.5298 143.2 84.8298C139.7 88.7298 137.9 92.7298 137.9 97.0298C137.9 101.33 140.2 106.13 144.9 109.43C149.6 112.73 156.6 114.33 165.8 114.33C175 114.33 180.5 112.63 185.1 109.33C189.7 106.03 192 101.83 192 96.6298C192 91.4298 189.9 86.9298 185.8 84.6298C181.7 82.3298 174.3 81.0298 163.7 80.5298C151.5 80.0298 143.6 78.5298 140 76.0298C136.4 73.6298 134.6 70.4298 134.6 66.6298C134.6 59.2298 139.8 54.5298 150.2 52.6298C144.8 49.4298 140.8 45.8298 138 41.7298C135.2 37.6298 133.9 33.1298 133.9 28.0298C133.9 22.9298 136.7 14.9298 142.3 9.92979C147.9 4.92979 154.5 2.52979 162.1 2.52979C169.7 2.52979 179.2 5.52979 184.9 11.4298L184.8 11.6298ZM146.5 30.1298C146.5 37.4298 148 42.8298 151 46.2298C154 49.6298 157.8 51.3298 162.5 51.3298C167.2 51.3298 170.5 49.6298 173.6 46.2298C176.7 42.8298 178.2 37.0298 178.2 28.7298C178.2 20.4298 176.6 14.5298 173.3 11.4298C170 8.22979 166.3 6.62979 162.2 6.62979C158.1 6.62979 153.1 8.62979 150.5 12.5298C147.9 16.4298 146.6 22.3298 146.6 30.2298L146.5 30.1298Z" fill="white"/>
<path d="M267.1 29.03H218.6C218.4 32.33 218.3 34.83 218.3 36.53C218.3 48.73 220.2 57.93 224 64.13C227.8 70.23 233.5 73.33 241.1 73.33C248.7 73.33 258.7 68.73 263 59.43H267.1C265.3 65.23 261.7 69.73 256.3 73.03C250.9 76.33 245.1 77.93 238.7 77.93C232.3 77.93 227.2 76.43 222 73.43C216.8 70.43 212.5 66.23 209.1 60.83C205.8 55.43 204.1 48.83 204.1 41.03C204.1 30.03 207.3 20.93 213.8 13.63C220.3 6.32998 228.3 2.72998 238 2.72998C247.7 2.72998 254.2 5.52998 259.2 11.03C264.2 16.63 266.8 22.63 267.1 29.03ZM252.2 25.63C252.4 24.33 252.5 23.13 252.5 22.13C252.5 17.13 251 13.33 248.1 10.53C245.2 7.82998 241.6 6.42998 237.4 6.42998C227.1 6.42998 220.9 12.83 219 25.63H252.3H252.2Z" fill="white"/>
<path d="M285.9 2.62988H288.2C289.5 6.12988 290.2 10.9299 290.4 17.0299C294.5 12.2299 298.8 8.62988 303.2 6.22988C307.7 3.82988 312.3 2.62988 317.2 2.62988C322.1 2.62988 327.3 3.82988 330.8 6.12988C334.3 8.42988 336.6 11.3299 337.6 14.6299C338.6 18.0299 339.1 22.9299 339.1 29.3299V51.1299C339.1 59.1299 339.2 64.0299 339.5 65.8299C339.8 67.6299 340.7 68.9299 342.2 69.7299C343.7 70.6299 346.5 71.0299 350.5 71.0299V74.9299H314.9V71.0299H316.5C320.6 71.0299 323.2 70.4299 324.5 69.2299C325.7 68.0299 326.5 66.6299 326.6 65.0299C326.8 63.4299 326.9 58.7299 326.9 51.0299V28.6299C326.9 23.1299 326.6 19.2299 326.1 16.8299C325.6 14.5299 324.1 12.4299 321.8 10.6299C319.4 8.82988 316.5 7.92988 312.8 7.92988C309.1 7.92988 304.7 9.12988 300.9 11.6299C297.1 14.1299 293.6 17.8299 290.2 22.7299V51.1299C290.2 59.1299 290.4 64.0299 290.7 65.8299C291 67.6299 291.9 68.9299 293.4 69.7299C294.9 70.6299 297.7 71.0299 301.8 71.0299V74.9299H266.6V71.0299C270.5 71.0299 273.2 70.6299 274.8 69.8299C276.3 69.0299 277.3 67.8299 277.6 66.2299C278 64.6299 278.2 59.5299 278.2 51.0299V30.3299C278.2 22.2299 278 17.3299 277.7 15.6299C277.4 13.9299 276.5 12.6299 275 11.7299C273.5 10.8299 270.7 10.4299 266.6 10.4299V6.52988C272.8 5.82988 279.2 4.52988 285.7 2.62988H285.9Z" fill="white"/>
<path d="M407.1 58.0299H410.8C406.9 71.2299 397.3 77.8299 381.9 77.8299C366.5 77.8299 363.6 74.4299 356.9 67.7299C350.1 61.0299 346.7 52.0299 346.7 40.9299C346.7 29.8299 350.4 20.3299 357.7 13.2299C365 6.12988 373.6 2.62988 383.6 2.62988C393.6 2.62988 395.1 3.92988 400.2 6.62988C405.2 9.22988 407.8 12.5299 407.8 16.2299C407.8 19.9299 407.3 18.9299 406.4 20.2299C405.5 21.4299 404.1 22.1299 402.4 22.1299C398.7 22.1299 396.4 19.9299 395.5 15.6299C394.8 12.3299 393.8 10.0299 392.4 8.72988C390.9 7.42988 388.1 6.72988 383.8 6.72988C376.2 6.72988 370.5 9.32988 366.7 14.6299C362.9 19.9299 361 27.8299 361 38.4299C361 49.0299 363.1 57.9299 367.2 64.1299C371.3 70.3299 377.5 73.4299 385.9 73.4299C394.3 73.4299 404.3 68.3299 407.3 58.1299L407.1 58.0299Z" fill="white"/>
<path d="M455.9 61.9298L472 23.2298C474.3 17.5298 475.5 14.4298 475.5 13.8298C475.5 11.0298 472.4 9.52979 466.1 9.42979V5.52979H490.6V9.42979C486.8 9.62979 484 10.6298 482.3 12.4298C480.5 14.2298 478.4 18.3298 475.8 24.6298L444.8 99.5298C441.9 106.63 439.2 111.53 437 114.13C434.7 116.73 432.2 118.03 429.5 118.03C426.8 118.03 424 116.33 424 113.03C424 109.73 426.9 105.93 432.8 103.23C436.3 101.73 438.6 100.43 439.7 99.3298C440.9 98.2298 442 96.3298 443.1 93.4298L449.7 76.8298L423.5 20.7298C421.2 15.8298 419.3 12.7298 417.7 11.4298C416.2 10.1298 413.6 9.42979 409.9 9.42979V5.52979H441.9V9.42979C436.3 9.62979 433.5 10.7298 433.5 12.9298C433.5 15.1298 434.6 16.5298 436.8 21.2298L455.9 61.9298Z" fill="white"/>
<path d="M39.6 34.1299C39.6 34.1299 36.6 33.2299 36.5 33.1299L23.1 29.0299C23 29.0299 19.3 27.7299 19.3 27.7299C13.7 25.3299 10.6 22.7299 10.6 18.7299C10.6 14.7299 13.9 8.52988 19.3 6.22988C20.7 5.52988 26 3.32988 32.8 4.32988C32.8 4.32988 45.4 5.22988 44.9 14.4299C44.7 17.3299 46.4 19.1299 47.5 20.3299C48.6 21.5299 50.2 22.1299 52.1 22.1299C54 22.1299 54.9 21.6299 56.1 20.6299C57.4 19.6299 58.1 18.1299 58.1 16.3299C58.1 13.4299 56.4 10.5299 52.9 7.42988C49.7 4.52988 45.2 2.42988 39.5 1.12988L36.4 0.529883C31.4 -0.170117 26.9 -0.170117 22.1 0.529883L19 1.12988C13.6 2.52988 9.2 4.82988 5.9 8.02988C2.6 11.4199 0.9 15.4199 0.9 19.9199C0.9 28.4199 6.4 34.8199 17.2 39.0199C17.6 39.2199 23.1 41.1199 24 41.4199L34.1 44.9199C34.1 44.9199 40.8 47.4199 41.1 47.5199C46.5 49.9199 48.5 53.3199 49.1 57.8199C50.9 70.5199 36.4 73.3199 36.4 73.3199C24.3 76.7199 17.4 71.3199 17.4 71.3199C14.9 69.9199 13.4 66.4199 12.5 63.6199C11.3 59.1199 8.3 58.2199 6 58.2199C3.7 58.2199 3.1 58.7199 1.9 59.7199C0.7 60.8199 0 62.2199 0 64.0199C0 66.8199 1.9 69.5199 5.9 72.4199C9.5 75.0199 13.9 76.8199 19.2 77.8199L22.2 78.2199C24 78.4199 25.8 78.5199 27.7 78.5199C30.4 78.5199 33.4 78.2199 36.5 77.7199L39.6 77.1199C46.4 75.4199 51.6 72.6199 55 68.7199C58.5 64.7199 60.2 60.3199 60.2 55.7199C60.2 45.8199 53.3 38.5199 39.8 34.1199H39.6V34.1299Z" fill="white"/>
</g>
<defs>
<clipPath id="clip0_2126_226">
<rect width="490.6" height="118.03" fill="white"/>
</clipPath>
</defs>
</svg>
