<?xml version="1.0" encoding="UTF-8"?>
<svg id="Layer_1" xmlns="http://www.w3.org/2000/svg" version="1.1" viewBox="0 0 1440 680">
  <!-- Generator: Adobe Illustrator 29.1.0, SVG Export Plug-In . SVG Version: 2.1.0 Build 142)  -->
  <defs>
    <style>
      .st0 {
        fill: none;
      }

      .st1 {
        fill: #fff;
      }
    </style>
  </defs>
  <rect class="st0" width="1440" height="680"/>
  <g>
    <path class="st1" d="M262.1,164.9h3.1c-.5,9.7-5.3,14.5-14.3,14.5s-6.9-1-9.1-3.1c-2.2-2-3.7-5.1-4.4-9.1-5.7,4-10.8,7.1-15.5,9.1-4.7,2-8.9,3.1-12.5,3.1s-8.8-1.4-12.2-4.1c-3.4-2.7-5.1-6.3-5.1-10.8s2.8-10.9,8.5-15.3c5.7-4.4,13.6-8.6,23.6-12.7l13.2-5.4v-3.4c0-4.8-.3-8.3-.9-10.5-.6-2.2-2.2-4.1-4.8-5.8-2.6-1.7-6-2.5-10.3-2.5-8.5,0-13.2,2.8-14.2,8.5-.9,5.8-3.3,8.7-7.1,8.7s-5.2-1.6-5.2-4.9,2.3-6.7,6.9-10.4c4.6-3.7,11.7-5.6,21.4-5.6s12.8,1.1,16.7,3.4c4,2.3,6.6,4.8,7.9,7.7,1.3,2.9,1.9,7.3,1.9,13.3v28.1c0,6.6.3,10.8,1,12.7s2.2,2.8,4.4,2.8c3.7,0,6.1-2.8,7-8.3ZM237.5,135.1l-9.3,3.7c-14.6,5.9-21.9,13.4-21.9,22.4s.9,6.4,2.8,8.6c1.9,2.2,4.3,3.3,7.3,3.3s5.7-.9,9.3-2.6c3.5-1.8,7.4-4.4,11.8-7.9v-27.5Z"/>
    <path class="st1" d="M312.1,114.2c4.8-5.4,9.7-8.2,14.6-8.2s4.8.7,6.3,2.2c1.5,1.5,2.3,3.1,2.3,4.8,0,3.7-1.7,5.6-5.1,5.6s-3.5-1.2-4.8-3.5c-1.2-2.2-2.5-3.2-3.9-3.2-2.2,0-4.5,1.5-7.1,4.4,2.9,4.6,4.4,9.6,4.4,14.8s-2.4,12.8-7.3,18c-4.9,5.3-13.1,8.1-24.6,8.5-12,.4-18,2.8-18,7.3s1.4,3.6,4.1,4.4c2.7.9,8.3,1.6,16.8,2,9.3.5,16.5,1.3,21.6,2.6,5,1.3,9.1,3.8,12.1,7.7,3,3.9,4.5,8.4,4.5,13.8s-3.1,13.5-9.2,18.1c-6.1,4.6-14.9,6.9-26.4,6.9s-19-2-25.3-6.1c-6.3-4.1-9.5-9.2-9.5-15.5s.9-6.3,2.7-8.5c1.8-2.2,4.4-3.3,7.7-3.3s1.7.1,2.5.4c-3.5,3.9-5.3,7.9-5.3,12.2s2.3,9.1,7,12.4c4.7,3.3,11.7,4.9,20.9,4.9s14.7-1.7,19.3-5c4.6-3.3,6.9-7.5,6.9-12.7s-2.1-9.7-6.2-12c-4.1-2.3-11.5-3.6-22.1-4.1-12.2-.5-20.1-2-23.7-4.5-3.6-2.4-5.4-5.6-5.4-9.4,0-7.4,5.2-12.1,15.6-14-5.4-3.2-9.4-6.8-12.2-10.9s-4.1-8.6-4.1-13.7,2.8-13.1,8.4-18.1c5.6-5,12.2-7.4,19.8-7.4s17.1,3,22.8,8.9ZM273.8,132.7c0,7.3,1.5,12.7,4.5,16.1,3,3.4,6.8,5.1,11.5,5.1s8-1.7,11.1-5.1c3.1-3.4,4.6-9.2,4.6-17.5s-1.6-14.2-4.9-17.3c-3.3-3.2-7-4.8-11.1-4.8s-9.1,2-11.7,5.9c-2.6,3.9-3.9,9.8-3.9,17.7Z"/>
    <path class="st1" d="M394.4,131.6h-48.5c-.2,3.3-.3,5.8-.3,7.5,0,12.2,1.9,21.4,5.7,27.6,3.8,6.1,9.5,9.2,17.1,9.2s17.6-4.6,21.9-13.9h4.1c-1.8,5.8-5.4,10.3-10.8,13.6-5.4,3.3-11.2,4.9-17.6,4.9s-11.5-1.5-16.7-4.5c-5.2-3-9.5-7.2-12.9-12.6-3.3-5.4-5-12-5-19.8,0-11,3.2-20.1,9.7-27.4,6.5-7.3,14.5-10.9,24.2-10.9s16.2,2.8,21.2,8.3c5,5.6,7.6,11.6,7.9,18ZM379.5,128.2c.2-1.3.3-2.5.3-3.5,0-5-1.5-8.8-4.4-11.6-2.9-2.7-6.5-4.1-10.7-4.1-10.3,0-16.5,6.4-18.4,19.2h33.3Z"/>
    <path class="st1" d="M413.2,105.2h2.3c1.3,3.5,2,8.3,2.2,14.4,4.1-4.8,8.4-8.4,12.8-10.8,4.5-2.4,9.1-3.6,14-3.6s10.1,1.2,13.6,3.5c3.5,2.3,5.8,5.2,6.8,8.5,1,3.4,1.5,8.3,1.5,14.7v21.8c0,8,.1,12.9.4,14.7.3,1.8,1.2,3.1,2.7,3.9,1.5.9,4.3,1.3,8.3,1.3v3.9h-35.6v-3.9h1.6c4.1,0,6.7-.6,8-1.8,1.2-1.2,2-2.6,2.1-4.2.2-1.6.3-6.3.3-14v-22.4c0-5.5-.3-9.4-.8-11.8-.5-2.3-2-4.4-4.3-6.2-2.4-1.8-5.3-2.7-9-2.7s-8.1,1.2-11.9,3.7c-3.8,2.5-7.3,6.2-10.7,11.1v28.4c0,8,.2,12.9.5,14.7s1.2,3.1,2.7,3.9c1.5.9,4.3,1.3,8.4,1.3v3.9h-35.2v-3.9c3.9,0,6.6-.4,8.2-1.2,1.5-.8,2.5-2,2.8-3.6.4-1.6.6-6.7.6-15.2v-20.7c0-8.1-.2-13-.5-14.7-.3-1.7-1.2-3-2.7-3.9-1.5-.9-4.3-1.3-8.4-1.3v-3.9c6.2-.7,12.6-2,19.1-3.9Z"/>
    <path class="st1" d="M534.4,160.6h3.7c-3.9,13.2-13.5,19.8-28.9,19.8s-18.3-3.4-25-10.1c-6.8-6.7-10.2-15.7-10.2-26.8s3.7-20.6,11-27.7c7.3-7.1,15.9-10.6,25.9-10.6s11.5,1.3,16.6,4c5,2.6,7.6,5.9,7.6,9.6s-.5,2.7-1.4,4c-.9,1.2-2.3,1.9-4,1.9-3.7,0-6-2.2-6.9-6.5-.7-3.3-1.7-5.6-3.1-6.9-1.5-1.3-4.3-2-8.6-2-7.6,0-13.3,2.6-17.1,7.9-3.8,5.3-5.7,13.2-5.7,23.8s2.1,19.5,6.2,25.7c4.1,6.2,10.3,9.3,18.7,9.3s18.4-5.1,21.4-15.3Z"/>
    <path class="st1" d="M583.2,164.5l16.1-38.7c2.3-5.7,3.5-8.8,3.5-9.4,0-2.8-3.1-4.3-9.4-4.4v-3.9h24.5v3.9c-3.8.2-6.6,1.2-8.3,3-1.8,1.8-3.9,5.9-6.5,12.2l-31,74.9c-2.9,7.1-5.6,12-7.8,14.6-2.3,2.6-4.8,3.9-7.5,3.9s-5.5-1.7-5.5-5,2.9-7.1,8.8-9.8c3.5-1.5,5.8-2.8,6.9-3.9,1.2-1.1,2.3-3,3.4-5.9l6.6-16.6-26.2-56.1c-2.3-4.9-4.2-8-5.8-9.3-1.5-1.3-4.1-2-7.8-2v-3.9h32v3.9c-5.6.2-8.4,1.3-8.4,3.5s1.1,3.6,3.3,8.3l19.1,40.7Z"/>
    <path class="st1" d="M166.9,136.7h0s-3-.9-3.1-1l-13.4-4.1c-.1,0-3.8-1.3-3.8-1.3-5.6-2.4-8.7-5-8.7-9s3.3-10.2,8.7-12.5c1.4-.7,6.7-2.9,13.5-1.9,0,0,12.6.9,12.1,10.1-.2,2.9,1.5,4.7,2.6,5.9,1.1,1.2,2.7,1.8,4.6,1.8s2.8-.5,4-1.5c1.3-1,2-2.5,2-4.3,0-2.9-1.7-5.8-5.2-8.9-3.2-2.9-7.7-5-13.4-6.3l-3.1-.6c-5-.7-9.5-.7-14.3,0l-3.1.6c-5.4,1.4-9.8,3.7-13.1,6.9-3.3,3.4-5,7.4-5,11.9,0,8.5,5.5,14.9,16.3,19.1.4.2,5.9,2.1,6.8,2.4l10.1,3.5s6.7,2.5,7,2.6h0c5.4,2.4,7.4,5.8,8,10.3,1.8,12.7-12.7,15.5-12.7,15.5-12.1,3.4-19-2-19-2-2.5-1.4-4-4.9-4.9-7.7-1.2-4.5-4.2-5.4-6.5-5.4s-2.9.5-4.1,1.5c-1.2,1.1-1.9,2.5-1.9,4.3,0,2.8,1.9,5.5,5.9,8.4,3.6,2.6,8,4.4,13.3,5.4l3,.4c1.8.2,3.6.3,5.5.3,2.7,0,5.7-.3,8.8-.8l3.1-.6c6.8-1.7,12-4.5,15.4-8.4,3.5-4,5.2-8.4,5.2-13,0-9.9-6.9-17.2-20.4-21.6Z"/>
  </g>
</svg>